<svg width="29" height="27" viewBox="0 0 29 27" fill="none" xmlns="http://www.w3.org/2000/svg">
<path d="M10.4811 13.252H10.4944M18.4811 13.252H18.4944M11.8144 18.5853C12.4811 18.9853 13.4144 19.252 14.4811 19.252C15.5477 19.252 16.4811 18.9853 17.1477 18.5853" stroke="#FF7B22" stroke-width="2" stroke-linecap="round" stroke-linejoin="round"/>
<path d="M23.8144 5.65195C25.0223 7.16618 25.8458 8.95032 26.2144 10.852C26.6652 11.0703 27.0455 11.4113 27.3115 11.8357C27.5776 12.2602 27.7187 12.751 27.7187 13.252C27.7187 13.7529 27.5776 14.2437 27.3115 14.6682C27.0455 15.0927 26.6652 15.4336 26.2144 15.652C25.6388 18.3366 24.1599 20.7427 22.0246 22.4687C19.8893 24.1947 17.2267 25.1362 14.481 25.1362C11.7354 25.1362 9.07276 24.1947 6.93745 22.4687C4.80215 20.7427 3.32331 18.3366 2.7477 15.652C2.29685 15.4336 1.91661 15.0927 1.65056 14.6682C1.38452 14.2437 1.24341 13.7529 1.24341 13.252C1.24341 12.751 1.38452 12.2602 1.65056 11.8357C1.91661 11.4113 2.29685 11.0703 2.7477 10.852C3.30005 8.14596 4.76889 5.71331 6.9064 3.96444C9.04391 2.21557 11.7192 1.25753 14.481 1.25195C17.1477 1.25195 19.1477 2.71862 19.1477 4.58529C19.1477 6.45195 17.9477 7.91862 16.481 7.91862C15.4144 7.91862 14.481 7.38529 14.481 6.58529" stroke="#FF7B22" stroke-width="2" stroke-linecap="round" stroke-linejoin="round"/>
</svg>
