<svg width="52" height="59" viewBox="0 0 52 59" fill="none" xmlns="http://www.w3.org/2000/svg">
<path d="M1.84574 32.2477C2.08083 31.9508 2.17286 31.5641 2.09166 31.1944C0.919286 25.8732 1.32606 20.8596 2.8735 16.4493C10.5264 -5.3656 41.6422 -5.3656 49.2951 16.4493C50.8425 20.8596 51.2493 25.8732 50.0769 31.1944C49.9957 31.5641 50.0877 31.9508 50.3228 32.2477C51.6359 33.9042 52.1363 35.6689 51.6104 37.1885L49.8565 42.257C49.0306 44.645 45.8375 45.9543 41.7443 45.5838C41.5192 45.5637 41.3738 45.3364 41.4473 45.1229L41.7118 44.3589C41.7435 44.2522 41.6677 44.1934 41.5741 44.1702C41.5138 44.1485 41.4473 44.1748 41.414 44.2297C40.9006 45.0835 39.8419 45.4887 38.8651 45.1461C37.7461 44.7533 37.1576 43.5283 37.5497 42.4093L41.7473 30.4505C42.6846 28.0099 46.1971 28.927 45.8994 31.4458C45.8762 31.6012 46.1051 31.6584 46.1569 31.5076C46.5706 30.3121 46.8591 29.0763 46.9975 27.8196C48.521 14.9243 39.8341 3.51844 26.0843 3.64914C11.7483 3.78524 3.64528 14.9235 5.17184 27.8196C5.30872 29.0732 5.5964 30.3059 6.00858 31.4984C6.03101 31.5641 6.09752 31.609 6.1648 31.5943C6.2344 31.5796 6.2777 31.5146 6.2692 31.4458C5.97146 28.927 9.48394 28.0099 10.4212 30.4505L14.6181 42.4093C15.0109 43.5283 14.4224 44.7533 13.3034 45.1461C12.3267 45.4887 11.268 45.0835 10.7545 44.2297C10.7027 44.1462 10.6176 44.1539 10.5388 44.1895C10.4699 44.2143 10.4328 44.2893 10.4568 44.3589L10.7213 45.1229C10.7955 45.3364 10.6493 45.5637 10.4243 45.5838C9.95026 45.6264 9.48858 45.6465 9.04082 45.6449C11.0677 48.7035 14.0636 51.0521 17.5568 52.4C17.9504 52.5523 18.3927 52.4518 18.6928 52.1548C19.4282 51.4264 20.5047 51.0722 21.592 51.308L25.7858 52.2152C27.4948 52.5856 28.5806 54.2707 28.2109 55.9805C27.8413 57.6896 26.1554 58.7761 24.4456 58.4057L20.2526 57.4986C18.9611 57.2186 18.0262 56.1885 17.805 54.9644C17.7393 54.6001 17.4786 54.3032 17.1314 54.174C15.8732 53.7046 14.6575 53.1107 13.5014 52.3953C10.8512 50.7543 8.7021 48.589 7.16472 46.0602C6.93194 45.6774 6.55842 45.3998 6.12613 45.283C4.19744 44.7649 2.81472 43.7116 2.31206 42.257L0.55814 37.1885C0.0322745 35.6689 0.53262 33.9042 1.84574 32.2477Z" fill="white"/>
</svg>
