<svg width="33" height="33" viewBox="0 0 33 33" fill="none" xmlns="http://www.w3.org/2000/svg">
<path d="M23.1478 24.2523C23.855 24.2523 24.5333 24.5332 25.0334 25.0333C25.5335 25.5334 25.8145 26.2117 25.8145 26.9189C25.8145 27.6262 25.5335 28.3045 25.0334 28.8046C24.5333 29.3047 23.855 29.5856 23.1478 29.5856C22.4405 29.5856 21.7623 29.3047 21.2622 28.8046C20.7621 28.3045 20.4811 27.6262 20.4811 26.9189C20.4811 25.4389 21.6678 24.2523 23.1478 24.2523ZM1.81445 2.91895H6.17445L7.42779 5.58561H27.1478C27.5014 5.58561 27.8405 5.72609 28.0906 5.97614C28.3406 6.22618 28.4811 6.56532 28.4811 6.91895C28.4811 7.14561 28.4144 7.37228 28.3211 7.58561L23.5478 16.2123C23.0944 17.0256 22.2145 17.5856 21.2145 17.5856H11.2811L10.0811 19.7589L10.0411 19.9189C10.0411 20.0073 10.0762 20.0921 10.1388 20.1546C10.2013 20.2172 10.286 20.2523 10.3745 20.2523H25.8145V22.9189H9.81445C9.10721 22.9189 8.42893 22.638 7.92883 22.1379C7.42874 21.6378 7.14779 20.9595 7.14779 20.2523C7.14779 19.7856 7.26779 19.3456 7.46779 18.9723L9.28112 15.7056L4.48112 5.58561H1.81445V2.91895ZM9.81445 24.2523C10.5217 24.2523 11.2 24.5332 11.7001 25.0333C12.2002 25.5334 12.4811 26.2117 12.4811 26.9189C12.4811 27.6262 12.2002 28.3045 11.7001 28.8046C11.2 29.3047 10.5217 29.5856 9.81445 29.5856C9.10721 29.5856 8.42893 29.3047 7.92883 28.8046C7.42874 28.3045 7.14779 27.6262 7.14779 26.9189C7.14779 25.4389 8.33445 24.2523 9.81445 24.2523ZM21.8145 14.9189L25.5211 8.25228H8.66779L11.8145 14.9189H21.8145Z" fill="#FF7B22"/>
</svg>
