<svg width="60" height="60" viewBox="0 0 60 60" fill="none" xmlns="http://www.w3.org/2000/svg">
<path fill-rule="evenodd" clip-rule="evenodd" d="M22.8815 15.8731C21.2388 17.5158 19.0109 18.4386 16.6879 18.4386C14.3648 18.4386 12.1369 17.5158 10.4942 15.8731C8.85159 14.2305 7.92876 12.0026 7.92876 9.6795C7.92876 7.35645 8.85159 5.12854 10.4942 3.48589C12.1369 1.84324 14.3648 0.92041 16.6879 0.92041C19.0109 0.92041 21.2388 1.84324 22.8815 3.48589C24.5241 5.12854 25.4469 7.35645 25.4469 9.6795C25.4469 12.0026 24.5241 14.2305 22.8815 15.8731ZM5.79154 21.3583C2.939 21.3583 0.629517 23.6649 0.629517 26.5203V27.5685C0.629517 28.1787 0.629517 31.6823 2.67622 35.0896C4.2733 37.7466 6.9857 40.1319 11.3594 41.2006C11.938 39.6601 12.9728 38.3328 14.3255 37.3958C15.6783 36.4589 17.2846 35.9568 18.9302 35.9568H22.101C20.8569 34.862 19.8608 33.5143 19.1791 32.0039C18.4974 30.4934 18.1457 28.8549 18.1477 27.1977C18.1443 25.1475 18.6832 23.1329 19.7097 21.3583H5.79154ZM39.9432 21.3583C40.9699 23.1329 41.5088 25.1475 41.5053 27.1977C41.5072 28.8549 41.1556 30.4934 40.4739 32.0039C39.7922 33.5143 38.796 34.862 37.552 35.9568H40.7228C42.3684 35.9564 43.975 36.4583 45.3278 37.3953C46.6806 38.3323 47.7153 39.6599 48.2936 41.2006C52.6673 40.1319 55.3797 37.7466 56.9797 35.0896C59.0235 31.6823 59.0235 28.1758 59.0235 27.5714V26.5203C59.0235 23.6678 56.7169 21.3583 53.8614 21.3583H39.9432ZM49.1587 15.8731C50.8014 14.2305 51.7242 12.0026 51.7242 9.6795C51.7242 7.35645 50.8014 5.12854 49.1587 3.48589C47.5161 1.84324 45.2882 0.92041 42.9651 0.92041C40.6421 0.92041 38.4142 1.84324 36.7715 3.48589C35.1289 5.12854 34.206 7.35645 34.206 9.6795C34.206 12.0026 35.1289 14.2305 36.7715 15.8731C38.4142 17.5158 40.6421 18.4386 42.9651 18.4386C45.2882 18.4386 47.5161 17.5158 49.1587 15.8731ZM33.1784 35.29C32.1157 35.7302 30.9767 35.9568 29.8265 35.9568C27.5034 35.9568 25.2755 35.0339 23.6329 33.3913C21.9902 31.7487 21.0674 29.5207 21.0674 27.1977C21.0674 24.8746 21.9902 22.6467 23.6329 21.0041C25.2755 19.3614 27.5034 18.4386 29.8265 18.4386C30.9767 18.4386 32.1157 18.6652 33.1784 19.1053C34.2411 19.5455 35.2067 20.1907 36.0201 21.0041C36.8335 21.8174 37.4786 22.783 37.9188 23.8457C38.359 24.9084 38.5856 26.0474 38.5856 27.1977C38.5856 28.3479 38.359 29.4869 37.9188 30.5496C37.4786 31.6123 36.8335 32.5779 36.0201 33.3913C35.2067 34.2047 34.2411 34.8498 33.1784 35.29Z" fill="white"/>
<path d="M13.7682 44.0385C13.7682 41.183 16.0776 38.8765 18.9302 38.8765H40.7228C43.5753 38.8765 45.8848 41.186 45.8848 44.0385V45.0896C45.8848 45.694 45.8848 49.2005 43.841 52.6078C41.6717 56.2107 37.4557 59.3144 29.8265 59.3144C22.1973 59.3144 17.9784 56.2107 15.8119 52.6078C13.7682 49.2005 13.7682 45.6969 13.7682 45.0867V44.0385Z" fill="white"/>
</svg>
