<svg width="343" height="284" viewBox="0 0 343 284" fill="none" xmlns="http://www.w3.org/2000/svg">
<g clip-path="url(#clip0_939_10802)">
<path d="M308.315 251.511H285.652V251.682H308.315V251.511Z" fill="#EBEBEB"/>
<path d="M227.107 253.372H221.161V253.543H227.107V253.372Z" fill="#EBEBEB"/>
<path d="M284.968 245.162H271.837V245.333H284.968V245.162Z" fill="#EBEBEB"/>
<path d="M65.9156 246.31H36.3623V246.481H65.9156V246.31Z" fill="#EBEBEB"/>
<path d="M76.3438 246.31H72.0125V246.481H76.3438V246.31Z" fill="#EBEBEB"/>
<path d="M154.527 249.196H90.4259V249.367H154.527V249.196Z" fill="#EBEBEB"/>
<path d="M162.636 209.983H30.5188C29.4826 209.983 28.4888 209.571 27.7561 208.838C27.0233 208.106 26.6117 207.112 26.6117 206.076V20.3466C26.6207 19.3163 27.0363 18.3312 27.7681 17.6059C28.4998 16.8805 29.4885 16.4736 30.5188 16.4736H162.636C163.672 16.4736 164.666 16.8853 165.399 17.618C166.131 18.3507 166.543 19.3445 166.543 20.3808V206.076C166.543 207.112 166.131 208.106 165.399 208.838C164.666 209.571 163.672 209.983 162.636 209.983ZM30.5188 16.6105C29.5285 16.6123 28.5793 17.0065 27.879 17.7068C27.1788 18.407 26.7846 19.3562 26.7828 20.3466V206.076C26.7846 207.066 27.1788 208.015 27.879 208.715C28.5793 209.416 29.5285 209.81 30.5188 209.812H162.636C163.626 209.81 164.576 209.416 165.276 208.715C165.976 208.015 166.37 207.066 166.372 206.076V20.3466C166.37 19.3562 165.976 18.407 165.276 17.7068C164.576 17.0065 163.626 16.6123 162.636 16.6105H30.5188Z" fill="#EBEBEB"/>
<path d="M310.649 209.983H178.518C177.482 209.981 176.489 209.569 175.757 208.836C175.025 208.104 174.612 207.111 174.611 206.076V20.3466C174.621 19.3168 175.038 18.3328 175.769 17.6079C176.5 16.8829 177.488 16.4754 178.518 16.4736H310.649C311.677 16.4772 312.662 16.8857 313.39 17.6107C314.119 18.3356 314.533 19.3186 314.542 20.3466V206.076C314.542 207.109 314.132 208.101 313.402 208.833C312.673 209.566 311.682 209.979 310.649 209.983ZM178.518 16.6105C177.527 16.6123 176.578 17.0065 175.878 17.7068C175.178 18.407 174.783 19.3562 174.782 20.3466V206.076C174.783 207.066 175.178 208.015 175.878 208.715C176.578 209.416 177.527 209.81 178.518 209.812H310.649C311.639 209.81 312.588 209.416 313.288 208.715C313.989 208.015 314.383 207.066 314.385 206.076V20.3466C314.383 19.3562 313.989 18.407 313.288 17.7068C312.588 17.0065 311.639 16.6123 310.649 16.6105H178.518Z" fill="#EBEBEB"/>
<path d="M342.597 240.501H0.466064V240.672H342.597V240.501Z" fill="#EBEBEB"/>
<path d="M71.8004 103.244C61.4201 103.278 32.3048 108.034 32.3048 90.4004C32.3048 75.4014 46.5374 76.5099 46.5374 76.5099C46.5374 76.5099 46.1269 63.509 58.7994 61.7915C71.8004 60.0192 73.7642 74.0534 73.7642 74.0534C73.7642 74.0534 96.3448 65.117 92.9235 87.5471C92.9235 87.5471 105.432 85.0563 105.432 95.1492C105.411 106.433 81.8932 103.217 71.8004 103.244Z" fill="#EBEBEB"/>
<path d="M188.686 115.123C182.138 115.123 163.758 118.154 163.758 107.014C163.758 97.551 172.743 98.2421 172.743 98.2421C172.743 98.2421 172.483 90.0309 180.482 88.9566C188.693 87.8345 189.924 96.6957 189.924 96.6957C189.924 96.6957 204.171 91.0573 202.002 105.215C202.002 105.215 209.898 103.641 209.898 110.005C209.898 117.135 195.036 115.102 188.686 115.123Z" fill="#F0F0F0"/>
<path d="M278.776 97.6282C271.297 97.6282 250.324 101.084 250.324 88.377C250.324 77.5725 260.588 78.3663 260.588 78.3663C260.588 78.3663 260.28 69.0124 269.381 67.7944C278.748 66.5217 280.165 76.6283 280.165 76.6283C280.165 76.6283 296.416 70.1894 293.946 86.3516C293.946 86.3516 302.958 84.552 302.958 91.8257C302.985 99.9547 286.022 97.6077 278.776 97.6282Z" fill="#F5F5F5"/>
<path d="M96.4064 239.987C96.4064 240.259 96.5145 240.52 96.707 240.712C96.8995 240.905 97.1605 241.013 97.4327 241.013C103.153 241.013 107.827 230.79 109.065 216.633H113.944V239.152C113.808 239.245 113.697 239.369 113.621 239.515C113.545 239.66 113.505 239.822 113.506 239.987C113.505 240.171 113.554 240.351 113.647 240.51C113.74 240.669 113.874 240.8 114.035 240.889C114.196 240.978 114.378 241.022 114.561 241.017C114.745 241.012 114.924 240.957 115.08 240.859C115.236 240.761 115.362 240.623 115.446 240.459C115.53 240.295 115.568 240.112 115.557 239.929C115.546 239.745 115.485 239.568 115.382 239.415C115.279 239.263 115.137 239.141 114.97 239.063V216.633H119.842C121.115 230.79 125.789 241.013 131.516 241.013C131.713 241.014 131.906 240.958 132.072 240.852C132.238 240.746 132.37 240.594 132.452 240.415C132.534 240.236 132.563 240.037 132.536 239.842C132.508 239.647 132.424 239.464 132.295 239.315C132.167 239.166 131.997 239.057 131.808 239.002C131.619 238.946 131.418 238.946 131.229 239.002C131.04 239.058 130.871 239.167 130.743 239.316C130.614 239.465 130.531 239.648 130.503 239.843C124.995 238.338 120.527 224.734 120.527 208.798C120.527 191.89 125.556 177.609 131.516 177.609V176.59C125.665 176.59 120.917 187.257 119.767 201.908H114.977V179.142H113.951V201.908H109.161C108.011 187.278 103.263 176.59 97.4191 176.59V177.616C103.372 177.616 108.408 191.897 108.408 208.805C108.408 224.741 103.933 238.344 98.4318 239.85C98.4127 239.578 98.2863 239.324 98.0803 239.145C97.8744 238.966 97.6057 238.876 97.3335 238.895C97.0613 238.914 96.8078 239.041 96.6288 239.247C96.4498 239.453 96.3599 239.721 96.379 239.993L96.4064 239.987ZM115.005 215.593V202.907H119.726C119.603 204.809 119.534 206.779 119.534 208.798C119.534 211.147 119.621 213.417 119.794 215.606L115.005 215.593ZM109.188 215.593C109.353 213.403 109.448 211.131 109.448 208.784C109.448 206.766 109.38 204.795 109.25 202.893H113.978V215.593H109.188Z" fill="#E0E0E0"/>
<path d="M73.4699 179.998H155.499C156.278 179.998 156.909 179.367 156.909 178.588V177.316C156.909 176.537 156.278 175.906 155.499 175.906H73.4699C72.6914 175.906 72.0603 176.537 72.0603 177.316V178.588C72.0603 179.367 72.6914 179.998 73.4699 179.998Z" fill="#EBEBEB"/>
<path d="M38.381 162.057L48.4054 198.535H66.0936L60.4621 161.537C60.1912 159.736 59.2819 158.093 57.9001 156.907C56.5182 155.721 54.7561 155.072 52.9352 155.077H43.6635C42.816 155.075 41.9794 155.269 41.2198 155.645C40.4602 156.021 39.7983 156.568 39.2862 157.244C38.7741 157.919 38.4257 158.704 38.2687 159.537C38.1116 160.37 38.15 161.227 38.381 162.043V162.057ZM64.8961 197.508H57.8072L49.3497 156.117H52.9284C54.5058 156.11 56.0331 156.671 57.2306 157.697C58.4282 158.724 59.2159 160.148 59.4494 161.708L64.8961 197.508ZM40.1122 157.883C40.5254 157.332 41.0617 156.885 41.6784 156.579C42.295 156.272 42.9749 156.114 43.6635 156.117H48.3028L56.7603 197.508H49.1923L39.3732 161.783C39.1827 161.12 39.1503 160.422 39.2786 159.745C39.407 159.067 39.6925 158.43 40.1122 157.883Z" fill="#E0E0E0"/>
<path d="M48.9939 200.765H83.8433C84.8636 200.765 85.6908 199.937 85.6908 198.917V198.281C85.6908 197.26 84.8636 196.433 83.8433 196.433H48.9939C47.9735 196.433 47.1464 197.26 47.1464 198.281V198.917C47.1464 199.937 47.9735 200.765 48.9939 200.765Z" fill="#EBEBEB"/>
<path d="M43.1434 239.036L48.5354 204.303C48.7115 203.175 49.2846 202.147 50.1515 201.404C51.0184 200.662 52.1221 200.253 53.2636 200.252H57.1502C58.2929 200.251 59.3982 200.659 60.2665 201.402C61.1349 202.145 61.709 203.174 61.8853 204.303L67.2773 239.036C67.4888 239.103 67.6724 239.238 67.7998 239.42C67.9273 239.601 67.9915 239.82 67.9826 240.042C67.9737 240.263 67.8921 240.476 67.7505 240.647C67.609 240.818 67.4151 240.938 67.1989 240.988C66.9826 241.038 66.756 241.015 66.5537 240.924C66.3514 240.833 66.1848 240.677 66.0794 240.482C65.974 240.287 65.9357 240.062 65.9704 239.843C66.0051 239.624 66.1109 239.422 66.2714 239.269L60.8726 204.46C60.7365 203.572 60.2857 202.762 59.6025 202.178C58.9193 201.594 58.049 201.275 57.1502 201.278H53.2636C52.3656 201.275 51.4962 201.594 50.8141 202.178C50.132 202.762 49.6827 203.572 49.5481 204.46L44.1424 239.269C44.3035 239.422 44.4098 239.624 44.4449 239.843C44.4799 240.063 44.4418 240.287 44.3363 240.483C44.2308 240.679 44.0639 240.834 43.8613 240.926C43.6587 241.017 43.4316 241.039 43.2151 240.989C42.9987 240.939 42.8048 240.818 42.6634 240.647C42.522 240.475 42.441 240.262 42.4328 240.04C42.4247 239.818 42.4898 239.599 42.6182 239.418C42.7466 239.236 42.9312 239.102 43.1434 239.036Z" fill="#E0E0E0"/>
<path d="M62.5833 239.036L67.9753 204.303C68.1514 203.175 68.7246 202.147 69.5915 201.404C70.4584 200.662 71.562 200.253 72.7035 200.252H76.5901C77.7329 200.251 78.8382 200.659 79.7065 201.402C80.5748 202.145 81.1489 203.174 81.3252 204.303L86.7172 239.036C86.9288 239.103 87.1124 239.238 87.2398 239.42C87.3672 239.601 87.4314 239.82 87.4225 240.042C87.4136 240.263 87.3321 240.476 87.1905 240.647C87.0489 240.818 86.8551 240.938 86.6388 240.988C86.4226 241.038 86.1959 241.015 85.9936 240.924C85.7914 240.833 85.6247 240.677 85.5193 240.482C85.414 240.287 85.3757 240.062 85.4104 239.843C85.4451 239.624 85.5508 239.422 85.7114 239.269L80.3125 204.46C80.1764 203.572 79.7257 202.762 79.0425 202.178C78.3592 201.594 77.489 201.275 76.5901 201.278H72.7035C71.8055 201.275 70.9362 201.594 70.2541 202.178C69.572 202.762 69.1226 203.572 68.988 204.46L63.5823 239.269C63.7435 239.422 63.8498 239.624 63.8848 239.843C63.9199 240.063 63.8817 240.287 63.7763 240.483C63.6708 240.679 63.5039 240.834 63.3013 240.926C63.0986 241.017 62.8716 241.039 62.6551 240.989C62.4386 240.939 62.2447 240.818 62.1033 240.647C61.9619 240.475 61.8809 240.262 61.8728 240.04C61.8646 239.818 61.9297 239.599 62.0582 239.418C62.1866 239.236 62.3711 239.102 62.5833 239.036Z" fill="#E0E0E0"/>
<path d="M228.004 212.366C228.004 212.366 214.784 200.959 226.731 203.313C226.731 203.313 221.483 196.614 222.748 193.535C224.014 190.456 229.269 195.711 229.269 195.711C229.269 195.711 223.652 185.392 226.532 183.579C229.413 181.765 232.506 188.827 232.506 188.827C232.506 188.827 229.249 177.42 232.506 176.51C235.763 175.6 237.939 183.387 237.939 183.387C237.939 183.387 236.31 172.891 239.027 172.891C241.743 172.891 242.695 180.698 242.695 180.698C242.695 180.698 244.323 172.186 246.862 172.911C249.4 173.636 247.765 182.867 247.765 182.867C247.765 182.867 252.651 176.168 254.827 177.619C257.003 179.069 252.09 185.946 252.09 185.946C252.09 185.946 258.063 182.326 259.876 184.318C261.69 186.309 255.011 190.278 255.011 190.278C255.011 190.278 260.992 187.924 261.895 190.278C262.798 192.631 256.284 196.436 256.284 196.436C256.284 196.436 260.978 193.535 261.977 196.251C262.976 198.968 255.196 202.225 255.196 202.225C255.196 202.225 261.703 200.418 262.039 202.772C262.374 205.126 255.347 206.755 255.347 206.755C255.347 206.755 260.964 206.419 261.32 208.383C261.676 210.347 255.347 212.366 255.347 212.366H228.004Z" fill="#F0F0F0"/>
<path d="M235.784 197.16C235.784 197.16 230.173 195.107 232.711 192.61C235.25 190.112 235.784 197.16 235.784 197.16Z" fill="#E0E0E0"/>
<path d="M246.287 191.002C246.287 191.002 245.486 183.386 249.366 183.755C253.246 184.125 246.287 191.002 246.287 191.002Z" fill="#E0E0E0"/>
<path d="M244.747 206.212C244.747 206.212 250.906 198.473 253.691 202.223C256.476 205.973 244.747 206.212 244.747 206.212Z" fill="#E6E6E6"/>
<path d="M240.69 202.004C240.69 202.004 233.525 198.76 233.888 202.195C234.251 205.63 240.69 202.004 240.69 202.004Z" fill="#E6E6E6"/>
<path d="M262.764 212.363C262.764 212.363 249.544 200.956 261.498 203.31C261.498 203.31 256.25 196.611 257.516 193.532C258.782 190.453 264.03 195.708 264.03 195.708C264.03 195.708 258.419 185.389 261.293 183.576C264.167 181.762 267.273 188.824 267.273 188.824C267.273 188.824 264.009 177.417 267.273 176.507C270.537 175.597 272.706 183.384 272.706 183.384C272.706 183.384 271.071 172.888 273.787 172.888C276.504 172.888 277.414 180.674 277.414 180.674C277.414 180.674 279.043 172.162 281.574 172.888C284.106 173.613 282.478 182.844 282.478 182.844C282.478 182.844 287.37 176.145 289.539 177.595C291.708 179.046 286.802 185.923 286.802 185.923C286.802 185.923 292.776 182.303 294.582 184.294C296.389 186.285 289.697 190.268 289.697 190.268C289.697 190.268 295.67 187.914 296.573 190.268C297.477 192.622 290.962 196.426 290.962 196.426C290.962 196.426 295.663 193.525 296.662 196.241C297.661 198.958 289.874 202.215 289.874 202.215C289.874 202.215 296.382 200.409 296.751 202.762C297.121 205.116 290.059 206.745 290.059 206.745C290.059 206.745 295.67 206.41 296.033 208.373C296.395 210.337 290.059 212.356 290.059 212.356L262.764 212.363Z" fill="#EBEBEB"/>
<path d="M270.551 197.16C270.551 197.16 264.94 195.107 267.472 192.61C270.003 190.112 270.551 197.16 270.551 197.16Z" fill="#E0E0E0"/>
<path d="M281.054 191.002C281.054 191.002 280.254 183.386 284.133 183.755C288.013 184.125 281.054 191.002 281.054 191.002Z" fill="#E0E0E0"/>
<path d="M279.535 206.212C279.535 206.212 285.694 198.473 288.478 202.223C291.263 205.973 279.535 206.212 279.535 206.212Z" fill="#F5F5F5"/>
<path d="M275.457 202.004C275.457 202.004 268.293 198.76 268.655 202.195C269.018 205.63 275.457 202.004 275.457 202.004Z" fill="#F5F5F5"/>
<path d="M194.865 212.366C194.865 212.366 181.645 200.959 193.599 203.313C193.599 203.313 188.344 196.614 189.616 193.535C190.889 190.456 196.13 195.711 196.13 195.711C196.13 195.711 190.52 185.392 193.393 183.579C196.267 181.765 199.374 188.827 199.374 188.827C199.374 188.827 196.11 177.42 199.374 176.51C202.638 175.6 204.8 183.387 204.8 183.387C204.8 183.387 203.171 172.891 205.888 172.891C208.605 172.891 209.528 180.698 209.528 180.698C209.528 180.698 211.164 172.186 213.695 172.911C216.227 173.636 214.599 182.867 214.599 182.867C214.599 182.867 219.491 176.168 221.66 177.619C223.829 179.069 218.923 185.946 218.923 185.946C218.923 185.946 224.904 182.326 226.71 184.318C228.517 186.309 221.824 190.291 221.824 190.291C221.824 190.291 227.798 187.937 228.701 190.291C229.604 192.645 223.09 196.45 223.09 196.45C223.09 196.45 227.791 193.548 228.79 196.265C229.789 198.981 222.002 202.238 222.002 202.238C222.002 202.238 228.51 200.432 228.845 202.786C229.18 205.14 222.153 206.768 222.153 206.768C222.153 206.768 227.764 206.433 228.126 208.397C228.489 210.361 222.153 212.379 222.153 212.379L194.865 212.366Z" fill="#F5F5F5"/>
<path d="M202.652 197.16C202.652 197.16 197.041 195.107 199.572 192.61C202.104 190.112 202.652 197.16 202.652 197.16Z" fill="#E0E0E0"/>
<path d="M213.155 191.002C213.155 191.002 212.354 183.386 216.234 183.755C220.114 184.125 213.155 191.002 213.155 191.002Z" fill="#E0E0E0"/>
<path d="M211.636 206.212C211.636 206.212 217.794 198.473 220.579 202.223C223.364 205.973 211.636 206.212 211.636 206.212Z" fill="#EBEBEB"/>
<path d="M207.558 202.004C207.558 202.004 200.394 198.76 200.756 202.195C201.119 205.63 207.558 202.004 207.558 202.004Z" fill="#EBEBEB"/>
<path d="M189.726 213.289H296.813V239.291C296.813 239.748 296.631 240.187 296.308 240.51C295.984 240.834 295.546 241.015 295.088 241.015H191.45C190.993 241.015 190.554 240.834 190.231 240.51C189.908 240.187 189.726 239.748 189.726 239.291V213.289Z" fill="#F5F5F5"/>
<path d="M298.407 210.455H188.138C187.417 210.455 186.832 211.04 186.832 211.762V214.8C186.832 215.522 187.417 216.107 188.138 216.107H298.407C299.129 216.107 299.714 215.522 299.714 214.8V211.762C299.714 211.04 299.129 210.455 298.407 210.455Z" fill="#E6E6E6"/>
<path d="M168.233 268.77C241.506 268.77 300.905 265.302 300.905 261.024C300.905 256.746 241.506 253.278 168.233 253.278C94.9608 253.278 35.5618 256.746 35.5618 261.024C35.5618 265.302 94.9608 268.77 168.233 268.77Z" fill="#F5F5F5"/>
<path d="M253.266 243.802L253.95 252.745C253.965 252.932 253.927 253.12 253.841 253.286C253.755 253.453 253.625 253.593 253.465 253.69C252.413 254.343 251.328 254.942 250.214 255.482C248.891 255.929 247.546 256.308 246.184 256.618C245.963 256.672 245.767 256.798 245.627 256.977C245.487 257.156 245.411 257.377 245.411 257.604C245.413 257.873 245.521 258.13 245.712 258.32C245.903 258.51 246.161 258.616 246.43 258.616H259.664C259.929 258.617 260.183 258.514 260.373 258.33C260.563 258.146 260.675 257.895 260.684 257.631L261.08 244.048C261.086 243.784 260.989 243.527 260.809 243.333C260.629 243.139 260.38 243.023 260.116 243.008L254.327 242.714C254.183 242.707 254.04 242.73 253.906 242.783C253.772 242.835 253.651 242.916 253.551 243.019C253.451 243.122 253.373 243.245 253.324 243.38C253.275 243.515 253.255 243.659 253.266 243.802Z" fill="#263238"/>
<path d="M260.075 244.834H254.635C254.337 244.834 254.041 244.775 253.766 244.66C253.491 244.545 253.241 244.377 253.031 244.165C252.821 243.953 252.655 243.702 252.543 243.426C252.431 243.149 252.374 242.854 252.377 242.555C252.377 242.555 252.377 222.212 252.849 205.092C253.65 177.544 259.849 151.788 259.849 151.788H274.047C274.047 151.788 274.082 173.684 266.117 202.369C265.718 203.796 265.518 205.272 265.521 206.755C265.521 211.983 264.666 226.065 262.305 242.897C262.231 243.436 261.964 243.928 261.554 244.284C261.143 244.64 260.618 244.836 260.075 244.834Z" fill="#6ABC35"/>
<path opacity="0.2" d="M270.352 163.469C266.996 174.454 266.001 186.025 267.431 197.422C269.666 188.608 271.375 179.67 272.549 170.653L270.352 163.469Z" fill="black"/>
<path d="M276.538 243.8L277.222 252.744C277.237 252.931 277.199 253.118 277.113 253.285C277.027 253.451 276.897 253.591 276.736 253.688C275.683 254.342 274.595 254.94 273.479 255.481C272.156 255.938 270.811 256.329 269.449 256.651C269.227 256.703 269.029 256.829 268.888 257.008C268.746 257.187 268.669 257.408 268.669 257.636C268.671 257.905 268.779 258.163 268.97 258.353C269.161 258.542 269.419 258.649 269.689 258.649H282.943C283.207 258.649 283.46 258.546 283.649 258.362C283.838 258.178 283.948 257.927 283.955 257.664L284.352 244.081C284.36 243.816 284.263 243.558 284.082 243.364C283.902 243.169 283.652 243.053 283.387 243.041L277.605 242.747C277.464 242.739 277.323 242.761 277.191 242.811C277.059 242.861 276.939 242.938 276.838 243.037C276.738 243.136 276.659 243.256 276.607 243.387C276.556 243.518 276.532 243.659 276.538 243.8Z" fill="#263238"/>
<path d="M266.199 150.181C266.199 150.181 270.003 192.79 271.42 206.974C272.323 216.013 275.313 243.096 275.313 243.096C275.391 243.767 275.713 244.384 276.218 244.831C276.723 245.278 277.376 245.523 278.05 245.519H282.58C283.3 245.528 283.995 245.253 284.514 244.754C285.033 244.254 285.333 243.57 285.351 242.85C285.605 235.884 285.413 217.314 284.496 204.922C283.812 195.492 285.83 179.946 286.179 167.287C286.528 154.628 282.074 151.036 282.074 151.036L266.199 150.181Z" fill="#6ABC35"/>
<path d="M278.632 106.731C277.948 106.615 277.263 106.519 276.668 106.444C276.464 106.42 276.268 106.352 276.093 106.244C275.918 106.137 275.769 105.992 275.655 105.821C274.157 103.481 274.287 98.903 274.567 96.2412L269.271 101.647C269.757 103.118 270.051 104.658 269.333 105.869C269.245 106.009 269.127 106.129 268.987 106.219C268.848 106.309 268.69 106.367 268.525 106.389C267.788 106.479 267.062 106.642 266.356 106.875L265.494 108.407C265.494 108.407 265.001 110.754 265.001 110.85C265.001 110.946 267.253 113.628 267.253 113.628L272.802 114.087C272.802 114.087 286.898 108.168 278.632 106.731Z" fill="#FFB573"/>
<path opacity="0.2" d="M272.398 98.458L269.244 101.654C269.434 102.186 269.58 102.733 269.682 103.289C270.941 102.988 272.782 101.674 272.802 100.319C272.775 99.6802 272.639 99.0506 272.398 98.458Z" fill="black"/>
<path d="M278.009 91.4568C276.723 96.3561 276.292 98.4568 273.288 100.503C268.772 103.589 263.024 100.948 262.826 95.7676C262.634 91.1078 264.755 83.882 269.997 82.8625C271.151 82.6336 272.345 82.7032 273.464 83.0648C274.584 83.4264 275.593 84.068 276.396 84.9287C277.198 85.7894 277.768 86.8409 278.05 87.9833C278.332 89.1257 278.318 90.3213 278.009 91.4568Z" fill="#FFB573"/>
<path d="M278.406 95.6049C278.182 96.0344 277.875 96.4151 277.502 96.7252C277.13 97.0352 276.7 97.2685 276.237 97.4114C274.992 97.7877 274.348 96.686 274.67 95.4954C274.957 94.4348 275.956 92.95 277.216 93.0937C277.654 93.158 278.05 93.3936 278.315 93.7488C278.581 94.1041 278.695 94.55 278.632 94.9891C278.599 95.2076 278.522 95.4171 278.406 95.6049Z" fill="#FFB573"/>
<path d="M266.739 91.3955C266.198 92.2457 265.542 93.0171 264.789 93.6878C264.963 93.8751 265.175 94.0223 265.412 94.1192C265.648 94.2161 265.903 94.2604 266.158 94.2489L266.739 91.3955Z" fill="#ED893E"/>
<path d="M271.358 89.6313C271.392 89.6392 271.427 89.6392 271.461 89.6313C271.484 89.6186 271.505 89.6013 271.521 89.5803C271.537 89.5593 271.549 89.5352 271.555 89.5095C271.562 89.4837 271.563 89.457 271.558 89.4308C271.554 89.4047 271.544 89.3797 271.529 89.3576C271.342 89.0299 271.08 88.752 270.763 88.5472C270.446 88.3423 270.085 88.2166 269.709 88.1807C269.656 88.1823 269.606 88.2035 269.568 88.2402C269.53 88.2769 269.507 88.3264 269.504 88.3791C269.504 88.4313 269.524 88.4815 269.559 88.5196C269.595 88.5578 269.643 88.5809 269.695 88.5844C270.005 88.6183 270.301 88.7254 270.56 88.8968C270.82 89.0681 271.035 89.2988 271.187 89.5697C271.209 89.5924 271.236 89.6098 271.266 89.6205C271.295 89.6312 271.327 89.6349 271.358 89.6313Z" fill="#263238"/>
<path d="M263.907 88.1131C263.943 88.1102 263.978 88.0985 264.009 88.0789C264.276 87.9226 264.576 87.8307 264.885 87.8105C265.194 87.7903 265.503 87.8424 265.788 87.9626C265.811 87.9757 265.837 87.9839 265.864 87.9869C265.89 87.9898 265.917 87.9874 265.943 87.9797C265.968 87.972 265.992 87.9593 266.012 87.9422C266.033 87.9252 266.05 87.9042 266.062 87.8805C266.084 87.832 266.087 87.777 266.071 87.7262C266.054 87.6755 266.019 87.6328 265.973 87.6068C265.628 87.4554 265.253 87.3877 264.877 87.4091C264.501 87.4305 264.136 87.5405 263.811 87.7299C263.763 87.7548 263.727 87.7974 263.71 87.8486C263.694 87.8998 263.698 87.9555 263.722 88.0036C263.739 88.0372 263.766 88.0651 263.799 88.0845C263.831 88.1038 263.869 88.1137 263.907 88.1131Z" fill="#263238"/>
<path d="M269.716 91.2864C269.641 91.6901 269.36 91.9706 269.093 91.9228C268.826 91.8749 268.683 91.5054 268.765 91.1016C268.847 90.6979 269.121 90.4174 269.381 90.4653C269.641 90.5132 269.798 90.8827 269.716 91.2864Z" fill="#263238"/>
<path d="M265.152 90.3772C265.077 90.7809 264.796 91.0615 264.536 91.0136C264.276 90.9657 264.126 90.5962 264.201 90.1925C264.276 89.7887 264.557 89.5082 264.817 89.5561C265.077 89.604 265.234 89.9872 265.152 90.3772Z" fill="#263238"/>
<path d="M264.933 89.6118L264.016 89.1465C264.016 89.1465 264.365 90.0018 264.933 89.6118Z" fill="#263238"/>
<path d="M269.497 90.5053L268.58 90.04C268.58 90.04 268.929 90.8954 269.497 90.5053Z" fill="#263238"/>
<path d="M269.435 85.1764C269.435 85.1764 270.564 87.4687 272.658 88.1119C274.752 88.7551 274.56 93.9487 275.915 94.2703C277.085 94.5303 279.987 92.2791 278.652 87.7629C278.432 87.0503 278.028 86.4079 277.482 85.9C276.936 85.3921 276.266 85.0364 275.539 84.8685L269.955 83.5L269.435 85.1764Z" fill="#263238"/>
<path opacity="0.2" d="M269.435 85.1764C269.435 85.1764 270.564 87.4687 272.658 88.1119C274.752 88.7551 274.56 93.9487 275.915 94.2703C277.085 94.5303 279.987 92.2791 278.652 87.7629C278.432 87.0503 278.028 86.4079 277.482 85.9C276.936 85.3921 276.266 85.0364 275.539 84.8685L269.955 83.5L269.435 85.1764Z" fill="white"/>
<path d="M277.386 84.7521C277.446 84.8684 277.471 84.9994 277.459 85.1296C277.447 85.2598 277.397 85.3837 277.316 85.4867C277.236 85.5896 277.127 85.6673 277.004 85.7105C276.881 85.7538 276.747 85.7607 276.62 85.7306C275.033 85.2858 272.254 84.8342 269.983 86.1617C267.075 87.8586 263.339 83.9857 261.642 86.757C261.608 86.8069 261.559 86.8438 261.502 86.8615C261.444 86.8791 261.383 86.8765 261.327 86.8539C261.272 86.8314 261.226 86.7904 261.197 86.7378C261.168 86.6852 261.158 86.6243 261.169 86.5654C261.642 84.1089 263.311 80.4618 269.038 80.9202C274.471 81.3513 276.579 83.3494 277.386 84.7521Z" fill="#263238"/>
<path d="M265.563 95.6449C267.167 95.4254 268.79 95.359 270.407 95.4465C269.976 96.5139 269.175 97.3624 267.348 97.3282C266.909 97.3603 266.476 97.2169 266.142 96.9296C265.809 96.6423 265.603 96.2344 265.569 95.7955C265.564 95.7455 265.561 95.6952 265.563 95.6449Z" fill="#263238"/>
<path d="M268.21 96.4864C267.508 96.4322 266.806 96.6023 266.206 96.9723C266.542 97.1956 266.937 97.3146 267.341 97.3144C268.042 97.3695 268.742 97.1993 269.339 96.8286C269.011 96.5942 268.614 96.474 268.21 96.4864Z" fill="#A02724"/>
<path d="M265.727 95.6182C265.76 95.7496 265.829 95.8693 265.925 95.9645C266.022 96.0598 266.142 96.1269 266.274 96.1588C267.332 96.1774 268.39 96.1065 269.435 95.9467C269.603 95.9336 269.764 95.8801 269.906 95.7907C270.048 95.7013 270.166 95.5787 270.25 95.4335C268.74 95.3785 267.227 95.4403 265.727 95.6182Z" fill="white"/>
<path d="M277.592 96.6661C277.478 96.7566 277.359 96.8411 277.236 96.9193C277.307 97.042 277.344 97.1813 277.344 97.323C277.344 97.4647 277.307 97.604 277.236 97.7267C277.209 97.7812 277.17 97.8295 277.124 97.8686C277.077 97.9077 277.023 97.9368 276.965 97.9541C276.906 97.9715 276.845 97.9766 276.784 97.9693C276.724 97.9619 276.666 97.9422 276.613 97.9115C276.175 97.6377 276.285 96.7414 276.839 96.7003C277.126 96.7003 277.126 96.235 276.839 96.2555C276.613 96.2889 276.403 96.3903 276.236 96.5462C276.07 96.7021 275.955 96.905 275.906 97.128C275.858 97.3511 275.879 97.5835 275.966 97.7944C276.053 98.0052 276.203 98.1845 276.394 98.3083C276.578 98.4196 276.797 98.4587 277.008 98.4183C277.219 98.3779 277.407 98.2607 277.537 98.0894C277.679 97.8919 277.761 97.6573 277.771 97.4143C277.782 97.1712 277.722 96.9303 277.599 96.7208L277.592 96.6661Z" fill="#263238"/>
<path d="M285.235 109.982C283.572 107.361 280.527 106.561 277.489 106.308C277.4 108.395 275.17 110.071 272.426 110.071C269.682 110.071 267.52 108.449 267.362 106.41C263.257 106.896 258.939 108.463 258.002 113.301C256.537 120.93 258.761 153.296 258.761 153.296H284.435C284.435 153.296 284.695 142.97 285.447 132.241C286.097 123.024 287.466 113.506 285.235 109.982Z" fill="#6ABC35"/>
<path opacity="0.8" d="M285.235 109.982C283.572 107.361 280.527 106.561 277.489 106.308C277.4 108.395 275.17 110.071 272.426 110.071C269.682 110.071 267.52 108.449 267.362 106.41C263.257 106.896 258.939 108.463 258.002 113.301C256.537 120.93 258.761 153.296 258.761 153.296H284.435C284.435 153.296 284.695 142.97 285.447 132.241C286.097 123.024 287.466 113.506 285.235 109.982Z" fill="white"/>
<path d="M234.483 130.823L230.275 131.686C230.039 131.734 229.794 131.715 229.568 131.632C229.342 131.548 229.144 131.404 228.996 131.213L227.504 129.291C227.351 129.09 227.141 128.94 226.902 128.86L224.931 128.175C224.666 128.085 224.379 128.083 224.113 128.17C223.846 128.256 223.615 128.426 223.453 128.654L222.235 130.379C222.044 130.647 221.964 130.978 222.009 131.304C222.055 131.629 222.224 131.925 222.481 132.13L226.053 135.018C226.285 135.203 226.571 135.304 226.868 135.305H229.461L235.989 134.71L234.483 130.823Z" fill="#FFB573"/>
<path d="M261.354 108.305C261.354 108.305 255.586 111.309 248.791 125.843L231.507 130.988L232.307 135.853C232.307 135.853 248.497 134.327 252.151 132.617C255.805 130.906 262.853 113.382 262.853 113.382C262.853 113.382 263.222 106.916 261.354 108.305Z" fill="#263238"/>
<path d="M232.862 129.812L233.69 136.428L232.041 136.456L231.172 130.263L232.862 129.812Z" fill="#263238"/>
<path opacity="0.7" d="M232.862 129.812L233.69 136.428L232.041 136.456L231.172 130.263L232.862 129.812Z" fill="black"/>
<path opacity="0.2" d="M262.456 114.326C262.326 113.84 261.984 113.682 261.354 113.99C257.803 115.742 255.819 125.233 255.127 129.236C258.049 124.699 261.341 117.021 262.456 114.326Z" fill="black"/>
<path d="M266.404 106.546C262.607 107.148 258.877 108.811 258.002 113.3C256.537 120.929 258.761 153.295 258.761 153.295H267.328L266.404 106.546Z" fill="#263238"/>
<path d="M278.611 106.431C278.611 106.431 275.874 121.984 275.19 131.714C274.595 139.816 273.534 153.296 273.534 153.296H284.434C284.434 153.296 284.694 142.97 285.447 132.241C286.097 123.024 287.466 113.506 285.235 109.982C283.75 107.683 281.253 106.8 278.611 106.431Z" fill="#263238"/>
<path d="M265.296 129.571L262.203 130.303L259.089 129.673L259.007 124.459L265.214 124.356L265.296 129.571Z" fill="#263238"/>
<path d="M285.037 129.744L281.909 130.332L278.83 129.552L278.995 124.338L285.201 124.536L285.037 129.744Z" fill="#263238"/>
<path opacity="0.3" d="M265.296 129.571L262.203 130.303L259.089 129.673L259.007 124.459L265.214 124.356L265.296 129.571Z" fill="black"/>
<path opacity="0.3" d="M283.182 130.104L280.028 130.508L276.997 129.543L277.469 124.35L283.648 124.911L283.182 130.104Z" fill="black"/>
<path opacity="0.7" d="M265.296 138.439L266.199 139.692L260.362 144.481L259.007 143.339L265.296 138.439Z" fill="black"/>
<path opacity="0.7" d="M276.593 138.439L275.696 139.692L281.533 143.797L282.888 142.654L276.593 138.439Z" fill="black"/>
<path d="M266.404 106.546C265.548 106.679 264.704 106.878 263.879 107.141L261.354 117.604L264.666 117.152L266.644 118.52L266.404 106.546Z" fill="#263238"/>
<path d="M278.002 118.61L280.445 117.138L283.066 117.747L281.088 106.95C280.288 106.702 279.469 106.521 278.639 106.409L278.002 118.61Z" fill="#263238"/>
<path opacity="0.7" d="M266.404 106.546C265.548 106.679 264.704 106.878 263.879 107.141L261.354 117.604L264.666 117.152L266.644 118.52L266.404 106.546Z" fill="black"/>
<path opacity="0.7" d="M276.723 118.432L279.022 117.138L282.101 118.616L280.568 106.799C279.926 106.623 279.272 106.493 278.611 106.409C278.611 106.409 277.653 111.924 276.723 118.432Z" fill="black"/>
<path d="M280.459 142.751L276.477 145.119L272.179 145.878C271.887 145.929 271.608 146.043 271.364 146.212C271.119 146.381 270.914 146.601 270.763 146.857L269.956 148.191C269.692 148.615 269.593 149.121 269.676 149.614C269.759 150.106 270.019 150.552 270.407 150.866L271.091 151.421C271.439 151.715 271.874 151.885 272.328 151.905C272.783 151.924 273.231 151.793 273.603 151.53L275.327 150.346C275.436 150.273 275.55 150.209 275.669 150.155L277.373 149.409C277.742 149.246 278.055 148.98 278.276 148.642L278.721 147.958L282.909 145.762L280.459 142.751Z" fill="#FFB573"/>
<path d="M283.435 108.114C283.435 108.114 287.958 110.166 291.947 119.554C295.937 128.943 298.448 135.929 295.027 138.433C291.605 140.938 282.026 147.329 282.026 147.329L278.947 142.826L289.58 133.643L284.222 122.75C284.222 122.75 281.198 107.32 283.435 108.114Z" fill="#263238"/>
<path d="M279.166 141.758L282.888 147.574L281.458 148.518L277.859 142.75L279.166 141.758Z" fill="#263238"/>
<path opacity="0.7" d="M279.166 141.758L282.888 147.574L281.458 148.518L277.859 142.75L279.166 141.758Z" fill="black"/>
<path d="M265.542 125.102L262.134 125.841L258.699 125.212L258.672 123.563L265.514 123.453L265.542 125.102Z" fill="#263238"/>
<path d="M285.495 125.296L282.053 125.871L278.652 125.077L278.707 123.428L285.543 123.647L285.495 125.296Z" fill="#263238"/>
<path opacity="0.7" d="M265.542 125.102L262.134 125.841L258.699 125.212L258.672 123.563L265.514 123.453L265.542 125.102Z" fill="black"/>
<path opacity="0.7" d="M283.901 125.686L280.431 126.062L277.085 125.07L277.229 123.428L284.044 124.044L283.901 125.686Z" fill="black"/>
<path opacity="0.2" d="M286.33 120.848C286.234 122.572 286.083 124.399 285.926 126.274L287.849 130.174C288.026 126.992 287.507 123.809 286.33 120.848Z" fill="black"/>
<path d="M83.0906 243.334L84.1717 253.543H89.5363V243.334H83.0906Z" fill="#CE7A63"/>
<path d="M90.0632 252.858C90.0368 252.851 90.0126 252.837 89.9933 252.818C89.9741 252.799 89.9604 252.775 89.9537 252.748C89.9475 252.722 89.9501 252.694 89.9613 252.669C89.9724 252.645 89.9914 252.624 90.0153 252.611C90.0974 252.563 92.0271 251.441 92.9577 251.688C93.1281 251.731 93.2752 251.839 93.3682 251.989C93.4284 252.072 93.4607 252.173 93.4607 252.276C93.4607 252.379 93.4284 252.48 93.3682 252.563C92.8964 252.902 92.3177 253.058 91.7397 253.001C91.1778 253 90.6171 252.952 90.0632 252.858ZM90.4875 252.68C91.5207 252.796 92.9166 252.776 93.1698 252.413C93.2108 252.365 93.245 252.283 93.1698 252.126C93.1422 252.078 93.1048 252.037 93.0599 252.005C93.015 251.973 92.9638 251.951 92.9098 251.941C92.8259 251.927 92.7404 251.927 92.6566 251.941C91.8928 252.046 91.1563 252.296 90.4875 252.68Z" fill="#6ABC35"/>
<path d="M89.9881 252.852C89.9697 252.839 89.955 252.822 89.9454 252.801C89.9358 252.781 89.9316 252.758 89.9334 252.736C89.9334 252.661 90.0702 251.169 90.775 250.581C90.8731 250.494 90.9883 250.428 91.1132 250.388C91.2381 250.348 91.3699 250.334 91.5003 250.348C91.863 250.348 91.9793 250.56 91.993 250.711C92.1162 251.333 90.7955 252.551 90.1387 252.852H90.1044C90.0671 252.867 90.0255 252.867 89.9881 252.852ZM91.4182 250.594C91.2519 250.595 91.0913 250.655 90.9666 250.765C90.5567 251.249 90.3037 251.845 90.2413 252.476C90.9255 252.059 91.7946 251.107 91.7535 250.738C91.7535 250.704 91.7535 250.608 91.4935 250.587L91.4182 250.594Z" fill="#6ABC35"/>
<path d="M89.4886 252.085L83.4329 252.14C83.3223 252.141 83.2153 252.179 83.1295 252.249C83.0436 252.318 82.9841 252.415 82.9608 252.523L81.8933 257.464C81.8701 257.567 81.8677 257.675 81.8861 257.779C81.9046 257.884 81.9435 257.984 82.0007 258.074C82.058 258.164 82.1323 258.241 82.2196 258.302C82.3068 258.363 82.4052 258.406 82.5091 258.428H82.6802C84.863 258.374 86.7858 258.23 89.5228 258.209C92.732 258.209 91.9177 258.572 95.6812 258.593C97.9529 258.593 98.3429 256.02 97.3781 255.897C92.9647 255.383 92.4925 254.056 90.7819 252.475C90.4102 252.197 89.9522 252.059 89.4886 252.085Z" fill="#263238"/>
<path opacity="0.2" d="M89.5363 248.438V245.701H83.3438L83.6311 248.438H89.5363Z" fill="black"/>
<path d="M84.8561 144.342C84.8561 144.342 92.0682 182.53 92.8346 195.436C93.5736 207.91 91.0145 245.387 91.0145 245.387H81.6606C81.6606 245.387 79.4299 218.885 80.6753 197.947C80.7246 197.19 80.653 196.43 80.4632 195.696C79.0125 189.955 72.3615 163.398 70.9382 152.587V144.342H84.8561Z" fill="#263238"/>
<path d="M80.4426 243.791L80.7848 246.528H91.8424L92.1845 243.791H80.4426Z" fill="#263238"/>
<path opacity="0.3" d="M80.4426 243.791L80.7848 246.528H91.8424L92.1845 243.791H80.4426Z" fill="white"/>
<path opacity="0.4" d="M71.7114 157.384C72.9157 164.048 74.989 173.163 76.8434 180.956C77.1924 162.817 73.8189 151.533 73.8189 151.533L71.7114 157.384Z" fill="black"/>
<path d="M59.99 243.334L60.4484 253.543H65.8062L66.4357 243.334H59.99Z" fill="#CE7A63"/>
<path d="M66.5998 252.858C66.5735 252.852 66.5495 252.839 66.5311 252.819C66.5127 252.8 66.5009 252.775 66.4972 252.748C66.491 252.722 66.4936 252.694 66.5047 252.669C66.5159 252.645 66.5349 252.624 66.5588 252.611C66.6409 252.563 68.5705 251.441 69.4943 251.688C69.6673 251.73 69.817 251.838 69.9117 251.989C69.9718 252.072 70.0042 252.173 70.0042 252.276C70.0042 252.379 69.9718 252.48 69.9117 252.563C69.4422 252.902 68.8658 253.057 68.29 253.001C67.7236 253.001 67.1582 252.953 66.5998 252.858ZM67.0241 252.68C68.0573 252.796 69.4601 252.776 69.7132 252.413C69.7132 252.365 69.7817 252.283 69.7132 252.126C69.6857 252.078 69.6482 252.037 69.6034 252.005C69.5585 251.973 69.5073 251.951 69.4532 251.941C69.3694 251.927 69.2839 251.927 69.2 251.941C68.4341 252.046 67.6954 252.296 67.0241 252.68Z" fill="#6ABC35"/>
<path d="M66.5316 252.853C66.5124 252.84 66.4966 252.823 66.4859 252.802C66.4751 252.782 66.4696 252.759 66.47 252.736C66.47 252.661 66.6137 251.169 67.3185 250.581C67.4164 250.494 67.5315 250.428 67.6564 250.388C67.7814 250.347 67.9133 250.334 68.0438 250.348C68.4064 250.348 68.5228 250.56 68.5365 250.711C68.6596 251.334 67.339 252.552 66.6753 252.853H66.6205C66.5917 252.863 66.5604 252.863 66.5316 252.853ZM67.9617 250.595C67.793 250.593 67.6297 250.654 67.5032 250.766C67.1103 251.255 66.8721 251.851 66.819 252.476C67.5032 252.059 68.3722 251.108 68.3312 250.738C68.3312 250.704 68.3312 250.608 68.0712 250.588L67.9617 250.595Z" fill="#6ABC35"/>
<path d="M66.0251 252.085L59.9694 252.14C59.8592 252.141 59.7527 252.18 59.6671 252.25C59.5815 252.319 59.5217 252.415 59.4972 252.523L58.4503 257.463C58.4271 257.567 58.4247 257.674 58.4431 257.779C58.4616 257.884 58.5005 257.984 58.5577 258.073C58.615 258.163 58.6893 258.241 58.7766 258.301C58.8638 258.362 58.9622 258.405 59.0661 258.428C59.123 258.435 59.1804 258.435 59.2372 258.428C61.42 258.373 63.3428 258.229 66.0798 258.209C69.289 258.209 68.4747 258.572 72.2382 258.592C74.5168 258.592 74.9068 256.019 73.942 255.896C69.5285 255.383 69.0564 254.055 67.3389 252.475C66.9623 252.191 66.4957 252.052 66.0251 252.085Z" fill="#263238"/>
<path opacity="0.2" d="M66.1209 248.438L66.2919 245.701H60.0994L60.2225 248.438H66.1209Z" fill="black"/>
<path d="M75.0506 145.259C75.0506 145.259 74.1542 183.947 73.1962 196.804C72.2999 208.936 67.7222 245.161 67.7222 245.161H58.3409C58.3409 245.161 57.862 212.857 60.5648 198.255C60.7756 197.093 60.7918 195.905 60.6127 194.738C59.5726 187.799 56.2539 162.659 59.7642 144.342L75.0506 145.259Z" fill="#263238"/>
<path d="M57.1981 243.791L57.5403 246.528H68.6048L68.9469 243.791H57.1981Z" fill="#263238"/>
<path opacity="0.3" d="M57.1981 243.791L57.5403 246.528H68.6048L68.9469 243.791H57.1981Z" fill="white"/>
<path d="M40.7897 118.558L34.0429 114.452C34.0429 114.452 34.6177 106.795 32.5033 106.111C30.3889 105.427 27.7887 106.44 27.3029 109.04C26.8171 111.64 31.3674 116.758 31.3674 116.758L37.2179 123.218L40.7897 118.558Z" fill="#CE7A63"/>
<path d="M63.0691 99.0994C63.0691 99.0994 57.6566 99.0104 54.7485 103.458C51.8404 107.906 48.248 120.565 48.248 120.565L38.8395 116.459L34.7339 122.234C34.7339 122.234 44.3135 131 50.814 129.631C57.3145 128.263 65.1698 98.8394 63.0691 99.0994Z" fill="#6ABC35"/>
<path opacity="0.8" d="M63.0691 99.0994C63.0691 99.0994 57.6566 99.0104 54.7485 103.458C51.8404 107.906 48.248 120.565 48.248 120.565L38.8395 116.459L34.7339 122.234C34.7339 122.234 44.3135 131 50.814 129.631C57.3145 128.263 65.1698 98.8394 63.0691 99.0994Z" fill="white"/>
<path opacity="0.1" d="M60.5579 112.559L59.6753 110.157H56.7808L55.4602 124.794C57.5536 120.891 59.2609 116.793 60.5579 112.559Z" fill="black"/>
<path d="M38.2304 115.303L33.3927 122.275L35.0555 123.562L40.379 116.247L38.2304 115.303Z" fill="#6ABC35"/>
<path opacity="0.5" d="M38.2304 115.303L33.3927 122.275L35.0555 123.562L40.379 116.247L38.2304 115.303Z" fill="white"/>
<path d="M110.447 113.641L118.309 114.442C118.309 114.442 122.49 107.989 124.57 108.749C126.651 109.508 128.122 111.862 126.938 114.223C125.754 116.583 119.035 117.918 119.035 117.918L110.468 119.519L110.447 113.641Z" fill="#CE7A63"/>
<path d="M76.2755 99.6134C76.2755 99.6134 83.255 100.893 96.8033 111.841L113.369 113.1V119.436C113.369 119.436 101.97 122.105 94.8943 119.827C87.819 117.548 78.5883 109.706 78.5883 109.706C78.5883 109.706 73.7437 98.7923 76.2755 99.6134Z" fill="#6ABC35"/>
<path opacity="0.8" d="M76.2755 99.6134C76.2755 99.6134 83.255 100.893 96.8033 111.841L113.369 113.1V119.436C113.369 119.436 101.97 122.105 94.8943 119.827C87.819 117.548 78.5883 109.706 78.5883 109.706C78.5883 109.706 73.7437 98.7923 76.2755 99.6134Z" fill="white"/>
<path opacity="0.1" d="M83.7955 105.853L80.3741 111.169C83.4425 113.593 86.6958 115.774 90.1043 117.69L83.7955 105.853Z" fill="black"/>
<path d="M112.623 112.497V120.222L114.389 119.942V112.497H112.623Z" fill="#6ABC35"/>
<path opacity="0.5" d="M112.623 112.497V120.222L114.389 119.942V112.497H112.623Z" fill="white"/>
<path d="M66.0389 98.839C62.5423 99.0101 55.0907 99.3522 56.4592 107.734C57.8278 116.117 58.8542 147.079 58.8542 147.079H85.5403C85.5403 147.079 86.9089 123.472 85.5403 110.814C84.1718 98.1547 71.7593 98.5858 66.0389 98.839Z" fill="#6ABC35"/>
<path opacity="0.8" d="M66.0389 98.839C62.5423 99.0101 55.0907 99.3522 56.4592 107.734C57.8278 116.117 58.8542 147.079 58.8542 147.079H85.5403C85.5403 147.079 86.9089 123.472 85.5403 110.814C84.1718 98.1547 71.7593 98.5858 66.0389 98.839Z" fill="white"/>
<path d="M76.4191 76.1838C76.8037 75.9802 77.2483 75.92 77.6732 76.014C78.0982 76.108 78.4759 76.3501 78.7387 76.697C79.7104 77.9561 77.1786 81.7742 77.1786 81.7742L76.4191 76.1838Z" fill="#263238"/>
<path d="M75.8716 99.5015C72.6282 98.7283 71.8071 96.6276 72.0466 94.4174C72.1039 93.8627 72.1953 93.3119 72.3203 92.7684L68.2763 89.395L65.3066 86.9521C66.1072 90.5445 67.0104 96.7439 64.5608 99.1457C67.2499 100.583 67.2568 99.9052 70.0828 101.055C71.8617 100.085 73.8461 99.5524 75.8716 99.5015Z" fill="#CE7A63"/>
<path opacity="0.2" d="M65.7651 89.3133C65.8746 89.9976 65.9704 90.6819 66.0388 91.3661C66.9694 93.3642 69.8639 94.5821 72.0124 94.8285C72.0124 94.6848 72.0124 94.5342 72.0124 94.3906C72.0697 93.8358 72.1612 93.285 72.2861 92.7415L70.2607 91.0582L65.8062 88.458C65.7651 88.7317 65.772 89.0054 65.7651 89.3133Z" fill="black"/>
<path d="M65.6078 79.6588C64.992 84.5171 64.3762 87.3157 66.3468 90.2991C66.9764 91.272 67.8597 92.0545 68.9014 92.5622C69.9431 93.0699 71.1037 93.2835 72.2578 93.18C73.412 93.0765 74.5161 92.6597 75.4508 91.9748C76.3855 91.2898 77.1155 90.3626 77.5619 89.2932C79.4094 85.1877 80.0594 77.955 75.7691 75.0537C74.848 74.4032 73.7728 74.0048 72.6502 73.8981C71.5275 73.7915 70.3965 73.9803 69.3694 74.4457C68.3423 74.9112 67.4548 75.6373 66.7949 76.5517C66.1351 77.4662 65.7258 78.5373 65.6078 79.6588Z" fill="#CE7A63"/>
<path d="M72.6282 82.6217C72.553 83.0186 72.7035 83.3744 72.9498 83.4291C73.1962 83.4839 73.4699 83.2101 73.5657 82.8133C73.6615 82.4164 73.4972 82.0606 73.2441 82.0059C72.9909 81.9511 72.7035 82.2317 72.6282 82.6217Z" fill="#263238"/>
<path d="M77.1786 83.4918C77.1102 83.8818 77.2539 84.2445 77.5071 84.2924C77.7603 84.3403 78.0271 84.0734 78.1229 83.6766C78.2187 83.2797 78.0476 82.9239 77.7945 82.8691C77.5413 82.8144 77.2539 83.0949 77.1786 83.4918Z" fill="#263238"/>
<path d="M75.3995 83.4355C75.6098 84.5427 75.9473 85.6219 76.4053 86.6516C76.1388 86.7725 75.8495 86.8351 75.5569 86.8351C75.2642 86.8351 74.9749 86.7725 74.7084 86.6516L75.3995 83.4355Z" fill="#BA4D3C"/>
<path d="M71.6292 80.9866C71.5922 80.9814 71.557 80.9673 71.5266 80.9456C71.5018 80.9291 71.4805 80.9078 71.464 80.883C71.4474 80.8581 71.436 80.8303 71.4302 80.801C71.4245 80.7718 71.4246 80.7417 71.4306 80.7125C71.4366 80.6832 71.4483 80.6555 71.465 80.6308C71.6721 80.3322 71.9481 80.0879 72.2698 79.9187C72.5914 79.7496 72.9491 79.6605 73.3125 79.6592C73.373 79.6644 73.4291 79.6931 73.4688 79.7392C73.5084 79.7852 73.5284 79.8449 73.5246 79.9055C73.5194 79.9666 73.491 80.0234 73.4451 80.0641C73.3993 80.1048 73.3396 80.1265 73.2783 80.1245C72.9901 80.1225 72.7059 80.1913 72.4505 80.3249C72.1952 80.4586 71.9766 80.6529 71.814 80.8909C71.7924 80.9197 71.7646 80.9433 71.7326 80.9599C71.7006 80.9765 71.6653 80.9856 71.6292 80.9866Z" fill="#263238"/>
<path d="M78.9235 81.7735C78.8861 81.7686 78.8502 81.7557 78.8183 81.7356C78.7864 81.7156 78.7592 81.6888 78.7387 81.6571C78.6025 81.3975 78.4081 81.1728 78.1707 81.0007C77.9333 80.8286 77.6593 80.7137 77.3702 80.665C77.3393 80.6633 77.309 80.6553 77.2813 80.6415C77.2536 80.6276 77.229 80.6082 77.2091 80.5845C77.1892 80.5608 77.1744 80.5332 77.1656 80.5035C77.1568 80.4737 77.1543 80.4425 77.1581 80.4118C77.1633 80.3513 77.192 80.2952 77.238 80.2556C77.2841 80.2159 77.3438 80.1959 77.4044 80.1997C77.7735 80.2502 78.1251 80.3884 78.4299 80.6027C78.7347 80.817 78.9837 81.1011 79.1561 81.4313C79.172 81.4572 79.1824 81.4861 79.1869 81.5161C79.1913 81.5462 79.1897 81.5768 79.182 81.6062C79.1743 81.6356 79.1608 81.6631 79.1423 81.6872C79.1237 81.7112 79.1005 81.7312 79.074 81.7461C79.0273 81.769 78.9752 81.7785 78.9235 81.7735Z" fill="#263238"/>
<path d="M66.9216 81.541C66.9216 81.541 68.4475 81.4315 68.7896 79.0366C69.1317 76.6417 69.686 76.9838 70.8424 76.9017C71.9988 76.8196 81.6195 80.6651 80.5931 74.5068C79.5667 68.3484 76.7886 73.3504 74.3937 72.5361C71.9988 71.7218 67.6332 70.3123 65.6694 73.1793C63.7055 76.0464 65.4025 80.9662 65.2177 82.7179L65.5325 81.541H66.9216Z" fill="#263238"/>
<path d="M62.9323 83.7508C63.1986 84.9295 63.8692 85.9777 64.8277 86.7136C66.0593 87.6237 66.9899 86.522 66.9215 84.9825C66.8599 83.6139 66.1483 81.438 64.7866 81.1574C63.4249 80.8769 62.597 82.266 62.9323 83.7508Z" fill="#CE7A63"/>
<path d="M65.5325 81.541H66.901C66.901 81.541 65.943 87.761 68.468 87.6994C70.9929 87.6378 72.4914 86.6867 75.2285 87.063C77.9655 87.4394 78.1297 87.9662 78.1297 87.9662C78.1297 87.9662 77.6302 92.2223 76.3849 91.9281C76.1454 92.3362 75.7873 92.6616 75.3582 92.8608C74.929 93.0601 74.4494 93.1238 73.9831 93.0434C73.6281 93.3412 73.1956 93.5315 72.7363 93.5921C72.2769 93.6527 71.8098 93.5811 71.3898 93.3856C70.5144 93.5658 69.6032 93.3964 68.8511 92.9134C68.4384 92.882 68.0411 92.7428 67.699 92.5099C67.3568 92.277 67.0816 91.9584 66.901 91.586C66.901 91.586 63.6439 89.6906 65.5325 81.541Z" fill="#263238"/>
<path opacity="0.1" d="M65.5325 81.541H66.901C66.901 81.541 65.943 87.761 68.468 87.6994C70.9929 87.6378 72.4914 86.6867 75.2285 87.063C77.9655 87.4394 78.1297 87.9662 78.1297 87.9662C78.1297 87.9662 77.6302 92.2223 76.3849 91.9281C76.1454 92.3362 75.7873 92.6616 75.3582 92.8608C74.929 93.0601 74.4494 93.1238 73.9831 93.0434C73.6281 93.3412 73.1956 93.5315 72.7363 93.5921C72.2769 93.6527 71.8098 93.5811 71.3898 93.3856C70.5144 93.5658 69.6032 93.3964 68.8511 92.9134C68.4384 92.882 68.0411 92.7428 67.699 92.5099C67.3568 92.277 67.0816 91.9584 66.901 91.586C66.901 91.586 63.6439 89.6906 65.5325 81.541Z" fill="white"/>
<path d="M76.6723 89.0072C75.1836 88.4077 73.6418 87.9495 72.0673 87.6387C72.2178 88.7745 72.7515 89.7872 74.5374 90.2115C74.9512 90.353 75.4042 90.3244 75.7969 90.1319C76.1896 89.9394 76.4897 89.5988 76.6313 89.1851C76.6545 89.1284 76.6683 89.0683 76.6723 89.0072Z" fill="#263238"/>
<path opacity="0.5" d="M76.6723 89.0072C75.1836 88.4077 73.6418 87.9495 72.0673 87.6387C72.2178 88.7745 72.7515 89.7872 74.5374 90.2115C74.9512 90.353 75.4042 90.3244 75.7969 90.1319C76.1896 89.9394 76.4897 89.5988 76.6313 89.1851C76.6545 89.1284 76.6683 89.0683 76.6723 89.0072Z" fill="black"/>
<path d="M73.9216 89.1223C74.6093 89.2427 75.2402 89.5809 75.7212 90.0871C75.3429 90.2227 74.9323 90.2394 74.5442 90.135C73.8569 90.0091 73.227 89.669 72.7446 89.1633C73.1223 89.0236 73.535 89.0092 73.9216 89.1223Z" fill="#A02724"/>
<path d="M76.5286 88.9104C76.4614 89.0316 76.3618 89.1316 76.2409 89.1992C76.1201 89.2669 75.9828 89.2996 75.8444 89.2936C74.8225 89.0412 73.8225 88.7071 72.8542 88.2946C72.6987 88.2414 72.5584 88.1514 72.4452 88.0322C72.332 87.9131 72.2493 87.7684 72.2041 87.6104C73.6773 87.9302 75.1232 88.3649 76.5286 88.9104Z" fill="white"/>
<path d="M62.4465 99.1266L64.1367 98.4766L70.1787 100.598L75.4064 98.8119L77.0487 99.8109L73.4289 103.287L70.2813 101.364L67.0516 103.588L62.4465 99.1266Z" fill="#6ABC35"/>
<path opacity="0.5" d="M62.4465 99.1266L64.1367 98.4766L70.1787 100.598L75.4064 98.8119L77.0487 99.8109L73.4289 103.287L70.2813 101.364L67.0516 103.588L62.4465 99.1266Z" fill="white"/>
<path d="M122.347 242.967H116.756L115.962 252.889H121.779L123.489 242.967H122.347Z" fill="#FFC3BD"/>
<path d="M121.621 252.087L115.566 252.142C115.455 252.142 115.348 252.18 115.262 252.25C115.176 252.32 115.117 252.417 115.093 252.525L114.053 257.465C114.03 257.569 114.028 257.676 114.046 257.781C114.065 257.886 114.104 257.986 114.161 258.076C114.218 258.165 114.292 258.243 114.38 258.303C114.467 258.364 114.565 258.407 114.669 258.43H114.84C117.023 258.375 118.946 258.231 121.683 258.211C124.892 258.211 124.078 258.574 127.841 258.594C130.113 258.594 130.503 256.021 129.538 255.898C125.125 255.385 124.653 254.058 122.942 252.477C122.563 252.192 122.094 252.054 121.621 252.087Z" fill="#263238"/>
<path opacity="0.2" d="M116.756 242.967H122.347H123.489L122.839 246.723L116.476 246.477L116.756 242.967Z" fill="black"/>
<path d="M152.454 241.939L153.255 252.32L147.438 252.888L145.611 242.856L152.454 241.939Z" fill="#FFC3BD"/>
<path d="M153.207 252.087L147.151 252.141C147.041 252.143 146.934 252.182 146.849 252.252C146.763 252.321 146.703 252.417 146.679 252.525L145.632 257.465C145.609 257.569 145.606 257.676 145.625 257.781C145.643 257.886 145.682 257.986 145.739 258.075C145.797 258.165 145.871 258.242 145.958 258.303C146.045 258.364 146.144 258.407 146.248 258.43C146.305 258.437 146.362 258.437 146.419 258.43C148.602 258.375 150.524 258.231 153.261 258.211C156.471 258.211 155.656 258.574 159.42 258.594C161.692 258.594 162.088 256.021 161.124 255.898C156.71 255.385 156.238 254.057 154.521 252.477C154.144 252.193 153.677 252.054 153.207 252.087Z" fill="#263238"/>
<path opacity="0.2" d="M152.817 246.675L146.405 247.215L145.611 242.856L152.454 241.939L152.817 246.675Z" fill="black"/>
<path d="M132.727 162.634L140.589 202.027C140.589 202.027 139.617 218.73 143.778 243.945C143.837 244.339 144.04 244.698 144.349 244.951C144.657 245.204 145.049 245.333 145.447 245.313L153.836 244.793C154.257 244.77 154.651 244.582 154.933 244.269C155.215 243.956 155.362 243.544 155.342 243.124L153.364 201.144L147.89 148.367L133.069 149.14L132.727 162.634Z" fill="#263238"/>
<path opacity="0.4" d="M133.972 168.902L137.996 189.019C138.68 180.945 136.88 163.277 136.88 163.277L133.972 168.902Z" fill="black"/>
<path d="M137.626 162.634L125.487 243.137C125.424 243.56 125.206 243.945 124.877 244.217C124.547 244.49 124.129 244.632 123.701 244.615L116.284 244.294C115.831 244.276 115.403 244.081 115.092 243.751C114.781 243.421 114.612 242.982 114.621 242.528C114.772 235.877 115.463 211.319 118.043 198.38C118.043 198.38 117.81 166.5 121.916 148.34L137.654 147.573L137.626 162.634Z" fill="#263238"/>
<path d="M138.098 79.8861C138.098 79.8861 130.633 78.0592 128.423 83.4785C126.213 88.8979 127.636 95.7063 125.925 97.848C124.215 99.9897 122.155 106.483 125.925 106.572C129.695 106.661 134.136 104.602 136.333 105.717C138.529 106.832 143.121 107.77 144.544 106.997C145.967 106.223 143.175 101.009 143.894 98.7854C144.725 95.7159 145.315 92.5862 145.659 89.4247C145.912 87.0709 147.028 82.9653 144.373 81.0836C141.718 79.2019 138.098 79.8861 138.098 79.8861Z" fill="#263238"/>
<path d="M143.524 104.648C142.347 104.171 141.103 103.876 139.836 103.773C139.645 103.751 139.461 103.688 139.296 103.587C139.132 103.487 138.992 103.351 138.885 103.191C138.175 101.847 138.013 100.28 138.434 98.8185L131.995 93.666C132.569 96.1567 133.185 100.249 132.453 103.047C132.398 103.251 132.282 103.433 132.121 103.569C131.959 103.704 131.76 103.788 131.55 103.807C130.701 103.882 130.181 103.944 130.181 103.944L128.348 106.441L129.032 109.561L134.41 112.6L138.427 113.414L142.45 111.19C142.45 111.19 147.685 106.516 143.524 104.648Z" fill="#FFC3BD"/>
<path opacity="0.2" d="M134.615 95.7812L138.434 98.8057C138.311 99.4073 138.242 100.019 138.228 100.633C137.407 100.516 136.628 100.199 135.957 99.7115C135.287 99.2236 134.746 98.579 134.383 97.834C133.999 96.9103 134.26 95.9044 134.615 95.7812Z" fill="black"/>
<path d="M130.612 88.966C131.331 93.3658 131.529 95.9796 133.993 98.0256C137.701 101.105 142.963 98.5114 143.572 94.0021C144.12 89.8966 142.888 83.4098 138.345 82.0891C137.351 81.7926 136.299 81.7548 135.286 81.9795C134.274 82.2041 133.337 82.6837 132.562 83.3726C131.787 84.0615 131.202 84.937 130.86 85.916C130.519 86.8949 130.434 87.9448 130.612 88.966Z" fill="#FFC3BD"/>
<path d="M140.247 89.4258C140.793 90.4856 141.484 91.4643 142.3 92.3339C142.069 92.534 141.798 92.6821 141.505 92.7683C141.213 92.8545 140.905 92.8767 140.603 92.8334L140.247 89.4258Z" fill="#ED847E"/>
<path d="M136.1 88.0023C136.064 88.009 136.027 88.009 135.991 88.0023C135.945 87.9703 135.913 87.9226 135.9 87.8683C135.888 87.814 135.895 87.7569 135.922 87.7081C136.094 87.4174 136.331 87.1712 136.615 86.9893C136.899 86.8074 137.222 86.695 137.558 86.6611C137.614 86.6611 137.668 86.6835 137.708 86.7233C137.748 86.763 137.77 86.817 137.77 86.8733C137.77 86.9295 137.748 86.9835 137.708 87.0232C137.668 87.063 137.614 87.0854 137.558 87.0854C137.292 87.1163 137.037 87.2092 136.814 87.3566C136.59 87.5039 136.404 87.7016 136.271 87.9338C136.25 87.9578 136.224 87.9765 136.194 87.9883C136.164 88.0002 136.132 88.005 136.1 88.0023Z" fill="#263238"/>
<path d="M140.48 94.5783C140.677 94.5773 140.874 94.559 141.068 94.5235C141.082 94.5218 141.095 94.5175 141.106 94.5107C141.118 94.5039 141.129 94.4949 141.137 94.484C141.145 94.4732 141.151 94.4608 141.155 94.4476C141.158 94.4344 141.159 94.4207 141.157 94.4072C141.152 94.3811 141.137 94.358 141.115 94.3427C141.094 94.3274 141.067 94.3211 141.041 94.3251C140.61 94.4082 140.167 94.3895 139.745 94.2707C139.323 94.1519 138.935 93.9362 138.612 93.6408C138.603 93.6306 138.591 93.6225 138.579 93.6169C138.567 93.6113 138.553 93.6084 138.54 93.6084C138.526 93.6084 138.513 93.6113 138.5 93.6169C138.488 93.6225 138.477 93.6306 138.468 93.6408C138.449 93.6612 138.438 93.6881 138.438 93.7161C138.438 93.7441 138.449 93.771 138.468 93.7914C139.013 94.301 139.733 94.5826 140.48 94.5783Z" fill="#263238"/>
<path d="M142.45 84.333C142.45 84.333 143.675 80.5696 139.795 80.1385C135.915 79.7074 132.494 80.5696 131.379 82.2323C130.263 83.8951 129.538 91.812 129.538 91.812H131.468L134.821 86.6321L136.873 83.464L138.379 82.0955L140.281 81.8355C140.872 82.2229 141.38 82.7256 141.773 83.3135L142.45 84.333Z" fill="#263238"/>
<path d="M128.868 93.3166C129.561 94.1944 130.57 94.7665 131.68 94.9109C133.158 95.0751 133.664 93.7066 133.048 92.427C132.508 91.2911 131.085 89.82 129.695 90.2305C129.393 90.328 129.12 90.4996 128.901 90.7298C128.682 90.96 128.524 91.2413 128.442 91.5482C128.359 91.8551 128.355 92.1777 128.429 92.4866C128.504 92.7955 128.654 93.0808 128.868 93.3166Z" fill="#FFC3BD"/>
<path d="M139.036 83.0478C139.036 83.0478 140.158 86.3254 138.228 86.6539C136.299 86.9823 138.358 84.5053 137.797 83.4789C137.236 82.4525 136.997 87.5845 135.621 87.694C134.246 87.8034 132.2 89.2335 131.516 97.1641C130.832 105.095 129.935 102.474 129.853 100.633C129.771 98.7927 130.688 88.6724 131.516 85.9696C132.344 83.2668 138.831 81.084 138.831 81.084L141.171 81.8298L143.36 84.1632C143.36 84.1632 144.14 88.2687 142.676 87.2286C141.212 86.1886 141.006 87.4134 139.036 83.0478Z" fill="#263238"/>
<path d="M139.836 89.8487C139.818 90.185 139.701 90.5084 139.499 90.7781C139.297 91.0478 139.02 91.2516 138.703 91.3639C138.385 91.4761 138.042 91.4918 137.715 91.4088C137.389 91.3259 137.094 91.1481 136.869 90.8978C136.643 90.6476 136.497 90.3362 136.449 90.0029C136.4 89.6696 136.452 89.3295 136.596 89.0254C136.741 88.7213 136.973 88.4669 137.262 88.2943C137.551 88.1218 137.885 88.0388 138.221 88.0559C138.672 88.0824 139.094 88.2854 139.397 88.621C139.699 88.9565 139.857 89.3976 139.836 89.8487Z" fill="#6ABC35"/>
<path d="M144.038 89.6914C144.019 90.0277 143.902 90.3512 143.7 90.6208C143.499 90.8905 143.222 91.0944 142.904 91.2067C142.587 91.3189 142.243 91.3346 141.917 91.2516C141.59 91.1687 141.296 90.9909 141.07 90.7406C140.845 90.4904 140.699 90.179 140.65 89.8457C140.602 89.5124 140.653 89.1722 140.798 88.8681C140.942 88.564 141.174 88.3096 141.463 88.1371C141.752 87.9645 142.086 87.8816 142.423 87.8987C142.874 87.9234 143.297 88.1259 143.6 88.4619C143.903 88.7978 144.06 89.2399 144.038 89.6914Z" fill="#6ABC35"/>
<path d="M142.436 87.6381C141.979 87.6153 141.529 87.7565 141.166 88.0362C140.804 88.316 140.553 88.7159 140.459 89.164L139.966 89.1982C139.854 88.8195 139.627 88.4847 139.318 88.2397C139.008 87.9947 138.63 87.8515 138.235 87.8297C137.98 87.814 137.725 87.8489 137.483 87.9323C137.242 88.0158 137.019 88.1462 136.829 88.316C136.638 88.4858 136.482 88.6917 136.371 88.9218C136.261 89.1519 136.196 89.4016 136.182 89.6567V89.6909L130.708 90.0467V90.4915L136.182 90.1357C136.281 90.5904 136.54 90.9942 136.913 91.2728C137.285 91.5514 137.746 91.686 138.21 91.6519C138.674 91.6177 139.11 91.4171 139.438 91.087C139.765 90.7568 139.963 90.3193 139.994 89.8551C140.001 89.78 140.001 89.7044 139.994 89.6293H140.356C140.368 90.0013 140.487 90.362 140.699 90.6676C140.912 90.9732 141.208 91.2106 141.553 91.351C141.898 91.4913 142.276 91.5286 142.641 91.4583C143.007 91.388 143.344 91.2131 143.612 90.9549C143.88 90.6967 144.068 90.3662 144.151 90.0036C144.235 89.641 144.212 89.2618 144.085 88.9121C143.957 88.5624 143.731 88.2571 143.434 88.0334C143.136 87.8097 142.78 87.6772 142.409 87.6518L142.436 87.6381ZM143.805 89.643C143.788 89.9344 143.686 90.2143 143.511 90.4476C143.335 90.6808 143.095 90.8569 142.819 90.9536C142.544 91.0503 142.246 91.0633 141.963 90.991C141.68 90.9187 141.425 90.7643 141.23 90.5473C141.035 90.3303 140.909 90.0603 140.867 89.7715C140.825 89.4827 140.869 89.1879 140.995 88.9244C141.12 88.6608 141.321 88.4402 141.571 88.2905C141.822 88.1407 142.111 88.0685 142.402 88.0829C142.597 88.0925 142.789 88.1406 142.965 88.2242C143.142 88.3079 143.3 88.4256 143.431 88.5705C143.562 88.7154 143.663 88.8847 143.728 89.0688C143.794 89.2528 143.822 89.448 143.812 89.643H143.805ZM139.604 89.8346C139.594 90.0296 139.546 90.2208 139.463 90.3974C139.38 90.5739 139.262 90.7323 139.118 90.8635C138.973 90.9947 138.804 91.0962 138.621 91.1621C138.437 91.228 138.242 91.257 138.047 91.2476C137.852 91.2382 137.661 91.1904 137.484 91.1071C137.308 91.0237 137.149 90.9064 137.018 90.7619C136.887 90.6173 136.785 90.4484 136.719 90.2646C136.654 90.0808 136.625 89.8859 136.634 89.6909C136.67 89.3097 136.853 88.9574 137.143 88.7075C137.433 88.4575 137.808 88.3293 138.191 88.3497C138.573 88.37 138.933 88.5372 139.195 88.8165C139.457 89.0957 139.601 89.4654 139.597 89.8483L139.604 89.8346Z" fill="#263238"/>
<path d="M102.065 139.861L98.6438 145.11C98.6438 145.11 92.2117 146.724 92.9849 150.255C93.7034 153.567 98.1306 154.361 99.1433 152.52C100.156 150.679 101.921 146.971 101.921 146.971L105.733 142.332L102.065 139.861Z" fill="#FFC3BD"/>
<path d="M127.869 104.657C127.869 104.657 123.879 105.054 117.488 112.184C111.097 119.314 109.147 128.695 109.147 128.695L101.114 139.404C101.016 139.533 100.945 139.681 100.905 139.838C100.864 139.996 100.856 140.16 100.881 140.321C100.905 140.481 100.961 140.635 101.046 140.774C101.13 140.913 101.242 141.033 101.374 141.128L104.912 143.694C105.041 143.789 105.187 143.857 105.342 143.896C105.498 143.934 105.659 143.941 105.817 143.917C105.976 143.893 106.128 143.838 106.265 143.755C106.401 143.672 106.521 143.563 106.615 143.434L116.195 130.542L122.47 115.694C122.47 115.694 129.477 104.15 127.869 104.657Z" fill="#6ABC35"/>
<path opacity="0.1" d="M120.451 116.201C120.451 116.201 116.387 124.241 117.262 127.97L121.772 117.323L120.451 116.201Z" fill="black"/>
<path d="M98.2742 145.118C99.7727 145.118 101.134 146.486 101.846 147.814C102.25 148.559 103.386 147.896 102.982 147.129C102.065 145.425 100.334 143.804 98.2742 143.783C98.132 143.825 98.0072 143.911 97.9183 144.03C97.8295 144.148 97.7815 144.292 97.7815 144.44C97.7815 144.588 97.8295 144.732 97.9183 144.851C98.0072 144.969 98.132 145.056 98.2742 145.097V145.118Z" fill="#6ABC35"/>
<g opacity="0.5">
<path d="M98.2742 145.116C99.7727 145.116 101.134 146.484 101.846 147.812C102.25 148.557 103.386 147.894 102.982 147.127C102.065 145.423 100.334 143.802 98.2742 143.781C98.132 143.823 98.0072 143.909 97.9183 144.028C97.8295 144.146 97.7815 144.29 97.7815 144.438C97.7815 144.586 97.8295 144.73 97.9183 144.849C98.0072 144.967 98.132 145.054 98.2742 145.095V145.116Z" fill="white"/>
</g>
<path d="M169.636 136.905L174.022 140.888C174.022 140.888 180.304 140.799 180.461 144.22C180.605 147.429 176.752 149.243 175.356 147.799C174.871 147.292 174.843 146.608 174.241 145.931C173.386 145.01 172.457 144.161 171.463 143.392L166.844 140.067L169.636 136.905Z" fill="#FFC3BD"/>
<path d="M144.161 104.746C144.161 104.746 147.904 105.074 152.064 109.748C156.04 114.216 162.198 128.606 162.198 128.606L170.525 135.866C170.801 136.106 170.98 136.438 171.03 136.8C171.08 137.162 170.998 137.53 170.799 137.837L168.637 141.176C168.521 141.354 168.369 141.505 168.191 141.621C168.014 141.736 167.813 141.813 167.604 141.847C167.394 141.88 167.18 141.87 166.975 141.815C166.77 141.761 166.579 141.664 166.413 141.532L155.916 133.156L147.247 117.124C147.247 117.124 141.095 103.644 144.161 104.746Z" fill="#6ABC35"/>
<path opacity="0.1" d="M147.274 117.137L150.873 123.788C151.428 121.558 149.019 112.423 149.019 112.423L146.658 114.476L146.549 115.495C146.98 116.487 147.274 117.137 147.274 117.137Z" fill="black"/>
<path d="M148.951 107.66C148.403 105.607 144.243 104.704 141.321 103.869C139.686 106.415 138.358 110.418 135.341 109.85C132.323 109.282 131.235 105.826 130.893 103.691C126.397 104.376 121.628 106.538 120.574 113.483C119.165 122.741 120.287 135.797 120.574 150.96H148.396C148.396 150.96 151.003 115.16 148.951 107.66Z" fill="#6ABC35"/>
<path d="M128.628 104.149C128.942 107.529 129.474 110.884 130.222 114.194C130.736 116.445 131.769 122.405 134.964 122.706C138.16 123.008 139.686 117.349 140.439 115.269C141.651 111.796 142.619 108.243 143.333 104.635C143.463 103.992 142.45 103.732 142.32 104.375C141.848 106.736 141.26 109.076 140.589 111.382C139.973 113.51 138.18 121.646 135.115 121.646C132.049 121.646 131.05 113.435 130.681 111.437C130.229 109.021 129.88 106.578 129.648 104.142C129.586 103.458 128.56 103.499 128.621 104.142L128.628 104.149Z" fill="#6ABC35"/>
<g opacity="0.7">
<path d="M128.628 104.149C128.942 107.529 129.474 110.884 130.222 114.194C130.736 116.445 131.769 122.405 134.964 122.706C138.16 123.008 139.686 117.349 140.439 115.269C141.651 111.796 142.619 108.243 143.333 104.635C143.463 103.992 142.45 103.732 142.32 104.375C141.848 106.736 141.26 109.076 140.589 111.382C139.973 113.51 138.18 121.646 135.115 121.646C132.049 121.646 131.05 113.435 130.681 111.437C130.229 109.021 129.88 106.578 129.648 104.142C129.586 103.458 128.56 103.499 128.621 104.142L128.628 104.149Z" fill="white"/>
</g>
<path d="M216.008 188.226V197.724L220.518 253.08H226.046C226.046 253.08 227.641 209.356 225.362 199.776L227.743 184.723L216.008 188.226Z" fill="#CE7A63"/>
<path d="M218.389 253.003C217.811 253.06 217.233 252.904 216.761 252.565C216.703 252.481 216.671 252.381 216.671 252.278C216.671 252.175 216.703 252.075 216.761 251.991C216.855 251.84 217.005 251.732 217.178 251.69C218.109 251.443 220.038 252.565 220.121 252.613C220.144 252.626 220.163 252.647 220.175 252.671C220.186 252.696 220.188 252.724 220.182 252.75C220.176 252.777 220.162 252.801 220.143 252.82C220.123 252.839 220.099 252.853 220.073 252.86C219.517 252.955 218.954 253.003 218.389 253.003ZM217.52 251.915C217.437 251.902 217.351 251.902 217.267 251.915C217.213 251.926 217.162 251.948 217.117 251.979C217.072 252.011 217.035 252.052 217.007 252.1C216.905 252.258 216.939 252.34 217.007 252.388C217.26 252.75 218.656 252.771 219.689 252.654C219.021 252.271 218.284 252.02 217.52 251.915Z" fill="#6ABC35"/>
<path d="M220.066 252.862H220.011C219.327 252.561 218.033 251.343 218.157 250.72C218.157 250.57 218.287 250.392 218.649 250.358C218.78 250.344 218.912 250.358 219.036 250.398C219.161 250.438 219.277 250.503 219.375 250.59C220.059 251.179 220.209 252.643 220.216 252.746C220.218 252.768 220.214 252.791 220.204 252.811C220.195 252.832 220.18 252.849 220.162 252.862C220.13 252.872 220.097 252.872 220.066 252.862ZM218.745 250.597H218.67C218.437 250.597 218.417 250.714 218.41 250.748C218.369 251.124 219.238 252.068 219.922 252.486C219.86 251.855 219.607 251.258 219.197 250.775C219.072 250.665 218.911 250.604 218.745 250.604V250.597Z" fill="#6ABC35"/>
<path d="M220.661 252.088L226.717 252.143C226.827 252.143 226.934 252.182 227.02 252.251C227.106 252.321 227.166 252.418 227.189 252.526L228.243 257.466C228.288 257.676 228.248 257.894 228.133 258.075C228.018 258.256 227.836 258.384 227.627 258.431H227.456C225.273 258.376 223.35 258.233 220.613 258.212C217.404 258.212 218.211 258.575 214.455 258.595C212.183 258.595 211.793 256.022 212.758 255.899C217.171 255.386 217.643 254.059 219.354 252.478C219.729 252.197 220.193 252.058 220.661 252.088Z" fill="#263238"/>
<path opacity="0.1" d="M216.008 188.225V195.068C219.58 195.005 223.143 194.708 226.676 194.178L227.743 184.694L216.008 188.225Z" fill="black"/>
<path d="M200.072 187.542L198.902 195.938L194.303 253.101H200.27C200.27 253.101 208.844 210.109 207.571 199.571L211.677 187.528L200.072 187.542Z" fill="#CE7A63"/>
<path d="M192.059 253.003C191.481 253.06 190.902 252.904 190.431 252.565C190.372 252.481 190.341 252.381 190.341 252.278C190.341 252.175 190.372 252.075 190.431 251.991C190.525 251.84 190.675 251.732 190.848 251.69C191.779 251.443 193.708 252.565 193.79 252.613C193.814 252.626 193.833 252.647 193.844 252.671C193.855 252.696 193.858 252.724 193.852 252.75C193.845 252.777 193.832 252.801 193.812 252.82C193.793 252.839 193.769 252.853 193.742 252.86C193.186 252.955 192.623 253.003 192.059 253.003ZM191.19 251.915C191.106 251.902 191.021 251.902 190.937 251.915C190.883 251.926 190.832 251.948 190.787 251.979C190.742 252.011 190.704 252.052 190.677 252.1C190.574 252.258 190.608 252.34 190.677 252.388C190.93 252.75 192.326 252.771 193.359 252.654C192.686 252.269 191.945 252.018 191.176 251.915H191.19Z" fill="#6ABC35"/>
<path d="M193.722 252.862H193.667C192.983 252.561 191.689 251.343 191.813 250.72C191.813 250.57 191.943 250.392 192.305 250.358C192.436 250.344 192.568 250.358 192.692 250.398C192.817 250.438 192.933 250.503 193.031 250.59C193.715 251.179 193.865 252.643 193.872 252.746C193.874 252.768 193.87 252.791 193.86 252.811C193.851 252.832 193.836 252.849 193.818 252.862C193.786 252.872 193.753 252.872 193.722 252.862ZM192.387 250.597H192.312C192.079 250.597 192.059 250.714 192.052 250.748C192.011 251.124 192.88 252.068 193.564 252.486C193.502 251.855 193.249 251.258 192.839 250.775C192.714 250.665 192.554 250.604 192.387 250.604V250.597Z" fill="#6ABC35"/>
<path d="M194.317 252.088L200.373 252.143C200.483 252.143 200.59 252.182 200.676 252.251C200.762 252.321 200.822 252.418 200.845 252.526L201.899 257.466C201.944 257.676 201.904 257.894 201.789 258.075C201.674 258.256 201.492 258.384 201.283 258.431H201.112C198.929 258.376 197.006 258.233 194.269 258.212C191.06 258.212 191.867 258.575 188.111 258.595C185.839 258.595 185.449 256.022 186.414 255.899C190.827 255.386 191.299 254.059 193.01 252.478C193.385 252.197 193.849 252.058 194.317 252.088Z" fill="#263238"/>
<path opacity="0.1" d="M199.962 188.327L199.278 193.397C202.528 194.168 205.834 194.673 209.166 194.91L211.704 187.54H200.571L199.962 188.327Z" fill="black"/>
<path d="M210.746 110.815C208.009 110.815 205.792 113.115 202.809 117.117C201.042 119.411 199.472 121.848 198.115 124.405C197.205 126.3 195.063 127.874 193.243 128.935C190.951 130.303 181.734 139.267 180.865 139.438C179.777 139.65 178.812 139.773 178.073 139.842C177.298 139.914 176.559 140.201 175.938 140.67L174.658 141.641C174.471 141.839 174.328 142.074 174.24 142.331C174.152 142.588 174.12 142.862 174.146 143.132C174.173 143.403 174.257 143.665 174.394 143.9C174.531 144.135 174.717 144.338 174.939 144.495L177.389 146.226C177.775 146.5 178.249 146.62 178.719 146.561C179.189 146.503 179.62 146.271 179.927 145.911L182.623 142.894L186.044 140.382L199.182 131.2C199.768 130.783 200.285 130.277 200.715 129.701L209.85 117.918C209.85 117.918 212.772 110.815 210.746 110.815Z" fill="#CE7A63"/>
<path d="M209.85 110.843C209.85 110.843 204.376 118.37 205.286 143.92L196.623 189.307C196.623 189.307 210.76 194.323 230.152 190.218C230.152 190.218 236.31 161.711 226.272 144.372L234.025 113.354C234.025 113.354 224.904 108.79 209.85 110.843Z" fill="#6ABC35"/>
<path d="M261.361 142.38L258.514 140.847L255.148 141.34C254.532 141.449 249.722 136.461 244.932 132.698C243.685 131.709 242.751 130.38 242.243 128.873C240.635 124.206 236.981 114.503 234.032 113.333C234.032 113.333 230.097 115.174 231.815 121.544L239.088 133.895C239.292 134.254 239.551 134.58 239.855 134.86L252.507 143.789L255.757 146.157L259.349 147.033C259.63 147.103 259.926 147.091 260.2 146.997C260.474 146.904 260.716 146.733 260.896 146.506L261.813 144.672C261.953 144.499 262.054 144.297 262.108 144.081C262.162 143.865 262.168 143.639 262.124 143.42C262.081 143.201 261.991 142.995 261.859 142.815C261.727 142.635 261.557 142.487 261.361 142.38Z" fill="#CE7A63"/>
<path d="M208.687 107.531C208.687 107.531 210.972 105.875 210.178 102.187C209.384 98.4985 209.2 97.4585 210.91 93.695C212.621 89.9316 213.771 81.6794 221.64 87.3245C221.64 87.3245 226.943 86.5103 228.701 91.3001C230.46 96.0899 228.872 96.3157 229.94 100.996C231.007 105.676 228.571 107.839 229.556 109.816C229.556 109.816 226.306 109.563 226.347 106.313C226.347 106.313 224.425 109.604 222.926 109.816C221.427 110.028 214.113 109.693 215.994 106.395C215.994 106.395 213.942 107.209 215.002 109.009C215.002 109.009 211.759 108.906 212.949 106.135C212.915 106.114 210.862 108.167 208.687 107.531Z" fill="#263238"/>
<path d="M222.953 100.996C222.584 103.863 222.379 109.091 224.486 110.843C222.367 112.738 220.009 114.348 217.473 115.632C214.154 113.238 215.687 111.445 215.687 111.445C218.786 110.459 218.554 108.133 217.883 105.971L222.953 100.996Z" fill="#CE7A63"/>
<path opacity="0.2" d="M220.873 103.042L217.856 105.984C218.028 106.487 218.154 107.005 218.232 107.531C219.43 107.271 221.174 106.073 221.215 104.794C221.207 104.194 221.092 103.601 220.873 103.042Z" fill="black"/>
<path d="M225.588 96.5691C224.295 101.14 223.85 103.104 220.99 104.972C216.693 107.784 211.362 105.198 211.259 100.333C211.171 95.9533 213.312 89.2201 218.232 88.358C219.319 88.1636 220.438 88.2504 221.483 88.61C222.527 88.9697 223.462 89.5904 224.199 90.4131C224.936 91.2357 225.45 92.2331 225.693 93.3106C225.937 94.388 225.9 95.5097 225.588 96.5691Z" fill="#CE7A63"/>
<path d="M215.002 96.3008C214.475 97.0865 213.847 97.7997 213.134 98.422C213.296 98.6015 213.495 98.7435 213.717 98.8381C213.939 98.9327 214.179 98.9775 214.421 98.9694L215.002 96.3008Z" fill="#BA4D3C"/>
<path d="M219.067 95.1249C219.098 95.1317 219.131 95.1317 219.163 95.1249C219.184 95.1128 219.202 95.0967 219.217 95.0774C219.232 95.0581 219.243 95.0361 219.249 95.0125C219.256 94.989 219.257 94.9645 219.254 94.9403C219.251 94.9161 219.243 94.8928 219.231 94.8717C219.062 94.5613 218.821 94.296 218.528 94.0983C218.235 93.9006 217.899 93.7763 217.548 93.7358C217.52 93.7305 217.491 93.7314 217.464 93.7384C217.437 93.7454 217.411 93.7584 217.39 93.7763C217.368 93.7943 217.35 93.8169 217.338 93.8424C217.326 93.8679 217.32 93.8958 217.32 93.924C217.32 93.9522 217.326 93.9801 217.338 94.0056C217.35 94.0311 217.368 94.0537 217.39 94.0717C217.411 94.0897 217.437 94.1026 217.464 94.1096C217.491 94.1166 217.52 94.1175 217.548 94.1122C217.835 94.1514 218.108 94.258 218.346 94.4233C218.584 94.5886 218.779 94.808 218.916 95.0633C218.936 95.0836 218.959 95.0996 218.985 95.1102C219.011 95.1208 219.039 95.1258 219.067 95.1249Z" fill="#263238"/>
<path d="M212.204 93.4833C212.235 93.4904 212.268 93.4904 212.3 93.4833C212.552 93.3383 212.835 93.2558 213.125 93.2427C213.416 93.2296 213.705 93.2863 213.969 93.408C214.014 93.4325 214.066 93.4383 214.115 93.4242C214.163 93.4101 214.205 93.3772 214.229 93.3328C214.252 93.2879 214.257 93.2362 214.243 93.1879C214.229 93.1397 214.197 93.0985 214.154 93.0727C213.831 92.9204 213.476 92.8478 213.118 92.8609C212.761 92.874 212.412 92.9724 212.101 93.148C212.078 93.1582 212.058 93.1731 212.041 93.1915C212.024 93.21 212.01 93.2318 212.002 93.2555C211.994 93.2791 211.99 93.3043 211.992 93.3293C211.994 93.3544 212.001 93.3788 212.012 93.4012C212.027 93.4334 212.051 93.4604 212.082 93.4787C212.112 93.497 212.148 93.5058 212.183 93.5038L212.204 93.4833Z" fill="#263238"/>
<path d="M217.801 96.2611C217.719 96.6306 217.452 96.8975 217.199 96.8427C216.946 96.788 216.823 96.4459 216.905 96.0627C216.987 95.6795 217.254 95.4263 217.5 95.4811C217.746 95.5358 217.876 95.8506 217.801 96.2611Z" fill="#263238"/>
<path d="M213.531 95.3287C213.456 95.7051 213.189 95.9651 212.943 95.9172C212.696 95.8693 212.559 95.5135 212.642 95.1371C212.724 94.7608 212.991 94.5008 213.237 94.5487C213.483 94.5965 213.62 94.9524 213.531 95.3287Z" fill="#263238"/>
<path d="M213.34 94.5971L212.491 94.1387C212.491 94.1387 212.806 94.9461 213.34 94.5971Z" fill="#263238"/>
<path d="M217.603 95.521L216.754 95.0625C216.754 95.0625 217.069 95.8494 217.603 95.521Z" fill="#263238"/>
<path d="M214.53 90.1437L221.599 92.2854L222.714 95.611L223.61 100.134L226.389 98.0811L228.099 94.1398L226.115 89.7195C226.115 89.7195 221.859 87.9199 221.729 87.9199C221.599 87.9199 218.136 86.9824 218.136 86.9824L215.331 87.5367L214.53 90.1437Z" fill="#263238"/>
<path d="M225.875 100.468C225.66 100.866 225.367 101.217 225.015 101.502C224.663 101.786 224.257 101.997 223.823 102.124C222.653 102.452 222.064 101.439 222.386 100.297C222.68 99.3046 223.645 97.9292 224.822 98.0866C225.232 98.1554 225.599 98.3841 225.841 98.7227C226.084 99.0613 226.182 99.4821 226.115 99.8931C226.075 100.099 225.993 100.294 225.875 100.468Z" fill="#CE7A63"/>
<path d="M222.427 93.2573C222.427 93.2573 220.668 95.0911 216.173 92.6688C211.677 90.2466 209.966 92.8399 209.72 95.4812C209.474 98.1224 208.413 99.3472 206.689 99.4225C204.964 99.4978 209.35 98.5398 208.776 94.53C208.201 90.5203 211.91 87.6053 214.585 88.8849C217.26 90.1645 222.023 89.6923 222.427 93.2573Z" fill="#263238"/>
<path d="M221.216 91.984C221.216 91.984 220.066 94.0916 221.216 97.1913C222.365 100.291 219.717 99.4698 221.216 102.186C221.152 101.693 221.217 101.192 221.402 100.731C221.588 100.27 221.889 99.8638 222.276 99.552C222.276 99.552 222.543 101.564 223.48 101.523C223.239 100.885 223.156 100.198 223.239 99.5213C223.321 98.8444 223.566 98.1976 223.953 97.636C225.28 95.6174 225.198 91.4708 221.216 91.984Z" fill="#263238"/>
<path d="M216.946 101.551C217.157 101.508 217.363 101.444 217.562 101.36C217.576 101.354 217.589 101.346 217.6 101.336C217.612 101.325 217.621 101.313 217.627 101.299C217.634 101.285 217.637 101.27 217.638 101.254C217.638 101.239 217.635 101.223 217.63 101.209C217.625 101.195 217.618 101.182 217.608 101.171C217.598 101.159 217.586 101.15 217.573 101.144C217.559 101.138 217.545 101.134 217.53 101.133C217.515 101.133 217.5 101.135 217.486 101.141C217.05 101.33 216.576 101.416 216.101 101.391C215.626 101.366 215.163 101.231 214.749 100.997C214.738 100.984 214.723 100.973 214.707 100.966C214.691 100.959 214.673 100.956 214.655 100.957C214.638 100.958 214.621 100.963 214.605 100.972C214.59 100.98 214.577 100.992 214.566 101.006C214.556 101.021 214.549 101.037 214.547 101.055C214.544 101.072 214.545 101.09 214.55 101.107C214.555 101.124 214.564 101.139 214.576 101.152C214.588 101.165 214.603 101.175 214.619 101.182C215.319 101.597 216.151 101.73 216.946 101.551Z" fill="#263238"/>
<path d="M225.766 110.98C222.451 110.435 219.091 110.224 215.734 110.35C214.982 111.424 214.209 113.737 216.863 117.644C219.233 114.719 222.292 112.429 225.766 110.98Z" fill="#CE7A63"/>
<path d="M85.1227 50.8635C64.718 39.6895 56.8148 18.32 56.7327 18.1079L56.1921 16.6094L57.6565 17.2457C57.807 17.3142 73.3124 24.0884 85.1843 25.1763L85.0543 26.5448C75.1804 25.6074 62.8979 20.886 58.6281 19.1411C60.8109 24.1499 68.9468 40.4559 85.7659 49.666L85.1227 50.8635Z" fill="#6ABC35"/>
<g opacity="0.5">
<path d="M85.1227 50.8635C64.718 39.6895 56.8148 18.32 56.7327 18.1079L56.1921 16.6094L57.6565 17.2457C57.807 17.3142 73.3124 24.0884 85.1843 25.1763L85.0543 26.5448C75.1804 25.6074 62.8979 20.886 58.6281 19.1411C60.8109 24.1499 68.9468 40.4559 85.7659 49.666L85.1227 50.8635Z" fill="white"/>
</g>
<path d="M258.302 52.6914L257.618 51.487C274.827 42.0648 282.936 23.186 284.9 18.5946C279.85 19.7031 260.991 25.7862 250.584 26.7715L250.461 25.403C262.401 24.2808 285.639 17.0345 285.871 16.9798L287.089 16.7061L286.665 17.883C286.61 18.0951 278.7 41.5174 258.302 52.6914Z" fill="#6ABC35"/>
<g opacity="0.5">
<path d="M258.302 52.6914L257.618 51.487C274.827 42.0648 282.936 23.186 284.9 18.5946C279.85 19.7031 260.991 25.7862 250.584 26.7715L250.461 25.403C262.401 24.2808 285.639 17.0345 285.871 16.9798L287.089 16.7061L286.665 17.883C286.61 18.0951 278.7 41.5174 258.302 52.6914Z" fill="white"/>
</g>
<path d="M85.7727 23.4034C102.879 26.8247 175.247 39.4151 252.945 23.2803C253.298 23.2111 253.663 23.2256 254.01 23.3228C254.357 23.42 254.676 23.5971 254.942 23.8399C255.208 24.0827 255.414 24.3845 255.542 24.721C255.67 25.0575 255.718 25.4195 255.682 25.7778C255.127 31.1424 254.806 42.2685 259.965 50.9244C260.151 51.2379 260.26 51.5912 260.283 51.9551C260.306 52.319 260.242 52.683 260.096 53.0173C259.95 53.3515 259.727 53.6462 259.445 53.8772C259.163 54.1082 258.83 54.2688 258.473 54.3457C246.307 56.9391 203.226 65.5402 165.941 65.5402C124.201 65.5402 93.1422 56.159 84.2742 53.1551C83.9744 53.0535 83.6989 52.8908 83.4651 52.6774C83.2312 52.464 83.0442 52.2045 82.9156 51.9152C82.787 51.626 82.7198 51.3132 82.7181 50.9966C82.7163 50.6801 82.7802 50.3666 82.9057 50.0759C84.4384 46.6067 86.5049 38.8951 83.0836 26.2773C82.9781 25.8966 82.9722 25.4951 83.0665 25.1114C83.1608 24.7276 83.3521 24.3746 83.622 24.0861C83.892 23.7976 84.2316 23.5833 84.6082 23.4637C84.9848 23.3442 85.3858 23.3234 85.7727 23.4034Z" fill="#6ABC35"/>
<path opacity="0.8" d="M85.7727 23.4034C102.879 26.8247 175.247 39.4151 252.945 23.2803C253.298 23.2111 253.663 23.2256 254.01 23.3228C254.357 23.42 254.676 23.5971 254.942 23.8399C255.208 24.0827 255.414 24.3845 255.542 24.721C255.67 25.0575 255.718 25.4195 255.682 25.7778C255.127 31.1424 254.806 42.2685 259.965 50.9244C260.151 51.2379 260.26 51.5912 260.283 51.9551C260.306 52.319 260.242 52.683 260.096 53.0173C259.95 53.3515 259.727 53.6462 259.445 53.8772C259.163 54.1082 258.83 54.2688 258.473 54.3457C246.307 56.9391 203.226 65.5402 165.941 65.5402C124.201 65.5402 93.1422 56.159 84.2742 53.1551C83.9744 53.0535 83.6989 52.8908 83.4651 52.6774C83.2312 52.464 83.0442 52.2045 82.9156 51.9152C82.787 51.626 82.7198 51.3132 82.7181 50.9966C82.7163 50.6801 82.7802 50.3666 82.9057 50.0759C84.4384 46.6067 86.5049 38.8951 83.0836 26.2773C82.9781 25.8966 82.9722 25.4951 83.0665 25.1114C83.1608 24.7276 83.3521 24.3746 83.622 24.0861C83.892 23.7976 84.2316 23.5833 84.6082 23.4637C84.9848 23.3442 85.3858 23.3234 85.7727 23.4034Z" fill="white"/>
<path opacity="0.1" d="M85.1843 25.1777C85.1843 25.1777 84.0963 26.0878 86.1491 30.1044C88.2019 34.121 86.1491 26.341 86.1491 26.341C86.1491 26.341 89.3994 28.4827 90.6789 27.7985C91.9585 27.1142 85.1843 25.1777 85.1843 25.1777Z" fill="black"/>
<path opacity="0.1" d="M247.519 27.3794C247.519 27.3794 252.165 25.1281 253.061 25.7303C253.957 26.3324 252.459 32.7713 251.59 32.6208C250.721 32.4703 252.042 26.7772 252.042 26.7772C252.042 26.7772 248.244 29.1242 247.519 27.3794Z" fill="black"/>
<path opacity="0.1" d="M85.1227 50.8655C85.1227 50.8655 86.2517 46.76 87.8597 47.3826L85.889 50.6876C85.889 50.6876 89.9946 50.6466 90.8431 52.3914C91.5411 53.7873 85.1227 50.8655 85.1227 50.8655Z" fill="black"/>
<path opacity="0.1" d="M255.244 47.6826C255.244 47.6826 255.819 50.7755 257.639 51.4871C259.459 52.1987 252.165 53.6767 252.048 52.3151C251.932 50.9534 256.154 51.8224 256.154 51.8224C256.154 51.8224 252.623 48.9074 255.244 47.6826Z" fill="black"/>
<path d="M99.5538 44.1647L95.4482 43.2888L94.2097 45.0269L92.0953 44.5752L97.9731 36.5215L100.026 36.9526L102.113 46.6964L99.9507 46.238L99.5538 44.1647ZM99.239 42.4746L98.5548 38.7659L96.4199 41.8792L99.239 42.4746Z" fill="#6ABC35"/>
<path d="M104.638 37.8906L106.691 38.2738L105.322 45.5338L109.804 46.3686L109.496 48.0519L102.934 46.8408L104.638 37.8906Z" fill="#6ABC35"/>
<path d="M112.117 39.251L114.17 39.5931L112.986 46.8805L117.488 47.6126L117.215 49.3028L110.632 48.2353L112.117 39.251Z" fill="#6ABC35"/>
<path d="M126.733 47.354L126.322 50.5564L124.228 50.2827L124.646 47.0598L121.909 40.8057L124.126 41.0931L126.014 45.4176L128.943 41.7157L130.996 41.9826L126.733 47.354Z" fill="#6ABC35"/>
<path d="M132.159 50.7954C131.459 50.3296 130.901 49.6789 130.549 48.9155C130.196 48.1521 130.062 47.3059 130.161 46.4709C130.239 45.6266 130.547 44.8197 131.05 44.1375C131.549 43.4715 132.221 42.9555 132.994 42.6459C133.821 42.3261 134.712 42.2065 135.595 42.2969C136.477 42.3872 137.326 42.685 138.071 43.1659C138.768 43.6362 139.324 44.2869 139.681 45.0485C140.037 45.8102 140.18 46.6542 140.094 47.4907C140.008 48.3271 139.697 49.1247 139.194 49.7983C138.691 50.4718 138.014 50.9962 137.236 51.3154C136.409 51.6352 135.518 51.7548 134.635 51.6645C133.753 51.5741 132.904 51.2763 132.159 50.7954ZM136.306 49.6595C136.758 49.4586 137.146 49.1365 137.428 48.7289C137.725 48.2967 137.904 47.7943 137.948 47.2715C138.009 46.7486 137.936 46.2187 137.736 45.7319C137.542 45.2791 137.227 44.8885 136.826 44.6028C136.41 44.3073 135.924 44.1278 135.416 44.0828C134.908 44.0247 134.394 44.1002 133.924 44.3018C133.478 44.5002 133.093 44.8144 132.809 45.2118C132.51 45.6465 132.329 46.1509 132.282 46.6762C132.22 47.1997 132.295 47.7304 132.501 48.2157C132.691 48.6712 133.006 49.0629 133.411 49.3448C133.826 49.6415 134.313 49.8212 134.821 49.8648C135.325 49.9267 135.837 49.8559 136.306 49.6595Z" fill="#6ABC35"/>
<path d="M142.176 51.2815C141.827 50.8424 141.571 50.3371 141.423 49.7961C141.275 49.255 141.238 48.6896 141.314 48.1339L141.67 43.0498L143.771 43.1935L143.422 48.2023C143.308 49.8217 143.924 50.6816 145.269 50.782C145.547 50.8208 145.83 50.7974 146.097 50.7134C146.365 50.6294 146.61 50.4868 146.816 50.2961C147.257 49.7954 147.501 49.1505 147.5 48.4828L147.849 43.4809L149.902 43.6246L149.539 48.7086C149.538 49.2697 149.422 49.8246 149.2 50.3398C148.978 50.8549 148.653 51.3196 148.246 51.7057C147.34 52.341 146.243 52.6455 145.139 52.5683C144.036 52.4911 142.992 52.0367 142.183 51.2815H142.176Z" fill="#6ABC35"/>
<path d="M163.464 44.0754L163.252 53.1692L161.521 53.1282L157.114 47.5035L156.984 53.0255L154.931 52.9776L155.143 43.877L156.888 43.918L161.281 49.5495L161.411 44.0275L163.464 44.0754Z" fill="#6ABC35"/>
<path d="M172.373 51.3705V53.0606L165.332 53.1359L165.222 44.0352L172.065 43.96V45.6501L167.275 45.7048V47.6823L171.504 47.6344V49.2698L167.426 49.3177V51.4253L172.373 51.3705Z" fill="#6ABC35"/>
<path d="M181.036 51.0541L181.111 52.7374L174.07 53.0179L173.714 43.9241L180.557 43.6504L180.625 45.3405L175.835 45.5253L175.917 47.5028L180.139 47.3386L180.201 48.9739L175.979 49.1382L176.061 51.2457L181.036 51.0541Z" fill="#6ABC35"/>
<path d="M182.151 43.5837L186.256 43.3236C187.158 43.2446 188.066 43.3806 188.905 43.7205C189.666 44.0229 190.323 44.5414 190.793 45.2122C191.253 45.9163 191.523 46.7274 191.577 47.5666C191.631 48.4059 191.467 49.2448 191.101 50.002C190.721 50.7172 190.144 51.3085 189.438 51.7058C188.647 52.148 187.764 52.3987 186.859 52.438L182.753 52.7049L182.151 43.5837ZM186.646 50.6863C187.444 50.672 188.205 50.3481 188.768 49.7831C189.251 49.1919 189.492 48.4396 189.442 47.6777C189.393 46.9159 189.056 46.2011 188.501 45.6775C187.872 45.1881 187.075 44.9668 186.284 45.0617L184.361 45.1848L184.724 50.8163L186.646 50.6863Z" fill="#6ABC35"/>
<path d="M196.247 42.5646L198.347 42.373L199.162 51.4395L197.068 51.6311L196.247 42.5646Z" fill="#6ABC35"/>
<path d="M202.166 51.0153C201.571 50.9249 200.998 50.7254 200.476 50.4268L201.023 48.7778C201.476 49.0361 201.968 49.2187 202.48 49.3183C203.015 49.4347 203.564 49.4671 204.109 49.4141C204.568 49.3965 205.015 49.2572 205.402 49.0104C205.524 48.9286 205.621 48.8155 205.684 48.683C205.746 48.5505 205.772 48.4036 205.758 48.2577C205.748 48.1557 205.715 48.0571 205.662 47.9695C205.608 47.8818 205.536 47.8073 205.45 47.7514C205.242 47.6161 205.01 47.5231 204.766 47.4777C204.492 47.4161 204.129 47.3545 203.671 47.2998C203.083 47.2313 202.501 47.1262 201.926 46.985C201.469 46.8641 201.049 46.6286 200.708 46.3007C200.343 45.9345 200.121 45.4485 200.086 44.9322C200.029 44.4248 200.127 43.9122 200.366 43.4611C200.639 42.9702 201.051 42.5704 201.55 42.3115C202.186 41.9762 202.885 41.7759 203.603 41.723C204.173 41.6509 204.75 41.6509 205.32 41.723C205.844 41.7938 206.354 41.9438 206.832 42.1678L206.353 43.8443C205.547 43.4743 204.658 43.3188 203.774 43.3926C203.317 43.4084 202.875 43.5557 202.501 43.8169C202.379 43.9074 202.283 44.0284 202.223 44.1678C202.163 44.3072 202.141 44.4599 202.159 44.6106C202.175 44.7606 202.237 44.9019 202.336 45.0157C202.435 45.1295 202.567 45.2102 202.713 45.247C203.212 45.4009 203.726 45.4996 204.246 45.5412C204.833 45.6143 205.415 45.7194 205.991 45.856C206.443 45.9835 206.859 46.2182 207.202 46.5402C207.572 46.9023 207.792 47.3912 207.818 47.9088C207.874 48.414 207.776 48.9243 207.537 49.3731C207.254 49.8616 206.839 50.2601 206.34 50.5226C205.702 50.8556 205.004 51.0579 204.287 51.1179C203.579 51.1849 202.864 51.1503 202.166 51.0153Z" fill="#6ABC35"/>
<path d="M211.978 40.9153L214.065 40.6484L215.002 47.9495L219.525 47.3747L219.744 49.0717L213.127 49.9202L211.978 40.9153Z" fill="#6ABC35"/>
<path d="M222.509 48.2504C221.723 47.9746 221.029 47.4867 220.504 46.8408C219.979 46.1727 219.64 45.3784 219.52 44.5376C219.4 43.6968 219.503 42.8391 219.82 42.051C220.14 41.2807 220.668 40.6149 221.345 40.1282C222.07 39.6176 222.905 39.2846 223.782 39.1562C224.659 39.0279 225.555 39.1077 226.395 39.3892C227.178 39.6711 227.87 40.1579 228.4 40.7988C228.802 41.286 229.101 41.8501 229.278 42.4567C229.454 43.0632 229.506 43.6994 229.428 44.3264C229.351 44.9535 229.146 45.5581 228.827 46.1033C228.508 46.6486 228.081 47.123 227.572 47.4977C226.857 48.0212 226.022 48.3554 225.143 48.4693C224.261 48.6196 223.354 48.5443 222.509 48.2504ZM226.272 46.136C226.66 45.8326 226.956 45.4275 227.127 44.9659C227.313 44.4728 227.365 43.9392 227.278 43.4195C227.211 42.8985 227.01 42.4036 226.696 41.9825C226.393 41.5866 225.986 41.2833 225.519 41.1067C225.042 40.9308 224.529 40.8769 224.026 40.9498C223.523 41.0227 223.046 41.2201 222.639 41.5241C222.251 41.8293 221.953 42.2336 221.776 42.6942C221.606 43.1914 221.557 43.7222 221.633 44.2424C221.709 44.7625 221.908 45.2569 222.214 45.6844C222.508 46.0864 222.908 46.3972 223.371 46.5808C223.847 46.7679 224.365 46.8223 224.869 46.7382C225.382 46.6666 225.867 46.4586 226.272 46.136Z" fill="#6ABC35"/>
<path d="M238.397 37.002L235.995 46.6227L233.942 46.9648L228.585 38.6237L230.829 38.2542L234.627 44.2141L236.331 37.3715L238.397 37.002Z" fill="#6ABC35"/>
<path d="M247.21 42.8987L247.518 44.5614L240.587 45.8479L238.931 36.8977L245.691 35.6318L245.999 37.2946L241.326 38.1773L241.682 40.1206L245.835 39.3474L246.136 40.9622L241.983 41.7354L242.366 43.7882L247.21 42.8987Z" fill="#6ABC35"/>
<g opacity="0.5">
<path d="M99.5538 44.1637L95.4482 43.2879L94.2097 45.0259L92.0953 44.5743L97.9731 36.5205L100.026 36.9516L102.113 46.6955L99.9507 46.237L99.5538 44.1637ZM99.239 42.4736L98.5548 38.7649L96.4199 41.8783L99.239 42.4736Z" fill="white"/>
<path d="M104.638 37.8906L106.691 38.2738L105.322 45.5338L109.804 46.3686L109.496 48.0519L102.934 46.8408L104.638 37.8906Z" fill="white"/>
<path d="M112.117 39.251L114.17 39.5931L112.986 46.8805L117.488 47.6126L117.215 49.3028L110.632 48.2353L112.117 39.251Z" fill="white"/>
<path d="M126.732 47.3531L126.322 50.5554L124.228 50.2817L124.645 47.0588L121.908 40.8047L124.125 41.0921L126.014 45.4166L128.943 41.7148L130.995 41.9816L126.732 47.3531Z" fill="white"/>
<path d="M132.159 50.7944C131.459 50.3286 130.901 49.6779 130.549 48.9145C130.196 48.1511 130.062 47.305 130.161 46.4699C130.239 45.6256 130.547 44.8188 131.05 44.1366C131.549 43.4705 132.221 42.9545 132.994 42.6449C133.821 42.3251 134.712 42.2055 135.595 42.2959C136.477 42.3863 137.325 42.684 138.071 43.1649C138.768 43.6353 139.324 44.2859 139.68 45.0475C140.037 45.8092 140.18 46.6532 140.094 47.4897C140.008 48.3262 139.697 49.1237 139.194 49.7973C138.691 50.4709 138.014 50.9952 137.236 51.3145C136.409 51.6343 135.517 51.7539 134.635 51.6635C133.753 51.5731 132.904 51.2753 132.159 50.7944ZM136.305 49.6586C136.758 49.4576 137.146 49.1356 137.428 48.728C137.725 48.2957 137.904 47.7933 137.948 47.2705C138.009 46.7476 137.936 46.2178 137.735 45.7309C137.542 45.2781 137.227 44.8875 136.825 44.6019C136.41 44.3063 135.924 44.1268 135.416 44.0818C134.908 44.0237 134.394 44.0992 133.924 44.3008C133.478 44.4992 133.093 44.8134 132.809 45.2109C132.51 45.6455 132.329 46.1499 132.282 46.6752C132.219 47.1987 132.295 47.7294 132.501 48.2148C132.69 48.6702 133.006 49.0619 133.411 49.3438C133.826 49.6406 134.313 49.8202 134.821 49.8638C135.325 49.9257 135.837 49.8549 136.305 49.6586Z" fill="white"/>
<path d="M142.176 51.2815C141.827 50.8424 141.571 50.3371 141.423 49.7961C141.275 49.255 141.238 48.6896 141.314 48.1339L141.67 43.0498L143.771 43.1935L143.422 48.2023C143.308 49.8217 143.924 50.6816 145.269 50.782C145.547 50.8208 145.83 50.7974 146.097 50.7134C146.365 50.6294 146.61 50.4868 146.816 50.2961C147.257 49.7954 147.501 49.1505 147.5 48.4828L147.849 43.4809L149.902 43.6246L149.539 48.7086C149.538 49.2697 149.422 49.8246 149.2 50.3398C148.978 50.8549 148.653 51.3196 148.246 51.7057C147.34 52.341 146.243 52.6455 145.139 52.5683C144.036 52.4911 142.992 52.0367 142.183 51.2815H142.176Z" fill="white"/>
<path d="M163.464 44.0773L163.252 53.1712L161.52 53.1301L157.114 47.5055L156.984 53.0275L154.931 52.9796L155.143 43.8789L156.888 43.92L161.281 49.5514L161.411 44.0294L163.464 44.0773Z" fill="white"/>
<path d="M172.373 51.3705V53.0606L165.332 53.1359L165.222 44.0352L172.065 43.96V45.6501L167.275 45.7048V47.6823L171.504 47.6344V49.2698L167.425 49.3177V51.4253L172.373 51.3705Z" fill="white"/>
<path d="M181.035 51.056L181.111 52.7393L174.07 53.0199L173.714 43.926L180.556 43.6523L180.625 45.3425L175.835 45.5272L175.917 47.5047L180.139 47.3405L180.201 48.9759L175.979 49.1401L176.061 51.2476L181.035 51.056Z" fill="white"/>
<path d="M182.151 43.5837L186.256 43.3236C187.158 43.2446 188.066 43.3806 188.905 43.7205C189.666 44.0229 190.323 44.5414 190.793 45.2122C191.253 45.9163 191.523 46.7274 191.577 47.5666C191.631 48.4059 191.467 49.2448 191.101 50.002C190.721 50.7172 190.144 51.3085 189.438 51.7058C188.647 52.148 187.764 52.3987 186.859 52.438L182.753 52.7049L182.151 43.5837ZM186.646 50.6863C187.444 50.672 188.205 50.3481 188.768 49.7831C189.251 49.1919 189.492 48.4396 189.442 47.6777C189.393 46.9159 189.056 46.2011 188.501 45.6775C187.872 45.1881 187.075 44.9668 186.284 45.0617L184.361 45.1848L184.724 50.8163L186.646 50.6863Z" fill="white"/>
<path d="M196.247 42.5617L198.347 42.3701L199.162 51.4366L197.068 51.6282L196.247 42.5617Z" fill="white"/>
<path d="M202.166 51.0124C201.571 50.922 200.998 50.7225 200.476 50.4239L201.023 48.7748C201.476 49.0332 201.968 49.2158 202.48 49.3154C203.015 49.4318 203.564 49.4641 204.109 49.4112C204.568 49.3936 205.015 49.2543 205.402 49.0075C205.524 48.9257 205.621 48.8125 205.684 48.6801C205.746 48.5476 205.772 48.4007 205.758 48.2548C205.748 48.1527 205.715 48.0542 205.662 47.9666C205.608 47.8789 205.536 47.8044 205.45 47.7485C205.242 47.6132 205.01 47.5202 204.766 47.4747C204.492 47.4132 204.129 47.3516 203.671 47.2968C203.083 47.2284 202.501 47.1233 201.926 46.9821C201.469 46.8612 201.049 46.6257 200.708 46.2978C200.343 45.9315 200.121 45.4456 200.086 44.9293C200.029 44.4219 200.127 43.9093 200.366 43.4581C200.639 42.9672 201.051 42.5675 201.55 42.3086C202.186 41.9733 202.885 41.7729 203.603 41.7201C204.173 41.648 204.75 41.648 205.32 41.7201C205.844 41.7909 206.354 41.9409 206.832 42.1649L206.353 43.8413C205.547 43.4714 204.658 43.3159 203.774 43.3897C203.317 43.4055 202.875 43.5528 202.501 43.814C202.379 43.9044 202.283 44.0255 202.223 44.1649C202.163 44.3042 202.141 44.457 202.159 44.6077C202.175 44.7577 202.237 44.899 202.336 45.0128C202.435 45.1265 202.567 45.2072 202.713 45.2441C203.212 45.398 203.726 45.4967 204.246 45.5383C204.833 45.6114 205.415 45.7164 205.991 45.8531C206.443 45.9806 206.859 46.2153 207.202 46.5373C207.572 46.8994 207.792 47.3883 207.818 47.9058C207.874 48.4111 207.776 48.9214 207.537 49.3702C207.254 49.8587 206.839 50.2572 206.34 50.5197C205.702 50.8526 205.004 51.055 204.287 51.115C203.579 51.182 202.864 51.1474 202.166 51.0124Z" fill="white"/>
<path d="M211.978 40.9143L214.065 40.6475L215.002 47.9485L219.525 47.3737L219.744 49.0707L213.127 49.9192L211.978 40.9143Z" fill="white"/>
<path d="M222.509 48.2494C221.723 47.9736 221.029 47.4858 220.504 46.8398C219.979 46.1718 219.64 45.3774 219.52 44.5366C219.4 43.6958 219.503 42.8382 219.82 42.05C220.14 41.2797 220.668 40.6139 221.345 40.1272C222.07 39.6166 222.905 39.2836 223.782 39.1553C224.659 39.0269 225.555 39.1067 226.395 39.3882C227.178 39.6702 227.87 40.157 228.4 40.7978C228.802 41.285 229.101 41.8491 229.278 42.4557C229.454 43.0622 229.506 43.6985 229.428 44.3255C229.351 44.9525 229.146 45.5571 228.827 46.1024C228.508 46.6476 228.081 47.1221 227.572 47.4967C226.857 48.0202 226.022 48.3544 225.143 48.4684C224.261 48.6186 223.354 48.5433 222.509 48.2494ZM226.272 46.135C226.66 45.8316 226.956 45.4266 227.127 44.9649C227.313 44.4718 227.365 43.9382 227.278 43.4185C227.211 42.8975 227.01 42.4026 226.696 41.9816C226.393 41.5856 225.986 41.2823 225.519 41.1057C225.042 40.9299 224.529 40.8759 224.026 40.9488C223.523 41.0217 223.046 41.2191 222.639 41.5231C222.251 41.8283 221.953 42.2326 221.776 42.6932C221.606 43.1904 221.557 43.7213 221.633 44.2414C221.709 44.7616 221.908 45.256 222.214 45.6834C222.508 46.0854 222.908 46.3962 223.371 46.5798C223.847 46.7669 224.365 46.8213 224.869 46.7372C225.382 46.6656 225.867 46.4576 226.272 46.135Z" fill="white"/>
<path d="M238.397 37.001L235.996 46.6217L233.943 46.9638L228.585 38.6227L230.829 38.2532L234.627 44.2131L236.331 37.3705L238.397 37.001Z" fill="white"/>
<path d="M247.21 42.8987L247.518 44.5614L240.587 45.8479L238.931 36.8977L245.691 35.6318L245.999 37.2946L241.326 38.1773L241.682 40.1206L245.835 39.3474L246.136 40.9622L241.983 41.7354L242.366 43.7882L247.21 42.8987Z" fill="white"/>
</g>
</g>
<defs>
<clipPath id="clip0_939_10802">
<rect width="342.131" height="342.131" fill="white" transform="translate(0.466064 -21.1592)"/>
</clipPath>
</defs>
</svg>
