<svg width="24" height="33" viewBox="0 0 24 33" fill="none" xmlns="http://www.w3.org/2000/svg">
<path d="M10.3171 12.0594V12.5594H10.8171H19.9003V17.1872H10.8171H10.3171L10.3171 17.6872L10.3171 31.752H4.26331L4.26332 11.2869C4.26332 7.88646 5.2839 5.32529 7.26945 3.52858L7.26946 3.52859L7.2718 3.52644C9.26617 1.69861 12.099 0.751953 15.8403 0.751953C17.2553 0.751953 18.5705 0.895656 19.7878 1.18023L19.7898 1.18069C20.8628 1.42689 21.7849 1.75855 22.5624 2.17043L20.8465 6.81323C19.5122 6.1246 18.0181 5.78442 16.3747 5.78442C14.5028 5.78442 12.9913 6.20329 11.9179 7.11764C10.8236 8.04981 10.3171 9.43651 10.3171 11.1766V12.0594Z" stroke="#FF7B22"/>
<rect x="0.481079" y="12.0713" width="22.6984" height="5.62162" fill="#FF7B22"/>
<rect x="0.481079" y="19.5664" width="22.6984" height="5.62162" fill="#FF7B22"/>
</svg>
