<svg width="35" height="52" viewBox="0 0 35 52" fill="none" xmlns="http://www.w3.org/2000/svg">
<path fill-rule="evenodd" clip-rule="evenodd" d="M17.2022 31.9836C19.8786 31.9836 22.0684 29.7938 22.0684 27.1174C22.0684 24.441 19.8786 22.2512 17.2022 22.2512C14.5258 22.2512 12.3361 24.441 12.3361 27.1174C12.3361 29.7938 14.5258 31.9836 17.2022 31.9836ZM0.170654 27.1174C0.170654 24.441 2.36043 22.2512 5.03682 22.2512C7.71321 22.2512 9.90298 24.441 9.90298 27.1174C9.90298 29.7938 7.71321 31.9836 5.03682 31.9836C2.36043 31.9836 0.170654 29.7938 0.170654 27.1174ZM24.5015 27.1174C24.5015 24.441 26.6912 22.2512 29.3676 22.2512C32.044 22.2512 34.2338 24.441 34.2338 27.1174C34.2338 29.7938 32.044 31.9836 29.3676 31.9836C26.6912 31.9836 24.5015 29.7938 24.5015 27.1174ZM18.4188 17.3851C18.4188 14.7087 20.6085 12.5189 23.2849 12.5189C25.9613 12.5189 28.1511 14.7087 28.1511 17.3851C28.1511 20.0615 25.9613 22.2512 23.2849 22.2512C20.6085 22.2512 18.4188 20.0615 18.4188 17.3851ZM6.25336 17.3851C6.25336 14.7087 8.44313 12.5189 11.1195 12.5189C13.7959 12.5189 15.9857 14.7087 15.9857 17.3851C15.9857 20.0615 13.7959 22.2512 11.1195 22.2512C8.44313 22.2512 6.25336 20.0615 6.25336 17.3851ZM18.4188 36.8497C18.4188 34.1733 20.6085 31.9836 23.2849 31.9836C25.9613 31.9836 28.1511 34.1733 28.1511 36.8497C28.1511 39.5261 25.9613 41.7159 23.2849 41.7159C20.6085 41.7159 18.4188 39.5261 18.4188 36.8497ZM6.25336 36.8497C6.25336 34.1733 8.44313 31.9836 11.1195 31.9836C13.7959 31.9836 15.9857 34.1733 15.9857 36.8497C15.9857 39.5261 13.7959 41.7159 11.1195 41.7159C8.44313 41.7159 6.25336 39.5261 6.25336 36.8497ZM12.3361 46.582C12.3361 43.9057 14.5258 41.7159 17.2022 41.7159C19.8786 41.7159 22.0684 43.9057 22.0684 46.582C22.0684 49.2584 19.8786 51.4482 17.2022 51.4482C14.5258 51.4482 12.3361 49.2584 12.3361 46.582Z" fill="white"/>
<path d="M23.0416 3.27321L21.0952 0.353516C15.7424 2.7866 15.2558 11.5457 15.2558 12.5189H18.9054L18.9126 12.4611C19.1631 10.4548 19.9093 4.47795 23.0416 3.27321Z" fill="white"/>
</svg>
