<svg width="245" height="245" viewBox="0 0 245 245" fill="none" xmlns="http://www.w3.org/2000/svg">
<g clip-path="url(#clip0_950_6152)">
<path d="M220.3 194.926H204.102V195.048H220.3V194.926Z" fill="#EBEBEB"/>
<path d="M162.255 196.256H158.005V196.379H162.255V196.256Z" fill="#EBEBEB"/>
<path d="M203.612 190.388H194.227V190.51H203.612V190.388Z" fill="#EBEBEB"/>
<path d="M47.0406 191.209H25.9169V191.331H47.0406V191.209Z" fill="#EBEBEB"/>
<path d="M54.4944 191.209H51.3984V191.331H54.4944V191.209Z" fill="#EBEBEB"/>
<path d="M110.377 193.272H64.5597V193.395H110.377V193.272Z" fill="#EBEBEB"/>
<path d="M116.858 165.243H22.415C21.6743 165.243 20.964 164.949 20.4403 164.425C19.9165 163.902 19.6223 163.191 19.6223 162.451V29.6974C19.6288 28.961 19.9258 28.257 20.4489 27.7385C20.9719 27.22 21.6786 26.9292 22.415 26.9292H116.858C117.225 26.9292 117.588 27.0014 117.927 27.1418C118.266 27.2821 118.573 27.4878 118.833 27.7472C119.092 28.0065 119.298 28.3144 119.438 28.6532C119.578 28.992 119.651 29.3552 119.651 29.7219V162.451C119.651 162.817 119.578 163.181 119.438 163.519C119.298 163.858 119.092 164.166 118.833 164.425C118.573 164.685 118.266 164.89 117.927 165.031C117.588 165.171 117.225 165.243 116.858 165.243ZM22.415 27.027C21.7072 27.0283 21.0287 27.3101 20.5282 27.8106C20.0276 28.3111 19.7459 28.9896 19.7446 29.6974V162.451C19.7459 163.159 20.0276 163.837 20.5282 164.338C21.0287 164.838 21.7072 165.12 22.415 165.121H116.858C117.566 165.12 118.244 164.838 118.745 164.338C119.245 163.837 119.527 163.159 119.528 162.451V29.6974C119.527 28.9896 119.245 28.3111 118.745 27.8106C118.244 27.3101 117.566 27.0283 116.858 27.027H22.415Z" fill="#EBEBEB"/>
<path d="M222.648 165.243H128.205C127.464 165.243 126.754 164.949 126.23 164.425C125.706 163.902 125.412 163.191 125.412 162.451V29.6974C125.419 28.961 125.716 28.257 126.239 27.7385C126.762 27.22 127.468 26.9292 128.205 26.9292H222.648C223.388 26.9292 224.099 27.2234 224.623 27.7472C225.146 28.2709 225.44 28.9812 225.44 29.7219V162.451C225.44 163.191 225.146 163.902 224.623 164.425C224.099 164.949 223.388 165.243 222.648 165.243ZM128.205 27.027C127.497 27.0283 126.818 27.3101 126.318 27.8106C125.817 28.3111 125.536 28.9896 125.534 29.6974V162.451C125.536 163.159 125.817 163.837 126.318 164.338C126.818 164.838 127.497 165.12 128.205 165.121H222.648C223.356 165.12 224.034 164.838 224.535 164.338C225.035 163.837 225.317 163.159 225.318 162.451V29.6974C225.317 28.9896 225.035 28.3111 224.535 27.8106C224.034 27.3101 223.356 27.0283 222.648 27.027H128.205Z" fill="#EBEBEB"/>
<path d="M244.803 187.057H0.259277V187.179H244.803V187.057Z" fill="#EBEBEB"/>
<path d="M64.9264 46.8691H25.4081V98.2088H64.9264V46.8691Z" fill="#E6E6E6"/>
<path d="M61.8843 50.8213H28.4453V94.2621H61.8843V50.8213Z" fill="#EBEBEB"/>
<path d="M59.7911 53.5405H30.5387V91.5476H59.7911V53.5405Z" fill="#F0F0F0"/>
<path d="M40.8682 75.0161L30.5387 85.3457V91.5424H57.3994L40.8682 75.0161Z" fill="#FAFAFA"/>
<path d="M51.7554 71.2945C53.9758 71.2945 55.7757 69.4946 55.7757 67.2742C55.7757 65.0539 53.9758 63.2539 51.7554 63.2539C49.5351 63.2539 47.7351 65.0539 47.7351 67.2742C47.7351 69.4946 49.5351 71.2945 51.7554 71.2945Z" fill="white"/>
<path d="M135.908 52.1367C135.908 52.1367 153.794 34.7056 178.053 34.7056C202.311 34.7056 217.904 52.1367 217.904 52.1367V145.411H135.908V52.1367Z" fill="#F5F5F5"/>
<path d="M215.864 52.8067C205.462 42.7224 191.543 37.083 177.055 37.083C162.567 37.083 148.648 42.7224 138.246 52.8067V143.64H215.864V52.8067ZM213.419 141.214H140.672V53.8289C150.547 44.617 163.55 39.4942 177.055 39.4942C190.56 39.4942 203.562 44.617 213.438 53.8289L213.419 141.214Z" fill="#E0E0E0"/>
<path d="M220.109 147.886H134V51.0461L134.622 50.4249C145.876 39.1725 161.14 32.8511 177.055 32.8511C192.97 32.8511 208.233 39.1725 219.488 50.4249L220.109 51.0461V147.886ZM138.246 143.64H215.864V52.8068C205.462 42.7224 191.543 37.0831 177.055 37.0831C162.567 37.0831 148.648 42.7224 138.246 52.8068V143.64Z" fill="#EBEBEB"/>
<path d="M192.818 142.545V100.566H214.969V96.3257H192.818V54.5526H214.969V53.193C213.913 52.1806 212.812 51.2366 211.687 50.3123H192.818V40.2908C191.424 39.8751 190.006 39.523 188.573 39.2197V50.3123H165.532V39.2197C164.099 39.523 162.685 39.8751 161.287 40.2908V50.3123H142.432C141.312 51.2268 140.212 52.1806 139.155 53.193V54.5526H161.287V96.3257H139.16V100.566H161.292V142.545H165.537V100.566H188.558V142.545H192.818ZM188.558 96.3257H165.532V54.5526H188.558V96.3257Z" fill="#E6E6E6"/>
<path d="M97.8959 187.14C98.1778 183.649 98.7156 180.184 99.505 176.771C100.148 173.862 101.058 171.018 102.224 168.276C103.571 164.956 105.529 161.919 107.996 159.321C108.609 158.695 109.263 158.11 109.952 157.57C110.735 156.968 109.952 155.613 109.169 156.225C108.182 156.979 107.262 157.819 106.421 158.734C103.725 161.723 101.615 165.192 100.2 168.961C99.3644 171.111 98.6764 173.315 98.1405 175.558C97.2231 179.371 96.6098 183.25 96.3064 187.16L97.8959 187.14Z" fill="#E0E0E0"/>
<path d="M88.5544 150.311C90.9069 150.042 92.8878 152.449 93.9099 154.224C99.2214 163.404 97.1673 177.255 96.1598 187.1H94.5996C95.5777 177.519 97.358 165.033 93.0296 155.921C92.2862 154.356 90.6966 151.637 88.5544 151.881C87.5763 151.999 87.5763 150.414 88.5544 150.321V150.311Z" fill="#E0E0E0"/>
<path d="M82.8321 162.92C92.7068 160.474 93.9393 182.371 94.2327 187.091H92.6677C92.2764 180.708 91.9585 171.557 87.3415 166.432C86.4073 165.395 84.7836 164.05 83.2478 164.426C82.2696 164.666 81.8588 163.16 82.8321 162.92Z" fill="#E0E0E0"/>
<path d="M112.089 172.859C107.169 169.215 104.264 173.543 102.601 178.547C101.735 181.359 101.143 184.248 100.835 187.174H99.2703C99.5197 184.568 99.8572 180.938 100.865 177.691C101.872 174.443 103.584 171.582 106.567 170.492C107.626 170.143 108.752 170.053 109.852 170.231C110.952 170.409 111.992 170.849 112.886 171.514C113.684 172.101 112.901 173.46 112.089 172.859Z" fill="#E0E0E0"/>
<path d="M79.8242 176.213C81.0469 174.971 82.9299 174.149 84.6808 174.443C89.6598 175.279 91.039 183.207 91.7971 187.105H90.2907C89.6402 183.74 86.5002 171.68 80.9246 177.324C80.2204 178.038 79.115 176.932 79.8242 176.218V176.213Z" fill="#E0E0E0"/>
<path d="M112.784 181.246C105.663 181.246 98.6931 178.36 97.221 174.8C95.7488 171.239 100.322 168.353 107.443 168.353C109.738 168.356 112.024 168.649 114.246 169.224C116.217 168.615 118.272 168.322 120.335 168.353C127.452 168.353 134.421 171.239 135.893 174.8C137.365 178.36 132.792 181.246 125.671 181.246H112.784Z" fill="#E0E0E0"/>
<path d="M66.3254 167.444C60.5053 167.444 58.143 165.087 61.0531 162.172C63.9631 159.257 71.05 156.899 76.8702 156.899C78.4275 156.847 79.9806 157.09 81.448 157.614C83.41 157.159 85.4157 156.92 87.4296 156.899C93.2546 156.899 95.6169 159.262 92.702 162.172C89.787 165.082 82.7099 167.444 76.8848 167.444H66.3254Z" fill="#E0E0E0"/>
<path d="M119.886 162.172C112.549 162.172 103.648 159.203 99.9845 155.54C96.3212 151.877 99.2949 148.908 106.621 148.908C109.156 148.932 111.68 149.232 114.149 149.803C115.988 149.147 117.934 148.843 119.886 148.908C127.222 148.908 136.123 151.877 139.787 155.54C143.45 159.203 140.481 162.172 133.154 162.172H119.886Z" fill="#E0E0E0"/>
<path d="M79.154 153.603C75.4907 153.603 73.1333 152.136 73.8914 150.287C74.6495 148.438 78.2394 146.971 81.9027 146.971C82.963 146.954 84.0193 147.105 85.0329 147.416C86.1768 147.121 87.3534 146.972 88.5347 146.971C92.198 146.971 94.5505 148.438 93.7924 150.287C93.0343 152.136 89.4493 153.603 85.7861 153.603H79.154Z" fill="#F0F0F0"/>
<path d="M75.124 179.95C71.4607 179.95 67.8757 178.483 67.1176 176.629C66.3595 174.775 68.712 173.313 72.3753 173.313C73.5569 173.315 74.7334 173.466 75.8772 173.763C76.8921 173.449 77.9501 173.298 79.0122 173.313C82.6755 173.313 86.2605 174.78 87.0186 176.629C87.7767 178.478 85.4193 179.95 81.756 179.95H75.124Z" fill="#E0E0E0"/>
<path d="M80.4404 158.895C80.4404 158.895 72.3069 161.605 69.7343 166.075C69.7343 166.075 70.1402 159.57 80.4404 158.895Z" fill="#FAFAFA"/>
<path d="M84.2652 148.257C82.9502 149.012 81.7889 150.007 80.8416 151.191C81.0684 150.424 81.5123 149.739 82.1197 149.218C82.7272 148.697 83.4723 148.364 84.2652 148.257Z" fill="#FAFAFA"/>
<path d="M115.801 151.197C115.801 151.197 124.605 154.42 130.034 160.519C130.034 160.519 125.833 152.038 115.801 151.197Z" fill="#FAFAFA"/>
<path d="M115.801 170.814C119.463 172.342 122.647 174.825 125.021 178.004C125.021 178.004 123.392 171.895 115.801 170.814Z" fill="#FAFAFA"/>
<path d="M75.8235 175.289C76.4768 175.631 77.0317 176.135 77.4349 176.752C77.8382 177.369 78.0765 178.08 78.1271 178.815C78.1271 178.815 76.2294 177.182 75.8235 175.289Z" fill="#FAFAFA"/>
<path d="M72.0329 42.8392C71.4901 45.7395 71.1232 51.1537 71.1232 57.3798C71.1232 63.6059 71.4901 69.025 72.0329 71.9204C71.7324 72.045 71.4585 72.2259 71.226 72.4535C70.2869 73.3975 70.6244 75.2658 71.226 75.8772C71.8275 76.4885 73.7007 76.8211 74.6496 75.8772C74.8501 75.6717 74.8746 75.3196 75.1142 75.1973C77.139 74.2191 80.9833 75.9799 85.1601 75.9799C89.3369 75.9799 93.1762 74.1996 95.2011 75.1973C96.0129 75.5984 96.414 76.5814 97.3775 76.5814C98.341 76.5814 98.7421 75.6033 99.554 75.1973C101.574 74.2191 105.423 75.9799 109.595 75.9799C113.767 75.9799 117.616 74.1996 119.636 75.1973C119.88 75.3196 119.9 75.6864 120.125 75.8772C121.069 76.8211 122.937 76.4787 123.549 75.8772C124.16 75.2756 124.493 73.4024 123.549 72.4535C123.314 72.2188 122.898 72.1992 122.747 71.9204C121.328 69.338 123.651 63.6059 123.651 57.3798C123.651 51.1537 121.328 45.4265 122.747 42.8392C122.898 42.5653 123.314 42.5458 123.549 42.311C124.493 41.3671 124.155 39.4988 123.549 38.8874C122.942 38.276 121.103 37.9435 120.125 38.8874C119.92 39.0879 119.9 39.445 119.636 39.5672C117.616 40.5454 113.767 38.7847 109.595 38.7847C105.423 38.7847 101.574 40.565 99.554 39.5672C98.7372 39.1564 98.3361 38.1782 97.3726 38.1782C96.4091 38.1782 96.0081 39.1564 95.1962 39.5623C93.1713 40.5405 89.3271 38.7798 85.1552 38.7798C80.9833 38.7798 77.1341 40.5601 75.1093 39.5623C74.8697 39.4401 74.8452 39.0733 74.6447 38.8825C73.7007 37.9386 71.8324 38.2809 71.2211 38.8825C70.6097 39.4841 70.282 41.3573 71.2211 42.3061C71.4533 42.5363 71.7294 42.7176 72.0329 42.8392Z" fill="#E0E0E0"/>
<path d="M73.1335 41.7386C72.5906 44.6389 72.2238 50.0532 72.2238 56.2792C72.2238 62.5053 72.5906 67.9244 73.1335 70.8198C72.8328 70.9414 72.56 71.1228 72.3314 71.353C71.3875 72.2969 71.725 74.1652 72.3314 74.7766C72.9379 75.3879 74.7769 75.7156 75.755 74.7766C75.9556 74.5712 75.98 74.219 76.2197 74.0967C78.2445 73.1186 82.0887 74.8793 86.2656 74.8793C90.4424 74.8793 94.2817 73.099 96.3065 74.0967C97.1184 74.4978 97.5195 75.4809 98.483 75.4809C99.4465 75.4809 99.8475 74.5027 100.659 74.0967C102.684 73.1186 106.528 74.8793 110.7 74.8793C114.872 74.8793 118.721 73.099 120.741 74.0967C120.986 74.219 121.01 74.5858 121.23 74.7766C122.174 75.7156 124.043 75.3782 124.654 74.7766C125.265 74.175 125.598 72.3018 124.654 71.353C124.419 71.1182 124.004 71.0986 123.852 70.8198C122.434 68.2326 124.757 62.5053 124.757 56.2792C124.757 50.0532 122.434 44.3259 123.852 41.7386C124.004 41.4648 124.419 41.4452 124.654 41.2104C125.598 40.2665 125.261 38.3982 124.654 37.7868C124.048 37.1755 122.209 36.8429 121.23 37.7868C121.03 37.9873 121.005 38.3444 120.766 38.4666C118.741 39.4448 114.897 37.6841 110.72 37.6841C106.543 37.6841 102.704 39.4595 100.679 38.4618C99.8671 38.0656 99.466 37.0776 98.5025 37.0776C97.539 37.0776 97.138 38.0558 96.3261 38.4618C94.3013 39.4399 90.457 37.6841 86.2851 37.6841C82.1132 37.6841 78.2641 39.4644 76.2392 38.4666C75.9996 38.3444 75.9751 37.9776 75.7746 37.7868C74.8307 36.8429 72.9623 37.1852 72.351 37.7868C71.7396 38.3884 71.407 40.2616 72.351 41.2104C72.574 41.437 72.84 41.6166 73.1335 41.7386Z" fill="#FAFAFA"/>
<path d="M120.159 70.8298V41.729H76.7819V70.8298H120.159Z" fill="#EBEBEB"/>
<path d="M117.166 68.8192V43.7339H79.7753V68.8192H117.166Z" fill="#F5F5F5"/>
<path d="M109.591 58.5341C110.229 55.8289 108.554 53.1184 105.849 52.4799C103.144 51.8414 100.433 53.5168 99.7946 56.222C99.1561 58.9271 100.832 61.6377 103.537 62.2762C106.242 62.9147 108.952 61.2393 109.591 58.5341Z" fill="#E0E0E0"/>
<path d="M85.1356 52.3472L93.9392 59.7079L85.1356 62.4175V52.3472Z" fill="#EBEBEB"/>
<path d="M110.955 48.8058C105.222 45.2843 98.1013 47.8276 93.4208 51.8283C92.7018 52.4446 93.7436 53.4766 94.4576 52.8701C98.6344 49.2949 105.071 46.913 110.216 50.0725C111.023 50.5616 111.762 49.2998 110.955 48.8058Z" fill="#EBEBEB"/>
<path d="M114.789 63.6207L112.036 60.9307L109.732 63.6207L112.261 66.0661L114.789 63.6207Z" fill="#EBEBEB"/>
<path d="M108.128 94.0659H86.2557C85.8992 94.0659 85.6101 94.355 85.6101 94.7115V99.6366C85.6101 99.9932 85.8992 100.282 86.2557 100.282H108.128C108.484 100.282 108.773 99.9932 108.773 99.6366V94.7115C108.773 94.355 108.484 94.0659 108.128 94.0659Z" fill="#F5F5F5"/>
<path d="M108.128 109.487H86.2557C85.8992 109.487 85.6101 109.776 85.6101 110.132V115.058C85.6101 115.414 85.8992 115.703 86.2557 115.703H108.128C108.484 115.703 108.773 115.414 108.773 115.058V110.132C108.773 109.776 108.484 109.487 108.128 109.487Z" fill="#F5F5F5"/>
<path d="M101.056 101.77H79.1836C78.827 101.77 78.538 102.059 78.538 102.415V107.34C78.538 107.697 78.827 107.986 79.1836 107.986H101.056C101.412 107.986 101.701 107.697 101.701 107.34V102.415C101.701 102.059 101.412 101.77 101.056 101.77Z" fill="#F5F5F5"/>
<path d="M125.3 101.77H103.428C103.071 101.77 102.782 102.059 102.782 102.415V107.34C102.782 107.697 103.071 107.986 103.428 107.986H125.3C125.656 107.986 125.945 107.697 125.945 107.34V102.415C125.945 102.059 125.656 101.77 125.3 101.77Z" fill="#F0F0F0"/>
<path d="M100.121 127.192C100.056 127.192 99.9942 127.166 99.9483 127.121C99.9025 127.075 99.8767 127.012 99.8767 126.948V118.389C99.8767 118.324 99.9025 118.262 99.9483 118.216C99.9942 118.17 100.056 118.144 100.121 118.144C100.186 118.144 100.248 118.17 100.294 118.216C100.34 118.262 100.366 118.324 100.366 118.389V126.938C100.367 126.971 100.362 127.004 100.35 127.034C100.338 127.065 100.321 127.093 100.298 127.117C100.275 127.141 100.247 127.16 100.217 127.173C100.187 127.186 100.154 127.192 100.121 127.192Z" fill="#6ABC35"/>
<path d="M87.5469 132.65C87.5144 132.651 87.4822 132.645 87.4519 132.634C87.4217 132.622 87.3941 132.604 87.3708 132.582L81.13 126.336C81.1066 126.314 81.088 126.288 81.0752 126.258C81.0625 126.229 81.0559 126.197 81.0559 126.165C81.0559 126.133 81.0625 126.101 81.0752 126.072C81.088 126.042 81.1066 126.016 81.13 125.994C81.1527 125.971 81.1798 125.953 81.2096 125.94C81.2394 125.928 81.2714 125.921 81.3036 125.921C81.3359 125.921 81.3679 125.928 81.3977 125.94C81.4275 125.953 81.4545 125.971 81.4773 125.994L87.718 132.234C87.741 132.257 87.7591 132.284 87.7716 132.314C87.784 132.344 87.7904 132.376 87.7904 132.408C87.7904 132.44 87.784 132.472 87.7716 132.502C87.7591 132.532 87.741 132.559 87.718 132.582C87.6958 132.604 87.6691 132.622 87.6396 132.634C87.6101 132.646 87.5786 132.651 87.5469 132.65Z" fill="#6ABC35"/>
<path d="M112.686 132.65C112.654 132.651 112.623 132.645 112.594 132.633C112.564 132.621 112.538 132.604 112.515 132.582C112.47 132.535 112.445 132.473 112.445 132.408C112.445 132.343 112.47 132.281 112.515 132.234L118.756 125.994C118.778 125.971 118.805 125.953 118.835 125.94C118.865 125.928 118.897 125.921 118.929 125.921C118.962 125.921 118.994 125.928 119.023 125.94C119.053 125.953 119.08 125.971 119.103 125.994C119.126 126.016 119.145 126.042 119.158 126.072C119.17 126.101 119.177 126.133 119.177 126.165C119.177 126.197 119.17 126.229 119.158 126.258C119.145 126.288 119.126 126.314 119.103 126.336L112.862 132.572C112.84 132.596 112.812 132.616 112.782 132.629C112.752 132.643 112.719 132.65 112.686 132.65Z" fill="#6ABC35"/>
<path d="M150.84 134.558C152.311 134.845 153.632 135.645 154.567 136.816C155.503 137.987 155.991 139.452 155.946 140.95C154.352 197.65 130.792 177.143 126.562 174.37C123.476 172.35 108.529 155.467 106.915 152.532L112.261 147.734C116.609 152.038 133.042 163.018 135.478 164.251C136.207 164.632 139.738 171.783 143.352 140.041C143.449 139.173 143.725 138.336 144.163 137.58C144.6 136.825 145.189 136.169 145.892 135.652C146.596 135.136 147.398 134.77 148.25 134.58C149.102 134.389 149.983 134.376 150.84 134.543V134.558Z" fill="#FF8B7B"/>
<path d="M162.265 128.899C156.249 120.585 145.807 124.165 142.056 136.236C139.894 143.283 138.633 150.577 138.305 157.941L144.638 159.859L160.035 164.534C160.035 164.534 164.358 148.732 164.207 137.634C164.163 133.971 163.615 130.812 162.265 128.899Z" fill="#263238"/>
<path opacity="0.2" d="M150.943 143.968C150.129 145.43 149.474 146.974 148.986 148.575C147.802 152.401 146.893 156.308 146.267 160.264L155.98 163.199L150.943 143.968Z" fill="black"/>
<path d="M165.972 120.961C173.251 119.899 180.585 119.259 187.937 119.044C193.79 118.884 199.647 119.106 205.471 119.709C206.4 142.055 209.467 195.816 209.804 203.788H157.091C144.051 135.15 151.388 124.947 151.388 124.947C156.138 123.24 161.014 121.907 165.972 120.961Z" fill="#263238"/>
<path opacity="0.2" d="M208.068 171.127L207.237 152.292L193.127 135.174C191.982 158.675 204.317 165.341 208.068 171.127Z" fill="black"/>
<path d="M168.633 107.35C170.624 113.067 171.372 119.284 163.15 122.023C163.15 122.023 159.961 129.97 171.171 129.021C185.174 127.838 186.553 119.983 186.553 119.983C180.85 115.41 181.11 101.486 181.931 93.8267L168.633 107.35Z" fill="#FF8B7B"/>
<path opacity="0.2" d="M177.04 103.393C176.992 106.777 172.893 110.69 169.729 111.438C169.49 110.042 169.127 108.671 168.643 107.34L176.517 99.3433C176.932 100.651 177.11 102.023 177.04 103.393Z" fill="black"/>
<path d="M180.268 76.1804C178.563 72.8867 175.619 70.4053 172.084 69.2817C168.549 68.1582 164.713 68.4845 161.419 70.189C151.794 75.119 151.73 90.3884 154.718 99.3583C158.044 109.321 171.034 112.896 178.097 104.337C182.782 98.5953 182.098 92.6675 181.833 82.4065C181.803 80.2377 181.267 78.1059 180.268 76.1804Z" fill="#FF8B7B"/>
<path d="M164.627 85.9665C164.08 86.0203 163.693 86.7295 163.767 87.5609C163.84 88.3924 164.353 89.0282 164.887 88.9842C165.42 88.9401 165.811 88.2212 165.733 87.3897C165.654 86.5583 165.175 85.9176 164.627 85.9665Z" fill="#263238"/>
<path d="M155.11 86.5975C154.562 86.6464 154.2 87.3556 154.263 88.192C154.327 89.0283 154.821 89.6592 155.374 89.6103C155.926 89.5614 156.293 88.8473 156.22 88.0159C156.146 87.1844 155.657 86.5633 155.11 86.5975Z" fill="#263238"/>
<path d="M168.457 83.1738C168.058 82.7066 167.554 82.341 166.986 82.1071C166.418 81.8733 165.802 81.7779 165.19 81.8288C165.126 81.8385 165.061 81.8356 164.999 81.8202C164.936 81.8048 164.878 81.7772 164.826 81.7391C164.774 81.7009 164.73 81.6529 164.697 81.5978C164.664 81.5427 164.642 81.4816 164.632 81.418C164.615 81.2911 164.649 81.1626 164.726 81.0602C164.803 80.9578 164.916 80.8896 165.043 80.8702C165.817 80.7953 166.598 80.9077 167.32 81.198C168.042 81.4882 168.684 81.9478 169.19 82.538C169.28 82.6294 169.33 82.7523 169.33 82.8804C169.33 83.0084 169.28 83.1313 169.19 83.2227C169.087 83.3121 168.953 83.3585 168.817 83.3521C168.68 83.3457 168.551 83.2871 168.457 83.1885V83.1738Z" fill="#263238"/>
<path d="M152.136 83.903C152.038 83.8195 151.977 83.7008 151.966 83.5726C151.955 83.4445 151.995 83.3172 152.077 83.2182C152.548 82.5985 153.162 82.1023 153.866 81.7726C154.571 81.4429 155.345 81.2894 156.122 81.3255C156.186 81.3325 156.249 81.3522 156.305 81.3833C156.362 81.4144 156.412 81.4563 156.452 81.5068C156.493 81.5572 156.523 81.6151 156.541 81.6771C156.559 81.7391 156.565 81.8041 156.557 81.8684C156.55 81.9326 156.531 81.9948 156.5 82.0514C156.469 82.1081 156.427 82.158 156.376 82.1984C156.326 82.2389 156.268 82.269 156.206 82.287C156.144 82.3051 156.079 82.3107 156.015 82.3036C155.395 82.2954 154.783 82.4342 154.227 82.7089C153.672 82.9835 153.19 83.3861 152.821 83.8834C152.763 83.954 152.686 84.007 152.6 84.0364C152.514 84.0658 152.421 84.0704 152.332 84.0497C152.253 84.0229 152.184 83.9715 152.136 83.903Z" fill="#263238"/>
<path d="M219.449 172.873C216.026 185.902 193.361 175.807 189.669 173.67C186.286 171.778 183.101 169.553 180.161 167.028C177.265 164.583 173.314 161.052 170.868 158.146L178.777 156.576C184.113 160.489 188.456 160.797 194.565 163.306C197.225 164.388 200.042 165.032 202.908 165.214C203.69 165.24 204.472 165.184 205.241 165.047L198.257 139.991L212.108 135.409C212.108 135.409 220.926 167.297 219.449 172.873Z" fill="#FF8B7B"/>
<path d="M191.63 136.685C192.833 143.87 196.389 150.781 200.042 157.085L219.288 151.955C219.288 151.955 214.744 124.028 207.017 120.56C198.726 116.843 190.026 125.314 191.63 136.685Z" fill="#263238"/>
<path d="M178.777 156.576L174.952 148.683L173.035 144.653C172.587 143.71 171.799 142.971 170.83 142.584C169.86 142.196 168.781 142.189 167.806 142.564L165.131 143.591C164.215 143.944 163.453 144.61 162.982 145.472C162.511 146.334 162.361 147.334 162.558 148.296L163.356 152.033C163.576 153.061 164.173 153.97 165.028 154.581L172.188 159.648L178.777 156.576Z" fill="#FF8B7B"/>
<path d="M186.553 73.4803C189.454 74.9084 190.955 82.6947 191.073 84.5044C191.395 90.2854 186.553 91.1168 186.842 95.6507C187.028 98.5852 184.289 101.97 181.501 102.914C180.782 99.1183 183.629 93.8264 178.777 93.2884C177.363 92.051 177.652 86.7346 178.117 84.9152C175.622 84.2794 174.086 81.7214 174.267 79.1537C173.647 79.4069 172.977 79.5185 172.308 79.4804C171.639 79.4424 170.987 79.2556 170.399 78.9336C169.23 78.2832 168.178 77.1485 167.953 75.8279C168.25 76.0013 168.475 76.2752 168.587 76.6C168.699 76.9248 168.691 77.279 168.565 77.5984C166.965 81.3155 163.106 79.1977 162.143 77.4321C162.294 77.9369 162.296 78.4743 162.149 78.9802C162.003 79.4862 161.713 79.9392 161.316 80.2853C160.919 80.6313 160.431 80.8557 159.91 80.9318C159.388 81.0078 158.856 80.9322 158.377 80.7139C157.904 80.461 157.51 80.0835 157.236 79.6222C156.963 79.1608 156.821 78.6335 156.827 78.0973C156.646 79.1602 156.132 80.1381 155.359 80.89C154.971 81.2591 154.508 81.5402 154.002 81.7141C153.496 81.888 152.958 81.9506 152.425 81.8975C151.892 81.8319 151.387 81.6224 150.964 81.2915C150.54 80.9607 150.215 80.5209 150.023 80.0194C149.676 79.007 150.239 78.019 151.148 77.4566C150.646 77.457 150.153 77.3206 149.722 77.0621C149.291 76.8036 148.939 76.4328 148.703 75.9893C148.481 75.5388 148.409 75.0292 148.497 74.5348C148.585 74.0404 148.828 73.587 149.192 73.2407C149.94 72.5804 151.72 72.331 152.425 73.0401C154.342 69.0898 157.717 66.0376 161.84 64.5259C165.962 63.0143 170.51 63.1613 174.527 64.9359C175.143 65.2392 184.328 61.033 186.553 73.4803Z" fill="#263238"/>
<path d="M184.201 86.6664C180.889 86.3289 178.297 90.2514 177.564 93.0783C176.766 96.1938 178.483 99.0941 181.745 98.0622C184.2 97.2748 186.242 95.5458 187.424 93.2544C188.847 90.4275 187.512 86.999 184.201 86.6664Z" fill="#FF8B7B"/>
<path d="M160.524 95.6606C159.929 93.3546 159.764 90.9591 160.035 88.5933C158.92 90.9164 157.325 93.3961 156.21 95.7242C156.655 96.5409 160.226 96.5312 160.524 95.6606Z" fill="#FF5652"/>
<path d="M158.533 99.392C158.533 99.392 161.17 98.0763 168.985 96.2031C168.643 98.7757 167.391 101.094 163.38 102.043C162.441 102.364 161.413 102.299 160.522 101.862C159.63 101.426 158.949 100.653 158.626 99.7148C158.592 99.6072 158.558 99.4996 158.533 99.392Z" fill="#263238"/>
<path d="M164.774 99.7197C163.215 100.005 161.786 100.776 160.69 101.921C161.55 102.224 162.481 102.258 163.361 102.018C164.919 101.739 166.348 100.969 167.44 99.8224C166.585 99.5054 165.651 99.4695 164.774 99.7197Z" fill="#9D2724"/>
<path d="M158.871 99.2407C159.018 99.5097 159.237 99.7331 159.502 99.8866C159.768 100.04 160.07 100.118 160.377 100.111C162.695 99.5433 164.962 98.786 167.156 97.8468C167.511 97.7239 167.831 97.5156 168.087 97.2401C168.343 96.9646 168.527 96.6305 168.623 96.2671C165.301 97.0055 162.04 97.9996 158.871 99.2407Z" fill="white"/>
<path d="M106.69 133.189C105.682 133.614 103.878 135.12 102.503 136.338C100.904 137.762 98.9916 138.759 100.341 141.547C100.865 142.633 101.32 144.217 102.43 146.399C102.43 146.399 105.056 151.251 107.81 153.3C107.81 153.3 111.546 151.935 112.133 149.778C112.387 147.745 112.529 145.699 112.559 143.65C112.628 141.891 112.504 140.129 112.187 138.397C111.434 134.578 109.057 132.181 106.69 133.189Z" fill="#FF8B7B"/>
<path d="M105.55 150.458C105.396 150.458 105.244 150.422 105.106 150.353C104.968 150.283 104.849 150.182 104.758 150.057L97.2848 139.703C96.2283 138.378 97.5684 136.353 97.8472 135.961C97.9217 135.857 98.0161 135.768 98.125 135.7C98.2339 135.631 98.3552 135.585 98.4819 135.564C98.6086 135.543 98.7383 135.546 98.8635 135.575C98.9887 135.604 99.1071 135.657 99.2118 135.732C99.3165 135.806 99.4055 135.9 99.4737 136.009C99.5419 136.118 99.588 136.24 99.6093 136.366C99.6307 136.493 99.6268 136.623 99.5981 136.748C99.5693 136.873 99.5161 136.991 99.4416 137.096C99.1098 137.519 98.9077 138.028 98.8596 138.563L106.343 148.922C106.448 149.068 106.511 149.241 106.525 149.42C106.538 149.6 106.502 149.779 106.42 149.94C106.338 150.1 106.214 150.235 106.06 150.329C105.907 150.423 105.73 150.473 105.55 150.473V150.458Z" fill="#FF8B7B"/>
<path d="M67.157 161.917L79.3451 156.244C80.4455 141.532 75.0558 139.615 67.8417 137.443C51.3546 148.267 67.157 161.917 67.157 161.917Z" fill="#FFB273"/>
<path d="M33.0969 202.512C40.38 203.406 47.7055 203.912 55.0423 204.028H60.4223C67.1717 203.911 72.6495 203.299 74.4151 201.994C74.3222 188.886 78.2202 172.648 79.4674 163.292C79.8929 157.188 79.3255 156.249 77.3398 149.847C74.5765 143.254 72.7326 137.307 65.1811 136.309C63.1123 136.04 60.9114 135.786 58.823 135.61C52.4648 135.067 46.6251 135.282 39.4746 135.61C37.6356 135.688 35.8456 135.825 34.1533 135.986C27.8294 136.588 23.8825 142.251 25.6481 148.15C33.317 173.568 33.9577 191.209 33.0969 202.512Z" fill="#6ABC35"/>
<path opacity="0.1" d="M33.0969 202.512C40.38 203.406 47.7055 203.912 55.0423 204.028H60.4223C67.1717 203.911 72.6495 203.299 74.4151 201.994C74.3222 188.886 78.2202 172.648 79.4674 163.292C79.8929 157.188 79.3255 156.249 77.3398 149.847C74.5765 143.254 72.7326 137.307 65.1811 136.309C63.1123 136.04 60.9114 135.786 58.823 135.61C52.4648 135.067 46.6251 135.282 39.4746 135.61C37.6356 135.688 35.8456 135.825 34.1533 135.986C27.8294 136.588 23.8825 142.251 25.6481 148.15C33.317 173.568 33.9577 191.209 33.0969 202.512Z" fill="white"/>
<path d="M75.9656 204.023C75.9852 203.912 75.9852 203.797 75.9656 203.686C75.8809 202.845 75.7977 201.994 75.7162 201.133C75.6974 200.891 75.5842 200.667 75.401 200.509C75.2179 200.35 74.9796 200.27 74.738 200.287C61.0542 201.798 47.2455 201.798 33.5617 200.287C33.3682 200.268 33.1741 200.314 33.0089 200.416C32.8438 200.519 32.7167 200.673 32.6471 200.854C32.3047 201.681 31.9575 202.497 31.6053 203.299C31.5713 203.379 31.5466 203.463 31.532 203.549C31.5074 203.713 31.5242 203.881 31.5809 204.038L75.9656 204.023Z" fill="#263238"/>
<path d="M93.3918 138.617C93.3918 138.617 99.2119 143.019 98.5321 144.711C97.686 146.805 97.4267 148.722 92.6386 152.933C92.6386 152.933 88.4079 156.469 85.0919 157.369C85.0919 157.369 82.1232 154.723 82.3677 152.478C82.8842 150.489 83.5078 148.53 84.236 146.609C84.8155 144.947 85.58 143.356 86.5152 141.865C88.6183 138.622 91.1371 137.38 93.3918 138.617Z" fill="#FFB273"/>
<path opacity="0.2" d="M26.098 145.729C26.098 145.729 23.8922 153.065 33.9968 164.573C41.3331 172.888 47.3978 178.478 53.2375 184.049C54.4552 185.213 56.0612 185.884 57.7451 185.933C59.429 185.982 61.0711 185.404 62.3541 184.313L77.7604 173.68L79.1983 165.302L60.2608 178.718L26.098 145.729Z" fill="black"/>
<path d="M27.6484 151.021C25.7508 148.267 25.7263 143.723 27.8636 141.146C28.9566 139.832 30.5264 139.005 32.2283 138.847C33.9303 138.69 35.6253 139.214 36.9411 140.305L37.1808 140.51L38.4084 141.576C38.8681 141.938 39.3181 142.344 39.7876 142.716C40.7658 143.474 57.473 165.351 59.6495 166.256L58.4463 165.972C58.8768 166.094 59.3314 166.104 59.7669 166.001C60.5739 165.86 73.5934 157.751 74.508 157.105L77.2371 155.183L82.3676 152.498C83.4192 151.759 88.1389 154.733 87.0189 156.269C82.8421 163.15 74.1314 172.761 63.9046 178.845C60.1728 181.065 55.9177 182.102 52.6555 179.261C45.5882 173.167 34.5201 160.979 27.6484 151.021Z" fill="#FFB273"/>
<path d="M43.3628 117.127C44.1551 121.196 45.9207 128.806 44.6736 133.56C42.9031 140.329 53.0908 151.216 62.7992 151.167C67.6901 149.778 68.1156 140.897 64.6137 138.671C61.8552 136.935 56.9643 135.629 57.4436 128.4L43.3628 117.127Z" fill="#FFB273"/>
<path opacity="0.2" d="M50.386 121.382L57.4289 128.395C57.1305 129.481 57.7957 132.518 57.7957 132.518C55.135 131.736 50.0387 130.014 49.6181 125.182C49.6132 123.876 49.8745 122.583 50.386 121.382Z" fill="black"/>
<path d="M37.7235 108.484C40.8537 118.383 41.959 122.639 48.3661 126.532C57.9424 132.401 69.4605 126.39 69.304 115.772C69.2159 106.21 64.1294 91.645 53.257 90.0848C50.8706 89.7303 48.4333 89.9916 46.1763 90.8439C43.9194 91.6962 41.9177 93.1112 40.3614 94.9547C38.8051 96.7981 37.7459 99.0088 37.2842 101.377C36.8225 103.745 36.9737 106.191 37.7235 108.484Z" fill="#FFB273"/>
<path d="M66.0857 115.845C65.086 116.349 63.9802 116.605 62.861 116.592C61.7419 116.579 60.6421 116.298 59.6542 115.772C59.5978 115.737 59.5574 115.682 59.5418 115.618C59.5263 115.554 59.5368 115.486 59.571 115.43C59.5871 115.403 59.6082 115.38 59.6331 115.362C59.658 115.344 59.6862 115.331 59.7162 115.324C59.7462 115.316 59.7773 115.315 59.8078 115.32C59.8383 115.324 59.8675 115.335 59.8938 115.351C60.8171 115.825 61.8385 116.077 62.8764 116.085C63.9142 116.094 64.9396 115.859 65.8705 115.4C65.9285 115.374 65.9942 115.372 66.0542 115.392C66.1142 115.413 66.1639 115.456 66.1933 115.513C66.2078 115.54 66.2168 115.57 66.2197 115.601C66.2227 115.631 66.2195 115.662 66.2104 115.692C66.2013 115.721 66.1865 115.749 66.1668 115.773C66.147 115.797 66.1228 115.816 66.0955 115.831L66.0857 115.845Z" fill="#263238"/>
<path d="M61.8845 106.553C63.8554 107.955 66.0074 109.084 68.2818 109.908C67.9711 110.463 67.5508 110.949 67.0463 111.337C66.5418 111.724 65.9638 112.005 65.3473 112.163L61.8845 106.553Z" fill="#EA863E"/>
<path d="M50.6845 104.904C50.7029 104.804 50.7524 104.711 50.8261 104.64C50.8998 104.569 50.994 104.523 51.0953 104.508C53.4185 104.185 54.739 101.574 54.7488 101.549C54.8085 101.432 54.9121 101.344 55.0368 101.304C55.1615 101.263 55.2972 101.274 55.414 101.334C55.5307 101.394 55.619 101.497 55.6593 101.622C55.6997 101.747 55.6888 101.882 55.6292 101.999C55.5705 102.131 54.0054 105.09 51.2274 105.481C51.1638 105.491 51.0989 105.488 51.0364 105.473C50.9739 105.457 50.9151 105.43 50.8633 105.392C50.8115 105.354 50.7678 105.306 50.7346 105.25C50.7014 105.195 50.6794 105.134 50.6698 105.071L50.6845 104.904Z" fill="#263238"/>
<path d="M64.687 98.776C64.7608 98.7323 64.8217 98.67 64.8638 98.5953C64.9058 98.5206 64.9275 98.4362 64.9267 98.3505C64.9267 98.2208 64.8752 98.0964 64.7835 98.0046C64.6917 97.9129 64.5673 97.8614 64.4376 97.8614C63.6536 97.8572 62.8799 98.04 62.1807 98.3947C61.4815 98.7494 60.877 99.2658 60.4173 99.9009C60.382 99.9558 60.3578 100.017 60.3462 100.081C60.3346 100.146 60.3357 100.212 60.3496 100.275C60.3634 100.339 60.3897 100.4 60.4269 100.453C60.4641 100.507 60.5116 100.553 60.5665 100.588C60.6214 100.623 60.6827 100.648 60.747 100.659C60.8112 100.671 60.8771 100.67 60.941 100.656C61.0048 100.642 61.0652 100.616 61.1189 100.578C61.1725 100.541 61.2183 100.494 61.2536 100.439C61.6239 99.9386 62.1081 99.5339 62.6661 99.2583C63.2241 98.9827 63.8398 98.8442 64.4621 98.8542C64.5413 98.8423 64.6176 98.8158 64.687 98.776Z" fill="#263238"/>
<path d="M54.2695 108.147C54.2061 108.142 54.1445 108.123 54.0886 108.093C54.006 108.038 53.9484 107.953 53.9283 107.856C53.9081 107.759 53.9271 107.658 53.981 107.575C54.2941 107.067 54.7234 106.64 55.2336 106.331C55.7438 106.021 56.3203 105.837 56.9155 105.794C57.0119 105.794 57.1045 105.832 57.1732 105.9C57.2418 105.968 57.281 106.06 57.2823 106.156C57.283 106.205 57.274 106.254 57.2559 106.299C57.2378 106.344 57.211 106.386 57.1769 106.421C57.1428 106.456 57.1022 106.484 57.0574 106.503C57.0125 106.522 56.9643 106.532 56.9155 106.533C56.4453 106.574 55.9915 106.726 55.5905 106.974C55.1895 107.223 54.8526 107.563 54.607 107.966C54.5725 108.024 54.5228 108.071 54.4634 108.103C54.4039 108.135 54.3369 108.15 54.2695 108.147Z" fill="#263238"/>
<path d="M63.9631 102.078C64.3667 102.066 64.762 101.961 65.1174 101.769C65.7874 101.432 65.8657 101.246 65.8657 101.246C65.8657 101.246 65.4059 102.449 64.9169 102.508C64.7372 102.504 64.5602 102.463 64.3964 102.389C64.2326 102.315 64.0853 102.209 63.9631 102.078Z" fill="#263238"/>
<path d="M63.9632 102.077C63.4741 102.297 63.3225 103.095 63.6599 103.862C63.9974 104.63 64.687 105.066 65.1761 104.841C65.6652 104.616 65.807 103.823 65.4696 103.055C65.1321 102.288 64.4669 101.852 63.9632 102.077Z" fill="#263238"/>
<path d="M97.2604 147.734C98.087 145.983 99.163 143.792 99.339 141.865C100.273 141.953 100.474 140.93 100.239 140.314C100.004 139.698 99.5396 139.693 98.8989 139.825C98.5956 139.889 98.3113 140.022 98.0678 140.214C97.8244 140.405 97.6284 140.651 97.4952 140.93C96.8153 142.295 96.2333 143.821 95.5388 145.185C96.5659 146.066 96.7713 146.491 97.2604 147.734Z" fill="#FFB273"/>
<path d="M39.9537 91.0241C39.4541 90.6544 38.8633 90.4277 38.2447 90.3682C37.626 90.3088 37.0029 90.4189 36.442 90.6866C35.3272 91.2392 34.3624 92.053 33.6298 93.0587C31.4793 95.6707 30.0705 98.8126 29.5508 102.156C29.0496 105.514 29.6958 108.943 31.3849 111.889C31.9913 112.906 32.9206 113.938 34.1042 113.904C33.3706 113.278 33.3559 112.676 33.3608 111.713C33.4511 110.755 33.4708 109.792 33.4195 108.832C33.2554 110.833 33.7205 112.835 34.7498 114.559C34.9789 114.938 35.2918 115.259 35.6644 115.498C35.8469 115.598 36.0478 115.658 36.2548 115.677C36.4618 115.695 36.6703 115.671 36.8676 115.606C37.5621 115.386 45.1038 124.747 45.1038 124.747C45.8277 121.044 40.1298 111.996 42.0372 111.996C49.3735 111.996 41.4601 94.2766 39.9537 91.0339V91.0241Z" fill="#263238"/>
<path d="M36.6231 114.324C37.7649 115.975 39.5119 117.109 41.4847 117.479C44.1013 117.938 45.1137 115.522 44.2089 113.204C43.3579 111.101 40.9809 108.313 38.4523 108.925C37.5819 109.155 36.8371 109.719 36.3794 110.494C35.9217 111.269 35.7879 112.194 36.0069 113.067C36.1219 113.525 36.3319 113.953 36.6231 114.324Z" fill="#FFB273"/>
<path d="M42.2036 88.0117C41.3919 88.4223 40.7237 89.0693 40.2872 89.8674C39.8506 90.6654 39.6662 91.577 39.7582 92.482C39.8266 93.263 39.9442 94.039 40.1103 94.8052C40.4507 96.5408 41.261 98.1497 42.4531 99.4564C43.6758 100.713 44.0671 102.557 45.8131 102.352C46.356 101.926 47.9944 101.212 48.5373 100.787C46.4978 99.6618 45.3827 97.5832 44.5268 95.4067C45.73 97.8228 48.0923 98.8793 50.254 99.9357C50.254 99.9357 53.1494 98.8744 53.8195 98.0576C51.9296 97.0012 50.4678 95.3181 49.6867 93.2988C51.1384 95.2942 53.2481 96.7128 55.6438 97.3044C57.2676 96.8153 58.818 96.4094 60.4466 95.9056C59.0723 93.7976 57.4828 91.4598 55.1205 90.5892C58.8131 91.4891 60.5004 93.6069 61.5275 95.6611C62.0704 95.4703 71.8326 94.8492 58.412 87.8357C53.8195 85.4293 46.7766 85.7424 42.2036 88.0117Z" fill="#263238"/>
<path d="M42.0031 117.029C42.4758 117.029 42.859 116.646 42.859 116.173C42.859 115.7 42.4758 115.317 42.0031 115.317C41.5304 115.317 41.1472 115.7 41.1472 116.173C41.1472 116.646 41.5304 117.029 42.0031 117.029Z" fill="#6ABC35"/>
<path d="M42.7367 118.203C42.7367 118.277 42.7145 118.35 42.6729 118.413C42.6313 118.475 42.5722 118.523 42.5031 118.551C42.434 118.58 42.358 118.587 42.2848 118.572C42.2116 118.557 42.1446 118.52 42.0921 118.467C42.0396 118.414 42.0041 118.347 41.9902 118.273C41.9762 118.2 41.9844 118.124 42.0136 118.055C42.0429 117.987 42.0919 117.928 42.1545 117.887C42.217 117.846 42.2903 117.825 42.365 117.826C42.4142 117.826 42.463 117.836 42.5084 117.855C42.5538 117.874 42.595 117.902 42.6296 117.937C42.6642 117.972 42.6915 118.013 42.7098 118.059C42.7282 118.105 42.7374 118.154 42.7367 118.203Z" fill="#6ABC35"/>
<path d="M42.5656 119.24L42.6683 125.666L43.9937 126.733L44.561 125.133L42.5656 119.24Z" fill="#6ABC35"/>
<path d="M230.791 204.165H19.6225C19.558 204.164 19.4965 204.137 19.4509 204.092C19.4053 204.046 19.3792 203.985 19.3779 203.92C19.3779 203.855 19.4037 203.793 19.4496 203.747C19.4954 203.702 19.5576 203.676 19.6225 203.676H230.791C230.856 203.676 230.918 203.702 230.964 203.747C231.01 203.793 231.036 203.855 231.036 203.92C231.036 203.985 231.01 204.047 230.964 204.093C230.918 204.139 230.856 204.165 230.791 204.165Z" fill="#263238"/>
</g>
<defs>
<clipPath id="clip0_950_6152">
<rect width="244.544" height="244.544" fill="white" transform="translate(0.259277 0.0292969)"/>
</clipPath>
</defs>
</svg>
