<svg width="325" height="285" viewBox="0 0 325 285" fill="none" xmlns="http://www.w3.org/2000/svg">
<g clip-path="url(#clip0_939_8705)">
<path d="M324.812 228.223H0.251343V228.385H324.812V228.223Z" fill="#EBEBEB"/>
<path d="M292.291 238.668H270.792V238.83H292.291V238.668Z" fill="#EBEBEB"/>
<path d="M215.253 240.434H209.612V240.596H215.253V240.434Z" fill="#EBEBEB"/>
<path d="M270.143 232.645H257.686V232.807H270.143V232.645Z" fill="#EBEBEB"/>
<path d="M62.3397 233.734H34.3042V233.897H62.3397V233.734Z" fill="#EBEBEB"/>
<path d="M72.2323 233.734H68.1234V233.897H72.2323V233.734Z" fill="#EBEBEB"/>
<path d="M146.401 236.473H85.5912V236.635H146.401V236.473Z" fill="#EBEBEB"/>
<path d="M154.093 199.272H28.7542C27.7723 199.271 26.8312 198.879 26.1375 198.185C25.4438 197.49 25.0542 196.548 25.0542 195.566V19.3752C25.0627 18.3989 25.4561 17.4655 26.1489 16.7776C26.8417 16.0896 27.7779 15.7028 28.7542 15.7012H154.093C155.076 15.7012 156.019 16.0917 156.714 16.7868C157.409 17.4819 157.799 18.4246 157.799 19.4076V195.566C157.799 196.549 157.409 197.492 156.714 198.187C156.019 198.882 155.076 199.272 154.093 199.272ZM28.7542 15.831C27.8153 15.8327 26.9155 16.2069 26.2523 16.8714C25.589 17.5358 25.2165 18.4363 25.2165 19.3752V195.566C25.2165 196.505 25.589 197.405 26.2523 198.07C26.9155 198.734 27.8153 199.108 28.7542 199.11H154.093C155.032 199.108 155.933 198.734 156.597 198.07C157.261 197.406 157.635 196.505 157.637 195.566V19.3752C157.635 18.4357 157.261 17.5353 156.597 16.871C155.933 16.2067 155.032 15.8327 154.093 15.831H28.7542Z" fill="#EBEBEB"/>
<path d="M294.504 199.272H169.159C168.176 199.271 167.235 198.88 166.54 198.185C165.845 197.49 165.454 196.548 165.453 195.566V19.3752C165.463 18.3983 165.858 17.4649 166.551 16.7771C167.245 16.0894 168.182 15.7028 169.159 15.7012H294.504C295.479 15.7046 296.414 16.0921 297.105 16.7798C297.797 17.4676 298.189 18.4001 298.198 19.3752V195.566C298.198 196.547 297.809 197.487 297.117 198.182C296.424 198.877 295.485 199.269 294.504 199.272ZM169.159 15.831C168.22 15.8327 167.319 16.2067 166.655 16.871C165.99 17.5353 165.617 18.4357 165.615 19.3752V195.566C165.617 196.505 165.99 197.406 166.655 198.07C167.319 198.734 168.22 199.108 169.159 199.11H294.504C295.444 199.108 296.344 198.734 297.008 198.07C297.673 197.406 298.047 196.505 298.048 195.566V19.3752C298.047 18.4357 297.673 17.5353 297.008 16.871C296.344 16.2067 295.444 15.8327 294.504 15.831H169.159Z" fill="#EBEBEB"/>
<path d="M111.9 89.5446C124.506 68.4612 149.218 76.1792 162.148 92.2644C174.651 75.8481 199.148 67.494 212.306 88.2463C234.454 123.234 190.119 156.482 169.146 169.542C166.77 171.048 164.803 172.281 163.168 173.255C161.499 172.32 159.5 171.139 157.092 169.698C135.788 157.209 90.6089 125.09 111.9 89.5446Z" fill="#E0E0E0"/>
<path d="M140.513 145.746L130.16 92.0571L121.442 131.322L112.841 103.417L108.09 113.939H82.1963V112.095H106.902L113.172 98.2238L121.156 124.124L130.283 82.9824L140.643 136.704L148.803 100.243L155.378 126.006L163.388 95.3936L172.547 121.17L179.538 87.8638L189.652 134.529L199.888 92.7712L206.328 119.216L212.611 103.715L217.564 112.095H241.451V113.939H216.512L212.916 107.857L205.886 125.201L199.882 100.535L189.541 142.721L179.571 96.6919L173.002 127.96L163.661 101.651L155.352 133.374L148.919 108.155L140.513 145.746Z" fill="#F0F0F0"/>
<path d="M198.778 41.3098H192.365V34.8965H188.276V41.3098H181.862V45.3928H188.276V51.8126H192.365V45.3928H198.778V41.3098Z" fill="#F0F0F0"/>
<path d="M60.3793 79.788H53.966V73.3682H49.8766V79.788H43.4633V83.8709H49.8766V90.2842H53.966V83.8709H60.3793V79.788Z" fill="#F0F0F0"/>
<path d="M51.9213 163.883H45.508V157.47H41.4186V163.883H35.0052V167.966H41.4186V174.386H45.508V167.966H51.9213V163.883Z" fill="#F0F0F0"/>
<path d="M233.545 58.7507H230.364V55.5635H228.333V58.7507H225.146V60.7759H228.333V63.9631H230.364V60.7759H233.545V58.7507Z" fill="#F0F0F0"/>
<path d="M279.841 102.424H276.653V99.2363H274.628V102.424H271.441V104.449H274.628V107.636H276.653V104.449H279.841V102.424Z" fill="#F0F0F0"/>
<path d="M289.941 169.803H286.753V166.616H284.728V169.803H281.541V171.829H284.728V175.016H286.753V171.829H289.941V169.803Z" fill="#F0F0F0"/>
<path d="M77.9705 38.1608H74.7899V34.9736H72.7581V38.1608H69.5709V40.1926H72.7581V43.3797H74.7899V40.1926H77.9705V38.1608Z" fill="#F0F0F0"/>
<path d="M58.023 209.283H54.8358V206.096H52.8041V209.283H49.6234V211.315H52.8041V214.495H54.8358V211.315H58.023V209.283Z" fill="#F0F0F0"/>
<path d="M113.971 201.44H109.206V196.676H106.175V201.44H101.41V204.472H106.175V209.243H109.206V204.472H113.971V201.44Z" fill="#F0F0F0"/>
<path d="M300.956 133.906H296.192V129.142H293.154V133.906H288.389V136.938H293.154V141.709H296.192V136.938H300.956V133.906Z" fill="#F0F0F0"/>
<path d="M133.366 52.954H128.602V48.1895H125.57V52.954H120.806V55.9919H125.57V60.7564H128.602V55.9919H133.366V52.954Z" fill="#F0F0F0"/>
<path d="M269.76 49.8769H264.995V45.1123H261.957V49.8769H257.193V52.9147H261.957V57.6793H264.995V52.9147H269.76V49.8769Z" fill="#F0F0F0"/>
<path d="M189.1 216.507H185.186V212.593H182.693V216.507H178.785V219H182.693V222.907H185.186V219H189.1V216.507Z" fill="#F0F0F0"/>
<path d="M162.531 262.211C232.041 262.211 288.389 257.874 288.389 252.526C288.389 247.177 232.041 242.841 162.531 242.841C93.022 242.841 36.6735 247.177 36.6735 252.526C36.6735 257.874 93.022 262.211 162.531 262.211Z" fill="#F5F5F5"/>
<path d="M107.94 69.0146C110.093 59.894 104.444 50.7552 95.3234 48.6026C86.2028 46.4499 77.064 52.0986 74.9114 61.2191C72.7587 70.3397 78.4074 79.4785 87.5279 81.6311C96.6485 83.7838 105.787 78.1351 107.94 69.0146Z" fill="#6ABC35"/>
<path opacity="0.8" d="M99.8848 63.0793H93.4715V56.666H89.3886V63.0793H82.9688V67.1623H89.3886V73.5821H93.4715V67.1623H99.8848V63.0793Z" fill="white"/>
<path d="M84.2085 76.5664L83.7996 87.6079L90.122 78.5462L84.2085 76.5664Z" fill="#6ABC35"/>
<path d="M268.053 173.636V163.406H247.281V173.636C247.28 175.289 246.863 176.915 246.069 178.365C245.275 179.815 244.129 181.041 242.737 181.932C241.343 182.821 240.196 184.047 239.401 185.497C238.607 186.948 238.191 188.575 238.193 190.228V250.395C238.193 250.688 238.251 250.978 238.363 251.249C238.475 251.52 238.64 251.766 238.847 251.974C239.054 252.181 239.301 252.346 239.571 252.458C239.842 252.57 240.133 252.628 240.426 252.628H274.894C275.486 252.628 276.054 252.393 276.473 251.974C276.892 251.555 277.127 250.987 277.127 250.395V190.228C277.128 188.575 276.712 186.948 275.918 185.498C275.124 184.048 273.977 182.822 272.583 181.932C271.193 181.04 270.049 179.813 269.257 178.363C268.466 176.914 268.051 175.288 268.053 173.636Z" fill="#6ABC35"/>
<path opacity="0.2" d="M277.147 190.221V250.401C277.145 250.992 276.909 251.559 276.49 251.976C276.072 252.393 275.505 252.628 274.914 252.628H240.426C239.835 252.628 239.268 252.393 238.849 251.976C238.431 251.559 238.195 250.992 238.193 250.401V190.221C238.195 188.57 238.613 186.945 239.407 185.497C240.201 184.048 241.346 182.823 242.737 181.932C243.92 181.177 244.929 180.178 245.695 179.001C246.461 177.825 246.966 176.498 247.177 175.11C247.25 174.62 247.287 174.125 247.287 173.63V163.406H268.059V173.63C268.059 175.284 268.476 176.911 269.27 178.362C270.064 179.813 271.21 181.04 272.603 181.932C273.996 182.82 275.143 184.046 275.937 185.495C276.731 186.943 277.147 188.569 277.147 190.221Z" fill="black"/>
<path opacity="0.7" d="M277.153 201.393H246.813V230.415H277.153V201.393Z" fill="white"/>
<path opacity="0.1" d="M277.147 190.222V250.402C277.145 250.993 276.909 251.56 276.49 251.977C276.072 252.394 275.505 252.629 274.914 252.629H240.426C239.835 252.629 239.268 252.394 238.849 251.977C238.431 251.56 238.195 250.993 238.193 250.402V246.871C238.638 247.568 239.249 248.143 239.973 248.543C240.696 248.943 241.508 249.156 242.334 249.163L267.728 249.39C268.244 249.39 268.74 249.185 269.105 248.819C269.47 248.454 269.675 247.959 269.675 247.442V189.839C269.677 188.798 269.417 187.774 268.919 186.86C268.421 185.945 267.701 185.171 266.826 184.608C265.948 184.046 265.226 183.272 264.725 182.358C264.225 181.443 263.963 180.418 263.963 179.376V178.227C255.966 178.227 250.5 176.591 247.203 175.111C247.276 174.621 247.313 174.126 247.313 173.631V165.945H268.085V173.631C268.085 175.285 268.502 176.912 269.296 178.363C270.09 179.814 271.236 181.041 272.629 181.933C274.017 182.825 275.159 184.051 275.948 185.5C276.738 186.948 277.15 188.573 277.147 190.222Z" fill="black"/>
<path opacity="0.2" d="M254.707 175.895C254.746 175.635 254.785 175.376 254.81 175.109C254.856 174.629 254.882 174.129 254.882 173.629V172.721H251.461V173.629C251.462 174.125 251.423 174.62 251.344 175.109C251.305 175.376 251.247 175.635 251.182 175.895H254.707Z" fill="white"/>
<path opacity="0.2" d="M249.773 185.495C250.216 184.161 250.952 182.943 251.928 181.932C253.124 180.655 253.967 179.089 254.376 177.388H250.702C249.931 179.256 248.606 180.842 246.904 181.932C245.51 182.819 244.363 184.044 243.569 185.493C242.774 186.942 242.359 188.568 242.36 190.221V245.396C242.362 245.988 242.598 246.555 243.016 246.973C243.435 247.391 244.002 247.627 244.593 247.629H250.435C249.637 247.629 248.994 246.623 248.994 245.396V190.221C248.989 188.613 249.252 187.016 249.773 185.495Z" fill="white"/>
<path d="M270.591 159.369V169.398C270.591 169.584 270.554 169.768 270.483 169.939C270.412 170.111 270.308 170.267 270.176 170.398C270.045 170.53 269.889 170.634 269.717 170.705C269.545 170.776 269.361 170.813 269.176 170.813H246.19C245.891 170.812 245.601 170.717 245.359 170.541C245.118 170.365 244.938 170.117 244.846 169.833C244.797 169.693 244.772 169.546 244.775 169.398V159.369C244.774 159.182 244.81 158.998 244.881 158.825C244.952 158.653 245.056 158.496 245.187 158.364C245.319 158.232 245.475 158.127 245.647 158.056C245.819 157.984 246.004 157.947 246.19 157.947H269.176C269.362 157.947 269.546 157.984 269.719 158.056C269.891 158.127 270.047 158.232 270.178 158.364C270.31 158.496 270.414 158.653 270.485 158.825C270.555 158.998 270.591 159.182 270.591 159.369Z" fill="#6ABC35"/>
<path opacity="0.5" d="M270.591 159.369V169.398C270.591 169.584 270.554 169.768 270.483 169.939C270.412 170.111 270.308 170.267 270.176 170.398C270.045 170.53 269.889 170.634 269.717 170.705C269.545 170.776 269.361 170.813 269.176 170.813H246.19C245.891 170.812 245.601 170.717 245.359 170.541C245.118 170.365 244.938 170.117 244.846 169.833C244.797 169.693 244.772 169.546 244.775 169.398V159.369C244.774 159.182 244.81 158.998 244.881 158.825C244.952 158.653 245.056 158.496 245.187 158.364C245.319 158.232 245.475 158.127 245.647 158.056C245.819 157.984 246.004 157.947 246.19 157.947H269.176C269.362 157.947 269.546 157.984 269.719 158.056C269.891 158.127 270.047 158.232 270.178 158.364C270.31 158.496 270.414 158.653 270.485 158.825C270.555 158.998 270.591 159.182 270.591 159.369Z" fill="white"/>
<path opacity="0.2" d="M267.773 158.395V168.418C267.774 168.604 267.738 168.789 267.667 168.962C267.596 169.134 267.491 169.291 267.359 169.422C267.226 169.554 267.069 169.658 266.896 169.729C266.724 169.799 266.538 169.834 266.352 169.833H244.846C244.797 169.693 244.772 169.546 244.775 169.398V159.369C244.774 159.182 244.81 158.998 244.881 158.825C244.952 158.653 245.056 158.496 245.187 158.364C245.319 158.232 245.475 158.127 245.647 158.056C245.819 157.984 246.004 157.947 246.19 157.947H267.689C267.744 158.09 267.773 158.242 267.773 158.395Z" fill="white"/>
<path d="M209.08 199.142H240.127V251.071C240.127 251.278 240.087 251.482 240.008 251.672C239.929 251.863 239.813 252.036 239.667 252.182C239.521 252.328 239.348 252.444 239.158 252.523C238.967 252.601 238.763 252.642 238.557 252.642H210.644C210.228 252.642 209.828 252.477 209.534 252.182C209.239 251.887 209.073 251.488 209.073 251.071V199.142H209.08Z" fill="#263238"/>
<path opacity="0.7" d="M240.127 199.148V250.624C240.127 251.156 239.916 251.666 239.54 252.042C239.164 252.418 238.654 252.629 238.122 252.629H211.086C210.554 252.629 210.044 252.418 209.667 252.042C209.291 251.666 209.08 251.156 209.08 250.624V199.148H240.127Z" fill="white"/>
<path opacity="0.7" d="M228.664 214.245H209.08V237.678H228.664V214.245Z" fill="white"/>
<path opacity="0.1" d="M240.127 199.847V250.621C240.127 251.153 239.916 251.663 239.54 252.039C239.164 252.415 238.654 252.627 238.122 252.627H211.086C210.554 252.627 210.044 252.415 209.667 252.039C209.291 251.663 209.08 251.153 209.08 250.621H228.618C229.045 250.621 229.455 250.451 229.757 250.15C230.059 249.848 230.228 249.438 230.228 249.011V207.649C214.818 207.649 210.067 205.28 209.08 205.085V199.243L240.127 199.847Z" fill="black"/>
<path d="M240.192 196.466H209.002C208.457 196.466 208.015 196.908 208.015 197.452V204.086C208.015 204.631 208.457 205.073 209.002 205.073H240.192C240.737 205.073 241.179 204.631 241.179 204.086V197.452C241.179 196.908 240.737 196.466 240.192 196.466Z" fill="#6ABC35"/>
<path opacity="0.2" d="M209.015 196.466C208.885 196.465 208.755 196.49 208.634 196.539C208.514 196.588 208.404 196.661 208.311 196.752C208.218 196.844 208.144 196.953 208.093 197.073C208.043 197.193 208.016 197.322 208.015 197.452V203.548H209.619V197.654C209.619 197.544 209.662 197.438 209.74 197.36C209.818 197.282 209.924 197.238 210.034 197.238C210.144 197.238 210.25 197.282 210.328 197.36C210.406 197.438 210.45 197.544 210.45 197.654V203.548H212.579V197.654C212.579 197.599 212.589 197.545 212.61 197.495C212.631 197.444 212.662 197.399 212.7 197.36C212.739 197.321 212.785 197.291 212.835 197.27C212.886 197.249 212.94 197.238 212.994 197.238C213.049 197.238 213.103 197.249 213.153 197.27C213.204 197.291 213.249 197.321 213.288 197.36C213.326 197.399 213.357 197.444 213.378 197.495C213.399 197.545 213.41 197.599 213.41 197.654V203.548H215.545V197.654C215.545 197.544 215.589 197.438 215.667 197.36C215.745 197.282 215.85 197.238 215.961 197.238C216.071 197.238 216.176 197.282 216.254 197.36C216.332 197.438 216.376 197.544 216.376 197.654V203.548H218.512V197.654C218.504 197.595 218.509 197.536 218.527 197.48C218.544 197.423 218.573 197.371 218.612 197.327C218.651 197.283 218.699 197.247 218.753 197.223C218.807 197.199 218.865 197.186 218.924 197.186C218.983 197.186 219.041 197.199 219.095 197.223C219.148 197.247 219.196 197.283 219.235 197.327C219.274 197.371 219.304 197.423 219.321 197.48C219.338 197.536 219.343 197.595 219.336 197.654V203.548H221.472V197.654C221.472 197.544 221.515 197.438 221.593 197.36C221.671 197.282 221.777 197.238 221.887 197.238C221.997 197.238 222.103 197.282 222.181 197.36C222.259 197.438 222.303 197.544 222.303 197.654V203.548H224.438V197.654C224.431 197.595 224.436 197.536 224.453 197.48C224.471 197.423 224.5 197.371 224.539 197.327C224.578 197.283 224.626 197.247 224.679 197.223C224.733 197.199 224.791 197.186 224.85 197.186C224.909 197.186 224.967 197.199 225.021 197.223C225.075 197.247 225.123 197.283 225.162 197.327C225.201 197.371 225.23 197.423 225.247 197.48C225.265 197.536 225.27 197.595 225.263 197.654V203.548H227.398V197.654C227.398 197.544 227.442 197.438 227.52 197.36C227.598 197.282 227.703 197.238 227.814 197.238C227.924 197.238 228.029 197.282 228.107 197.36C228.185 197.438 228.229 197.544 228.229 197.654V203.548H230.365V197.654C230.365 197.544 230.408 197.438 230.486 197.36C230.564 197.282 230.67 197.238 230.78 197.238C230.89 197.238 230.996 197.282 231.074 197.36C231.152 197.438 231.195 197.544 231.195 197.654V203.548H233.325V197.654C233.325 197.544 233.368 197.438 233.446 197.36C233.524 197.282 233.63 197.238 233.74 197.238C233.85 197.238 233.956 197.282 234.034 197.36C234.112 197.438 234.155 197.544 234.155 197.654V203.548H236.291V197.654C236.291 197.544 236.335 197.438 236.413 197.36C236.491 197.282 236.596 197.238 236.706 197.238C236.817 197.238 236.922 197.282 237 197.36C237.078 197.438 237.122 197.544 237.122 197.654V203.548H237.771C238.032 203.546 238.282 203.442 238.467 203.257C238.652 203.072 238.756 202.822 238.758 202.561V196.466H209.015Z" fill="white"/>
<path opacity="0.3" d="M215.26 207.548H211.8V210.3H215.26V207.548Z" fill="white"/>
<path opacity="0.3" d="M215.26 248.122V211.771H211.8V248.122C211.808 248.461 211.949 248.783 212.191 249.019C212.434 249.256 212.759 249.388 213.098 249.388H216.48C216.151 249.38 215.839 249.242 215.61 249.005C215.382 248.768 215.256 248.451 215.26 248.122Z" fill="white"/>
<path d="M165.576 249.296C166.083 250.59 167.082 251.629 168.356 252.187C169.629 252.744 171.071 252.774 172.366 252.268L192.845 244.258C194.093 243.722 195.082 242.721 195.605 241.468C196.128 240.215 196.144 238.807 195.648 237.543C195.152 236.279 194.185 235.257 192.95 234.693C191.714 234.129 190.308 234.068 189.028 234.522L168.549 242.525C167.256 243.032 166.218 244.031 165.66 245.302C165.103 246.574 165.073 248.015 165.576 249.309V249.296Z" fill="#6ABC35"/>
<path opacity="0.7" d="M177.169 244.765C177.419 245.406 177.792 245.991 178.268 246.488C178.745 246.984 179.314 247.382 179.944 247.658C180.574 247.934 181.252 248.083 181.94 248.097C182.628 248.111 183.312 247.989 183.952 247.738L192.852 244.258C194.099 243.722 195.089 242.721 195.612 241.468C196.135 240.215 196.15 238.807 195.654 237.543C195.159 236.279 194.191 235.257 192.956 234.693C191.721 234.129 190.315 234.068 189.035 234.522L180.142 238.001C179.499 238.247 178.911 238.618 178.413 239.093C177.915 239.568 177.517 240.138 177.241 240.768C176.965 241.399 176.817 242.078 176.805 242.767C176.794 243.455 176.92 244.138 177.175 244.778L177.169 244.765Z" fill="#263238"/>
<path opacity="0.1" d="M165.576 249.295C166.083 250.589 167.083 251.629 168.356 252.187C169.629 252.744 171.071 252.773 172.366 252.268L192.845 244.258C194.02 243.804 194.987 242.936 195.565 241.817C195.162 242.135 194.713 242.391 194.234 242.577L173.755 250.587C172.791 250.956 171.74 251.033 170.734 250.807C169.727 250.581 168.809 250.063 168.096 249.318C167.383 248.572 166.905 247.633 166.724 246.617C166.542 245.602 166.664 244.555 167.075 243.609C167.123 243.495 167.177 243.385 167.238 243.278C166.569 243.817 166.037 244.506 165.686 245.29C165.403 245.917 165.248 246.594 165.229 247.282C165.21 247.969 165.328 248.654 165.576 249.295Z" fill="black"/>
<path opacity="0.3" d="M169.938 245.376L184.965 239.501C185.169 239.422 185.334 239.264 185.423 239.064C185.512 238.863 185.517 238.635 185.439 238.43C185.358 238.227 185.2 238.064 184.999 237.977C184.799 237.889 184.572 237.884 184.368 237.963L169.334 243.844C169.233 243.883 169.141 243.941 169.063 244.016C168.985 244.09 168.922 244.18 168.878 244.279C168.835 244.378 168.812 244.484 168.81 244.593C168.808 244.701 168.827 244.808 168.867 244.909C168.906 245.01 168.964 245.103 169.039 245.182C169.114 245.261 169.204 245.324 169.304 245.367C169.404 245.411 169.511 245.434 169.62 245.436C169.729 245.437 169.837 245.417 169.938 245.376Z" fill="white"/>
<path opacity="0.3" d="M187.107 238.663C187.26 239.052 187.525 239.387 187.868 239.626C188.212 239.865 188.618 239.996 189.037 240.004C189.455 240.012 189.866 239.896 190.218 239.67C190.57 239.445 190.848 239.12 191.015 238.737C191.183 238.353 191.233 237.929 191.16 237.517C191.086 237.105 190.893 236.725 190.603 236.423C190.313 236.121 189.941 235.912 189.532 235.822C189.124 235.732 188.698 235.765 188.308 235.917C187.785 236.123 187.365 236.527 187.14 237.042C186.915 237.556 186.903 238.139 187.107 238.663Z" fill="white"/>
<path d="M210.69 247.386C210.69 248.075 210.554 248.756 210.29 249.392C210.026 250.028 209.64 250.606 209.153 251.093C208.666 251.579 208.088 251.965 207.451 252.228C206.815 252.491 206.133 252.625 205.445 252.625H183.459C182.102 252.577 180.817 252.004 179.875 251.028C178.932 250.051 178.405 248.747 178.405 247.389C178.405 246.032 178.932 244.728 179.875 243.751C180.817 242.775 182.102 242.202 183.459 242.154H205.445C206.833 242.156 208.164 242.707 209.147 243.688C210.13 244.668 210.684 245.998 210.69 247.386Z" fill="#6ABC35"/>
<path opacity="0.7" d="M198.233 247.386C198.235 248.768 197.69 250.095 196.717 251.076C195.744 252.058 194.422 252.614 193.04 252.625H183.459C182.102 252.577 180.817 252.004 179.875 251.028C178.932 250.051 178.405 248.747 178.405 247.389C178.405 246.032 178.932 244.728 179.875 243.751C180.817 242.775 182.102 242.202 183.459 242.154H193.04C194.426 242.158 195.754 242.71 196.733 243.691C197.713 244.671 198.264 246 198.265 247.386H198.233Z" fill="white"/>
<path opacity="0.1" d="M210.69 247.386C210.69 248.074 210.554 248.756 210.29 249.392C210.027 250.028 209.64 250.606 209.153 251.092C208.666 251.579 208.088 251.965 207.451 252.227C206.815 252.49 206.133 252.625 205.445 252.624H183.459C182.198 252.624 180.981 252.163 180.038 251.326C180.528 251.477 181.038 251.554 181.551 251.553H203.543C204.578 251.553 205.59 251.246 206.451 250.67C207.312 250.095 207.983 249.278 208.38 248.321C208.777 247.365 208.881 246.312 208.68 245.297C208.478 244.281 207.981 243.348 207.249 242.615C207.163 242.526 207.069 242.443 206.97 242.368C207.791 242.618 208.54 243.064 209.151 243.666C209.642 244.153 210.031 244.732 210.295 245.371C210.56 246.01 210.694 246.695 210.69 247.386Z" fill="black"/>
<path opacity="0.3" d="M205.205 245.329H189.061C188.952 245.329 188.844 245.308 188.744 245.266C188.644 245.224 188.552 245.163 188.476 245.085C188.399 245.008 188.339 244.916 188.297 244.816C188.256 244.715 188.236 244.607 188.237 244.498C188.237 244.28 188.323 244.07 188.478 243.915C188.633 243.761 188.842 243.674 189.061 243.674H205.205C205.423 243.674 205.633 243.761 205.788 243.915C205.942 244.07 206.029 244.28 206.029 244.498C206.03 244.607 206.009 244.715 205.968 244.816C205.927 244.916 205.866 245.008 205.79 245.085C205.713 245.163 205.622 245.224 205.522 245.266C205.421 245.308 205.313 245.329 205.205 245.329Z" fill="white"/>
<path opacity="0.3" d="M184.647 247.445C185.816 247.445 186.763 246.498 186.763 245.329C186.763 244.16 185.816 243.213 184.647 243.213C183.478 243.213 182.531 244.16 182.531 245.329C182.531 246.498 183.478 247.445 184.647 247.445Z" fill="white"/>
<path d="M272.058 92.859C265.748 120.693 250.526 131.858 234.409 133.046C228.826 133.455 225.081 132.566 222.569 131.229C217.83 128.71 217.486 124.582 217.486 124.582C217.486 124.582 210.424 129.262 201.518 128.145C194.553 127.282 192.806 121.122 192.371 118.467C192.298 118.07 192.25 117.669 192.229 117.266C184.809 109.723 177.753 59.4553 186.659 51.7892C195.565 44.1231 251.266 44.2594 258.699 44.5774C266.131 44.8955 278.373 65.0312 272.058 92.859Z" fill="#6ABC35"/>
<path opacity="0.2" d="M229.547 96.3703C226.022 104.004 218.421 120.42 219.161 124.834C219.453 126.587 220.628 129.008 222.582 131.228C217.843 128.709 217.499 124.581 217.499 124.581C217.499 124.581 210.437 129.261 201.531 128.145C194.566 127.281 192.819 121.121 192.385 118.466L195.396 117.85C195.396 117.85 195.13 125.477 202.082 126.658C209.034 127.84 214.52 127.132 217.123 122.251C219.725 117.369 220.044 99.486 223.873 92.469C227.703 85.4521 233.071 88.7366 229.547 96.3703Z" fill="black"/>
<path opacity="0.2" d="M191.677 105.925C191.119 101.342 201.888 94.3645 199.661 92.469C197.435 90.5736 195.02 97.5192 191.534 100.018C188.048 102.517 188.334 98.006 188.334 98.006C187.529 101.018 192.235 110.508 191.677 105.925Z" fill="black"/>
<path opacity="0.2" d="M203.497 63.7327C205.782 69.8279 207.457 80.454 211.352 79.7854C215.246 79.1168 205.834 58.319 199.96 55.9043H191.677C191.677 55.9043 201.219 57.6634 203.497 63.7327Z" fill="black"/>
<path opacity="0.2" d="M248.481 88.6021C245.112 89.3226 243.211 88.8812 242.276 87.9854C242.243 87.8491 242.211 87.7128 242.172 87.583C241.997 87.0371 241.792 86.5017 241.555 85.9796C241.611 85.3751 241.793 84.7891 242.091 84.26C242.388 83.7309 242.794 83.2706 243.282 82.9093C245.723 81.2086 244.658 72.8739 247.741 70.2969C250.825 67.7199 256.096 67.0513 253.869 63.8057C251.643 60.5601 245.138 67.629 244.21 75.1328C243.6 80.1116 241.614 81.7149 238.732 81.9356C236.025 79.3391 232.052 78.1123 226.931 79.2547C224.548 77.0023 224.633 70.0113 223.86 66.5255C222.997 62.6308 218.778 63.176 220.822 66.5255C222.543 69.3557 223.698 77.0542 221.575 81.0918C218.452 82.453 215.58 84.329 213.078 86.6417C213.078 86.6417 211.345 88.3944 209.119 85.2591C206.892 82.1239 199.278 80.0661 195.942 79.6832C195.534 79.6381 195.122 79.6381 194.715 79.6832C194.491 79.72 194.289 79.8384 194.148 80.0154C194.007 80.1925 193.936 80.4156 193.95 80.6417C193.964 80.8678 194.061 81.0808 194.222 81.2394C194.384 81.3981 194.599 81.4912 194.825 81.5007C200.953 79.3456 209.06 86.6937 210.222 89.9393C209.05 91.5515 208.268 93.4134 207.937 95.3789C207.147 100.414 206.063 105.399 204.692 110.309C203.257 115.696 208.963 114.768 208.963 103.629C208.963 92.4903 218.245 77.197 234.207 82.8963C250.169 88.5956 230.494 111.659 231.792 115.164C233.091 118.669 233.279 117.683 235.324 111.399C236.998 106.206 241.945 97.7676 242.509 91.3803C245.612 89.8938 252.96 92.4903 257.439 91.3803C261.918 90.2703 257.206 86.7456 248.481 88.6021Z" fill="black"/>
<path opacity="0.2" d="M246.411 98.2278C244.71 99.526 250.156 112.547 249.228 117.182C248.3 121.817 243.47 125.121 243.47 125.121L247.183 124.829C247.183 124.829 239.926 132.073 248.111 124.829C256.297 117.585 249.897 95.6183 246.411 98.2278Z" fill="black"/>
<path opacity="0.2" d="M273.193 74.3065C272.434 73.56 267.306 70.0938 267.306 70.0938C265.722 74.683 255.726 71.3595 254.973 75.6178C254.22 79.876 258.569 75.6178 263.327 75.6178C268.085 75.6178 268.52 81.4598 268.52 81.4598C268.52 81.4598 273.953 75.0465 273.193 74.3065Z" fill="black"/>
<path opacity="0.2" d="M234.98 69.3672C237.576 68.9258 236.109 57.2676 244.132 56.612C252.156 55.9564 238.589 46.0508 238.589 46.0508L232.636 55.9434C236.395 57.6571 232.377 69.8086 234.98 69.3672Z" fill="black"/>
<path d="M286.78 95.7085C286.921 96.0056 287.039 96.3139 287.13 96.6302C287.993 99.3565 287.13 102.297 285.183 104.725C285.029 104.913 284.924 105.137 284.877 105.376C284.831 105.615 284.844 105.862 284.917 106.094C285.02 106.412 285.099 106.738 285.15 107.068C285.696 110.43 283.852 113.735 280.606 115.922C280.366 116.091 280.179 116.327 280.07 116.6C279.96 116.873 279.933 117.172 279.99 117.46C280.11 118.235 280.11 119.023 279.99 119.797C279.509 122.907 277.088 125.341 273.771 126.548C273.485 126.657 273.237 126.848 273.059 127.098C272.881 127.347 272.781 127.644 272.772 127.95C272.748 128.787 272.577 129.614 272.265 130.391C271.012 133.526 267.767 135.409 263.918 135.649C263.683 135.667 263.455 135.739 263.253 135.861C263.051 135.983 262.881 136.15 262.756 136.35C262.691 136.434 262.632 136.532 262.554 136.616C261.878 137.468 261.023 138.161 260.049 138.647C259.076 139.133 258.008 139.399 256.92 139.427C256.548 139.448 256.197 139.605 255.933 139.868C254.109 141.627 251.273 142.166 248.371 141.465L248.248 141.556C246.112 142.951 243.334 142.854 240.789 141.556C240.489 141.388 240.14 141.328 239.8 141.384C239.46 141.441 239.15 141.611 238.92 141.867C237.929 143.087 236.533 143.91 234.986 144.185C235.271 144.981 235.488 145.799 235.635 146.632C235.991 148.564 235.857 150.555 235.246 152.422C234.558 154.292 233.019 154.369 232.351 156.025L230.689 160.147C230.41 160.841 230.131 161.523 229.852 162.211C229.852 162.276 229.8 162.354 229.767 162.419C229.346 163.37 229.03 164.365 228.826 165.385C228.456 165.515 228.079 165.623 227.697 165.71C226.562 165.956 225.39 165.989 224.243 165.807C224.178 164.353 225.542 163.21 225.873 161.815C226.723 158.076 223.743 155.739 221.829 153.233C219.628 150.338 219.602 145.632 221.011 142.4C221.097 142.202 221.142 141.989 221.142 141.773C221.142 141.558 221.097 141.344 221.011 141.147C220.654 140.258 220.395 139.333 220.238 138.388C220.18 138.031 220.141 137.674 220.108 137.324C220.06 136.693 220.06 136.059 220.108 135.428C220.401 131.163 222.841 127.697 226.308 127.139C226.442 127.112 226.579 127.095 226.716 127.087C226.912 127.073 227.102 127.02 227.276 126.931C227.45 126.842 227.604 126.718 227.729 126.568C228.725 125.298 230.152 124.438 231.741 124.153C233.045 123.958 234.377 124.169 235.557 124.757C235.805 124.871 236.079 124.919 236.351 124.895C236.624 124.871 236.885 124.777 237.109 124.62L237.193 124.562C238.096 124.011 239.113 123.674 240.166 123.577C241.22 123.48 242.281 123.626 243.269 124.004C243.585 124.107 243.925 124.107 244.242 124.004C244.558 123.902 244.833 123.701 245.028 123.432C246.082 122.084 247.587 121.162 249.267 120.836C249.468 120.792 249.658 120.709 249.826 120.591C249.995 120.473 250.138 120.322 250.247 120.148C251.558 118.231 253.566 116.901 255.842 116.441C255.842 116.325 255.842 116.214 255.875 116.104C256.109 114.846 256.628 113.659 257.392 112.632C258.156 111.606 259.145 110.769 260.282 110.184C260.479 110.073 260.647 109.917 260.771 109.729C260.895 109.54 260.973 109.324 260.996 109.1C261.215 107.258 262.008 105.532 263.262 104.166C263.412 103.996 263.522 103.795 263.585 103.577C263.647 103.36 263.661 103.131 263.625 102.907C263.197 100.233 264.275 97.4546 266.404 95.2086C266.266 94.911 266.147 94.6054 266.047 94.2934C265.72 93.1625 265.64 91.9748 265.811 90.8103C265.983 89.6458 266.402 88.5315 267.04 87.5425C267.177 87.3105 267.249 87.046 267.249 86.7766C267.249 86.5071 267.177 86.2426 267.04 86.0106C266.741 85.5253 266.506 85.004 266.339 84.4592C265.833 82.8072 265.897 81.0333 266.521 79.422C266.591 79.2275 266.621 79.0207 266.609 78.8142C266.596 78.6077 266.542 78.4059 266.449 78.2212C266.285 77.9 266.148 77.5656 266.04 77.2215C265.699 76.0133 265.635 74.7437 265.853 73.5074C266.071 72.271 266.566 71.0999 267.299 70.0812C267.458 69.8391 267.543 69.556 267.543 69.2665C267.543 68.9771 267.458 68.694 267.299 68.4519C267.226 68.348 267.161 68.2442 267.105 68.1403C266.536 67.0932 266.201 65.9354 266.123 64.7465C266.044 63.5576 266.224 62.3658 266.65 61.2531C266.746 60.9767 266.759 60.6783 266.688 60.3945C266.616 60.1108 266.463 59.8542 266.248 59.6563C265.719 59.1724 265.268 58.6097 264.911 57.9881C264.464 57.21 264.165 56.3561 264.028 55.4695C263.71 55.0476 263.437 54.697 263.119 54.2686C262.656 54.0635 262.211 53.8203 261.788 53.5416C261.537 53.3705 261.239 53.2791 260.935 53.2791C260.63 53.2791 260.333 53.3705 260.081 53.5416C258.816 54.4242 257.314 54.9039 255.771 54.9177C254.372 54.909 253.003 54.5112 251.818 53.7688C251.538 53.5935 251.207 53.5175 250.879 53.5528C250.55 53.5881 250.243 53.7328 250.007 53.9635C248.537 55.4786 246.528 56.3513 244.418 56.3912C243.51 56.3866 242.61 56.2173 241.763 55.8914C241.51 55.7896 241.234 55.7594 240.965 55.804C240.696 55.8487 240.444 55.9665 240.238 56.1446C238.815 57.4386 236.968 58.1681 235.045 58.1958C233.827 58.1851 232.629 57.8823 231.552 57.313C231.256 57.151 230.916 57.09 230.582 57.1392C230.248 57.1884 229.939 57.3451 229.702 57.5856C228.968 58.3727 228.082 59.0041 227.099 59.4423C226.115 59.8806 225.054 60.1167 223.977 60.1367C222.261 60.1199 220.601 59.5304 219.258 58.4619C218.98 58.244 218.637 58.1255 218.284 58.1255C217.931 58.1255 217.588 58.244 217.311 58.4619C216.035 59.4988 214.454 60.0861 212.811 60.1331C211.168 60.18 209.555 59.6839 208.223 58.7216C207.965 58.544 207.66 58.449 207.347 58.449C207.034 58.449 206.728 58.544 206.47 58.7216C205.192 59.6306 203.664 60.1246 202.095 60.1367C199.996 60.0977 197.995 59.2352 196.526 57.7349C196.301 57.5159 196.014 57.3706 195.705 57.3184C195.395 57.2662 195.077 57.3096 194.793 57.4428C194.206 57.7261 193.584 57.9291 192.943 58.0465C192.677 58.0982 192.429 58.2208 192.227 58.4013C192.025 58.5818 191.875 58.8136 191.794 59.0721C191.639 59.5226 191.441 59.9573 191.203 60.3703C190.844 60.9891 190.396 61.5513 189.872 62.0386C189.655 62.237 189.501 62.494 189.427 62.7786C189.353 63.0632 189.364 63.3631 189.457 63.6419C189.887 64.7524 190.07 65.9433 189.992 67.1317C189.915 68.32 189.579 69.4772 189.009 70.5226C188.951 70.6329 188.886 70.7303 188.821 70.8342C188.659 71.0763 188.573 71.3609 188.573 71.6521C188.573 71.9432 188.659 72.2278 188.821 72.4699C189.555 73.4885 190.049 74.66 190.266 75.8965C190.483 77.1331 190.417 78.4027 190.074 79.6103C189.961 79.9529 189.825 80.287 189.665 80.6099C189.573 80.7963 189.52 80.9991 189.508 81.2064C189.495 81.4137 189.524 81.6214 189.593 81.8173C190.211 83.4271 190.277 85.1965 189.782 86.848C189.608 87.3935 189.371 87.9165 189.074 88.4058C188.934 88.6367 188.859 88.9016 188.859 89.1718C188.859 89.442 188.934 89.707 189.074 89.9378C189.711 90.9236 190.13 92.0343 190.302 93.1953C190.474 94.3563 190.397 95.5407 190.074 96.6692C189.975 96.9797 189.856 97.2833 189.717 97.5779C191.846 99.8239 192.923 102.609 192.501 105.276C192.456 105.506 192.465 105.742 192.527 105.968C192.589 106.193 192.702 106.401 192.858 106.575C194.111 107.94 194.906 109.662 195.13 111.502C195.152 111.727 195.228 111.943 195.351 112.133C195.474 112.323 195.641 112.48 195.838 112.592C199.733 114.799 202.251 121.297 197.584 124.069C197.292 124.244 197 124.393 196.695 124.542C195.753 124.977 194.747 125.302 193.806 125.698C190.833 126.918 188.964 129.482 186.484 130.151C185.153 130.508 183.647 130.313 181.7 129.073C178.818 127.223 175.527 123.497 176.163 119.882C176.215 119.59 176.182 119.289 176.066 119.016C175.951 118.743 175.759 118.509 175.514 118.343C172.268 116.162 170.425 112.845 170.97 109.489C171.031 109.163 171.109 108.84 171.204 108.522C171.277 108.289 171.292 108.042 171.247 107.803C171.203 107.563 171.101 107.337 170.951 107.146C168.945 104.718 168.107 101.784 168.964 99.0449C169.067 98.7337 169.186 98.4282 169.321 98.1297C166.913 95.5916 165.835 92.3655 166.77 89.3925C166.944 88.8503 167.179 88.3298 167.471 87.8411C167.613 87.6108 167.688 87.3456 167.688 87.0752C167.688 86.8047 167.613 86.5395 167.471 86.3092C166.837 85.3233 166.42 84.2135 166.249 83.0539C166.078 81.8942 166.156 80.7114 166.478 79.5843C166.585 79.2356 166.722 78.8968 166.887 78.5717C166.979 78.3865 167.032 78.1847 167.044 77.9785C167.057 77.7722 167.027 77.5656 166.958 77.3708C166.339 75.759 166.273 73.9871 166.77 72.3336C167.092 71.3042 167.64 70.3595 168.374 69.5684C168.608 69.3203 168.753 69.0018 168.787 68.6624C168.821 68.3231 168.742 67.982 168.562 67.6924C166.614 64.6416 166.244 61.1428 167.848 58.371C168.205 57.7531 168.654 57.1929 169.178 56.7093C169.396 56.5101 169.551 56.2516 169.624 55.9655C169.696 55.6795 169.684 55.3784 169.587 55.0995C169.162 53.989 168.982 52.7993 169.06 51.6125C169.139 50.4257 169.473 49.2701 170.042 48.2253C171.057 46.5143 172.679 45.2488 174.586 44.6811C174.822 44.6031 175.036 44.4673 175.207 44.286C175.378 44.1046 175.502 43.8835 175.566 43.6425C176.442 40.0659 178.727 37.3006 181.888 36.5606C182.857 36.3329 183.861 36.302 184.842 36.4697C185.059 36.5101 185.282 36.4988 185.494 36.4367C185.706 36.3747 185.901 36.2637 186.062 36.1127C186.783 35.3764 187.645 34.7934 188.597 34.3986C189.549 34.0037 190.571 33.8052 191.602 33.8149C192.632 33.8246 193.65 34.0423 194.594 34.455C195.539 34.8677 196.39 35.4669 197.097 36.2166C197.326 36.4362 197.616 36.5811 197.929 36.6321C198.242 36.6832 198.563 36.6378 198.85 36.5022C199.869 36.0013 200.992 35.7457 202.128 35.7557C203.696 35.7654 205.223 36.2572 206.503 37.1643C206.76 37.3444 207.066 37.4411 207.379 37.4411C207.693 37.4411 207.999 37.3444 208.255 37.1643C209.534 36.2564 211.062 35.7646 212.631 35.7557C214.343 35.775 216 36.3617 217.343 37.4239C217.618 37.6474 217.962 37.7694 218.317 37.7694C218.671 37.7694 219.015 37.6474 219.291 37.4239C220.637 36.3638 222.296 35.7775 224.01 35.7557C225.228 35.7587 226.427 36.0596 227.502 36.632C227.799 36.7942 228.14 36.856 228.474 36.808C228.809 36.76 229.119 36.6049 229.358 36.3659C230.092 35.5784 230.976 34.9462 231.958 34.5069C232.941 34.0676 234.001 33.83 235.077 33.8083C235.986 33.8088 236.887 33.9805 237.732 34.3146C237.986 34.414 238.263 34.4417 238.532 34.3948C238.801 34.3479 239.052 34.2281 239.257 34.0485C240.684 32.7617 242.53 32.0373 244.45 32.0103C245.846 32.0206 247.212 32.4159 248.397 33.1527C248.677 33.3294 249.009 33.4057 249.338 33.3692C249.667 33.3326 249.974 33.1853 250.208 32.9515C251.682 31.439 253.692 30.5689 255.804 30.5303C257.342 30.5513 258.838 31.0379 260.094 31.9259C260.351 32.106 260.657 32.2027 260.971 32.2027C261.284 32.2027 261.59 32.106 261.847 31.9259C263.11 31.0446 264.61 30.567 266.151 30.5562C267.312 30.5817 268.455 30.8536 269.503 31.3538C270.552 31.854 271.482 32.5711 272.233 33.4578C272.481 33.7529 272.835 33.9392 273.219 33.9771C273.552 34.0085 273.881 34.0627 274.206 34.1394C277.374 34.8794 279.665 37.6446 280.542 41.2213C280.601 41.4617 280.721 41.6828 280.89 41.8635C281.06 42.0442 281.273 42.1785 281.509 42.2534C283.429 42.8169 285.066 44.0851 286.091 45.8041C286.66 46.8531 286.992 48.0135 287.064 49.2043C287.137 50.395 286.949 51.5873 286.513 52.6977C286.42 52.9765 286.41 53.2764 286.483 53.561C286.557 53.8456 286.712 54.1027 286.929 54.3011C287.452 54.7883 287.901 55.3505 288.26 55.9693C289.856 58.741 289.467 62.2333 287.546 65.2907C287.364 65.5799 287.285 65.9212 287.319 66.2609C287.353 66.6005 287.499 66.9191 287.734 67.1666C288.463 67.9611 289.01 68.9047 289.337 69.9319C289.836 71.5847 289.773 73.3565 289.155 74.9691C289.083 75.1632 289.052 75.3703 289.065 75.577C289.077 75.7837 289.132 75.9857 289.227 76.1699C289.388 76.4946 289.525 76.8309 289.636 77.1761C289.95 78.2976 290.022 79.4731 289.847 80.6247C289.673 81.7762 289.256 82.8775 288.623 83.8555C288.481 84.0858 288.406 84.351 288.406 84.6215C288.406 84.892 288.481 85.1571 288.623 85.3874C288.915 85.876 289.151 86.3965 289.324 86.9388C290.265 89.9443 289.181 93.1704 286.78 95.7085Z" fill="#6ABC35"/>
<g opacity="0.2">
<path d="M227.859 144.075H227.807C227.76 144.068 227.714 144.052 227.673 144.027C227.632 144.002 227.596 143.969 227.568 143.931C227.54 143.892 227.519 143.848 227.508 143.802C227.496 143.755 227.494 143.707 227.502 143.66C228.06 140.128 229.735 137.168 231.397 134.429C231.892 133.52 232.527 132.694 233.279 131.982C234.798 130.684 236.888 130.969 238.732 131.21C239.16 131.268 239.582 131.32 239.978 131.352C242.851 131.645 245.749 131.578 248.605 131.151C256.887 129.781 260.542 123.543 264.417 116.929C266.52 113.346 268.695 109.639 271.674 106.725C276.361 102.181 277.322 91.8858 276.523 87.66C275.606 82.6909 274.971 77.6738 274.621 72.6329C274.502 70.1585 274.521 67.6792 274.68 65.207C274.875 60.9812 275.069 56.6061 273.946 52.9516C273.215 50.5764 271.714 48.5124 269.679 47.0854C267.644 45.6584 265.192 44.9497 262.71 45.0713C259.263 45.24 255.667 46.1163 252.188 46.9667C250.091 47.4795 247.923 48.0053 245.826 48.3688C238.634 49.6086 233.104 49.9526 227.891 49.4788C221.052 48.8612 214.178 48.7311 207.321 49.0893C204.722 49.167 202.121 49.0912 199.531 48.8621C195.5 48.583 191.333 48.2909 187.334 49.2581C183.777 50.1214 182.291 53.8019 180.979 57.093L180.668 57.8589C178.383 63.4673 179.96 69.3289 180.999 73.2106L181.181 73.8598C181.791 76.1771 180.953 80.0459 180.142 83.7913C179.583 86.0616 179.193 88.3701 178.974 90.6979C178.5 100.435 183.284 108.685 187.912 116.663C188.957 118.474 190.041 120.35 191.047 122.206C191.07 122.249 191.084 122.296 191.088 122.344C191.093 122.392 191.088 122.44 191.074 122.486C191.06 122.532 191.037 122.575 191.006 122.612C190.975 122.649 190.937 122.68 190.895 122.703C190.852 122.725 190.805 122.739 190.757 122.744C190.709 122.748 190.661 122.744 190.615 122.729C190.569 122.715 190.526 122.692 190.489 122.661C190.451 122.631 190.421 122.593 190.398 122.55C189.405 120.7 188.321 118.837 187.276 117.026C182.654 108.971 177.786 100.604 178.266 90.672C178.486 88.3022 178.883 85.9523 179.454 83.642C180.246 79.9809 181.064 76.1966 180.493 74.0545L180.317 73.4054C179.311 69.6729 177.636 63.4219 180.012 57.5928L180.324 56.8268C181.622 53.5812 183.258 49.5112 187.185 48.557C191.287 47.5639 195.513 47.856 199.603 48.1416C202.158 48.3699 204.724 48.4457 207.288 48.3688C214.183 48.0096 221.094 48.142 227.969 48.7648C233.11 49.2256 238.582 48.8881 245.71 47.6612C247.78 47.3042 249.935 46.7784 252.019 46.2656C255.531 45.4088 259.159 44.5195 262.684 44.3507C265.321 44.2238 267.925 44.9742 270.089 46.4846C272.254 47.995 273.857 50.1802 274.647 52.6984C275.809 56.4763 275.608 60.9163 275.413 65.207C275.252 67.651 275.233 70.1023 275.355 72.5485C275.704 77.5566 276.335 82.541 277.244 87.4783C278.068 91.8339 277.062 102.454 272.194 107.205C269.279 110.042 267.131 113.696 265.053 117.253C261.263 123.745 257.348 130.398 248.728 131.82C245.814 132.258 242.857 132.33 239.926 132.034C239.517 132.001 239.089 131.943 238.628 131.885C236.849 131.657 235.006 131.417 233.74 132.495C233.048 133.155 232.463 133.919 232.007 134.76C230.377 137.435 228.761 140.33 228.203 143.725C228.197 143.814 228.159 143.899 228.096 143.964C228.033 144.028 227.949 144.068 227.859 144.075Z" fill="white"/>
</g>
<path opacity="0.2" d="M227.684 165.709C226.549 165.956 225.378 165.989 224.23 165.807C224.165 164.353 225.529 163.21 225.86 161.815C226.71 158.076 223.731 155.739 221.816 153.233C219.615 150.338 219.589 145.632 220.998 142.399C221.085 142.202 221.129 141.989 221.129 141.773C221.129 141.557 221.085 141.344 220.998 141.147C220.641 140.258 220.382 139.333 220.225 138.388C220.167 138.031 220.128 137.674 220.096 137.323C220.194 137.882 220.453 138.399 220.842 138.812C221.231 139.225 221.732 139.515 222.283 139.647C226.866 141.017 221.05 142.503 221.05 145.593C221.05 148.683 222.53 154.382 226.243 156.109C229.956 157.835 224.931 163.048 226.145 164.411C226.603 164.905 227.12 165.341 227.684 165.709Z" fill="black"/>
<path opacity="0.2" d="M268.715 66.5183C269.591 68.7383 272.434 69.2511 270.208 70.2897C267.981 71.3283 267.111 76.4109 269.468 78.7607C271.824 81.1105 266.611 80.9872 267.851 83.7135C269.091 86.4398 273.297 85.8426 271.318 88.8026C269.338 91.7626 267.728 94.4824 268.838 95.7158C269.948 96.9491 267.975 95.9105 266.735 98.2279C265.495 100.545 265.255 103.233 267.605 105.044C269.954 106.855 265.131 104.394 263.645 106.115C262.158 107.835 262.898 110.146 263.645 111.411C264.391 112.677 262.158 109.282 260.179 111.411C258.199 113.541 256.933 114.378 257.082 117.254C257.232 120.129 255.226 116.351 254.239 117.864C253.253 119.376 255.473 123.057 251.766 124.076C248.06 125.095 246.32 123.135 245.327 124.848C244.334 126.562 244.457 128.782 243.224 127.445C241.99 126.108 240.751 124.602 239.011 125.835C237.271 127.068 237.161 128.061 236.044 126.951C234.928 125.841 230.851 124.602 229.612 126.211C228.372 127.821 230.624 129.924 229.001 129.678C227.379 129.431 224.399 128.1 222.802 129.678C221.416 131.335 220.487 133.327 220.108 135.455C220.401 131.19 222.841 127.724 226.308 127.166C226.443 127.139 226.579 127.122 226.717 127.114C226.912 127.1 227.102 127.047 227.276 126.958C227.45 126.868 227.604 126.745 227.729 126.594C228.725 125.325 230.153 124.465 231.741 124.18C233.045 123.985 234.377 124.195 235.558 124.783C235.806 124.898 236.079 124.946 236.351 124.922C236.624 124.898 236.885 124.803 237.109 124.647L237.193 124.589C238.096 124.037 239.113 123.7 240.166 123.604C241.22 123.507 242.281 123.653 243.269 124.03C243.585 124.133 243.926 124.134 244.242 124.031C244.558 123.928 244.833 123.728 245.028 123.459C246.082 122.111 247.587 121.189 249.267 120.863C249.468 120.819 249.658 120.736 249.826 120.617C249.995 120.499 250.138 120.349 250.247 120.175C251.559 118.258 253.566 116.928 255.843 116.468C255.843 116.351 255.843 116.241 255.875 116.131C256.109 114.873 256.628 113.685 257.392 112.659C258.156 111.633 259.145 110.795 260.283 110.211C260.479 110.1 260.647 109.944 260.771 109.755C260.895 109.567 260.973 109.351 260.997 109.127C261.215 107.285 262.008 105.559 263.262 104.193C263.412 104.023 263.522 103.822 263.585 103.604C263.647 103.387 263.661 103.158 263.625 102.934C263.197 100.26 264.275 97.4814 266.404 95.2354C266.266 94.9378 266.147 94.6322 266.047 94.3201C265.716 93.1854 265.634 91.9929 265.806 90.8236C265.977 89.6543 266.398 88.5356 267.04 87.5433C267.177 87.3113 267.249 87.0468 267.249 86.7774C267.249 86.5079 267.177 86.2434 267.04 86.0114C266.741 85.5261 266.506 85.0048 266.339 84.46C265.833 82.808 265.897 81.0341 266.521 79.4228C266.591 79.2284 266.621 79.0215 266.609 78.815C266.597 78.6085 266.542 78.4067 266.449 78.222C266.285 77.9008 266.148 77.5664 266.04 77.2223C265.699 76.0141 265.635 74.7445 265.853 73.5082C266.072 72.2718 266.566 71.1007 267.3 70.082C267.458 69.8399 267.543 69.5568 267.543 69.2673C267.543 68.9779 267.458 68.6948 267.3 68.4527C267.226 68.3488 267.161 68.245 267.105 68.1411C266.536 67.094 266.201 65.9362 266.123 64.7473C266.044 63.5584 266.224 62.3667 266.65 61.254C266.746 60.9776 266.76 60.6791 266.688 60.3953C266.616 60.1116 266.464 59.855 266.248 59.6571C265.719 59.1732 265.268 58.6105 264.911 57.9889C264.464 57.2108 264.165 56.357 264.028 55.4703C263.71 55.0484 263.437 54.6978 263.119 54.2694C262.656 54.0643 262.211 53.8212 261.788 53.5424C261.537 53.3713 261.239 53.2799 260.935 53.2799C260.63 53.2799 260.333 53.3713 260.081 53.5424C258.816 54.425 257.314 54.9047 255.771 54.9185C254.372 54.9099 253.004 54.512 251.818 53.7696C251.538 53.5944 251.207 53.5183 250.879 53.5536C250.55 53.5889 250.243 53.7336 250.007 53.9643C248.537 55.4794 246.528 56.3521 244.418 56.392C243.51 56.3874 242.611 56.2181 241.763 55.8922C241.51 55.7904 241.234 55.7602 240.965 55.8048C240.696 55.8495 240.444 55.9673 240.238 56.1454C238.815 57.4395 236.968 58.169 235.045 58.1966C233.827 58.1859 232.629 57.8831 231.552 57.3138C231.256 57.1519 230.916 57.0909 230.582 57.1401C230.248 57.1893 229.939 57.346 229.702 57.5864C228.968 58.3735 228.082 59.0049 227.099 59.4431C226.115 59.8814 225.054 60.1175 223.977 60.1375C222.262 60.1207 220.601 59.5313 219.258 58.4627C218.98 58.2448 218.638 58.1264 218.284 58.1264C217.931 58.1264 217.589 58.2448 217.311 58.4627C216.035 59.4996 214.454 60.0869 212.811 60.1339C211.168 60.1808 209.555 59.6847 208.223 58.7224C207.965 58.5449 207.66 58.4498 207.347 58.4498C207.034 58.4498 206.728 58.5449 206.47 58.7224C205.192 59.6314 203.664 60.1254 202.095 60.1375C199.996 60.0986 197.995 59.236 196.526 57.7357C196.301 57.5167 196.015 57.3714 195.705 57.3192C195.395 57.267 195.077 57.3104 194.793 57.4436C194.206 57.7269 193.584 57.93 192.943 58.0473C192.677 58.099 192.43 58.2216 192.227 58.4021C192.025 58.5826 191.875 58.8144 191.794 59.0729C191.639 59.5234 191.441 59.9581 191.203 60.3712C190.844 60.9899 190.396 61.5521 189.872 62.0394C189.655 62.2378 189.501 62.4949 189.427 62.7795C189.353 63.0641 189.364 63.3639 189.457 63.6427C189.887 64.7532 190.07 65.9441 189.992 67.1325C189.915 68.3208 189.579 69.478 189.009 70.5234C188.951 70.6338 188.886 70.7311 188.821 70.835C188.659 71.0771 188.573 71.3617 188.573 71.6529C188.573 71.944 188.659 72.2286 188.821 72.4708C189.555 73.4893 190.049 74.6608 190.266 75.8973C190.483 77.1339 190.417 78.4035 190.074 79.6111C189.962 79.9537 189.825 80.2878 189.665 80.6107C189.573 80.7972 189.52 80.9999 189.508 81.2072C189.495 81.4145 189.524 81.6222 189.593 81.8181C190.211 83.4279 190.277 85.1973 189.782 86.8488C189.608 87.3943 189.371 87.9173 189.074 88.4067C188.934 88.6375 188.859 88.9024 188.859 89.1726C188.859 89.4428 188.934 89.7078 189.074 89.9386C189.711 90.9244 190.13 92.0351 190.302 93.1961C190.475 94.3571 190.397 95.5416 190.074 96.67C189.975 96.9805 189.856 97.2841 189.717 97.5787C191.846 99.8247 192.923 102.609 192.501 105.277C192.456 105.507 192.465 105.743 192.527 105.969C192.589 106.194 192.702 106.402 192.858 106.576C194.112 107.94 194.906 109.663 195.13 111.502C195.153 111.727 195.228 111.944 195.351 112.134C195.475 112.323 195.641 112.481 195.838 112.593C199.733 114.8 202.251 121.298 197.584 124.069C197.292 124.245 197 124.394 196.695 124.543C197.688 122.252 198.467 119.35 197.344 117.247C195.241 113.177 191.898 115.027 191.502 113.3C191.106 111.574 194.098 112.145 192.735 109.256C191.372 106.368 190.022 107.114 190.139 105.874C190.255 104.635 191.249 104.012 190.262 101.545C189.275 99.0782 183.823 99.9999 183.823 98.2343C183.823 96.4687 188.529 98.1954 189.016 94.9887C189.502 91.7821 186.659 90.8084 186.536 88.8156C186.413 86.8228 188.749 87.3291 189.132 84.5898C189.515 81.8506 187.023 81.3442 187.146 79.6825C187.269 78.0207 189.502 79.0334 189.502 76.5537C189.502 74.0741 184.803 71.2309 187.146 69.1213C189.489 67.0117 190.002 63.6752 187.146 62.682C184.29 61.6889 190.989 60.9554 189.256 59.5922C187.523 58.2291 187.523 58.9431 185.666 57.924C183.81 56.9049 184.686 54.4382 184.686 54.4382C184.686 54.4382 187.023 58.1057 194.949 56.6192C194.949 56.6192 198.538 59.1248 201.758 58.9236C204.977 58.7224 205.717 57.9759 207.204 57.7227C208.69 57.4696 211.78 59.5922 214.007 57.924C216.233 56.2557 218.59 55.5157 219.7 56.6842C220.81 57.8526 224.776 58.1122 226.755 56.6842C228.735 55.2561 228.495 53.4385 230.001 53.5943C231.507 53.7501 231.241 55.3989 232.844 56.2557C233.804 56.7012 234.876 56.8447 235.92 56.6674C236.963 56.49 237.928 56.0002 238.686 55.2626C240.303 53.6528 242.652 55.6326 245.126 55.1392C247.599 54.6459 249.085 51.4198 250.448 51.4198C251.812 51.4198 253.233 53.0491 256.141 53.5943C259.049 54.1396 263.191 49.9398 263.191 49.9398C263.191 49.9398 264.807 48.5766 266.287 50.8031C267.767 53.0296 271.032 49.7256 271.233 49.5049C271.155 49.7775 269.753 54.0877 265.794 54.4057C261.711 54.7368 266.534 59.4819 269.883 58.8977C273.232 58.3134 274.206 60.4296 271.733 61.4162C269.26 62.4029 267.851 64.2983 268.715 66.5183Z" fill="black"/>
<path opacity="0.2" d="M286.78 95.7085C286.921 96.0056 287.039 96.3139 287.13 96.6302C287.993 99.3565 287.13 102.297 285.183 104.725C285.029 104.913 284.924 105.137 284.877 105.376C284.831 105.615 284.844 105.862 284.917 106.094C285.02 106.412 285.099 106.738 285.15 107.068C285.696 110.43 283.852 113.735 280.606 115.922C280.366 116.091 280.179 116.327 280.07 116.6C279.96 116.873 279.933 117.172 279.99 117.46C280.11 118.235 280.11 119.023 279.99 119.797C279.509 122.907 277.088 125.341 273.771 126.548C273.485 126.657 273.237 126.848 273.059 127.098C272.881 127.347 272.781 127.644 272.772 127.95C272.748 128.787 272.577 129.614 272.265 130.391C271.012 133.526 267.767 135.409 263.918 135.649C263.683 135.667 263.455 135.739 263.253 135.861C263.051 135.983 262.881 136.15 262.756 136.35C262.691 136.434 262.632 136.532 262.554 136.616C261.878 137.468 261.023 138.161 260.049 138.647C259.076 139.133 258.008 139.399 256.92 139.427C256.548 139.448 256.197 139.605 255.933 139.868C254.109 141.627 251.273 142.166 248.371 141.465L248.248 141.556C246.112 142.951 243.334 142.854 240.789 141.556C240.489 141.388 240.14 141.328 239.8 141.384C239.46 141.441 239.15 141.611 238.92 141.867C237.929 143.087 236.533 143.91 234.986 144.185C235.271 144.981 235.488 145.799 235.635 146.632C235.991 148.564 235.857 150.555 235.246 152.422C234.558 154.292 233.019 154.369 232.351 156.025L230.689 160.147C230.41 160.841 230.131 161.523 229.852 162.211C229.423 160.569 230.773 159.426 231.105 156.732C231.526 153.318 234.908 153.078 234.824 149.676C234.74 146.275 232.961 146.587 230.488 145.47C228.015 144.354 230.241 143.367 232.221 143.367C234.201 143.367 236.804 142.25 236.927 140.4C237.05 138.55 233.682 140.024 233.578 137.324C233.474 134.623 238.9 138.414 240.517 139.401C242.133 140.387 243.237 140.77 244.963 140.4C246.69 140.03 248.313 137.427 249.546 140.147C250.779 142.867 253.142 140.277 253.759 138.661C254.376 137.044 252.026 134.461 253.882 135.415C255.739 136.369 256.355 137.174 258.588 137.317C260.821 137.46 260.315 135.564 261.302 133.143C262.288 130.722 263.535 133.948 266.254 133.435C268.974 132.923 272.285 130.384 270.714 127.022C269.143 123.66 266.131 125.289 266.624 122.316C267.118 119.343 270.714 124.302 273.206 124.828C275.699 125.354 278.88 118.116 277.517 116.208C276.153 114.299 277.77 114.909 280.866 113.903C283.962 112.897 283.833 110.067 284.112 108.334C284.391 106.601 282.132 105.861 283.119 104.251C284.105 102.641 285.838 102.518 286.215 99.5512C286.591 96.5848 282.625 96.3056 284.112 95.5851C285.598 94.8646 286.585 93.3586 287.455 90.7622C288.324 88.1657 285.098 88.0423 286.215 85.9327C287.331 83.8231 288.565 82.1029 288.162 78.7534C287.76 75.404 286.552 77.8901 283.086 77.2215C279.62 76.5529 285.806 75.4105 287.916 74.5471C290.025 73.6838 288.785 70.8342 287.266 69.7177C285.747 68.6012 285.579 67.9845 285.696 65.7645C285.812 63.5445 289.181 61.0844 285.696 58.9033C282.21 56.7223 285.085 52.6393 285.579 51.2762C286.072 49.913 284.962 45.7067 282.366 44.4474C279.769 43.1881 276.179 44.5967 278.283 42.5001C280.386 40.4034 278.529 39.4038 276.549 36.3139C274.57 33.2241 271.967 37.1773 270.98 35.4376C269.993 33.698 270.24 33.341 266.274 32.3478C262.308 31.3547 263.554 34.9443 261.321 34.6976C259.088 34.451 260.094 31.9259 255.356 31.8545C250.617 31.7831 251.026 35.5739 248.553 35.5739C246.08 35.5739 247.813 33.711 244.217 33.2176C240.621 32.7243 241.724 35.8206 239.128 36.8073C236.531 37.7939 237.524 35.0676 234.311 35.2429C231.098 35.4182 231.987 39.0662 230.228 39.7153C228.469 40.3644 227.489 36.6125 223.795 36.9111C220.102 37.2097 221.562 40.8643 218.602 39.7153C215.642 38.5664 215.013 37.1578 211.423 37.1578C207.834 37.1578 209.813 40.1243 207.957 40.4943C206.1 40.8643 205.607 37.7745 203.004 37.1578C200.401 36.5411 198.175 39.1052 198.051 40.8643C197.928 42.6234 197.311 40.7409 197.311 38.2678C197.311 35.7946 194.468 34.3731 189.885 35.7946C185.303 37.2162 190.262 44.2332 189.885 44.4279C189.509 44.6227 187.406 41.2343 185.432 38.3911C183.459 35.548 181.22 37.6446 181.22 37.6446L178.623 39.7088C176.027 41.7795 178.247 45.5509 176.942 47.3035C175.637 49.0562 174.164 45.9339 172.061 47.3035C169.957 48.6732 170.574 52.2498 170.697 53.5546C170.821 54.8593 173.047 57.4493 171.347 56.9495C169.646 56.4497 169.977 58.1893 168.374 59.9938C166.77 61.7984 167.134 63.8886 169.023 65.4919C170.912 67.0952 174.216 69.2049 170.879 69.2049C167.543 69.2049 168.529 72.9178 167.595 75.5857C166.66 78.2536 170.256 76.884 170.509 78.2406C170.762 79.5973 168.899 79.6038 167.828 81.4473C166.757 83.2908 169.639 84.6929 170.009 86.6402C170.379 88.5876 168.899 87.2894 168.03 89.8858C167.16 92.4823 169.269 95.1892 170.509 96.5523C171.749 97.9155 170.256 98.6555 170.009 101.505C169.763 104.355 171.626 103.972 173.476 106.049C175.326 108.126 171.34 108.451 173.476 113.105C175.611 117.759 176.948 114.338 179.422 115.176C181.895 116.013 177.935 118.304 177.318 120.401C176.702 122.498 180.707 130.001 186.549 130.138C185.218 130.495 183.712 130.3 181.765 129.06C178.883 127.21 175.592 123.484 176.228 119.869C176.28 119.577 176.247 119.276 176.131 119.003C176.016 118.73 175.824 118.496 175.579 118.33C172.333 116.149 170.49 112.832 171.035 109.476C171.096 109.15 171.174 108.827 171.269 108.509C171.341 108.276 171.357 108.029 171.312 107.79C171.268 107.55 171.166 107.324 171.015 107.133C169.01 104.705 168.172 101.771 169.029 99.032C169.132 98.7207 169.251 98.4152 169.386 98.1167C166.978 95.5786 165.9 92.3525 166.835 89.3795C167.009 88.8373 167.244 88.3168 167.536 87.8281C167.678 87.5978 167.753 87.3327 167.753 87.0622C167.753 86.7917 167.678 86.5265 167.536 86.2962C166.902 85.3103 166.485 84.2005 166.314 83.0409C166.143 81.8813 166.221 80.6984 166.543 79.5713C166.65 79.2227 166.787 78.8839 166.952 78.5587C167.044 78.3735 167.097 78.1718 167.109 77.9655C167.122 77.7592 167.092 77.5526 167.023 77.3578C166.404 75.746 166.338 73.9742 166.835 72.3206C167.157 71.2912 167.705 70.3465 168.438 69.5554C168.672 69.3073 168.818 68.9888 168.852 68.6495C168.886 68.3101 168.807 67.9691 168.627 67.6794C166.679 64.6286 166.309 61.1298 167.913 58.3581C168.27 57.7402 168.718 57.1799 169.243 56.6963C169.461 56.4972 169.616 56.2386 169.689 55.9526C169.761 55.6665 169.749 55.3655 169.652 55.0865C169.226 53.976 169.047 52.7863 169.125 51.5995C169.203 50.4128 169.538 49.2571 170.107 48.2123C171.122 46.5014 172.744 45.2358 174.651 44.6681C174.887 44.5901 175.101 44.4543 175.272 44.273C175.443 44.0917 175.567 43.8705 175.631 43.6295C176.507 40.0529 178.792 37.2876 181.953 36.5476C182.922 36.32 183.926 36.2891 184.907 36.4567C185.124 36.4971 185.347 36.4858 185.559 36.4238C185.771 36.3617 185.966 36.2507 186.127 36.0997C186.848 35.3635 187.71 34.7804 188.662 34.3856C189.614 33.9907 190.636 33.7922 191.667 33.8019C192.697 33.8116 193.715 34.0293 194.659 34.442C195.604 34.8547 196.455 35.4539 197.162 36.2036C197.391 36.4232 197.681 36.5682 197.994 36.6192C198.307 36.6702 198.628 36.6248 198.915 36.4892C199.916 36.0026 201.015 35.7517 202.128 35.7557C203.696 35.7654 205.223 36.2572 206.503 37.1643C206.76 37.3444 207.066 37.4411 207.379 37.4411C207.693 37.4411 207.999 37.3444 208.255 37.1643C209.535 36.2564 211.062 35.7646 212.631 35.7557C214.343 35.775 216 36.3617 217.343 37.4239C217.618 37.6474 217.962 37.7694 218.317 37.7694C218.671 37.7694 219.015 37.6474 219.291 37.4239C220.637 36.3638 222.296 35.7775 224.01 35.7557C225.228 35.7587 226.427 36.0596 227.502 36.632C227.799 36.7942 228.14 36.856 228.474 36.808C228.809 36.76 229.119 36.6049 229.358 36.3659C230.092 35.5784 230.976 34.9462 231.958 34.5069C232.941 34.0676 234.001 33.83 235.077 33.8083C235.986 33.8088 236.887 33.9805 237.732 34.3146C237.986 34.414 238.263 34.4417 238.532 34.3948C238.801 34.3479 239.052 34.2281 239.257 34.0485C240.684 32.7617 242.53 32.0373 244.45 32.0103C245.846 32.0206 247.212 32.4159 248.397 33.1527C248.677 33.3294 249.009 33.4057 249.338 33.3692C249.667 33.3326 249.974 33.1853 250.208 32.9515C251.682 31.439 253.692 30.5689 255.804 30.5303C257.342 30.5513 258.838 31.0379 260.094 31.9259C260.351 32.106 260.657 32.2027 260.971 32.2027C261.284 32.2027 261.59 32.106 261.847 31.9259C263.11 31.0446 264.61 30.567 266.151 30.5562C267.312 30.5817 268.455 30.8536 269.503 31.3538C270.552 31.854 271.482 32.5711 272.233 33.4578C272.481 33.7529 272.835 33.9392 273.219 33.9771C273.552 34.0085 273.881 34.0627 274.206 34.1394C277.374 34.8794 279.665 37.6446 280.542 41.2213C280.601 41.4617 280.721 41.6828 280.89 41.8635C281.06 42.0442 281.273 42.1785 281.509 42.2534C283.429 42.8169 285.066 44.0851 286.092 45.8041C286.66 46.8531 286.992 48.0135 287.064 49.2043C287.137 50.395 286.949 51.5873 286.513 52.6977C286.42 52.9765 286.41 53.2764 286.483 53.561C286.557 53.8456 286.712 54.1027 286.929 54.3011C287.452 54.7883 287.901 55.3505 288.26 55.9693C289.856 58.741 289.467 62.2333 287.546 65.2907C287.364 65.5799 287.285 65.9212 287.319 66.2609C287.353 66.6005 287.499 66.9191 287.734 67.1666C288.463 67.9611 289.01 68.9047 289.337 69.9319C289.836 71.5847 289.773 73.3565 289.155 74.9691C289.083 75.1632 289.052 75.3703 289.065 75.577C289.077 75.7837 289.132 75.9857 289.227 76.1699C289.388 76.4946 289.525 76.8309 289.636 77.1761C289.95 78.2976 290.022 79.4731 289.848 80.6247C289.673 81.7762 289.256 82.8775 288.623 83.8555C288.481 84.0858 288.406 84.351 288.406 84.6215C288.406 84.892 288.481 85.1571 288.623 85.3874C288.915 85.876 289.151 86.3965 289.324 86.9388C290.265 89.9443 289.181 93.1704 286.78 95.7085Z" fill="black"/>
<path d="M148.965 102.324L148.608 102.402C148.594 102.743 148.498 103.075 148.327 103.37C148.156 103.666 147.916 103.915 147.628 104.097L147.731 104.447L147.485 104.181C147.182 104.339 146.846 104.424 146.505 104.428C146.165 104.424 145.831 104.339 145.531 104.181L145.278 104.447L145.382 104.097C145.095 103.914 144.856 103.664 144.687 103.369C144.517 103.074 144.422 102.742 144.408 102.402L144.239 102.363L144.077 102.331L144.414 102.253V102.052C144.457 101.75 144.564 101.461 144.728 101.204C144.893 100.947 145.112 100.729 145.369 100.565L145.265 100.215L145.518 100.487C145.816 100.321 146.151 100.234 146.492 100.234C146.832 100.234 147.168 100.321 147.465 100.487L147.563 100.377L147.718 100.215L147.641 100.474V100.565L147.816 100.689C147.918 100.766 148.009 100.855 148.088 100.955C148.111 100.973 148.131 100.995 148.147 101.02C148.437 101.37 148.604 101.805 148.621 102.26L148.965 102.324Z" fill="#6ABC35"/>
<path opacity="0.2" d="M147.693 102.778L147.887 103.038L147.595 102.895C147.393 103.116 147.14 103.284 146.859 103.385C146.577 103.485 146.275 103.516 145.979 103.473L145.849 103.772V103.447C145.556 103.383 145.282 103.249 145.051 103.058C144.827 102.86 144.651 102.613 144.538 102.337H144.259L144.434 102.227L144.492 102.188C144.473 102.135 144.46 102.081 144.453 102.025C144.496 101.723 144.603 101.434 144.767 101.178C144.932 100.921 145.151 100.703 145.408 100.539L145.304 100.188L145.557 100.461C145.855 100.295 146.19 100.208 146.531 100.208C146.871 100.208 147.207 100.295 147.504 100.461L147.602 100.351C147.631 100.38 147.658 100.413 147.68 100.448V100.539L147.855 100.662C147.911 100.751 147.959 100.844 147.998 100.941H148.127C148.15 100.96 148.17 100.982 148.186 101.006L148.056 101.091C148.138 101.38 148.147 101.686 148.084 101.98C148.021 102.274 147.886 102.548 147.693 102.778Z" fill="white"/>
<path d="M162.148 122.479L161.791 122.557C161.778 122.897 161.681 123.23 161.51 123.525C161.34 123.82 161.1 124.069 160.811 124.251L160.915 124.601L160.669 124.335C160.366 124.494 160.03 124.578 159.688 124.582C159.349 124.578 159.015 124.493 158.715 124.335L158.461 124.601L158.565 124.251C158.278 124.068 158.04 123.818 157.871 123.523C157.701 123.228 157.605 122.897 157.592 122.557L157.423 122.518L157.261 122.485L157.598 122.407V122.206C157.64 121.904 157.747 121.615 157.912 121.358C158.077 121.102 158.295 120.884 158.552 120.72L158.449 120.369L158.702 120.642C158.999 120.476 159.335 120.389 159.675 120.389C160.016 120.389 160.351 120.476 160.649 120.642L160.746 120.531L160.902 120.369L160.824 120.629V120.72L161 120.843C161.101 120.92 161.193 121.009 161.272 121.109C161.295 121.127 161.315 121.149 161.331 121.174C161.621 121.524 161.787 121.96 161.804 122.414L162.148 122.479Z" fill="#6ABC35"/>
<path opacity="0.2" d="M160.876 122.934L161.071 123.193L160.779 123.051C160.577 123.271 160.324 123.439 160.042 123.54C159.761 123.64 159.459 123.671 159.162 123.628L159.033 123.927V123.602C158.739 123.538 158.465 123.405 158.234 123.213C158.01 123.015 157.835 122.769 157.721 122.492H157.442L157.618 122.382L157.676 122.343C157.657 122.291 157.644 122.236 157.637 122.181C157.679 121.879 157.786 121.589 157.951 121.333C158.116 121.076 158.334 120.858 158.591 120.694L158.487 120.344L158.741 120.616C159.038 120.45 159.373 120.363 159.714 120.363C160.055 120.363 160.39 120.45 160.688 120.616L160.785 120.506C160.815 120.535 160.841 120.568 160.863 120.603V120.694L161.038 120.818C161.095 120.906 161.143 120.999 161.181 121.097H161.311C161.334 121.115 161.354 121.137 161.369 121.162L161.24 121.246C161.321 121.536 161.331 121.841 161.268 122.135C161.204 122.429 161.07 122.703 160.876 122.934Z" fill="white"/>
<path d="M170.97 101.985L170.613 102.063C170.599 102.404 170.503 102.736 170.332 103.031C170.161 103.327 169.921 103.576 169.633 103.757L169.737 104.108L169.49 103.842C169.187 104 168.851 104.085 168.51 104.089C168.17 104.085 167.837 104 167.536 103.842L167.283 104.108L167.387 103.757C167.1 103.575 166.862 103.325 166.692 103.03C166.523 102.735 166.427 102.403 166.413 102.063L166.244 102.024H166.082L166.42 101.946V101.745C166.462 101.443 166.569 101.154 166.734 100.897C166.898 100.641 167.117 100.423 167.374 100.259L167.27 99.9082L167.523 100.181C167.821 100.015 168.156 99.9277 168.497 99.9277C168.838 99.9277 169.173 100.015 169.471 100.181L169.568 100.07L169.724 99.9082L169.646 100.168V100.259L169.821 100.382C169.923 100.459 170.014 100.548 170.094 100.648C170.117 100.666 170.136 100.688 170.152 100.713C170.442 101.063 170.609 101.499 170.626 101.953L170.97 101.985Z" fill="#6ABC35"/>
<path opacity="0.2" d="M169.717 102.441L169.912 102.7L169.62 102.557C169.418 102.778 169.165 102.946 168.883 103.047C168.602 103.147 168.3 103.178 168.003 103.135L167.874 103.434V103.109C167.58 103.045 167.306 102.912 167.075 102.72C166.851 102.522 166.676 102.275 166.562 101.999H166.283L166.459 101.889L166.517 101.85C166.498 101.797 166.485 101.743 166.478 101.688C166.52 101.386 166.627 101.096 166.792 100.84C166.957 100.583 167.175 100.365 167.432 100.201L167.328 99.8506L167.582 100.123C167.879 99.9572 168.214 99.8701 168.555 99.8701C168.896 99.8701 169.231 99.9572 169.529 100.123L169.626 100.013C169.656 100.042 169.682 100.075 169.704 100.11V100.201L169.879 100.324C169.936 100.413 169.984 100.506 170.022 100.604H170.152C170.175 100.622 170.195 100.644 170.21 100.668L170.081 100.753C170.162 101.042 170.172 101.348 170.109 101.642C170.045 101.936 169.911 102.21 169.717 102.441Z" fill="white"/>
<path d="M147.874 118.772C147.803 118.784 147.731 118.784 147.66 118.772C147.579 118.744 147.505 118.7 147.441 118.643C147.378 118.585 147.326 118.516 147.289 118.439C147.253 118.362 147.231 118.278 147.227 118.193C147.223 118.107 147.235 118.022 147.264 117.941C148.666 113.988 146.258 112.372 146.154 112.307C146.009 112.214 145.906 112.067 145.869 111.898C145.832 111.73 145.863 111.553 145.956 111.408C146.049 111.262 146.196 111.16 146.365 111.123C146.533 111.086 146.71 111.117 146.855 111.21C146.888 111.21 150.244 113.41 148.484 118.35C148.438 118.474 148.355 118.581 148.246 118.657C148.136 118.732 148.007 118.773 147.874 118.772Z" fill="#6ABC35"/>
<path d="M159.967 113.17C159.807 113.171 159.652 113.113 159.532 113.006C159.412 112.9 159.336 112.752 159.318 112.593C159.221 111.716 158.02 111.204 156.806 110.71C155.281 110.061 153.372 109.289 153.937 107.322C153.957 107.236 153.994 107.155 154.046 107.084C154.098 107.013 154.164 106.953 154.24 106.908C154.316 106.864 154.4 106.835 154.487 106.824C154.575 106.812 154.664 106.819 154.748 106.843C154.833 106.868 154.912 106.909 154.98 106.965C155.048 107.02 155.105 107.09 155.145 107.168C155.186 107.246 155.21 107.331 155.217 107.419C155.223 107.507 155.212 107.596 155.183 107.679C154.976 108.406 155.534 108.776 157.306 109.516C158.766 110.12 160.428 110.814 160.61 112.45C160.62 112.535 160.613 112.622 160.589 112.704C160.565 112.787 160.525 112.864 160.472 112.931C160.418 112.998 160.351 113.054 160.276 113.095C160.201 113.136 160.118 113.162 160.032 113.17H159.967Z" fill="#6ABC35"/>
<path d="M154.976 98.903C154.843 98.9034 154.713 98.8632 154.604 98.7878C154.495 98.7124 154.412 98.6053 154.365 98.4811C154.228 98.0438 154.197 97.5802 154.275 97.1286C154.353 96.6771 154.538 96.2506 154.813 95.8846C155.276 95.2779 155.88 94.793 156.572 94.4718C157.264 94.1506 158.024 94.0028 158.786 94.0411C158.958 94.0411 159.123 94.1095 159.245 94.2312C159.367 94.3529 159.435 94.518 159.435 94.6902C159.435 94.8624 159.367 95.0275 159.245 95.1492C159.123 95.2709 158.958 95.3393 158.786 95.3393C158.232 95.3042 157.679 95.404 157.172 95.6302C156.665 95.8563 156.221 96.202 155.878 96.6376C155.721 96.8365 155.613 97.0689 155.561 97.3166C155.51 97.5643 155.516 97.8207 155.579 98.0656C155.61 98.1453 155.624 98.2302 155.621 98.3154C155.619 98.4007 155.6 98.4845 155.565 98.5623C155.53 98.6401 155.48 98.7102 155.418 98.7686C155.356 98.8271 155.283 98.8727 155.203 98.903C155.128 98.9149 155.051 98.9149 154.976 98.903Z" fill="#6ABC35"/>
<path d="M166.575 116C166.408 116 166.248 115.935 166.127 115.819C166.007 115.697 165.939 115.532 165.939 115.361C165.939 115.189 166.007 115.025 166.127 114.903C167.581 113.291 169.317 111.958 171.249 110.97C171.328 110.935 171.413 110.917 171.498 110.916C171.584 110.915 171.67 110.931 171.749 110.963C171.829 110.995 171.902 111.042 171.963 111.102C172.024 111.163 172.073 111.235 172.106 111.314C172.173 111.472 172.174 111.651 172.11 111.81C172.045 111.969 171.92 112.097 171.762 112.164C169.993 113.088 168.401 114.319 167.062 115.799C167 115.865 166.924 115.917 166.84 115.951C166.756 115.986 166.666 116.003 166.575 116Z" fill="#6ABC35"/>
<g opacity="0.2">
<path d="M147.874 118.449H147.764C147.683 118.419 147.617 118.359 147.581 118.281C147.544 118.203 147.54 118.114 147.569 118.033C149.062 113.814 146.446 112.087 146.336 112.016C146.299 111.994 146.267 111.965 146.241 111.93C146.216 111.895 146.198 111.856 146.188 111.814C146.178 111.772 146.177 111.729 146.185 111.687C146.192 111.644 146.208 111.604 146.232 111.568C146.279 111.496 146.351 111.445 146.435 111.426C146.518 111.406 146.606 111.42 146.68 111.464C146.68 111.464 149.854 113.528 148.179 118.247C148.156 118.309 148.114 118.361 148.059 118.397C148.005 118.434 147.94 118.451 147.874 118.449Z" fill="white"/>
</g>
<g opacity="0.2">
<path d="M159.967 112.846C159.888 112.846 159.812 112.817 159.753 112.764C159.694 112.711 159.657 112.639 159.649 112.56C159.532 111.489 158.215 110.944 156.936 110.411C155.456 109.795 153.775 109.113 154.255 107.406C154.281 107.324 154.337 107.256 154.412 107.215C154.487 107.173 154.575 107.163 154.658 107.185C154.699 107.197 154.737 107.217 154.77 107.244C154.803 107.271 154.831 107.303 154.851 107.341C154.872 107.378 154.885 107.419 154.889 107.462C154.894 107.504 154.89 107.547 154.878 107.588C154.573 108.665 155.527 109.133 157.189 109.814C158.572 110.385 160.136 111.041 160.292 112.489C160.301 112.574 160.276 112.659 160.223 112.726C160.169 112.793 160.091 112.836 160.006 112.846H159.967Z" fill="white"/>
</g>
<g opacity="0.2">
<path d="M154.976 98.5788C154.91 98.5802 154.845 98.561 154.79 98.5238C154.735 98.4865 154.694 98.4332 154.671 98.3711C154.547 97.9794 154.52 97.5637 154.591 97.1592C154.662 96.7547 154.83 96.3733 155.08 96.0473C155.513 95.4834 156.076 95.0333 156.722 94.7358C157.368 94.4384 158.076 94.3026 158.786 94.3401C158.872 94.3401 158.955 94.3743 159.016 94.4351C159.076 94.496 159.111 94.5786 159.111 94.6646C159.111 94.7507 159.076 94.8333 159.016 94.8941C158.955 94.955 158.872 94.9892 158.786 94.9892C158.181 94.9524 157.577 95.0624 157.024 95.31C156.472 95.5575 155.987 95.9352 155.612 96.4108C155.426 96.6543 155.299 96.9374 155.241 97.2379C155.182 97.5385 155.194 97.8485 155.274 98.1439C155.304 98.224 155.301 98.3125 155.265 98.3903C155.23 98.4681 155.166 98.5288 155.086 98.5594L154.976 98.5788Z" fill="white"/>
</g>
<g opacity="0.2">
<path d="M166.575 115.664C166.534 115.665 166.493 115.657 166.455 115.642C166.417 115.626 166.383 115.603 166.355 115.573C166.325 115.543 166.301 115.508 166.284 115.469C166.268 115.43 166.259 115.388 166.259 115.346C166.259 115.303 166.268 115.261 166.284 115.222C166.301 115.183 166.325 115.148 166.355 115.118C167.775 113.524 169.476 112.204 171.372 111.224C171.412 111.207 171.455 111.198 171.498 111.197C171.541 111.197 171.584 111.205 171.623 111.221C171.663 111.238 171.699 111.262 171.73 111.292C171.76 111.323 171.785 111.359 171.801 111.399C171.818 111.438 171.827 111.48 171.827 111.523C171.827 111.565 171.819 111.608 171.803 111.647C171.786 111.686 171.762 111.722 171.732 111.752C171.701 111.782 171.665 111.805 171.626 111.821C169.817 112.763 168.19 114.021 166.822 115.534C166.793 115.572 166.756 115.603 166.713 115.626C166.671 115.648 166.624 115.661 166.575 115.664Z" fill="white"/>
</g>
<path d="M69.9539 183.819C69.9539 183.819 85.5327 184.468 97.0287 181.832C97.0287 181.832 100.32 156.776 99.0604 147.007C97.8011 137.238 70.9275 150.635 70.9275 150.635L69.9539 183.819Z" fill="#6ABC35"/>
<path opacity="0.5" d="M69.9539 183.819C69.9539 183.819 85.5327 184.468 97.0287 181.832C97.0287 181.832 100.32 156.776 99.0604 147.007C97.8011 137.238 70.9275 150.635 70.9275 150.635L69.9539 183.819Z" fill="white"/>
<path d="M115.282 247.109L119.514 246.187L118.592 236.126L114.36 237.041L115.282 247.109Z" fill="#E4897B"/>
<path d="M97.9375 145.282C97.9375 145.282 107.356 166.943 114.893 187.261C119.728 200.308 120.358 241.54 120.358 241.54L112.316 241.67C112.316 241.67 105.889 198.646 104.409 195.544C97.7557 181.588 83.884 154.071 83.884 154.071L97.9375 145.282Z" fill="#263238"/>
<g opacity="0.1">
<path d="M120.339 241.538L112.296 241.668C112.296 241.668 105.87 198.644 104.39 195.542C102.364 191.296 99.6771 185.805 96.9118 180.216C97.4895 167.662 92.9522 159.009 92.9522 159.009C91.3548 160.665 90.088 162.61 89.2197 164.741C86.1105 158.516 83.8645 154.069 83.8645 154.069L97.918 145.28C97.918 145.28 107.356 166.941 114.886 187.259C119.735 200.306 120.339 241.538 120.339 241.538Z" fill="white"/>
</g>
<path d="M63.9755 246.452L68.0779 247.828L72.427 238.702L68.3181 237.332L63.9755 246.452Z" fill="#E4897B"/>
<path d="M94.4387 148.385C94.4387 148.385 95.0878 192.668 93.6208 202.716C92.1538 212.765 72.0765 243.663 72.0765 243.663L64.8258 240.028C64.8258 240.028 80.8396 206.922 81.281 202.606C81.7224 198.289 77.5615 163.107 77.5615 163.107L94.4387 148.385Z" fill="#263238"/>
<path opacity="0.1" d="M77.5551 163.107C77.5551 163.107 77.7109 164.405 77.964 166.606C78.3016 169.527 78.8079 173.973 79.3207 178.783C80.3918 188.767 81.5212 200.262 81.2681 202.606C80.8332 206.909 64.8129 240.028 64.8129 240.028L72.0635 243.663C72.0635 243.663 92.1084 212.765 93.6014 202.716C95.0943 192.668 94.4257 148.385 94.4257 148.385L77.5551 163.107Z" fill="white"/>
<path d="M69.1619 245.44L63.8651 245.486C63.7788 245.487 63.6953 245.517 63.6282 245.571C63.561 245.625 63.5141 245.7 63.4951 245.784L62.6123 249.64C62.595 249.735 62.5989 249.832 62.6237 249.925C62.6484 250.017 62.6935 250.104 62.7556 250.177C62.8177 250.25 62.8953 250.309 62.9827 250.348C63.0702 250.388 63.1654 250.408 63.2614 250.406C64.9621 250.406 66.2019 250.27 68.344 250.263C69.6423 250.263 73.6279 250.393 75.4454 250.387C77.2629 250.38 77.5161 248.582 76.7761 248.439C73.4461 247.719 70.934 246.719 69.876 245.759C69.6865 245.566 69.4315 245.453 69.1619 245.44Z" fill="#263238"/>
<path d="M127.135 123.497L125.837 123.88C125.837 123.88 122.033 123.458 121.598 125.457L122.247 127.983L125.583 129.131C125.838 129.218 126.108 129.247 126.376 129.217C126.643 129.186 126.9 129.097 127.128 128.956L129.076 127.749C129.465 127.509 129.748 127.13 129.869 126.689C129.989 126.248 129.938 125.778 129.725 125.373L129.225 124.399C129.032 124.033 128.719 123.745 128.339 123.58C127.959 123.416 127.534 123.387 127.135 123.497Z" fill="#E4897B"/>
<path d="M120.053 125.432L121.845 124.686L122.786 128.184L121.033 128.756L120.053 125.432Z" fill="#6ABC35"/>
<path opacity="0.2" d="M120.053 125.432L121.845 124.686L122.786 128.184L121.033 128.756L120.053 125.432Z" fill="white"/>
<path d="M121.702 128.795C118.625 129.963 115.535 130.983 112.367 131.865C110.784 132.307 109.187 132.735 107.538 133.079C107.136 133.17 106.714 133.254 106.292 133.332C105.87 133.41 105.448 133.501 104.993 133.553L104.344 133.65L103.617 133.715L103.254 133.748C103.098 133.748 102.903 133.748 102.728 133.748C102.401 133.74 102.076 133.708 101.754 133.65C100.718 133.473 99.7073 133.172 98.7424 132.755C97.9003 132.404 97.077 132.01 96.2758 131.573C94.7655 130.748 93.3007 129.842 91.8877 128.86C90.8037 128.113 89.7586 127.354 88.7265 126.569C87.5711 125.692 86.4481 124.777 85.3446 123.823C84.8902 123.433 84.4358 123.044 83.9879 122.648L85.5912 115.962C87.4867 116.15 93.1795 121.713 95.6591 123.544C96.8924 124.459 98.1582 125.322 99.398 126.101C100.047 126.484 100.651 126.828 101.248 127.12C101.753 127.39 102.283 127.607 102.832 127.769C102.916 127.769 103.027 127.821 103.059 127.821H103.143H103.864L104.396 127.789C104.76 127.789 105.13 127.75 105.513 127.711L106.655 127.594C108.2 127.412 109.777 127.218 111.361 126.984C114.523 126.543 120.644 125.037 120.644 125.037L121.702 128.795Z" fill="#6ABC35"/>
<path opacity="0.7" d="M121.702 128.793C118.625 129.962 115.535 130.975 112.367 131.864C110.784 132.299 109.187 132.734 107.538 133.078C107.136 133.169 106.714 133.253 106.292 133.331C105.87 133.409 105.448 133.493 104.993 133.552L104.344 133.649L103.617 133.714L103.254 133.746C103.098 133.746 102.903 133.746 102.728 133.746C102.401 133.739 102.076 133.706 101.754 133.649C100.718 133.471 99.7073 133.17 98.7424 132.753C97.9002 132.4 97.0768 132.004 96.2758 131.565L95.9123 131.364C94.4972 130.585 93.1665 129.735 91.8877 128.858C90.8037 128.112 89.7586 127.352 88.7265 126.567L88.5577 126.437C87.4607 125.593 86.3961 124.73 85.3446 123.841C84.8902 123.458 84.4358 123.068 83.9879 122.666L85.5912 115.986C87.4867 116.168 93.1795 121.738 95.6591 123.562C96.8924 124.483 98.1582 125.347 99.398 126.119C100.047 126.509 100.651 126.853 101.248 127.145C101.752 127.415 102.283 127.633 102.832 127.794C102.916 127.794 103.027 127.846 103.059 127.846H103.143H103.864L104.396 127.807C104.76 127.807 105.13 127.768 105.513 127.735L106.655 127.619C108.2 127.437 109.777 127.236 111.361 127.008C114.523 126.56 120.644 125.061 120.644 125.061L121.702 128.793Z" fill="white"/>
<path opacity="0.2" d="M95.8928 131.358C94.4777 130.579 93.147 129.729 91.8682 128.853C90.7842 128.106 89.7391 127.347 88.707 126.561L88.5383 126.431C87.9301 124.899 87.6599 123.254 87.7463 121.608C87.7463 121.608 94.1077 125.873 95.8928 131.358Z" fill="black"/>
<path d="M63.1447 127.716C65.6961 131.465 67.9532 135.407 69.8955 139.504C71.382 142.536 72.6673 145.483 73.7902 148.19C76.3867 154.538 77.9965 159.543 78.769 161.172L100.125 151.481C94.5166 125.704 85.0914 116.162 85.0914 116.162C82.9549 116.292 80.8467 116.718 78.8274 117.428C78.4574 117.571 78.0874 117.726 77.7044 117.889C74.7183 119.302 71.8163 120.886 69.0127 122.634C68.4869 122.952 67.9611 123.283 67.4548 123.633C65.8151 124.763 64.361 126.14 63.1447 127.716Z" fill="#6ABC35"/>
<path d="M77.6005 122.724C76.346 123.361 74.9691 123.72 73.5633 123.777C72.1576 123.834 70.756 123.588 69.454 123.055C70.194 121.276 69.3502 118.628 68.1558 116.239C67.5037 114.939 66.7619 113.685 65.9358 112.487L73.5175 114.753C73.7707 116.233 74.1666 117.615 75.0624 118.394C75.4395 118.698 75.8823 118.91 76.3556 119.013C76.8289 119.115 77.3197 119.106 77.7887 118.985C78.7949 119.699 80.0931 121.556 77.6005 122.724Z" fill="#E4897B"/>
<path d="M77.6654 122.692C77.6654 122.692 77.263 124.322 76.6852 126.003C74.6665 125.886 69.7851 125.308 68.9542 123.095C68.9732 122.547 69.1794 122.022 69.5384 121.608C72.1714 122.405 74.9157 122.771 77.6654 122.692Z" fill="#6ABC35"/>
<path d="M77.6654 122.693C78.7924 123.006 79.8697 123.476 80.8656 124.089C81.664 122.732 78.7365 119.11 78.0939 118.896C77.1844 118.577 76.2131 118.475 75.2572 118.597C76.5302 119.625 77.3861 121.081 77.6654 122.693Z" fill="#6ABC35"/>
<g opacity="0.2">
<path d="M77.6654 122.693C77.6654 122.693 77.263 124.323 76.6852 126.004C74.6665 125.887 69.7851 125.309 68.9542 123.096C68.9732 122.548 69.1794 122.023 69.5384 121.609C72.1714 122.406 74.9157 122.772 77.6654 122.693Z" fill="white"/>
<path d="M77.6654 122.693C78.7924 123.006 79.8697 123.476 80.8656 124.089C81.664 122.732 78.7365 119.11 78.0939 118.896C77.1844 118.577 76.2131 118.475 75.2572 118.597C76.5302 119.625 77.3861 121.081 77.6654 122.693Z" fill="white"/>
</g>
<path opacity="0.2" d="M75.056 118.394C72.5995 118.324 70.2099 117.578 68.1493 116.239C67.4972 114.939 66.7555 113.685 65.9293 112.487L73.511 114.753C73.7642 116.233 74.1537 117.609 75.056 118.394Z" fill="black"/>
<path d="M74.6601 101.888C75.7831 103.187 76.8477 106.432 74.2836 106.335C71.7196 106.238 72.7322 99.6165 74.6601 101.888Z" fill="#263238"/>
<path d="M64.5143 108.586C65.9358 112.61 66.5655 115.032 69.2269 116.525C73.2385 118.764 77.7498 115.389 77.5551 111.014C77.3798 107.08 75.0884 101.166 70.6225 100.725C69.633 100.627 68.6347 100.781 67.721 101.174C66.8073 101.566 66.008 102.184 65.3978 102.969C64.7877 103.754 64.3866 104.681 64.2321 105.663C64.0776 106.646 64.1747 107.651 64.5143 108.586Z" fill="#E4897B"/>
<path d="M66.3902 105.277L64.5143 100.922C64.5143 100.922 59.7108 102.545 60.9246 104.817C58.8799 107.186 61.8009 110.659 66.1176 111.191C67.3769 108.867 65.6113 105.297 65.6113 105.297C65.8579 105.323 66.1241 105.316 66.3902 105.277Z" fill="#263238"/>
<path d="M63.9365 112.45C64.2332 112.894 64.6159 113.273 65.0618 113.567C65.5078 113.86 66.0081 114.061 66.533 114.157C67.9286 114.417 68.4804 113.132 68.026 111.872C67.5911 110.743 66.3383 109.276 64.9881 109.562C64.6911 109.631 64.4162 109.774 64.1881 109.976C63.9599 110.179 63.7859 110.435 63.6815 110.722C63.5772 111.008 63.5458 111.316 63.5904 111.618C63.6349 111.92 63.7538 112.206 63.9365 112.45Z" fill="#E4897B"/>
<path d="M71.0705 107.873C71.1678 108.21 71.421 108.425 71.6352 108.36C71.8494 108.295 71.9533 107.977 71.8559 107.639C71.7585 107.302 71.5054 107.094 71.2912 107.152C71.077 107.211 71.0055 107.561 71.0705 107.873Z" fill="#263238"/>
<path d="M74.8289 106.784C74.9262 107.115 75.1794 107.329 75.4001 107.27C75.6208 107.212 75.7117 106.881 75.6208 106.55C75.5299 106.219 75.2703 105.998 75.0561 106.063C74.8418 106.128 74.738 106.446 74.8289 106.784Z" fill="#263238"/>
<path d="M73.6799 107.302C74.3733 108.165 75.1838 108.928 76.0882 109.567C75.903 109.789 75.6732 109.97 75.4138 110.097C75.1543 110.225 74.871 110.296 74.5822 110.307L73.6799 107.302Z" fill="#DE5753"/>
<path d="M69.454 106.932C69.4907 106.932 69.5266 106.922 69.5584 106.904C69.5903 106.886 69.6169 106.86 69.6358 106.828C69.7541 106.6 69.9244 106.403 70.1331 106.253C70.3417 106.103 70.5827 106.004 70.8366 105.965C70.8631 105.963 70.889 105.956 70.9127 105.945C70.9365 105.933 70.9578 105.917 70.9753 105.897C70.9928 105.877 71.0061 105.854 71.0147 105.829C71.0232 105.804 71.0267 105.777 71.0249 105.751C71.0241 105.724 71.0179 105.698 71.0065 105.673C70.9951 105.649 70.9789 105.628 70.9588 105.61C70.9387 105.592 70.9152 105.579 70.8897 105.571C70.8642 105.563 70.8373 105.56 70.8107 105.563C70.4885 105.604 70.1811 105.722 69.9144 105.907C69.6477 106.093 69.4296 106.339 69.2788 106.627C69.265 106.65 69.2562 106.676 69.2527 106.703C69.2492 106.73 69.2511 106.757 69.2584 106.783C69.2657 106.809 69.2781 106.834 69.295 106.855C69.3119 106.876 69.3328 106.893 69.3567 106.906C69.386 106.924 69.4198 106.933 69.454 106.932Z" fill="#263238"/>
<path d="M76.1985 104.628C76.2326 104.605 76.2596 104.574 76.2764 104.537C76.2956 104.486 76.2941 104.43 76.2723 104.38C76.2504 104.33 76.21 104.291 76.1595 104.271C75.8639 104.144 75.542 104.09 75.2212 104.114C74.9003 104.138 74.5899 104.238 74.316 104.407C74.2713 104.437 74.2403 104.484 74.23 104.537C74.2196 104.59 74.2307 104.645 74.2609 104.689C74.291 104.734 74.3377 104.765 74.3906 104.775C74.4436 104.786 74.4985 104.775 74.5432 104.745C74.7611 104.609 75.0088 104.53 75.2646 104.513C75.5204 104.496 75.7765 104.542 76.0102 104.647C76.0407 104.66 76.074 104.665 76.1069 104.662C76.1398 104.658 76.1714 104.647 76.1985 104.628Z" fill="#263238"/>
<path d="M65.0076 107.802C65.0076 107.802 67.3185 105.647 67.9157 103.511C67.9157 103.511 70.6809 103.115 71.6221 103.914C71.7759 103.613 71.8111 103.265 71.721 102.939C71.6309 102.614 71.4219 102.334 71.1353 102.154C71.1353 102.154 73.1671 101.758 74.0758 102.875C74.3232 102.601 74.4742 102.253 74.5058 101.885C74.5375 101.517 74.448 101.149 74.2511 100.837C74.6273 100.874 74.9885 101.003 75.3023 101.214C75.6161 101.425 75.8727 101.71 76.0491 102.044C76.0491 102.044 76.2958 96.8511 68.9672 98.5193C69.4059 98.1269 69.9058 97.8089 70.4472 97.5781C70.4472 97.5781 64.8908 97.6625 61.8659 101.012C58.841 104.361 60.9506 107.438 65.0076 107.802Z" fill="#263238"/>
<path d="M73.1152 112.416C72.8731 112.42 72.6313 112.396 72.3947 112.345C72.374 112.341 72.3543 112.333 72.3368 112.321C72.3193 112.31 72.3043 112.295 72.2928 112.277C72.2813 112.26 72.2734 112.24 72.2698 112.219C72.2661 112.198 72.2666 112.177 72.2713 112.157C72.2759 112.136 72.2846 112.116 72.2969 112.098C72.3092 112.081 72.3249 112.066 72.343 112.054C72.3611 112.043 72.3813 112.035 72.4024 112.032C72.4236 112.028 72.4452 112.029 72.4661 112.033C73.2639 112.167 74.0837 112.047 74.8094 111.689C74.8483 111.671 74.8929 111.668 74.934 111.681C74.975 111.694 75.0094 111.723 75.0301 111.761C75.0483 111.799 75.0511 111.842 75.0378 111.882C75.0244 111.922 74.9961 111.955 74.9587 111.975C74.3887 112.268 73.7563 112.42 73.1152 112.416Z" fill="#263238"/>
<path d="M76.8735 156.233L99.398 148.385L100.807 154.006L77.8862 165.943L76.8735 156.233Z" fill="#263238"/>
<path opacity="0.1" d="M76.8735 156.233L99.398 148.385L100.807 154.006L77.8862 165.943L76.8735 156.233Z" fill="white"/>
<path d="M68.4934 122.931C68.4934 122.931 76.6918 137.056 76.0881 152.193C75.4845 167.331 72.4725 187.771 72.4725 187.771H66.5785C66.5785 187.771 70.8952 139.821 62.3593 127.773C62.3593 127.773 64.1963 125.592 68.4934 122.931Z" fill="#6ABC35"/>
<path opacity="0.7" d="M76.1141 151.045C76.1141 151.428 76.1141 151.811 76.1141 152.194C76.0751 153.129 76.0297 154.09 75.9713 155.063C75.1404 169.785 72.4985 187.773 72.4985 187.773H66.6044C66.6044 187.773 68.5518 165.93 67.2536 148.027C67.0588 145.489 66.8057 143.035 66.4616 140.731C65.6502 135.194 64.3715 130.54 62.4111 127.748C62.4111 127.748 64.2481 125.561 68.5453 122.899C71.7485 128.804 74.0316 135.163 75.3156 141.756C75.3156 141.847 75.3156 141.938 75.3676 142.042C75.9041 145.012 76.1541 148.027 76.1141 151.045Z" fill="white"/>
<path d="M68.9478 122.342C68.9478 122.342 74.1407 131.722 75.3546 142.315C75.3546 142.315 71.4599 135.72 68.9478 132.351L70.4927 130.319L67.0264 128.495L67.8118 123.361L68.9478 122.342Z" fill="#6ABC35"/>
<path opacity="0.8" d="M68.9478 122.342C68.9478 122.342 74.1407 131.722 75.3546 142.315C75.3546 142.315 71.4599 135.72 68.9478 132.351L70.4927 130.319L67.0264 128.495L67.8118 123.361L68.9478 122.342Z" fill="white"/>
<path opacity="0.2" d="M76.1141 151.045C76.1141 151.428 76.1141 151.811 76.1141 152.194C76.0751 153.128 76.0297 154.089 75.9712 155.063C70.96 155.998 68.8309 153.012 67.2276 148.026C67.0329 145.488 66.7797 143.035 66.4357 140.73L72.0246 138.023C72.0246 138.023 73.972 141.418 74.5691 141.73C74.8008 141.809 75.049 141.827 75.2897 141.782C75.2897 141.873 75.2897 141.964 75.3416 142.067C75.8851 145.028 76.1438 148.035 76.1141 151.045Z" fill="black"/>
<path d="M78.7949 117.409C88.3362 125.678 95.4509 136.385 99.3785 148.385C99.3785 148.385 94.958 122.42 85.5523 115.929C85.5717 115.955 80.7423 116.227 78.7949 117.409Z" fill="#6ABC35"/>
<path opacity="0.7" d="M78.7949 117.409C88.3362 125.678 95.4509 136.385 99.3785 148.385C99.3785 148.385 94.958 122.42 85.5523 115.929C85.5717 115.955 80.7423 116.227 78.7949 117.409Z" fill="white"/>
<path d="M77.3799 118.012C77.3799 118.012 86.5844 123.991 91.7774 132.351L87.4413 122.342L85.4939 122.653L86.526 119.986L79.3857 117.104C79.0072 117.111 78.6344 117.196 78.2896 117.352C77.9448 117.508 77.6354 117.733 77.3799 118.012Z" fill="#6ABC35"/>
<path opacity="0.8" d="M77.3799 118.012C77.3799 118.012 86.5844 123.991 91.7774 132.351L87.4413 122.342L85.4939 122.653L86.526 119.986L79.3857 117.104C79.0072 117.111 78.6344 117.196 78.2896 117.352C77.9448 117.508 77.6354 117.733 77.3799 118.012Z" fill="white"/>
<path d="M125.842 119.168L128.8 125.596L139.732 120.565L136.775 114.137L125.842 119.168Z" fill="#263238"/>
<path opacity="0.1" d="M125.842 119.168L128.8 125.596L139.732 120.565L136.775 114.137L125.842 119.168Z" fill="white"/>
<path opacity="0.3" d="M139.54 119.049L128.582 124.106L129.261 125.577L140.218 120.52L139.54 119.049Z" fill="black"/>
<path d="M148.705 87.705C144.464 89.6605 140.897 92.8296 138.456 96.8117C136.015 100.794 134.809 105.41 134.991 110.077C135.173 114.745 136.735 119.253 139.479 123.033C142.222 126.813 146.025 129.694 150.406 131.313C154.787 132.933 159.55 133.217 164.093 132.129C168.635 131.042 172.753 128.633 175.927 125.206C179.1 121.779 181.186 117.488 181.922 112.875C182.657 108.263 182.008 103.536 180.058 99.2918C178.761 96.4712 176.922 93.9337 174.644 91.8246C172.366 89.7154 169.695 88.0759 166.783 86.9998C163.871 85.9237 160.776 85.4321 157.674 85.5531C154.572 85.6741 151.524 86.4053 148.705 87.705ZM149.874 90.2496C153.615 88.5264 157.783 87.9512 161.851 88.597C165.918 89.2427 169.704 91.0803 172.727 93.8774C175.75 96.6744 177.877 100.305 178.836 104.311C179.796 108.316 179.547 112.516 178.119 116.38C176.692 120.243 174.151 123.597 170.817 126.016C167.484 128.436 163.508 129.812 159.392 129.971C155.276 130.131 151.206 129.066 147.695 126.912C144.185 124.758 141.392 121.611 139.669 117.87C137.361 112.854 137.139 107.126 139.053 101.947C140.966 96.7672 144.858 92.5597 149.874 90.2496Z" fill="#263238"/>
<path opacity="0.1" d="M148.705 87.705C144.464 89.6605 140.897 92.8296 138.456 96.8117C136.015 100.794 134.809 105.41 134.991 110.077C135.173 114.745 136.735 119.253 139.479 123.033C142.222 126.813 146.025 129.694 150.406 131.313C154.787 132.933 159.55 133.217 164.093 132.129C168.635 131.042 172.753 128.633 175.927 125.206C179.1 121.779 181.186 117.488 181.922 112.875C182.657 108.263 182.008 103.536 180.058 99.2918C178.761 96.4712 176.922 93.9337 174.644 91.8246C172.366 89.7154 169.695 88.0759 166.783 86.9998C163.871 85.9237 160.776 85.4321 157.674 85.5531C154.572 85.6741 151.524 86.4053 148.705 87.705ZM149.874 90.2496C153.615 88.5264 157.783 87.9512 161.851 88.597C165.918 89.2427 169.704 91.0803 172.727 93.8774C175.75 96.6744 177.877 100.305 178.836 104.311C179.796 108.316 179.547 112.516 178.119 116.38C176.692 120.243 174.151 123.597 170.817 126.016C167.484 128.436 163.508 129.812 159.392 129.971C155.276 130.131 151.206 129.066 147.695 126.912C144.185 124.758 141.392 121.611 139.669 117.87C137.361 112.854 137.139 107.126 139.053 101.947C140.966 96.7672 144.858 92.5597 149.874 90.2496Z" fill="white"/>
<path d="M147.809 85.7575C143.565 87.7108 139.996 90.8788 137.552 94.8608C135.109 98.8428 133.901 103.46 134.082 108.128C134.262 112.797 135.823 117.307 138.567 121.088C141.311 124.87 145.114 127.752 149.497 129.372C153.879 130.992 158.643 131.275 163.186 130.187C167.73 129.099 171.849 126.688 175.022 123.26C178.195 119.831 180.28 115.538 181.014 110.924C181.747 106.31 181.096 101.582 179.142 97.3378C177.846 94.5196 176.007 91.9844 173.731 89.8771C171.454 87.7698 168.785 86.1316 165.875 85.0562C162.965 83.9808 159.872 83.4892 156.772 83.6096C153.673 83.7299 150.627 84.4598 147.809 85.7575ZM148.978 88.3021C152.718 86.5819 156.884 86.0094 160.95 86.6568C165.016 87.3043 168.798 89.1427 171.819 91.9396C174.84 94.7365 176.964 98.3663 177.922 102.37C178.88 106.374 178.629 110.572 177.202 114.433C175.774 118.295 173.234 121.646 169.902 124.064C166.57 126.482 162.596 127.857 158.482 128.017C154.368 128.176 150.299 127.112 146.79 124.959C143.281 122.807 140.489 119.662 138.767 115.922C136.459 110.905 136.238 105.177 138.153 99.9976C140.068 94.818 143.961 90.611 148.978 88.3021Z" fill="#263238"/>
<path opacity="0.3" d="M147.809 85.7575C143.565 87.7108 139.996 90.8788 137.552 94.8608C135.109 98.8428 133.901 103.46 134.082 108.128C134.262 112.797 135.823 117.307 138.567 121.088C141.311 124.87 145.114 127.752 149.497 129.372C153.879 130.992 158.643 131.275 163.186 130.187C167.73 129.099 171.849 126.688 175.022 123.26C178.195 119.831 180.28 115.538 181.014 110.924C181.747 106.31 181.096 101.582 179.142 97.3378C177.846 94.5196 176.007 91.9844 173.731 89.8771C171.454 87.7698 168.785 86.1316 165.875 85.0562C162.965 83.9808 159.872 83.4892 156.772 83.6096C153.673 83.7299 150.627 84.4598 147.809 85.7575ZM148.978 88.3021C152.718 86.5819 156.884 86.0094 160.95 86.6568C165.016 87.3043 168.798 89.1427 171.819 91.9396C174.84 94.7365 176.964 98.3663 177.922 102.37C178.88 106.374 178.629 110.572 177.202 114.433C175.774 118.295 173.234 121.646 169.902 124.064C166.57 126.482 162.596 127.857 158.482 128.017C154.368 128.176 150.299 127.112 146.79 124.959C143.281 122.807 140.489 119.662 138.767 115.922C136.459 110.905 136.238 105.177 138.153 99.9976C140.068 94.818 143.961 90.611 148.978 88.3021Z" fill="white"/>
<path d="M91.2192 138.986C91.4773 139.549 91.844 140.056 92.2984 140.478C92.7528 140.9 93.2859 141.227 93.8671 141.443C94.4484 141.658 95.0664 141.756 95.6858 141.733C96.3052 141.709 96.9138 141.563 97.4767 141.303L129.693 126.477C129.876 126.393 130.042 126.273 130.179 126.124C130.317 125.975 130.423 125.801 130.493 125.611C130.563 125.421 130.595 125.219 130.587 125.017C130.579 124.815 130.531 124.616 130.445 124.433L127.784 118.655C127.614 118.284 127.304 117.996 126.922 117.854C126.54 117.711 126.117 117.726 125.746 117.896L93.53 132.728C92.967 132.987 92.4606 133.354 92.0397 133.809C91.6188 134.263 91.2916 134.797 91.077 135.378C90.8623 135.959 90.7644 136.577 90.7888 137.196C90.8132 137.815 90.9594 138.423 91.2192 138.986Z" fill="#263238"/>
<path opacity="0.3" d="M91.2192 138.986C91.4773 139.549 91.844 140.056 92.2984 140.478C92.7528 140.9 93.2859 141.227 93.8671 141.443C94.4484 141.658 95.0664 141.756 95.6858 141.733C96.3052 141.709 96.9138 141.563 97.4767 141.303L129.693 126.477C129.876 126.393 130.042 126.273 130.179 126.124C130.317 125.975 130.423 125.801 130.493 125.611C130.563 125.421 130.595 125.219 130.587 125.017C130.579 124.815 130.531 124.616 130.445 124.433L127.784 118.655C127.614 118.284 127.304 117.996 126.922 117.854C126.54 117.711 126.117 117.726 125.746 117.896L93.53 132.728C92.967 132.987 92.4606 133.354 92.0397 133.809C91.6188 134.263 91.2916 134.797 91.077 135.378C90.8623 135.959 90.7644 136.577 90.7888 137.196C90.8132 137.815 90.9594 138.423 91.2192 138.986Z" fill="white"/>
<path opacity="0.3" d="M90.9401 138.225C91.0125 138.487 91.1036 138.743 91.2127 138.991C91.7378 140.127 92.6924 141.009 93.8667 141.442C95.0411 141.875 96.3394 141.825 97.4767 141.302L129.693 126.469C129.876 126.386 130.041 126.267 130.178 126.12C130.316 125.973 130.422 125.799 130.492 125.611C130.562 125.422 130.594 125.221 130.586 125.019C130.578 124.818 130.53 124.62 130.446 124.438L129.796 122.971C129.967 123.34 129.984 123.762 129.844 124.144C129.704 124.526 129.419 124.837 129.05 125.009L96.8341 139.835C95.8203 140.309 94.671 140.407 93.5914 140.113C92.5117 139.818 91.5721 139.149 90.9401 138.225Z" fill="black"/>
<path opacity="0.3" d="M94.1466 135.085C93.9043 135.247 93.7133 135.476 93.5963 135.743C93.4793 136.01 93.4411 136.305 93.4861 136.594C93.5312 136.882 93.6576 137.151 93.8506 137.37C94.0436 137.589 94.2951 137.748 94.5755 137.829C94.8559 137.91 95.1535 137.909 95.4334 137.826C95.7132 137.744 95.9637 137.583 96.1553 137.363C96.3468 137.143 96.4716 136.873 96.5147 136.584C96.5579 136.295 96.5178 136 96.3991 135.734C96.1844 135.351 95.8277 135.069 95.4061 134.947C94.9845 134.826 94.532 134.875 94.1466 135.085Z" fill="black"/>
<path opacity="0.4" d="M162.927 93.8125C161.064 95.4938 161.337 98.8302 163.538 101.271C165.738 103.712 169.029 104.322 170.892 102.641C172.755 100.959 172.483 97.6229 170.282 95.1822C168.081 92.7415 164.79 92.1313 162.927 93.8125Z" fill="white"/>
<path opacity="0.4" d="M160.824 102.518C160.581 102.639 160.382 102.834 160.256 103.074C160.129 103.315 160.081 103.589 160.119 103.858C160.156 104.127 160.277 104.378 160.465 104.574C160.652 104.771 160.897 104.904 161.163 104.955C161.43 105.005 161.707 104.971 161.953 104.856C162.199 104.741 162.403 104.552 162.536 104.315C162.67 104.078 162.725 103.806 162.695 103.536C162.665 103.266 162.551 103.012 162.369 102.81C162.198 102.573 161.942 102.41 161.655 102.356C161.367 102.301 161.07 102.359 160.824 102.518Z" fill="white"/>
<path d="M93.8805 136.907C93.8805 136.907 89.9858 136.173 89.7131 138.205L90.5635 140.646L94.3738 141.607C94.6794 141.686 95.0032 141.656 95.2891 141.522L96.9703 140.717C97.1823 140.617 97.3652 140.464 97.5015 140.273C97.6378 140.082 97.7231 139.86 97.7492 139.627L97.931 137.939C97.9559 137.726 97.9305 137.51 97.8567 137.309C97.783 137.107 97.6629 136.926 97.5063 136.78C97.3497 136.633 97.1609 136.525 96.955 136.465C96.7492 136.405 96.5321 136.394 96.3212 136.433L93.8805 136.907Z" fill="#E4897B"/>
<path d="M90.4401 141.712L91.5306 141.153L89.4859 137.992L88.3954 138.732L90.4401 141.712Z" fill="#6ABC35"/>
<path opacity="0.2" d="M90.4401 141.712L91.5306 141.153L89.4859 137.992L88.3954 138.732L90.4401 141.712Z" fill="white"/>
<path d="M62.3592 127.774C61.1908 129.904 67.9871 151.396 70.7458 153.622C74.1732 156.381 91.5177 142.217 91.5177 142.217L88.4798 138.264C88.4798 138.264 74.7639 146.132 74.1992 145.729C73.6344 145.327 71.4664 135.583 71.4664 135.583C71.4664 135.583 69.0971 131.942 66.5785 130.059C65.3262 129.042 63.8954 128.267 62.3592 127.774Z" fill="#6ABC35"/>
<path opacity="0.7" d="M62.3592 127.774C61.1908 129.904 67.9871 151.396 70.7458 153.622C74.1732 156.381 91.5177 142.217 91.5177 142.217L88.4798 138.264C88.4798 138.264 74.7639 146.132 74.1992 145.729C73.6344 145.327 71.4664 135.583 71.4664 135.583C71.4664 135.583 69.0971 131.942 66.5785 130.059C65.3262 129.042 63.8954 128.267 62.3592 127.774Z" fill="white"/>
<path d="M119.793 245.44L114.496 245.486C114.41 245.485 114.326 245.515 114.258 245.569C114.191 245.624 114.144 245.7 114.126 245.784L113.237 249.64C113.22 249.735 113.224 249.832 113.249 249.925C113.273 250.017 113.318 250.104 113.38 250.177C113.443 250.25 113.52 250.309 113.608 250.348C113.695 250.388 113.79 250.408 113.886 250.406C115.587 250.406 116.827 250.27 118.969 250.263C120.267 250.263 124.253 250.393 126.07 250.387C127.888 250.38 128.141 248.582 127.369 248.439C124.039 247.719 121.526 246.719 120.468 245.759C120.289 245.574 120.049 245.461 119.793 245.44Z" fill="#263238"/>
</g>
<defs>
<clipPath id="clip0_939_8705">
<rect width="324.56" height="324.56" fill="white" transform="translate(0.251343 -20.002)"/>
</clipPath>
</defs>
</svg>
