<svg width="109" height="41" viewBox="0 0 109 41" fill="none" xmlns="http://www.w3.org/2000/svg">
<path d="M32.5727 22.0296V23.3557H39.3161V25.7881H32.5727V33.1044H29.7055V22.0296C29.7055 18.2697 32.2485 16.0146 36.4722 16.0146C38.2169 16.0146 39.8163 16.3912 40.9605 17.1429L40.046 19.4881C39.0515 18.8019 37.8127 18.5373 36.5972 18.5373C33.922 18.5358 32.5727 19.7513 32.5727 22.0296Z" fill="#20211D"/>
<path d="M52.6779 21.1689C49.1143 21.1689 46.5059 23.6668 46.5059 27.2043C46.5059 30.7418 49.1143 33.2629 52.6779 33.2629C56.2852 33.2629 58.8718 30.7418 58.8718 27.2043C58.8718 23.6668 56.2881 21.1689 52.6779 21.1689ZM52.6779 30.8973C50.7224 30.8973 49.2452 29.4594 49.2452 27.2043C49.2452 24.9492 50.7224 23.5113 52.6779 23.5113C54.6553 23.5113 56.134 24.9492 56.134 27.2043C56.134 29.4594 54.6582 30.8973 52.6779 30.8973Z" fill="#20211D"/>
<path d="M49.1885 21.1177C47.8072 21.1177 46.5888 21.1177 46.4899 21.1177C46.1295 21.1192 45.7707 21.1646 45.4213 21.2529C45.1502 21.3225 44.8871 21.4199 44.6361 21.5437C44.3964 21.6647 44.1702 21.8109 43.9615 21.9799C43.5862 22.2759 43.2637 22.6333 43.0077 23.0369V21.3009H40.3775V33.1084H43.14V27.3813C43.1327 27.1269 43.1022 25.4912 44.1723 24.5505C44.4351 24.3273 44.729 24.1436 45.0447 24.0052C45.5083 23.8147 46.0063 23.7221 46.5074 23.7333C47.1241 22.6165 48.0568 21.7066 49.1885 21.1177Z" fill="#20211D"/>
<path d="M59.3661 27.2043C59.3661 23.6668 61.9731 21.1689 65.5367 21.1689C69.144 21.1689 71.7306 23.6668 71.7306 27.2043C71.7306 30.7418 69.144 33.2629 65.5367 33.2629C61.9716 33.2629 59.3661 30.7418 59.3661 27.2043ZM68.9928 27.2043C68.9928 24.9492 67.5141 23.5113 65.5367 23.5113C63.5593 23.5113 62.1039 24.9492 62.1039 27.2043C62.1039 29.4594 63.5812 30.8973 65.5367 30.8973C67.4923 30.8973 68.9913 29.4594 68.9913 27.2043H68.9928Z" fill="#20211D"/>
<path d="M79.2605 32.4676C78.5975 32.9983 77.6016 33.2629 76.6071 33.2629C74.0205 33.2629 72.536 31.8918 72.536 29.2834V18.6914H75.2985V21.3899H78.4609V23.5999H75.3029V29.2166C75.3029 30.3666 75.899 30.986 76.9386 30.986C77.4947 31.0014 78.0399 30.8299 78.487 30.499L79.2605 32.4676Z" fill="#20211D"/>
<path d="M79.5543 18.2053C79.5543 17.2763 80.306 16.5464 81.3237 16.5464C82.3415 16.5464 83.0917 17.2327 83.0917 18.1457C83.0917 19.1184 82.3648 19.8701 81.3237 19.8701C80.2827 19.8701 79.5543 19.133 79.5543 18.2053ZM79.9308 21.3008H82.6933V33.1084H79.9308V21.3008Z" fill="#20211D"/>
<path d="M86.7092 20.6814V21.3895H89.9587V23.5995H86.7746V33.1084H84.0121V20.6378C84.0121 18.1661 85.5155 16.5464 88.2576 16.5464C89.2085 16.5464 90.1158 16.7456 90.7293 17.1876L89.9544 19.2667C89.5163 18.9516 88.9907 18.7813 88.451 18.7797C87.3053 18.7797 86.7092 19.4209 86.7092 20.6814Z" fill="#20211D"/>
<path d="M102.548 21.3013V31.3175C102.548 35.6067 100.404 37.5521 96.423 37.5521C94.3235 37.5521 92.2225 36.9705 90.9183 35.8728L92.1556 33.7936C93.1516 34.6558 94.6768 35.1865 96.2689 35.1865C98.7013 35.1865 99.7845 34.0146 99.7845 31.6272V31.0747C98.9005 32.0474 97.5731 32.5781 96.1133 32.5781C93.0847 32.5781 91.0245 30.941 91.0245 27.3599V21.3013H93.787V27.0051C93.787 29.1279 94.8047 30.1457 96.5495 30.1457C98.4774 30.1457 99.786 28.9738 99.786 26.6126V21.3056L102.548 21.3013Z" fill="#20211D"/>
<path d="M9.74127 23.4037C11.6901 23.4037 13.27 21.8238 13.27 19.8749C13.27 17.9261 11.6901 16.3462 9.74127 16.3462C7.7924 16.3462 6.21252 17.9261 6.21252 19.8749C6.21252 21.8238 7.7924 23.4037 9.74127 23.4037Z" fill="#EE2224"/>
<path d="M15.5383 17.6063C17.4871 17.6063 19.067 16.0264 19.067 14.0776C19.067 12.1287 17.4871 10.5488 15.5383 10.5488C13.5894 10.5488 12.0095 12.1287 12.0095 14.0776C12.0095 16.0264 13.5894 17.6063 15.5383 17.6063Z" fill="#FF6700"/>
<path d="M9.40692 34.5321C11.3558 34.5321 12.9357 32.9522 12.9357 31.0034C12.9357 29.0545 11.3558 27.4746 9.40692 27.4746C7.45805 27.4746 5.87817 29.0545 5.87817 31.0034C5.87817 32.9522 7.45805 34.5321 9.40692 34.5321Z" fill="#FF7B22"/>
<path d="M15.1384 28.8006C17.0872 28.8006 18.6671 27.2208 18.6671 25.2719C18.6671 23.323 17.0872 21.7432 15.1384 21.7432C13.1895 21.7432 11.6096 23.323 11.6096 25.2719C11.6096 27.2208 13.1895 28.8006 15.1384 28.8006Z" fill="#FFA521"/>
<path d="M20.9352 23.0038C22.8841 23.0038 24.464 21.4239 24.464 19.475C24.464 17.5262 22.8841 15.9463 20.9352 15.9463C18.9864 15.9463 17.4065 17.5262 17.4065 19.475C17.4065 21.4239 18.9864 23.0038 20.9352 23.0038Z" fill="#FFC823"/>
<path d="M14.9991 40.1224C16.9479 40.1224 18.5278 38.5426 18.5278 36.5937C18.5278 34.6448 16.9479 33.0649 14.9991 33.0649C13.0502 33.0649 11.4703 34.6448 11.4703 36.5937C11.4703 38.5426 13.0502 40.1224 14.9991 40.1224Z" fill="#6ABC35"/>
<path d="M20.7286 34.3924C22.6774 34.3924 24.2573 32.8126 24.2573 30.8637C24.2573 28.9148 22.6774 27.335 20.7286 27.335C18.7797 27.335 17.1998 28.9148 17.1998 30.8637C17.1998 32.8126 18.7797 34.3924 20.7286 34.3924Z" fill="#A8D034"/>
<path d="M4.00982 29.1351C5.95869 29.1351 7.53856 27.5552 7.53856 25.6064C7.53856 23.6575 5.95869 22.0776 4.00982 22.0776C2.06095 22.0776 0.481079 23.6575 0.481079 25.6064C0.481079 27.5552 2.06095 29.1351 4.00982 29.1351Z" fill="#E01721"/>
<path d="M14.9115 8.99333C15.5033 9.0762 17.9793 9.35245 20.2243 7.72694C23.516 5.34536 23.2005 1.13036 23.1801 0.909356C22.6974 0.861376 19.8186 0.625835 17.4225 2.74715C14.6891 5.16362 14.8824 8.5964 14.9115 8.99333Z" fill="#6ABC35"/>
<path d="M15.3216 9.02688C14.3255 9.16678 13.3134 8.9253 12.4878 8.35079C10.7315 7.08004 10.9001 4.83223 10.9117 4.71591C11.4631 4.66551 12.019 4.72627 12.5465 4.8946C13.0739 5.06293 13.5622 5.3354 13.9825 5.69588C15.4394 6.98408 15.3376 8.8146 15.3216 9.02688Z" fill="#6ABC35"/>
<path d="M103.951 21.0444V19.4573H103.327V19.1614H104.925V19.4573H104.301V21.0444H103.951ZM107.248 21.0444H106.917L106.914 19.7963L106.296 20.8292H106.14L105.521 19.8124V21.0444H105.187V19.1614H105.475L106.223 20.4096L106.957 19.1614H107.245L107.248 21.0444Z" fill="#20211D"/>
</svg>
