<svg width="182" height="68" viewBox="0 0 182 68" fill="none" xmlns="http://www.w3.org/2000/svg">
<path d="M55.0991 36.8768V39.1336H66.576V43.2735H55.0991V55.7254H50.2194V36.8768C50.2194 30.4777 54.5473 26.6396 61.7359 26.6396C64.7053 26.6396 67.4273 27.2806 69.3748 28.5599L67.8183 32.5513C66.1257 31.3833 64.0174 30.933 61.9487 30.933C57.3955 30.9305 55.0991 32.9992 55.0991 36.8768Z" fill="white"/>
<path d="M89.317 35.4111C83.2519 35.4111 78.8126 39.6624 78.8126 45.6829C78.8126 51.7035 83.2519 55.9943 89.317 55.9943C95.4564 55.9943 99.8586 51.7035 99.8586 45.6829C99.8586 39.6624 95.4613 35.4111 89.317 35.4111ZM89.317 51.9683C85.9888 51.9683 83.4747 49.5209 83.4747 45.6829C83.4747 41.8449 85.9888 39.3976 89.317 39.3976C92.6824 39.3976 95.199 41.8449 95.199 45.6829C95.199 49.5209 92.6874 51.9683 89.317 51.9683Z" fill="white"/>
<path d="M83.3781 35.3252C81.0273 35.3252 78.9537 35.3252 78.7854 35.3252C78.172 35.3277 77.5613 35.405 76.9666 35.5553C76.5053 35.6737 76.0575 35.8396 75.6304 36.0502C75.2224 36.2562 74.8375 36.5051 74.4822 36.7926C73.8435 37.2964 73.2946 37.9046 72.8589 38.5916V35.637H68.3824V55.7327H73.0841V45.9855C73.0717 45.5525 73.0197 42.7686 74.841 41.1676C75.2882 40.7878 75.7883 40.4752 76.3257 40.2396C77.1147 39.9154 77.9623 39.7579 78.8151 39.7769C79.8647 37.8762 81.4521 36.3276 83.3781 35.3252Z" fill="white"/>
<path d="M100.7 45.6829C100.7 39.6624 105.137 35.4111 111.202 35.4111C117.341 35.4111 121.743 39.6624 121.743 45.6829C121.743 51.7035 117.341 55.9943 111.202 55.9943C105.134 55.9943 100.7 51.7035 100.7 45.6829ZM117.084 45.6829C117.084 41.8449 114.567 39.3976 111.202 39.3976C107.836 39.3976 105.359 41.8449 105.359 45.6829C105.359 49.5209 107.874 51.9683 111.202 51.9683C114.53 51.9683 117.081 49.5209 117.081 45.6829H117.084Z" fill="white"/>
<path d="M134.559 54.6416C133.43 55.5448 131.735 55.9951 130.043 55.9951C125.64 55.9951 123.114 53.6616 123.114 49.2223V31.1953H127.816V35.7881H133.198V39.5493H127.823V49.1085C127.823 51.0658 128.837 52.12 130.607 52.12C131.553 52.1461 132.481 51.8542 133.242 51.291L134.559 54.6416Z" fill="white"/>
<path d="M135.059 30.3684C135.059 28.7871 136.338 27.5449 138.07 27.5449C139.802 27.5449 141.079 28.7129 141.079 30.2669C141.079 31.9224 139.842 33.2017 138.07 33.2017C136.298 33.2017 135.059 31.9471 135.059 30.3684ZM135.7 35.6367H140.401V55.7324H135.7V35.6367Z" fill="white"/>
<path d="M147.236 34.5825V35.7876H152.766V39.5489H147.347V55.7324H142.646V34.5083C142.646 30.3016 145.204 27.5449 149.871 27.5449C151.49 27.5449 153.034 27.8839 154.078 28.6362L152.759 32.1748C152.013 31.6385 151.119 31.3486 150.2 31.3458C148.25 31.3458 147.236 32.4371 147.236 34.5825Z" fill="white"/>
<path d="M174.194 35.6367V52.6838C174.194 59.9837 170.544 63.2946 163.769 63.2946C160.195 63.2946 156.62 62.3048 154.4 60.4365L156.506 56.8979C158.201 58.3653 160.797 59.2685 163.506 59.2685C167.646 59.2685 169.49 57.2741 169.49 53.2109V52.2706C167.985 53.926 165.726 54.8292 163.242 54.8292C158.087 54.8292 154.581 52.0429 154.581 45.9481V35.6367H159.282V45.3443C159.282 48.9571 161.014 50.6893 163.984 50.6893C167.265 50.6893 169.492 48.6948 169.492 44.6762V35.6441L174.194 35.6367Z" fill="white"/>
<path d="M16.2412 39.2145C19.558 39.2145 22.2469 36.5257 22.2469 33.2088C22.2469 29.892 19.558 27.2031 16.2412 27.2031C12.9243 27.2031 10.2355 29.892 10.2355 33.2088C10.2355 36.5257 12.9243 39.2145 16.2412 39.2145Z" fill="#EE2224"/>
<path d="M26.1074 29.3493C29.4242 29.3493 32.1131 26.6604 32.1131 23.3436C32.1131 20.0267 29.4242 17.3379 26.1074 17.3379C22.7905 17.3379 20.1017 20.0267 20.1017 23.3436C20.1017 26.6604 22.7905 29.3493 26.1074 29.3493Z" fill="#FF6700"/>
<path d="M15.6723 58.155C18.9892 58.155 21.678 55.4661 21.678 52.1493C21.678 48.8324 18.9892 46.1436 15.6723 46.1436C12.3555 46.1436 9.66663 48.8324 9.66663 52.1493C9.66663 55.4661 12.3555 58.155 15.6723 58.155Z" fill="#FF7B22"/>
<path d="M25.4267 48.4001C28.7436 48.4001 31.4324 45.7112 31.4324 42.3944C31.4324 39.0775 28.7436 36.3887 25.4267 36.3887C22.1099 36.3887 19.421 39.0775 19.421 42.3944C19.421 45.7112 22.1099 48.4001 25.4267 48.4001Z" fill="#FFA521"/>
<path d="M35.2929 38.5348C38.6098 38.5348 41.2986 35.846 41.2986 32.5291C41.2986 29.2123 38.6098 26.5234 35.2929 26.5234C31.9761 26.5234 29.2872 29.2123 29.2872 32.5291C29.2872 35.846 31.9761 38.5348 35.2929 38.5348Z" fill="#FFC823"/>
<path d="M25.1894 67.6696C28.5063 67.6696 31.1951 64.9808 31.1951 61.6639C31.1951 58.347 28.5063 55.6582 25.1894 55.6582C21.8726 55.6582 19.1837 58.347 19.1837 61.6639C19.1837 64.9808 21.8726 67.6696 25.1894 67.6696Z" fill="#6ABC35"/>
<path d="M34.9414 57.9177C38.2582 57.9177 40.9471 55.2288 40.9471 51.912C40.9471 48.5951 38.2582 45.9062 34.9414 45.9062C31.6245 45.9062 28.9357 48.5951 28.9357 51.912C28.9357 55.2288 31.6245 57.9177 34.9414 57.9177Z" fill="#A8D034"/>
<path d="M6.48678 48.9694C9.80364 48.9694 12.4925 46.2806 12.4925 42.9637C12.4925 39.6469 9.80364 36.958 6.48678 36.958C3.16992 36.958 0.481079 39.6469 0.481079 42.9637C0.481079 46.2806 3.16992 48.9694 6.48678 48.9694Z" fill="#E01721"/>
<path d="M25.0409 14.6897C26.048 14.8307 30.2621 15.3009 34.0828 12.5344C39.6852 8.48108 39.1482 1.3074 39.1135 0.93127C38.292 0.84961 33.3924 0.448735 29.3144 4.05908C24.6623 8.17176 24.9914 14.0141 25.0409 14.6897Z" fill="#6ABC35"/>
<path d="M25.7387 14.7461C24.0435 14.9842 22.3209 14.5732 20.9158 13.5955C17.9266 11.4327 18.2136 7.60709 18.2334 7.40912C19.1718 7.32334 20.1179 7.42676 21.0156 7.71324C21.9133 7.99973 22.7444 8.46346 23.4596 9.07696C25.9391 11.2694 25.7659 14.3848 25.7387 14.7461Z" fill="#6ABC35"/>
<path d="M176.406 35.7959V33.53H175.515V33.1076H177.797V33.53H176.906V35.7959H176.406ZM181.113 35.7959H180.641L180.637 34.0139L179.754 35.4887H179.531L178.648 34.037V35.7959H178.171V33.1076H178.582L179.65 34.8895L180.698 33.1076H181.109L181.113 35.7959Z" fill="white"/>
</svg>
