<svg width="25" height="26" viewBox="0 0 25 26" fill="none" xmlns="http://www.w3.org/2000/svg">
<path d="M23.0752 1.93429C20.4979 -0.644764 16.3041 -0.644764 13.7281 1.93429L10.5622 5.10058C10.0893 5.57376 10.0893 6.34021 10.5622 6.81339C11.0353 7.28657 11.8015 7.28657 12.2743 6.81339L15.4402 3.6471C19.4755 -0.14545 25.1624 5.54253 21.3631 9.57303L17.6639 13.2749C15.7909 15.1999 12.4474 14.7821 11.107 12.4579C10.7658 11.8812 10.0225 11.6928 9.44778 12.0336C8.18202 12.832 9.26007 14.2498 10.0279 14.9878C11.3167 16.2773 13.0092 16.9215 14.7016 16.9215C16.3947 16.9215 18.0872 16.2773 19.376 14.9878L23.0752 11.2869C25.6411 8.82423 25.6421 4.39624 23.0752 1.93429Z" fill="#FF7B22"/>
<path d="M12.7285 18.2128L9.56287 21.379C5.55749 25.1831 -0.16273 19.4629 3.63966 15.4531L7.33921 11.7512C9.20952 9.83032 12.5476 10.2397 13.8897 12.5611C14.2302 13.1378 14.9742 13.3279 15.5482 12.9854C16.8119 12.1915 15.7386 10.7702 14.9749 10.0384C12.3975 7.45934 8.20478 7.46103 5.62708 10.0384L1.92753 13.7403C-2.23704 17.8489 0.81689 25.0935 6.60127 25.0256C8.29371 25.0256 9.98683 24.3814 11.275 23.0919L14.4406 19.9256C15.5458 18.7793 13.8734 17.1062 12.7285 18.2128Z" fill="#FF7B22"/>
</svg>
