<svg width="65" height="60" viewBox="0 0 65 60" fill="none" xmlns="http://www.w3.org/2000/svg">
<path d="M64.319 42.5839C64.0571 42.2814 62.0534 43.231 61.418 43.5444C61.3377 43.5841 61.2458 43.5179 61.2574 43.4282C61.4407 42.0553 61.1787 40.8804 61.2247 39.9433C61.259 39.2167 60.8645 39.4708 60.6548 39.6548C60.5854 39.7148 60.4833 39.7148 60.4123 39.6556C60.2159 39.4942 59.8027 39.3172 59.4012 40.2068C58.9279 41.2577 57.8162 41.7777 57.5129 41.904C57.4646 41.9235 57.4139 41.9376 57.3617 41.9438C56.6343 42.0537 55.8702 42.5059 55.5202 42.7351C55.3876 42.8216 55.2263 42.8552 55.0695 42.8232C53.0503 42.4147 50.6623 41.0472 50.0979 40.7128C50.0207 40.666 49.9513 40.6075 49.892 40.5389C49.0454 39.5581 46.7197 38.1369 46.1943 37.8211C46.1023 37.765 46.0173 37.6956 45.9518 37.6083C45.3975 36.877 45.2728 35.1182 45.2728 35.1182C45.1854 33.1176 44.7832 30.2923 44.7083 29.7769C44.7005 29.7224 44.6966 29.667 44.6974 29.6109C44.7325 27.5059 44.3123 23.766 44.3123 23.766C44.0487 19.9264 41.3622 19.6145 41.3622 19.6145C40.9879 19.3066 38.0986 19.1592 37.6161 19.1366C37.5701 19.1335 37.5248 19.1257 37.4835 19.1085C36.0942 18.5262 35.6522 16.7096 35.6522 16.7096C34.9334 14.4051 35.7005 13.5646 35.7005 13.5646C36.6836 12.5573 36.5643 11.8611 36.5643 11.8611C36.4926 11.5017 36.7803 11.4051 36.7803 11.4051C37.2364 11.3809 37.3323 10.949 37.3323 10.949L37.6441 8.8853C37.6893 8.06903 37.6036 7.81487 37.5007 7.77121C37.3962 7.72677 37.3494 7.60359 37.379 7.49367C38.1322 4.63088 37.528 3.96118 37.2317 3.80759C37.1342 3.75692 37.0649 3.66414 37.0345 3.55889C36.3671 1.30967 35.7231 1.22937 35.4627 1.31045C35.3731 1.33852 35.278 1.32838 35.1992 1.27693C34.0477 0.522248 33.0607 0.728848 32.7676 0.815387C32.7091 0.833318 32.6459 0.835657 32.5875 0.820844C31.3471 0.522248 30.3827 1.09917 30.0607 1.33072C29.9952 1.3775 29.9165 1.40478 29.8362 1.39933C29.1446 1.35489 28.4625 3.03031 28.2551 3.58384C28.2192 3.68051 28.1428 3.75692 28.0454 3.79278C27.6228 3.94948 27.5433 4.53966 27.5433 4.53966C27.3749 5.98041 27.8349 7.39387 28.0438 7.94507C27.9838 7.9287 27.8887 7.97937 27.7351 8.18675C27.4404 8.58436 27.8193 10.015 28.0547 10.7845C28.1296 11.0316 28.3073 11.2289 28.5318 11.3544C28.6963 11.4464 28.6472 11.5937 28.6472 11.5937C28.5989 12.4342 29.5594 13.4656 29.5594 13.4656C29.8705 13.6582 29.9913 14.2335 29.9913 14.2335C30.1691 15.9292 29.3746 17.4947 29.0854 18.0007C29.0347 18.0888 28.9879 18.1784 28.9505 18.2736C28.4414 19.5537 24.9783 19.3947 24.9783 19.3947C21.4287 19.3705 21.1644 22.9716 21.1644 22.9716C20.6841 24.5316 20.6132 30.0755 20.6132 30.0755C20.5165 30.1473 20.1329 33.9635 20.1329 33.9635C20.0246 35.9664 19.6753 37.0049 19.4414 37.4882C19.344 37.6901 19.1756 37.8484 18.9721 37.9427C17.798 38.4932 14.9032 41.0184 14.9032 41.0184C14.4955 41.4745 9.93776 42.9378 9.93776 42.9378C9.55418 42.4162 8.71374 42.2237 8.71374 42.2237C6.5074 41.6725 5.73947 39.9191 5.73947 39.9191C4.87564 38.8635 4.87564 39.9191 4.87564 39.9191C4.78755 39.6267 4.52091 39.5488 4.32601 39.5316C4.20517 39.5207 4.09836 39.6127 4.08744 39.7336C3.91281 41.6148 4.02897 42.8817 4.09446 43.3799C4.10771 43.4773 4.00636 43.5483 3.91904 43.5054C3.55652 43.3245 2.75818 42.9581 1.73219 42.6798C0.784165 42.4233 0.600952 42.7359 0.582241 42.9713C0.572886 43.0867 0.658645 43.1881 0.77247 43.206C1.77819 43.365 1.97154 43.9279 1.97154 43.9279C1.4679 44.0004 1.8047 44.3848 1.8047 44.3848C3.11135 45.5659 6.91904 45.5231 7.82341 45.4965C7.89825 45.4942 7.93802 45.5792 7.89124 45.6353C6.2704 47.6265 7.77741 49.6161 7.77741 49.6161C8.68958 51.1286 11.2085 53.073 11.2085 53.073C13.0555 54.5605 17.9492 56.4324 17.9492 56.4324C19.2636 56.9664 21.739 56.9212 22.4243 56.897C22.4843 56.8939 22.5139 56.9695 22.4695 57.0093L21.8115 57.6034C19.4016 59.8323 24.5947 58.9763 25.4211 58.8289C25.4921 58.8157 25.5615 58.7954 25.6285 58.7689C27.5292 58.0088 29.3481 57.5363 29.6756 57.4537C29.7106 57.4443 29.7465 57.4404 29.7808 57.4373C30.7857 57.3866 31.1818 57.2073 31.3369 57.0896C31.4289 57.0202 31.5428 56.9828 31.6574 56.9812L36.9308 56.9368C37.082 56.936 37.2333 56.9695 37.3697 57.035C40.0033 58.298 41.5306 58.2068 41.5306 58.2068C43.3097 58.2442 43.1124 57.4506 42.9323 57.088C42.8965 57.0163 42.9495 56.9313 43.0298 56.936C43.8133 56.9734 46.1608 56.7427 46.1608 56.7427C47.8876 56.6709 52.3986 54.1754 52.3986 54.1754C54.6291 53.2156 56.8362 50.4791 56.8362 50.4791C59.0924 48.3453 57.877 46.2107 57.477 45.6369C57.4326 45.5729 57.4778 45.4856 57.5558 45.4849C61.7432 45.4178 62.9313 44.7193 62.9313 44.7193C63.7211 44.4612 63.6439 44.1704 63.509 44.0075C63.4271 43.9092 63.4381 43.765 63.5371 43.6847C63.8715 43.4142 64.4906 43.2068 64.4906 43.2068C65.2312 42.7764 64.319 42.5839 64.319 42.5839ZM25.3728 41.2297L23.4994 45.1621C22.9107 46.963 21.5519 46.3385 21.5519 46.3385C21.353 46.1054 14.6911 44.9415 13.4203 44.7208C13.3705 44.7115 13.3666 44.6413 13.4165 44.628L17.3271 43.5459C18.576 43.3245 22.3595 41.3404 22.3595 41.3404C23.3925 40.7198 23.6093 39.9854 23.6249 39.5207C23.6358 39.2104 23.688 38.9025 23.7878 38.6078C24.3757 36.877 24.7273 31.6714 24.8045 30.4069C24.806 30.3749 24.8543 30.3734 24.8582 30.4061L25.7759 37.259C25.9973 39.7211 25.3728 41.2297 25.3728 41.2297ZM44.2936 46.1546C44.2936 46.1546 42.0872 47.1891 41.7153 44.8822C41.6873 44.7068 41.6296 44.5368 41.5508 44.3778C41.1415 43.5498 39.9152 41.0394 39.5924 40.0664C39.5659 39.9877 39.5542 39.9051 39.555 39.8216C39.5675 39.0389 39.6704 34.5607 40.471 30.3858C40.471 30.3858 41.0035 37.6847 41.4744 38.2616C41.5009 38.2936 41.5267 38.3255 41.5469 38.3622C41.6311 38.5158 41.7941 38.9001 41.727 39.4833C41.7247 39.509 41.7208 39.5355 41.7153 39.5605C41.6857 39.7211 41.5758 40.7112 43.2262 41.4877C43.2262 41.4877 47.3778 43.8765 52.0812 44.6483C52.0828 44.6468 44.9555 45.8965 44.2936 46.1546Z" fill="white"/>
</svg>
