<svg width="67" height="56" viewBox="0 0 67 56" fill="none" xmlns="http://www.w3.org/2000/svg">
<path d="M20.7292 15.4772C22.4947 10.5832 23.3765 8.13627 25.2456 7.82987C27.1146 7.52347 28.7315 9.56074 31.9672 13.6349L32.8048 14.6893C33.7243 15.8478 34.1841 16.4271 34.8056 16.7569C35.4272 17.0867 36.1435 17.1294 37.5762 17.2147L38.878 17.2931C43.9135 17.5965 46.429 17.7476 47.3118 19.51C48.1922 21.2707 46.8557 23.478 44.1803 27.891L43.4878 29.032C42.7286 30.2854 42.3471 30.9133 42.2473 31.6269C42.1477 32.3424 42.3391 33.065 42.7216 34.5081L43.0709 35.8229C44.417 40.9061 45.0908 43.4466 43.767 44.8411C42.4435 46.2376 39.998 45.5623 35.1117 44.2151L33.8448 43.8674C32.4563 43.483 31.7624 43.2927 31.0775 43.405C30.3927 43.5173 29.7958 43.9191 28.6027 44.7268L27.5151 45.4604C23.3127 48.2976 21.2106 49.7164 19.5131 48.8192C17.811 47.9187 17.6384 45.296 17.291 40.0491L17.2026 38.6936C17.1039 37.2019 17.0546 36.456 16.7302 35.812C16.4094 35.1654 15.8474 34.6921 14.728 33.7487L13.7071 32.8865C9.76312 29.5608 7.7918 27.8958 8.06365 25.9441C8.33747 23.9921 10.6748 23.0434 15.3501 21.1502L16.5588 20.6602C17.8872 20.1222 18.5505 19.8533 19.0361 19.342C19.5199 18.8311 19.7706 18.1353 20.2721 16.7439L20.7292 15.4772Z" fill="#FFC823"/>
<g clip-path="url(#clip0_710_7294)">
<path d="M58.1782 24.3282C59.0731 23.2922 59.5203 22.7741 60.0084 22.8749C60.4964 22.9758 60.7017 23.6287 61.1128 24.9345L61.2192 25.2725C61.3359 25.6438 61.3943 25.8294 61.5159 25.969C61.6376 26.1086 61.8095 26.1866 62.1535 26.3425L62.4659 26.4845C63.6745 27.0335 64.2783 27.3077 64.3291 27.8238C64.3795 28.3394 63.8431 28.7558 62.77 29.5879L62.4924 29.8029C62.1877 30.0393 62.0348 30.1577 61.9431 30.3236C61.8512 30.49 61.8301 30.6855 61.7881 31.0761L61.75 31.4321C61.6018 32.8078 61.5279 33.4954 61.0713 33.7133C60.6145 33.9317 60.0773 33.5354 59.0038 32.7439L58.7253 32.5391C58.4204 32.3138 58.2678 32.2017 58.089 32.1648C57.9101 32.1278 57.7256 32.1703 57.3564 32.2563L57.0201 32.3341C55.7203 32.6351 55.0701 32.7856 54.7376 32.4052C54.4043 32.0236 54.609 31.363 55.0181 30.0412L55.1241 29.6998C55.2404 29.324 55.2986 29.1361 55.2795 28.9473C55.2616 28.7582 55.1682 28.589 54.982 28.2518L54.8125 27.9437C54.1569 26.755 53.8294 26.1602 54.0801 25.7063C54.3313 25.2525 54.995 25.2397 56.322 25.2151L56.6651 25.2086C57.0422 25.2016 57.2305 25.198 57.398 25.1182C57.565 25.0382 57.6922 24.8909 57.9465 24.5963L58.1782 24.3282Z" fill="#FFC823"/>
</g>
<defs>
<clipPath id="clip0_710_7294">
<rect width="12.6305" height="12.6305" fill="white" transform="translate(54.0367 20.5664) rotate(11.6737)"/>
</clipPath>
</defs>
</svg>
