<svg width="306" height="284" viewBox="0 0 306 284" fill="none" xmlns="http://www.w3.org/2000/svg">
<g clip-path="url(#clip0_939_11293)">
<path d="M305.06 233.361H0.00244141V233.514H305.06V233.361Z" fill="#EBEBEB"/>
<path d="M274.494 243.178H254.287V243.33H274.494V243.178Z" fill="#EBEBEB"/>
<path d="M228.753 241.115H193.379V241.268H228.753V241.115Z" fill="#EBEBEB"/>
<path d="M253.676 237.517H220.663V237.669H253.676V237.517Z" fill="#EBEBEB"/>
<path d="M41.106 238.541H32.0092V238.694H41.106V238.541Z" fill="#EBEBEB"/>
<path d="M85.8275 238.541H46.536V238.694H85.8275V238.541Z" fill="#EBEBEB"/>
<path d="M137.37 241.115H111.044V241.268H137.37V241.115Z" fill="#EBEBEB"/>
<path d="M144.6 206.15H26.7926C25.8697 206.148 24.9852 205.78 24.3332 205.127C23.6811 204.474 23.3149 203.589 23.3149 202.666V37.0621C23.323 36.1445 23.6927 35.2672 24.3439 34.6206C24.995 33.974 25.875 33.6105 26.7926 33.6089H144.6C145.524 33.6089 146.41 33.9759 147.063 34.6293C147.717 35.2826 148.084 36.1687 148.084 37.0926V202.666C148.084 203.59 147.717 204.476 147.063 205.129C146.41 205.783 145.524 206.15 144.6 206.15ZM26.7926 33.7309C25.9102 33.7325 25.0644 34.0842 24.441 34.7088C23.8176 35.3333 23.4675 36.1797 23.4675 37.0621V202.666C23.4675 203.548 23.8176 204.395 24.441 205.019C25.0644 205.644 25.9102 205.996 26.7926 205.997H144.6C145.483 205.996 146.329 205.644 146.954 205.02C147.578 204.395 147.93 203.549 147.931 202.666V37.0621C147.93 36.1791 147.578 35.3328 146.954 34.7084C146.329 34.084 145.483 33.7325 144.6 33.7309H26.7926Z" fill="#EBEBEB"/>
<path d="M276.574 206.15H158.761C157.837 206.148 156.952 205.781 156.299 205.128C155.646 204.475 155.278 203.589 155.277 202.666V37.0621C155.286 36.144 155.658 35.2666 156.31 34.6202C156.962 33.9738 157.842 33.6104 158.761 33.6089H276.574C277.491 33.6121 278.369 33.9763 279.019 34.6227C279.669 35.2691 280.038 36.1456 280.046 37.0621V202.666C280.046 203.588 279.68 204.472 279.03 205.125C278.379 205.778 277.496 206.146 276.574 206.15ZM158.761 33.7309C157.878 33.7325 157.031 34.084 156.407 34.7084C155.782 35.3328 155.431 36.1791 155.429 37.0621V202.666C155.431 203.549 155.782 204.395 156.407 205.02C157.031 205.644 157.878 205.996 158.761 205.997H276.574C277.457 205.996 278.303 205.644 278.928 205.02C279.552 204.395 279.904 203.549 279.905 202.666V37.0621C279.904 36.1791 279.552 35.3328 278.928 34.7084C278.303 34.084 277.457 33.7325 276.574 33.7309H158.761Z" fill="#EBEBEB"/>
<path d="M255.25 111.813C256.102 111.84 256.951 111.695 257.745 111.387C258.54 111.079 259.265 110.615 259.877 110.022C260.489 109.428 260.975 108.718 261.308 107.934C261.64 107.149 261.811 106.305 261.811 105.453C261.811 104.601 261.64 103.757 261.308 102.972C260.975 102.187 260.489 101.477 259.877 100.884C259.265 100.291 258.54 99.8266 257.745 99.5188C256.951 99.211 256.102 99.066 255.25 99.0924H254.469V111.813H255.25Z" fill="#E0E0E0"/>
<path d="M254.47 111.814C257.984 111.814 260.833 108.965 260.833 105.45C260.833 101.936 257.984 99.0869 254.47 99.0869C250.955 99.0869 248.106 101.936 248.106 105.45C248.106 108.965 250.955 111.814 254.47 111.814Z" fill="#F5F5F5"/>
<path d="M253.811 106.653C252.128 106.653 250.462 106.321 248.908 105.677C247.353 105.034 245.941 104.09 244.751 102.9C243.561 101.71 242.617 100.298 241.974 98.7434C241.33 97.189 240.998 95.5229 240.998 93.8403V75.7504C241.048 75.4676 241.196 75.2113 241.415 75.0266C241.635 74.842 241.913 74.7407 242.2 74.7407C242.487 74.7407 242.765 74.842 242.985 75.0266C243.205 75.2113 243.353 75.4676 243.402 75.7504V93.8525C243.41 96.6009 244.506 99.2344 246.449 101.178C248.392 103.121 251.026 104.216 253.774 104.225C254.057 104.274 254.313 104.422 254.498 104.642C254.683 104.861 254.784 105.139 254.784 105.426C254.784 105.714 254.683 105.991 254.498 106.211C254.313 106.431 254.057 106.579 253.774 106.628L253.811 106.653Z" fill="#E0E0E0"/>
<path d="M234.738 87.5796H249.729C250.723 87.5796 251.492 86.1946 251.346 84.6449L250.058 70.6123C249.747 67.2688 247.929 64.7856 245.788 64.7856H238.692C236.544 64.7856 234.72 67.2688 234.421 70.6123L233.128 84.6449C232.981 86.1946 233.744 87.5796 234.738 87.5796Z" fill="#F5F5F5"/>
<path d="M43.2474 215.503H126.04L126.04 62.4863H43.2474L43.2474 215.503Z" fill="#E6E6E6"/>
<path d="M41.411 215.503H124.204L124.204 62.4863H41.411L41.411 215.503Z" fill="#F5F5F5"/>
<path d="M120.903 211.799L120.903 66.2012H44.7179L44.7179 211.799H120.903Z" fill="white"/>
<path d="M46.1028 211.793L46.1028 66.1953H44.7117L44.7117 211.793H46.1028Z" fill="#E6E6E6"/>
<path d="M42.7776 107.5L122.837 107.5V102.521L42.7776 102.521V107.5Z" fill="#F5F5F5"/>
<path d="M37.8296 56.3477H129.646C129.78 56.3492 129.908 56.4031 130.002 56.4977C130.097 56.5924 130.151 56.7202 130.152 56.8541C130.152 56.9889 130.099 57.1184 130.004 57.2143C129.91 57.3102 129.781 57.3649 129.646 57.3666H37.8296C37.6948 57.3649 37.566 57.3102 37.4712 57.2143C37.3764 57.1184 37.3232 56.9889 37.3232 56.8541C37.3232 56.7197 37.3766 56.5909 37.4716 56.496C37.5665 56.401 37.6953 56.3477 37.8296 56.3477Z" fill="#E6E6E6"/>
<path d="M34.7791 56.854C34.7779 57.3575 34.926 57.8499 35.2049 58.2691C35.4837 58.6883 35.8806 59.0154 36.3454 59.2089C36.8102 59.4024 37.3219 59.4536 37.8158 59.3561C38.3098 59.2587 38.7637 59.0168 39.1201 58.6613C39.4765 58.3057 39.7194 57.8524 39.8181 57.3587C39.9167 56.865 39.8667 56.3531 39.6743 55.8879C39.482 55.4227 39.1559 55.025 38.7373 54.7451C38.3188 54.4653 37.8267 54.3159 37.3232 54.3159C36.9894 54.3151 36.6587 54.3802 36.3501 54.5074C36.0414 54.6346 35.7609 54.8214 35.5246 55.0571C35.2883 55.2929 35.1008 55.573 34.9728 55.8813C34.8449 56.1896 34.7791 56.5202 34.7791 56.854Z" fill="#E6E6E6"/>
<path d="M125.357 59.7032C125.538 59.7032 125.712 59.6313 125.84 59.5031C125.968 59.375 126.04 59.2011 126.04 59.0199V57.5434C126.04 57.3616 125.968 57.1872 125.84 57.0581C125.712 56.929 125.539 56.8556 125.357 56.854C125.174 56.8556 125 56.9287 124.871 57.0577C124.742 57.1866 124.669 57.3611 124.667 57.5434V59.0199C124.669 59.2017 124.742 59.3755 124.871 59.5035C125.001 59.6315 125.175 59.7033 125.357 59.7032Z" fill="#E6E6E6"/>
<path d="M45.4804 59.7032C45.6617 59.7032 45.8355 59.6313 45.9636 59.5031C46.0918 59.375 46.1638 59.2011 46.1638 59.0199V57.5434C46.1638 57.3616 46.092 57.1872 45.964 57.0581C45.836 56.929 45.6622 56.8556 45.4804 56.854C45.2981 56.8556 45.1237 56.9287 44.9947 57.0577C44.8658 57.1866 44.7926 57.3611 44.791 57.5434V59.0199C44.7926 59.2017 44.866 59.3755 44.9951 59.5035C45.1242 59.6315 45.2986 59.7033 45.4804 59.7032Z" fill="#E6E6E6"/>
<path opacity="0.5" d="M37.9699 202.775H122.837L122.837 56.86H37.9699L37.9699 202.775Z" fill="#E0E0E0"/>
<path d="M114.637 56.854C114.636 57.3574 114.784 57.8499 115.063 58.2691C115.342 58.6883 115.739 59.0154 116.203 59.2089C116.668 59.4024 117.18 59.4536 117.674 59.3561C118.168 59.2587 118.622 59.0168 118.978 58.6613C119.335 58.3057 119.577 57.8524 119.676 57.3587C119.775 56.865 119.725 56.3531 119.532 55.8879C119.34 55.4227 119.014 55.0249 118.595 54.7451C118.177 54.4653 117.685 54.3159 117.181 54.3159C116.508 54.3159 115.861 54.5831 115.384 55.0589C114.907 55.5347 114.639 56.1803 114.637 56.854Z" fill="#E6E6E6"/>
<path d="M246.611 229.145H265.061V153.057H246.611V229.145Z" fill="#F0F0F0"/>
<path d="M139.896 233.293L261.522 233.293V229.15L139.896 229.15V233.293Z" fill="#F0F0F0"/>
<path d="M246.611 153.063H136.351V229.151H246.611V153.063Z" fill="#F5F5F5"/>
<path d="M239.674 200.17H143.276V182.02H239.674V200.17ZM143.923 199.56H239.04V182.66H143.923V199.56Z" fill="#F0F0F0"/>
<path d="M239.674 221.641H143.276V203.465H239.674V221.641ZM143.923 221.031H239.04V204.1H143.923V221.031Z" fill="#F0F0F0"/>
<path d="M168.523 185.277H214.434C214.823 185.276 215.196 185.12 215.472 184.845C215.747 184.569 215.903 184.196 215.904 183.807C215.904 183.417 215.749 183.043 215.474 182.767C215.198 182.491 214.824 182.336 214.434 182.336H168.523C168.133 182.338 167.76 182.493 167.485 182.769C167.209 183.044 167.054 183.417 167.052 183.807C167.054 184.196 167.209 184.569 167.485 184.845C167.76 185.12 168.133 185.276 168.523 185.277Z" fill="#EBEBEB"/>
<path d="M239.674 178.743H143.276V160.568H239.674V178.743ZM143.923 178.103H239.04V161.202H143.923V178.103Z" fill="#F0F0F0"/>
<path d="M168.523 163.826H214.434C214.824 163.826 215.198 163.671 215.474 163.395C215.749 163.119 215.904 162.745 215.904 162.355C215.903 161.966 215.747 161.593 215.472 161.317C215.196 161.042 214.823 160.886 214.434 160.885H168.523C168.135 160.886 167.764 161.04 167.489 161.313C167.214 161.586 167.057 161.956 167.052 162.343C167.051 162.537 167.089 162.729 167.162 162.908C167.236 163.088 167.344 163.251 167.48 163.389C167.617 163.526 167.779 163.636 167.958 163.711C168.137 163.786 168.329 163.825 168.523 163.826Z" fill="#EBEBEB"/>
<path d="M168.523 206.723H214.434C214.824 206.723 215.198 206.568 215.474 206.292C215.749 206.017 215.904 205.643 215.904 205.253C215.903 204.863 215.747 204.49 215.472 204.215C215.196 203.939 214.823 203.784 214.434 203.782H168.523C168.133 203.784 167.76 203.939 167.485 204.215C167.209 204.49 167.054 204.863 167.052 205.253C167.054 205.642 167.209 206.015 167.485 206.291C167.76 206.566 168.133 206.721 168.523 206.723Z" fill="#EBEBEB"/>
<path d="M133.886 153.057H246.605V149.055H133.886V153.057Z" fill="#F0F0F0"/>
<path d="M267.642 149.062H246.611V153.064H267.642V149.062Z" fill="#E6E6E6"/>
<path d="M168.224 122.003H221.511V61.5465L168.224 61.5465V122.003Z" fill="#F0F0F0"/>
<path d="M163.861 122.003H220.73V61.5465L163.861 61.5465V122.003Z" fill="#F5F5F5"/>
<path d="M215.965 117.237V66.311H168.626V117.237H215.965Z" fill="white"/>
<path d="M204.495 100.209V83.3515C204.495 80.7603 202.394 78.6597 199.803 78.6597H184.794C182.203 78.6597 180.102 80.7603 180.102 83.3515V100.209C180.102 102.8 182.203 104.901 184.794 104.901H199.803C202.394 104.901 204.495 102.8 204.495 100.209Z" fill="#F5F5F5"/>
<path d="M152.531 260.913C217.864 260.913 270.827 257.821 270.827 254.007C270.827 250.192 217.864 247.1 152.531 247.1C87.1986 247.1 34.236 250.192 34.236 254.007C34.236 257.821 87.1986 260.913 152.531 260.913Z" fill="#F5F5F5"/>
<path d="M128.127 98.7647H121.415C121.192 98.7591 120.978 98.6736 120.812 98.5235C120.647 98.3735 120.54 98.169 120.512 97.9472L119.17 85.6106C119.156 85.5077 119.164 85.403 119.195 85.3036C119.225 85.2042 119.276 85.1125 119.345 85.0349C119.414 84.9572 119.499 84.8954 119.594 84.8536C119.689 84.8119 119.792 84.7912 119.896 84.7931H126.608C126.831 84.7987 127.045 84.8843 127.211 85.0343C127.376 85.1843 127.483 85.3888 127.511 85.6106L128.853 97.9472C128.867 98.0501 128.859 98.1548 128.828 98.2542C128.798 98.3536 128.747 98.4453 128.678 98.523C128.609 98.6006 128.524 98.6625 128.429 98.7042C128.334 98.7459 128.231 98.7666 128.127 98.7647Z" fill="#6ABC35"/>
<path d="M148.651 68.1735C151.799 66.3126 155.802 64.9033 157.12 63.1888C158.437 61.4744 165.149 62.1333 167.705 64.3298C170.261 66.5262 168.895 72.5724 169.871 74.8787C170.847 77.1849 168.651 78.9969 168.651 78.9969L148.651 68.1735Z" fill="#263238"/>
<path d="M153.08 70.4736C146.827 73.7377 146.766 86.5441 150.481 93.9875C154.197 101.431 164.575 102.962 166.912 99.808C169.248 96.6537 164.319 87.8619 166.149 80.6381C167.979 73.4144 158.822 67.4718 153.08 70.4736Z" fill="#6ABC35"/>
<path d="M120.988 99.1371L118.591 96.0865L123.978 95.0981C123.978 95.0981 126.949 98.466 124.68 100.589H123.966C123.392 100.587 122.826 100.455 122.311 100.204C121.795 99.9525 121.343 99.5878 120.988 99.1371Z" fill="#B55B52"/>
<path d="M120.195 91.7059L121.611 91.6205C122.041 91.5965 122.467 91.7253 122.812 91.9843C123.156 92.2433 123.399 92.6157 123.496 93.036L123.972 95.1165L118.585 96.1049L118.493 93.5912C118.478 93.1178 118.646 92.6568 118.964 92.3052C119.281 91.9537 119.723 91.7388 120.195 91.7059Z" fill="#B55B52"/>
<path d="M149.225 101.535C148.749 102.315 148.322 102.956 147.858 103.652C147.394 104.347 146.937 105.006 146.461 105.671C145.497 106.995 144.496 108.307 143.41 109.582C142.293 110.91 141.084 112.158 139.792 113.316C139.079 113.947 138.325 114.53 137.535 115.061C137.097 115.35 136.645 115.617 136.18 115.86L135.997 115.952C135.924 115.988 135.924 115.994 135.741 116.08C134.883 116.476 133.937 116.644 132.995 116.568C132.064 116.487 131.163 116.197 130.36 115.72C129.808 115.399 129.289 115.025 128.81 114.603C128.073 113.933 127.397 113.198 126.791 112.407C125.752 111.051 124.81 109.624 123.972 108.136C122.381 105.317 120.955 102.408 119.701 99.4235L125.851 96.7329C127.111 99.3864 128.523 101.965 130.079 104.457C130.805 105.623 131.611 106.738 132.489 107.794C132.839 108.214 133.227 108.6 133.648 108.947C133.749 109.036 133.862 109.11 133.984 109.167C134.02 109.167 133.929 109.088 133.532 109.039C133.295 109.019 133.055 109.04 132.825 109.1C132.704 109.132 132.586 109.173 132.471 109.222L132.544 109.179C132.755 109.052 132.958 108.914 133.154 108.764C133.624 108.405 134.07 108.016 134.49 107.599C135.444 106.644 136.33 105.625 137.144 104.548C137.998 103.432 138.816 102.242 139.585 101.028C139.975 100.418 140.36 99.8079 140.726 99.1978C141.092 98.5877 141.476 97.9226 141.775 97.3674L149.225 101.535Z" fill="#263238"/>
<path d="M174.923 82.2424C168.254 82.9867 160.927 80.2839 155.234 79.326C149.542 78.3681 146.552 76.3182 142.221 72.5659C136.296 67.4044 141.769 62.6699 148.212 64.3782C152.879 65.5984 156.076 67.2335 163.257 68.7832C170.438 70.3329 170.091 72.1694 173.05 74.2438C177.449 77.3248 182.757 81.3699 174.923 82.2424Z" fill="#E0E0E0"/>
<path d="M159.944 237.291C159.944 237.291 162.238 237.901 162.482 241.3C162.726 244.698 161.775 252.081 161.775 252.081H160.92C160.92 252.081 161.165 245.558 160.829 244.039C160.567 248.45 157.406 252.081 153.221 252.081C151.738 252.081 154.972 247.261 155.497 243.161C156.021 239.061 156.326 236.876 156.326 236.876L159.944 237.291Z" fill="#6ABC35"/>
<path d="M156.442 234.637L161.573 234.924C160.731 241.202 158.132 245.784 155.985 247.681C155.844 247.787 155.674 247.847 155.498 247.855C155.321 247.862 155.147 247.815 154.998 247.722C154.849 247.628 154.731 247.491 154.661 247.329C154.591 247.167 154.572 246.988 154.606 246.815C155.596 242.822 156.211 238.745 156.442 234.637Z" fill="#B55B52"/>
<path d="M131.342 237.621C131.342 237.621 133.099 237.914 132.703 241.282C132.306 244.65 130.213 252.063 130.213 252.063H129.347C129.347 252.063 130.439 244.931 130.39 243.411C129.286 247.822 127.901 252.063 121.013 252.063C119.53 252.063 124.063 247.243 125.345 243.143C126.626 239.043 127.09 237.603 127.09 237.603L131.342 237.621Z" fill="#6ABC35"/>
<path d="M127.797 233.118L132.812 234.631C131.031 240.274 127.132 245.771 124.625 247.669C123.953 248.175 123.471 247.669 123.764 246.9C125.473 242.421 126.821 237.812 127.797 233.118Z" fill="#B55B52"/>
<path d="M142.916 123.956C142.916 123.956 141.659 129.99 142.269 141.381C140.555 151.515 135.961 172.466 135.308 182.869C132.587 199.671 127.315 234.119 127.315 234.119C128.255 234.9 130.927 235.101 133.038 234.802C133.038 234.802 145.241 211.825 145.765 184.565C159.621 151.936 160.731 124.31 160.731 124.31L142.916 123.956Z" fill="#6ABC35"/>
<path opacity="0.2" d="M150.774 142.461C150.774 142.461 149.78 162.082 149.243 175.81C153.069 165.399 156.044 154.695 158.138 143.803L150.774 142.461Z" fill="black"/>
<path d="M148.212 124.316C148.212 124.316 152.116 168.568 153.825 184.193C155.612 200.599 156.589 229.835 156.186 235.015C157.711 235.735 159.944 235.717 161.829 235.625C161.829 235.625 169.95 205.565 165.167 184.919C168.156 164.388 168.773 149.819 168.083 140.533C167.211 128.812 164.502 125.194 164.502 125.194L148.212 124.316Z" fill="#6ABC35"/>
<path d="M142.342 126.452L142.056 127.837C142.056 127.837 142.666 129.247 148.956 129.631C155.246 130.015 164.856 127.349 165.698 126.91C165.997 126.361 165.35 125.354 165.35 125.354C165.35 125.354 158.877 128.154 149.273 128.142C146.868 128.09 144.502 127.513 142.342 126.452Z" fill="#6ABC35"/>
<path opacity="0.5" d="M142.342 126.452L142.056 127.837C142.056 127.837 142.666 129.247 148.956 129.631C155.246 130.015 164.856 127.349 165.698 126.91C165.997 126.361 165.35 125.354 165.35 125.354C165.35 125.354 158.877 128.154 149.273 128.142C146.868 128.09 144.502 127.513 142.342 126.452Z" fill="white"/>
<path d="M141.067 101.718C140.958 106.696 136.925 109.307 141.33 113.139C141.031 117.446 141.037 123.956 142.788 125.701C144.106 127.605 154.087 127.452 164.502 125.195C163.282 119.191 164.014 115.836 167.87 102.45C168.081 101.718 168.136 100.949 168.031 100.194C167.926 99.4394 167.664 98.715 167.261 98.068C166.858 97.4209 166.324 96.8656 165.694 96.4381C165.063 96.0105 164.349 95.7202 163.599 95.586C162.745 95.4335 161.848 95.2931 160.921 95.1833C157.688 94.7078 154.426 94.4631 151.159 94.4512C150.097 94.4512 148.999 94.5244 147.95 94.5915C146.121 94.7092 144.402 95.5049 143.129 96.8228C141.857 98.1408 141.121 99.8862 141.067 101.718Z" fill="white"/>
<path d="M160.768 84.1401C159.92 87.2273 158.877 92.9258 160.914 95.1832C157.605 95.8014 154.464 97.1112 151.696 99.027C151.337 99.2952 150.894 99.4277 150.447 99.4009C149.999 99.3741 149.576 99.1898 149.251 98.8806C148.927 98.5715 148.722 98.1574 148.674 97.7118C148.625 97.2662 148.736 96.8178 148.987 96.4462C149.556 95.6256 150.302 94.9437 151.171 94.4511C154.728 93.8776 154.832 91.2785 154.405 88.7953L160.768 84.1401Z" fill="#B55B52"/>
<path d="M151.421 94.5668C150.018 96.928 151.592 100.723 151.592 100.723C151.592 100.723 143.66 113.834 143.764 129.435C140.427 127.464 138.773 125.091 138.194 118.984C137.773 114.554 140.219 98.435 142.105 96.7571C143.52 95.4942 148.56 94.3716 150.951 93.8957C151.036 93.8806 151.123 93.89 151.203 93.9229C151.283 93.9557 151.351 94.0107 151.401 94.0812C151.45 94.1518 151.478 94.235 151.482 94.321C151.485 94.4071 151.464 94.4924 151.421 94.5668Z" fill="#263238"/>
<path d="M158.84 94.1831C151.464 97.6608 148.212 101.602 148.212 101.602C148.212 101.602 154.209 122.279 153.703 130.143C163.275 127.569 166.869 124.86 166.869 124.86C166.869 124.86 166.668 111.706 167.687 108.179C168.162 106.532 168.785 104.03 169.316 101.84C169.662 100.426 169.491 98.9353 168.834 97.6364C168.177 96.3374 167.078 95.316 165.734 94.7566C164.9 94.4046 164.049 94.095 163.184 93.8293C161.743 93.4001 160.193 93.5263 158.84 94.1831Z" fill="#263238"/>
<path opacity="0.2" d="M158.175 86.0381L154.411 88.7958C154.518 89.3734 154.575 89.9593 154.581 90.5469C155.93 90.4553 157.876 89.1253 158.12 87.7403C158.242 87.181 158.26 86.6041 158.175 86.0381Z" fill="black"/>
<path d="M157.595 68.6927C152.007 68.0216 146.473 73.9092 146.931 82.158C147.388 90.4067 142.257 95.129 146.375 102.097C146.833 99.3022 152.312 96.4774 152.037 91.3707C151.763 86.264 150.036 78.784 154.154 76.1544C158.273 73.5248 161.39 69.1503 157.595 68.6927Z" fill="#6ABC35"/>
<path d="M142.507 97.4467C141.69 97.4467 140.939 96.8366 140.415 95.6652C140.398 95.628 140.398 95.5858 140.413 95.5481C140.427 95.5103 140.457 95.48 140.494 95.4638C140.531 95.4477 140.573 95.4469 140.611 95.4618C140.649 95.4767 140.679 95.5059 140.695 95.5432C141.22 96.7024 141.983 97.2759 142.776 97.1173C143.923 96.8854 145.125 95.1405 145.216 92.2363C145.327 87.1086 146.1 82.0167 147.516 77.0872C147.529 77.0494 147.556 77.0181 147.591 76.9999C147.626 76.9817 147.667 76.9779 147.705 76.9895C147.725 76.9951 147.742 77.0044 147.758 77.0171C147.773 77.0297 147.786 77.0454 147.795 77.0631C147.804 77.0808 147.81 77.1002 147.811 77.12C147.812 77.1399 147.81 77.1599 147.803 77.1787C146.397 82.0806 145.63 87.1438 145.521 92.2424C145.43 95.293 144.106 97.1234 142.843 97.3979C142.733 97.4268 142.621 97.4431 142.507 97.4467Z" fill="#6ABC35"/>
<path d="M164.508 78.6372C162.903 83.6402 162.33 85.7939 159.145 87.7889C154.349 90.748 148.675 87.7035 148.773 82.2979C148.871 77.4536 151.482 70.0956 156.875 69.3024C162.269 68.5093 166.112 73.6282 164.508 78.6372Z" fill="#B55B52"/>
<path d="M150.738 72.4015H150.475C150.455 72.4008 150.435 72.3959 150.417 72.3871C150.398 72.3782 150.382 72.3656 150.369 72.3501C150.355 72.3346 150.346 72.3165 150.34 72.297C150.334 72.2775 150.332 72.257 150.335 72.2368C150.338 72.1974 150.356 72.1608 150.386 72.1346C150.415 72.1084 150.454 72.0948 150.494 72.0965C151.969 72.1161 153.402 71.6002 154.526 70.6444C154.608 70.5769 154.674 70.4932 154.721 70.3987C154.769 70.3042 154.796 70.2008 154.801 70.0953C154.796 70.0557 154.806 70.0156 154.83 69.9837C154.854 69.9518 154.89 69.9305 154.929 69.9244C154.969 69.9209 155.009 69.9328 155.041 69.9577C155.073 69.9827 155.094 70.0188 155.1 70.0587C155.104 70.2083 155.075 70.357 155.014 70.494C154.954 70.6311 154.865 70.7533 154.752 70.8518C153.628 71.8081 152.213 72.3545 150.738 72.4015Z" fill="#6ABC35"/>
<path d="M158.803 78.1486C158.709 78.6658 158.465 79.1438 158.102 79.5235C157.738 79.9032 157.271 80.1678 156.758 80.2845C156.246 80.4012 155.71 80.3648 155.218 80.1799C154.726 79.995 154.299 79.6697 153.99 79.2444C153.681 78.819 153.504 78.3124 153.481 77.7873C153.457 77.2621 153.588 76.7416 153.858 76.2903C154.127 75.8391 154.524 75.4768 154.997 75.2486C155.471 75.0204 156.001 74.9362 156.522 75.0066C156.878 75.063 157.219 75.189 157.527 75.3775C157.834 75.566 158.102 75.8132 158.313 76.1049C158.525 76.3967 158.678 76.7274 158.762 77.078C158.846 77.4287 158.86 77.7925 158.803 78.1486Z" fill="#263238"/>
<path d="M152.733 77.0143C152.581 77.4867 152.294 77.9048 151.909 78.2178C151.524 78.5308 151.056 78.7252 150.563 78.7773C150.069 78.8294 149.571 78.7371 149.129 78.5115C148.687 78.2859 148.32 77.9368 148.072 77.5065C147.825 77.0763 147.708 76.5834 147.735 76.0879C147.762 75.5923 147.933 75.1153 148.226 74.7149C148.519 74.3144 148.923 74.0078 149.387 73.8322C149.851 73.6566 150.356 73.6196 150.841 73.7258C151.182 73.817 151.501 73.9746 151.78 74.1893C152.06 74.4041 152.294 74.672 152.47 74.9775C152.645 75.283 152.759 75.6201 152.804 75.9696C152.849 76.3192 152.825 76.6742 152.733 77.0143Z" fill="#263238"/>
<path d="M153.831 77.5382C153.812 77.539 153.792 77.5356 153.774 77.5282C153.757 77.5208 153.74 77.5096 153.727 77.4955C153.727 77.4955 153.026 76.8243 152.507 77.1965C152.491 77.2082 152.472 77.2166 152.452 77.2211C152.433 77.2256 152.413 77.2261 152.393 77.2227C152.373 77.2193 152.354 77.212 152.337 77.2012C152.32 77.1904 152.305 77.1764 152.294 77.1599C152.282 77.1435 152.273 77.125 152.269 77.1053C152.264 77.0857 152.264 77.0654 152.267 77.0455C152.271 77.0257 152.278 77.0067 152.289 76.9897C152.3 76.9726 152.314 76.9579 152.33 76.9464C153.05 76.4217 153.898 77.2453 153.935 77.2758C153.963 77.3054 153.979 77.3447 153.979 77.3856C153.979 77.4266 153.963 77.4659 153.935 77.4955C153.907 77.5219 153.87 77.537 153.831 77.5382Z" fill="white"/>
<path d="M163.306 80.4003C163.284 80.4066 163.261 80.4066 163.239 80.4003C159.81 78.6676 158.62 78.6371 158.608 78.6371C158.568 78.6371 158.529 78.621 158.5 78.5924C158.472 78.5638 158.456 78.525 158.456 78.4846C158.457 78.4446 158.474 78.4067 158.502 78.3784C158.53 78.3501 158.568 78.3335 158.608 78.332C158.657 78.332 159.859 78.332 163.373 80.1258C163.409 80.1452 163.435 80.1776 163.448 80.2161C163.46 80.2547 163.458 80.2966 163.44 80.3332C163.426 80.355 163.405 80.3727 163.382 80.3844C163.358 80.3962 163.332 80.4017 163.306 80.4003Z" fill="white"/>
<path d="M151.592 82.1885C153.596 82.1051 155.603 82.1765 157.595 82.4021C156.985 83.4332 155.918 84.2324 153.666 84.0189C151.415 83.8053 151.592 82.1885 151.592 82.1885Z" fill="white"/>
<path d="M156.699 78.1124C156.595 78.5273 156.29 78.808 156.021 78.7225C155.753 78.6371 155.613 78.2589 155.722 77.844C155.832 77.4291 156.131 77.1545 156.4 77.2339C156.668 77.3132 156.802 77.7037 156.699 78.1124Z" fill="#263238"/>
<path d="M151.592 76.8864C151.482 77.3012 151.177 77.5819 150.908 77.4965C150.64 77.4111 150.506 77.0328 150.61 76.6179C150.713 76.203 151.018 75.9285 151.293 76.0078C151.567 76.0871 151.696 76.4715 151.592 76.8864Z" fill="#263238"/>
<path d="M151.403 76.0689L150.481 75.5259C150.481 75.5259 150.799 76.435 151.403 76.0689Z" fill="#263238"/>
<path d="M152.91 77.7041C152.303 78.5592 151.581 79.3252 150.762 79.9798C150.934 80.1845 151.149 80.3491 151.391 80.4619C151.634 80.5746 151.898 80.633 152.165 80.6327L152.91 77.7041Z" fill="#A02724"/>
<path d="M165.094 82.5718C164.811 82.9694 164.447 83.3027 164.027 83.5498C163.606 83.7969 163.138 83.9522 162.653 84.0056C161.433 84.091 161.098 82.6756 161.702 81.437C162.245 80.3205 163.532 78.9356 164.667 79.4358C165.802 79.9361 165.881 81.5285 165.094 82.5718Z" fill="#B55B52"/>
<path d="M158.742 75.4278C158.683 75.3935 158.638 75.3395 158.614 75.2752C158.529 74.973 158.374 74.6948 158.162 74.4629C157.95 74.2309 157.687 74.0516 157.394 73.9391C157.33 73.9219 157.276 73.8802 157.243 73.823C157.21 73.7659 157.2 73.6979 157.217 73.634C157.236 73.5698 157.279 73.5153 157.337 73.4822C157.395 73.4492 157.464 73.4401 157.528 73.4571C157.906 73.5889 158.246 73.8096 158.52 74.1006C158.794 74.3916 158.994 74.7443 159.102 75.1288C159.12 75.1919 159.113 75.2593 159.082 75.3172C159.051 75.375 159 75.419 158.938 75.44C158.873 75.4594 158.804 75.4551 158.742 75.4278Z" fill="#263238"/>
<path d="M152.226 73.2677C152.285 73.2935 152.332 73.3388 152.36 73.3958C152.386 73.4568 152.388 73.5253 152.365 73.5875C152.343 73.6498 152.297 73.7012 152.238 73.7314C151.879 73.904 151.483 73.9885 151.084 73.9779C150.685 73.9673 150.294 73.8619 149.944 73.6704C149.888 73.6348 149.848 73.5781 149.833 73.5129C149.818 73.4477 149.83 73.3792 149.865 73.3226C149.901 73.2659 149.957 73.2258 150.023 73.2109C150.088 73.196 150.156 73.2077 150.213 73.2433C150.496 73.3903 150.809 73.4671 151.128 73.4671C151.447 73.4671 151.761 73.3903 152.043 73.2433C152.105 73.2284 152.17 73.2371 152.226 73.2677Z" fill="#263238"/>
<path d="M156.516 77.295L155.594 76.752C155.594 76.752 155.905 77.661 156.516 77.295Z" fill="#263238"/>
<path d="M166.405 139.502L165.075 143.993H170.438C170.438 143.993 170.615 140.533 169.218 138.38L168.535 138.129C167.369 138.245 166.924 138.459 166.405 139.502Z" fill="#B55B52"/>
<path d="M167.083 147.006L169.383 146.683C169.714 146.635 170.014 146.463 170.225 146.203C170.435 145.943 170.54 145.614 170.518 145.28L170.438 143.974H165.075L165.606 146.012C165.685 146.332 165.879 146.61 166.152 146.794C166.425 146.978 166.757 147.054 167.083 147.006Z" fill="#B55B52"/>
<path d="M168.651 97.4707C168.968 97.9771 169.187 98.3615 169.438 98.8008L170.133 100.082C170.591 100.942 171.024 101.803 171.433 102.681C172.272 104.447 173.014 106.258 173.654 108.105C174.324 110.016 174.834 111.979 175.179 113.974C175.362 115.023 175.477 116.083 175.52 117.147C175.56 118.22 175.523 119.294 175.411 120.362C175.014 124.218 174.38 127.763 173.739 131.375C173.098 134.987 172.384 138.513 171.634 142.095L165.045 140.838C165.655 137.323 166.186 133.767 166.686 130.234C167.186 126.701 167.65 123.132 167.851 119.795C167.91 119.066 167.91 118.333 167.851 117.605C167.785 116.868 167.671 116.136 167.51 115.414C167.162 113.866 166.69 112.348 166.1 110.875C165.486 109.338 164.79 107.834 164.014 106.372C163.623 105.634 163.214 104.902 162.793 104.182L162.147 103.12C161.939 102.785 161.689 102.394 161.537 102.144L168.651 97.4707Z" fill="#263238"/>
<path d="M149.963 130.045H149.92L147.48 129.96C147.324 129.955 147.172 129.92 147.03 129.856C146.889 129.792 146.761 129.701 146.655 129.587C146.549 129.474 146.467 129.341 146.412 129.195C146.358 129.05 146.333 128.895 146.339 128.74C146.36 128.431 146.498 128.142 146.725 127.932C146.951 127.721 147.25 127.604 147.559 127.605L149.999 127.69C150.296 127.716 150.572 127.853 150.772 128.074C150.972 128.295 151.08 128.584 151.076 128.882C151.071 129.18 150.954 129.465 150.747 129.68C150.541 129.895 150.26 130.023 149.963 130.039V130.045ZM149.963 129.466C150.118 129.466 150.268 129.407 150.382 129.3C150.495 129.194 150.564 129.048 150.573 128.892C150.575 128.734 150.516 128.581 150.408 128.465C150.356 128.407 150.292 128.36 150.22 128.328C150.149 128.295 150.072 128.278 149.993 128.276L147.553 128.191C147.397 128.19 147.247 128.25 147.134 128.356C147.02 128.463 146.952 128.609 146.943 128.764C146.942 128.921 147.003 129.072 147.11 129.185C147.218 129.299 147.366 129.366 147.522 129.374L149.963 129.466Z" fill="white"/>
<path opacity="0.5" d="M149.627 143.126C149.594 143.126 149.562 143.115 149.536 143.096C148.897 142.592 148.382 141.949 148.027 141.217C147.673 140.484 147.49 139.681 147.492 138.868V129.679C147.492 129.639 147.508 129.6 147.536 129.572C147.565 129.543 147.604 129.527 147.644 129.527C147.685 129.527 147.723 129.543 147.752 129.572C147.781 129.6 147.797 129.639 147.797 129.679V138.868C147.796 139.58 147.944 140.284 148.233 140.935C148.523 141.585 148.945 142.168 149.475 142.644V133.975C149.475 133.934 149.491 133.895 149.519 133.867C149.548 133.838 149.587 133.822 149.627 133.822C149.668 133.822 149.706 133.838 149.735 133.867C149.764 133.895 149.78 133.934 149.78 133.975V142.974C149.78 143.003 149.773 143.032 149.757 143.056C149.742 143.081 149.72 143.101 149.694 143.114L149.627 143.126Z" fill="white"/>
<path opacity="0.5" d="M160.341 235.821C160.321 235.818 160.301 235.811 160.284 235.801C160.267 235.79 160.251 235.776 160.239 235.76C160.228 235.743 160.219 235.724 160.214 235.705C160.21 235.685 160.209 235.664 160.213 235.644C162.421 222.661 163.819 201.087 161.671 184.394C161.668 184.388 161.667 184.38 161.667 184.373C161.667 184.366 161.668 184.358 161.671 184.352C164.343 169.288 164.569 139.813 164.111 135.372C162.592 135.277 161.116 134.822 159.808 134.043C158.5 133.264 157.396 132.184 156.589 130.893C156.579 130.876 156.573 130.856 156.571 130.836C156.569 130.816 156.57 130.796 156.576 130.777C156.582 130.758 156.591 130.74 156.604 130.724C156.616 130.708 156.632 130.696 156.65 130.686C156.668 130.676 156.687 130.671 156.708 130.669C156.728 130.667 156.748 130.67 156.767 130.676C156.787 130.682 156.805 130.692 156.82 130.705C156.835 130.719 156.848 130.735 156.857 130.753C157.653 132.015 158.741 133.067 160.029 133.82C161.317 134.573 162.768 135.005 164.258 135.079C164.292 135.082 164.324 135.096 164.349 135.119C164.375 135.143 164.392 135.173 164.398 135.207C164.892 139.179 164.691 169.142 161.994 184.382C164.142 201.099 162.745 222.698 160.53 235.699C160.527 235.72 160.52 235.741 160.509 235.759C160.497 235.777 160.482 235.793 160.464 235.804C160.446 235.816 160.426 235.824 160.404 235.826C160.383 235.829 160.361 235.828 160.341 235.821Z" fill="white"/>
<path d="M160.005 72.5297C162.037 78.8383 154.758 91.4433 156.21 102.297C158.651 98.8928 163.983 97.8739 163.794 93.2004C163.483 85.2689 167.717 84.1646 167.193 77.9475C166.735 72.5236 164.142 70.376 159.591 69.2351C155.039 68.0941 155.582 72.1819 160.005 72.5297Z" fill="#6ABC35"/>
<path d="M160.646 73.3533C157.528 73.2618 155.405 71.944 154.911 70.6871C154.789 70.3849 154.764 70.0524 154.84 69.7355C154.915 69.4186 155.087 69.1329 155.332 68.9178C155.345 68.9032 155.362 68.8916 155.38 68.8836C155.399 68.8757 155.419 68.8716 155.439 68.8716C155.459 68.8716 155.478 68.8757 155.497 68.8836C155.515 68.8916 155.532 68.9032 155.545 68.9178C155.574 68.9473 155.589 68.9867 155.589 69.0276C155.589 69.0686 155.574 69.1079 155.545 69.1374C155.342 69.3097 155.199 69.5419 155.137 69.8007C155.074 70.0595 155.096 70.3314 155.198 70.5773C155.655 71.7365 157.675 72.9629 160.652 73.0178C160.672 73.0178 160.691 73.0217 160.709 73.0295C160.728 73.0372 160.744 73.0486 160.758 73.0628C160.771 73.0771 160.782 73.0939 160.789 73.1124C160.796 73.1309 160.799 73.1506 160.798 73.1703C160.803 73.1927 160.802 73.2159 160.797 73.2381C160.791 73.2603 160.781 73.2809 160.766 73.2985C160.751 73.3161 160.733 73.3301 160.712 73.3396C160.691 73.3491 160.669 73.3538 160.646 73.3533Z" fill="#6ABC35"/>
<path d="M166.308 93.2865H166.253C166.215 93.2727 166.184 93.2444 166.167 93.2078C166.15 93.1712 166.148 93.1293 166.161 93.0912C167.455 89.6563 167.675 84.1835 166.772 77.2648C166.769 77.2448 166.77 77.2244 166.776 77.2049C166.781 77.1854 166.79 77.1672 166.803 77.1513C166.815 77.1354 166.831 77.1222 166.849 77.1123C166.866 77.1025 166.886 77.0963 166.906 77.094C166.926 77.0914 166.946 77.0929 166.966 77.0983C166.985 77.1037 167.003 77.1129 167.019 77.1254C167.035 77.1379 167.048 77.1534 167.058 77.171C167.068 77.1887 167.074 77.2081 167.077 77.2282C167.973 84.2934 167.754 89.6685 166.424 93.195C166.413 93.2185 166.397 93.2391 166.377 93.255C166.357 93.271 166.333 93.2818 166.308 93.2865Z" fill="#6ABC35"/>
<path d="M152.269 68.1493C148.474 68.8205 151.592 70.5227 151.592 70.5227C151.592 70.5227 153.898 69.3391 158.816 70.5227C161.587 71.1197 164.173 72.3753 166.357 74.1834C166.357 74.1834 168.571 73.6221 167.577 71.7429C166.582 69.8638 159.932 66.7949 152.269 68.1493Z" fill="#E0E0E0"/>
<path d="M216.447 182.107H216.386C213.098 181.777 210.114 179.971 207.539 176.738C196.948 163.474 195.069 128.984 196.997 113.408C197.013 113.262 197.087 113.13 197.201 113.038C197.315 112.947 197.461 112.904 197.607 112.92C197.751 112.938 197.883 113.012 197.974 113.126C198.065 113.24 198.109 113.385 198.095 113.53C196.264 128.514 198.15 163.187 208.4 176.03C210.785 179.013 213.506 180.679 216.49 180.984C216.628 181.004 216.755 181.075 216.844 181.182C216.933 181.29 216.978 181.428 216.971 181.567C216.965 181.707 216.906 181.839 216.806 181.938C216.707 182.037 216.575 182.095 216.435 182.101L216.447 182.107Z" fill="#6ABC35"/>
<path d="M197.527 113.444C200.358 109.136 199.699 103.035 198.077 100.558C193.074 108.093 197.527 113.444 197.527 113.444Z" fill="#6ABC35"/>
<path d="M197.528 114.005C197.446 114.005 197.365 113.987 197.291 113.952C197.217 113.918 197.152 113.867 197.1 113.804C197.052 113.743 192.439 108.044 197.613 100.247C197.663 100.17 197.732 100.106 197.813 100.062C197.894 100.019 197.985 99.9961 198.077 99.9966C198.169 99.9972 198.261 100.02 198.342 100.064C198.424 100.107 198.494 100.17 198.546 100.247C200.243 102.84 201.03 109.136 197.997 113.749C197.95 113.822 197.886 113.882 197.811 113.926C197.736 113.969 197.651 113.994 197.564 113.999L197.528 114.005ZM198.04 101.668C194.989 106.915 196.594 110.875 197.497 112.4C198.332 110.748 198.811 108.94 198.905 107.092C198.998 105.243 198.704 103.396 198.04 101.668Z" fill="#6ABC35"/>
<path d="M196.905 123.224C197.088 118.27 193.244 113.047 190.456 111.442C190.084 120.124 196.905 123.224 196.905 123.224Z" fill="#6ABC35"/>
<path d="M196.905 123.785C196.824 123.785 196.745 123.766 196.673 123.73C196.6 123.7 189.516 120.375 189.901 111.418C189.904 111.322 189.931 111.229 189.982 111.148C190.032 111.066 190.103 111 190.188 110.954C190.271 110.905 190.366 110.879 190.462 110.879C190.559 110.879 190.654 110.905 190.737 110.954C193.61 112.614 197.662 117.946 197.448 123.236C197.442 123.381 197.38 123.518 197.276 123.619C197.171 123.721 197.032 123.778 196.887 123.779L196.905 123.785ZM191.005 112.492C191.017 114.433 191.509 116.34 192.439 118.044C193.369 119.747 194.706 121.194 196.331 122.254C196.063 118.331 193.372 114.341 191.005 112.492Z" fill="#6ABC35"/>
<path d="M197.344 125.664C198.07 120.783 202.835 116.207 205.886 115.054C204.635 123.669 197.344 125.664 197.344 125.664Z" fill="#6ABC35"/>
<path d="M197.344 126.226C197.207 126.226 197.075 126.176 196.972 126.086C196.904 126.024 196.851 125.946 196.819 125.858C196.787 125.771 196.777 125.678 196.789 125.586C197.57 120.345 202.536 115.726 205.672 114.53C205.763 114.497 205.861 114.487 205.956 114.503C206.052 114.519 206.141 114.56 206.215 114.622C206.293 114.681 206.353 114.76 206.389 114.85C206.426 114.94 206.437 115.038 206.423 115.134C206.125 117.633 205.13 119.998 203.55 121.956C201.97 123.915 199.87 125.388 197.491 126.208L197.344 126.226ZM205.129 116.019C202.463 117.477 199.083 120.986 198.095 124.799C199.892 124.016 201.472 122.808 202.697 121.278C203.923 119.749 204.758 117.944 205.129 116.019Z" fill="#6ABC35"/>
<path d="M197.472 135.414C198.205 130.533 202.963 125.957 206.014 124.804C204.763 133.419 197.472 135.414 197.472 135.414Z" fill="#6ABC35"/>
<path d="M197.472 135.975C197.393 135.974 197.314 135.956 197.242 135.922C197.169 135.889 197.105 135.84 197.053 135.779C197.001 135.719 196.962 135.647 196.94 135.571C196.918 135.494 196.912 135.414 196.923 135.334C197.698 130.094 202.665 125.475 205.801 124.279C205.892 124.246 205.99 124.236 206.086 124.251C206.182 124.266 206.273 124.305 206.35 124.365C206.425 124.426 206.483 124.507 206.518 124.598C206.554 124.688 206.565 124.787 206.551 124.883C206.25 127.38 205.253 129.742 203.675 131.699C202.097 133.657 200.001 135.132 197.625 135.957C197.575 135.969 197.524 135.975 197.472 135.975ZM205.258 125.768C202.591 127.226 199.211 130.734 198.223 134.547C200.021 133.766 201.601 132.558 202.826 131.028C204.052 129.498 204.887 127.693 205.258 125.768Z" fill="#6ABC35"/>
<path d="M197.9 143.797C198.632 138.916 203.391 134.341 206.441 133.188C205.191 141.802 197.9 143.797 197.9 143.797Z" fill="#6ABC35"/>
<path d="M197.899 144.358C197.764 144.358 197.634 144.308 197.533 144.218C197.462 144.158 197.408 144.08 197.375 143.992C197.343 143.904 197.335 143.81 197.35 143.717C198.125 138.483 203.092 133.858 206.228 132.662C206.319 132.628 206.418 132.619 206.514 132.635C206.611 132.651 206.701 132.692 206.777 132.754C206.852 132.814 206.911 132.893 206.946 132.983C206.982 133.073 206.993 133.171 206.978 133.266C206.682 135.764 205.687 138.129 204.108 140.087C202.529 142.046 200.43 143.52 198.052 144.34C198.002 144.352 197.951 144.358 197.899 144.358ZM205.685 134.151C203.018 135.609 199.638 139.117 198.65 142.93C200.448 142.15 202.029 140.942 203.255 139.412C204.481 137.882 205.315 136.076 205.685 134.151Z" fill="#6ABC35"/>
<path d="M199.706 152.687C200.432 147.806 205.197 143.224 208.247 142.071C206.996 150.686 199.706 152.687 199.706 152.687Z" fill="#6ABC35"/>
<path d="M199.706 153.241C199.625 153.241 199.546 153.224 199.473 153.191C199.4 153.157 199.335 153.108 199.282 153.048C199.229 152.987 199.19 152.916 199.168 152.838C199.145 152.761 199.139 152.68 199.15 152.601C199.931 147.366 204.892 142.741 208.028 141.552C208.118 141.515 208.217 141.504 208.314 141.519C208.411 141.534 208.501 141.575 208.577 141.637C208.653 141.697 208.712 141.776 208.749 141.866C208.785 141.955 208.797 142.053 208.784 142.149C208.488 144.649 207.493 147.014 205.913 148.973C204.333 150.931 202.232 152.405 199.852 153.223L199.706 153.241ZM207.491 143.034C204.824 144.492 201.444 148 200.456 151.814C202.254 151.033 203.835 149.825 205.061 148.295C206.287 146.765 207.121 144.959 207.491 143.034Z" fill="#6ABC35"/>
<path d="M201.212 161.533C201.633 156.597 206.093 151.838 209.058 150.551C208.363 159.221 201.212 161.533 201.212 161.533Z" fill="#6ABC35"/>
<path d="M201.213 162.095C201.085 162.092 200.961 162.049 200.859 161.973C200.787 161.916 200.73 161.842 200.694 161.758C200.657 161.674 200.643 161.582 200.651 161.491C201.103 156.219 205.776 151.375 208.833 150.045C208.921 150.005 209.018 149.99 209.115 149.999C209.211 150.009 209.303 150.044 209.382 150.1C209.46 150.156 209.523 150.232 209.564 150.32C209.604 150.407 209.622 150.504 209.614 150.6C209.482 153.099 208.637 155.507 207.178 157.54C205.719 159.573 203.708 161.145 201.383 162.07C201.328 162.087 201.27 162.096 201.213 162.095ZM208.381 151.546C205.807 153.114 202.646 156.781 201.902 160.643C203.65 159.78 205.157 158.498 206.287 156.91C207.418 155.323 208.138 153.48 208.381 151.546Z" fill="#6ABC35"/>
<path d="M204.684 170.129C203.946 165.199 207.21 159.757 209.791 158.03C211.133 166.663 204.684 170.129 204.684 170.129Z" fill="#6ABC35"/>
<path d="M204.684 170.685C204.598 170.685 204.512 170.666 204.434 170.631C204.353 170.589 204.284 170.53 204.231 170.457C204.178 170.383 204.143 170.299 204.129 170.21C203.342 164.938 206.789 159.386 209.479 157.568C209.557 157.514 209.647 157.481 209.741 157.471C209.835 157.462 209.929 157.476 210.016 157.513C210.103 157.551 210.179 157.609 210.236 157.684C210.294 157.759 210.332 157.847 210.346 157.94C211.731 166.866 205.02 170.582 204.946 170.618C204.867 170.665 204.776 170.688 204.684 170.685ZM209.357 159.093C207.204 161.064 204.952 165.194 205.148 169.16C206.655 168.038 209.882 164.932 209.357 159.087V159.093Z" fill="#6ABC35"/>
<path d="M196.862 131.034C195.642 126.153 190.389 121.882 187.247 120.881C187.787 123.283 188.965 125.493 190.658 127.28C192.35 129.067 194.494 130.364 196.862 131.034Z" fill="#6ABC35"/>
<path d="M196.862 131.595H196.746C194.28 130.888 192.047 129.535 190.28 127.675C188.513 125.814 187.276 123.515 186.698 121.015C186.674 120.918 186.676 120.817 186.704 120.721C186.732 120.625 186.785 120.539 186.858 120.47C186.931 120.402 187.02 120.354 187.118 120.332C187.215 120.31 187.317 120.314 187.412 120.344C190.658 121.375 196.081 125.725 197.399 130.893C197.424 130.985 197.425 131.083 197.401 131.176C197.378 131.269 197.331 131.354 197.265 131.424C197.157 131.528 197.013 131.589 196.862 131.595ZM188.101 121.833C188.694 123.741 189.718 125.488 191.093 126.939C192.468 128.389 194.158 129.504 196.033 130.197C194.629 126.463 190.908 123.157 188.101 121.827V121.833Z" fill="#6ABC35"/>
<path d="M196.838 140.477C196.228 135.542 191.518 130.813 188.51 129.55C188.743 131.966 189.646 134.269 191.118 136.2C192.589 138.13 194.57 139.612 196.838 140.477Z" fill="#6ABC35"/>
<path d="M196.838 141.033C196.783 141.042 196.728 141.042 196.673 141.033C194.31 140.125 192.244 138.579 190.705 136.569C189.166 134.558 188.214 132.161 187.955 129.642C187.94 129.543 187.951 129.442 187.988 129.349C188.025 129.256 188.086 129.174 188.165 129.112C188.243 129.05 188.337 129.01 188.436 128.996C188.535 128.982 188.637 128.994 188.729 129.032C191.841 130.344 196.716 135.133 197.393 140.405C197.405 140.498 197.394 140.592 197.36 140.68C197.326 140.767 197.27 140.845 197.198 140.905C197.097 140.99 196.969 141.035 196.838 141.033ZM189.236 130.545C189.579 132.489 190.382 134.322 191.577 135.892C192.772 137.463 194.324 138.726 196.106 139.575C195.178 135.731 191.878 132.107 189.236 130.545Z" fill="#6ABC35"/>
<path d="M198.101 148.233C196.063 143.559 190.169 139.911 186.911 139.294C187.849 141.622 189.371 143.668 191.332 145.234C193.292 146.8 195.624 147.833 198.101 148.233Z" fill="#6ABC35"/>
<path d="M198.101 148.794H198.046C197.717 148.763 190.011 147.94 186.393 139.52C186.354 139.426 186.341 139.323 186.355 139.223C186.369 139.122 186.409 139.027 186.472 138.947C186.536 138.867 186.62 138.807 186.716 138.773C186.812 138.739 186.915 138.731 187.015 138.751C190.383 139.362 196.447 143.053 198.607 148.013C198.646 148.103 198.661 148.201 198.65 148.299C198.639 148.396 198.604 148.489 198.546 148.568C198.495 148.638 198.428 148.695 198.35 148.734C198.273 148.773 198.188 148.794 198.101 148.794ZM187.918 140.143C188.821 141.954 190.107 143.547 191.688 144.811C193.268 146.075 195.105 146.981 197.07 147.464C195.093 143.968 190.92 141.143 187.918 140.143Z" fill="#6ABC35"/>
<path d="M200.004 158.183C197.192 153.797 190.755 150.899 187.418 150.685C192.311 158.397 200.004 158.183 200.004 158.183Z" fill="#6ABC35"/>
<path d="M199.919 158.745C198.931 158.745 191.701 158.482 186.948 150.984C186.889 150.893 186.858 150.787 186.858 150.679C186.858 150.571 186.889 150.465 186.948 150.374C187.004 150.288 187.082 150.218 187.172 150.17C187.263 150.122 187.364 150.098 187.467 150.099C190.895 150.319 197.509 153.211 200.487 157.854C200.541 157.938 200.572 158.034 200.576 158.134C200.581 158.234 200.558 158.333 200.512 158.421C200.465 158.509 200.396 158.584 200.311 158.636C200.226 158.689 200.129 158.718 200.029 158.72L199.919 158.745ZM188.601 151.423C189.808 153.081 191.338 154.477 193.1 155.525C194.862 156.574 196.819 157.254 198.851 157.524C196.277 154.333 191.713 152.058 188.601 151.417V151.423Z" fill="#6ABC35"/>
<path d="M202.677 166.566C199.205 162.527 192.372 160.373 189.041 160.538C195.105 167.64 202.677 166.566 202.677 166.566Z" fill="#6ABC35"/>
<path d="M201.505 167.189C199.065 167.189 193.397 166.506 188.62 160.905C188.546 160.824 188.498 160.722 188.481 160.614C188.465 160.505 188.481 160.394 188.528 160.295C188.571 160.199 188.638 160.116 188.724 160.056C188.811 159.995 188.912 159.96 189.016 159.953C192.433 159.789 199.425 161.906 203.104 166.176C203.169 166.252 203.213 166.345 203.23 166.444C203.247 166.542 203.238 166.644 203.202 166.738C203.165 166.832 203.105 166.914 203.027 166.977C202.949 167.04 202.855 167.082 202.756 167.098C202.341 167.152 201.924 167.183 201.505 167.189ZM190.359 161.125C193.253 164.167 197.235 165.937 201.432 166.048C198.369 163.181 193.531 161.436 190.359 161.125Z" fill="#6ABC35"/>
<path d="M206.283 174.125C201.853 170.812 194.654 169.964 191.457 170.739C199.193 176.578 206.283 174.125 206.283 174.125Z" fill="#6ABC35"/>
<path d="M202.439 175.212C198.326 175.156 194.347 173.743 191.121 171.191C191.036 171.128 190.971 171.041 190.933 170.942C190.895 170.842 190.886 170.734 190.907 170.63C190.928 170.526 190.978 170.43 191.052 170.353C191.126 170.276 191.219 170.222 191.323 170.197C194.611 169.404 201.945 170.197 206.618 173.68C206.699 173.741 206.762 173.822 206.801 173.916C206.84 174.009 206.852 174.111 206.838 174.211C206.822 174.312 206.778 174.407 206.713 174.485C206.647 174.563 206.562 174.623 206.466 174.657C205.16 175.046 203.802 175.233 202.439 175.212ZM192.909 171.081C198.064 174.474 202.774 174.236 204.904 173.87C201.254 171.812 197.092 170.844 192.909 171.081Z" fill="#6ABC35"/>
<path d="M195.374 37.0145L95.1804 45.0131C91.212 45.3338 87.5329 47.2155 84.9502 50.2454C82.3675 53.2753 81.0922 57.206 81.404 61.1751L93.2281 209.5C93.5487 213.469 95.4304 217.148 98.4603 219.731C101.49 222.313 105.421 223.589 109.39 223.277L209.602 215.278C213.57 214.958 217.249 213.076 219.832 210.046C222.415 207.016 223.69 203.085 223.378 199.116L211.542 50.7848C211.22 46.8164 209.336 43.1378 206.305 40.5562C203.274 37.9746 199.343 36.7009 195.374 37.0145ZM95.6502 51.0899L195.85 43.0913C197.02 42.9971 198.198 43.135 199.315 43.4971C200.432 43.8593 201.467 44.4384 202.36 45.2014C203.253 45.9645 203.986 46.8963 204.518 47.9434C205.05 48.9905 205.369 50.1324 205.459 51.3034L215.221 173.375C215.362 175.257 214.751 177.118 213.521 178.549C212.291 179.98 210.543 180.865 208.662 181.008L104.875 189.293C102.993 189.443 101.129 188.84 99.6921 187.616C98.2551 186.392 97.3631 184.647 97.2121 182.765L87.4503 60.687C87.3577 59.5183 87.4965 58.3428 87.8586 57.2277C88.2207 56.1126 88.7991 55.0799 89.5607 54.1886C90.3223 53.2972 91.2521 52.5647 92.297 52.0331C93.3419 51.5014 94.4814 51.1809 95.6502 51.0899Z" fill="#6ABC35"/>
<path opacity="0.7" d="M195.374 37.0145L95.1804 45.0131C91.212 45.3338 87.5329 47.2155 84.9502 50.2454C82.3675 53.2753 81.0922 57.206 81.404 61.1751L93.2281 209.5C93.5487 213.469 95.4304 217.148 98.4603 219.731C101.49 222.313 105.421 223.589 109.39 223.277L209.602 215.278C213.57 214.958 217.249 213.076 219.832 210.046C222.415 207.016 223.69 203.085 223.378 199.116L211.542 50.7848C211.22 46.8164 209.336 43.1378 206.305 40.5562C203.274 37.9746 199.343 36.7009 195.374 37.0145ZM95.6502 51.0899L195.85 43.0913C197.02 42.9971 198.198 43.135 199.315 43.4971C200.432 43.8593 201.467 44.4384 202.36 45.2014C203.253 45.9645 203.986 46.8963 204.518 47.9434C205.05 48.9905 205.369 50.1324 205.459 51.3034L215.221 173.375C215.362 175.257 214.751 177.118 213.521 178.549C212.291 179.98 210.543 180.865 208.662 181.008L104.875 189.293C102.993 189.443 101.129 188.84 99.6921 187.616C98.2551 186.392 97.3631 184.647 97.2121 182.765L87.4503 60.687C87.3577 59.5183 87.4965 58.3428 87.8586 57.2277C88.2207 56.1126 88.7991 55.0799 89.5607 54.1886C90.3223 53.2972 91.2521 52.5647 92.297 52.0331C93.3419 51.5014 94.4814 51.1809 95.6502 51.0899Z" fill="white"/>
<path d="M117.102 199.648C116.735 199.332 116.31 199.092 115.85 198.942C115.39 198.792 114.905 198.735 114.422 198.773C113.94 198.812 113.47 198.946 113.04 199.167C112.61 199.388 112.228 199.693 111.916 200.062C111.548 199.749 111.122 199.511 110.662 199.361C110.203 199.212 109.718 199.155 109.236 199.194C108.754 199.232 108.285 199.365 107.854 199.584C107.424 199.804 107.041 200.106 106.727 200.474C106.413 200.842 106.175 201.268 106.026 201.728C105.877 202.188 105.82 202.672 105.858 203.154C105.896 203.636 106.029 204.105 106.249 204.536C106.469 204.967 106.771 205.35 107.139 205.663L112.74 210.44L117.517 204.84C117.833 204.473 118.074 204.047 118.224 203.586C118.375 203.126 118.433 202.64 118.394 202.157C118.355 201.674 118.221 201.203 118 200.773C117.778 200.342 117.473 199.959 117.102 199.648Z" fill="white"/>
<path d="M137.632 205.565C138.07 204.659 138.257 203.652 138.175 202.649C138.085 201.517 137.661 200.437 136.957 199.546C136.253 198.656 135.3 197.994 134.22 197.644C133.139 197.294 131.98 197.273 130.887 197.583C129.795 197.892 128.818 198.519 128.082 199.383C127.346 200.248 126.882 201.311 126.75 202.439C126.618 203.567 126.823 204.708 127.34 205.719C127.857 206.73 128.662 207.566 129.653 208.119C130.645 208.673 131.778 208.92 132.91 208.829C133.913 208.751 134.878 208.408 135.704 207.835L138.633 208.372L137.632 205.565Z" fill="white"/>
<path d="M84.357 90.5637H84.2594C84.2012 90.5507 84.1461 90.5263 84.0973 90.492C84.0486 90.4576 84.0071 90.4139 83.9754 90.3634C83.9436 90.3129 83.9221 90.2566 83.9123 90.1978C83.9024 90.139 83.9042 90.0788 83.9177 90.0207C86.6755 77.617 97.4623 51.8213 109.14 44.5731C111.983 42.8099 114.747 42.2364 117.352 42.877C117.46 42.9143 117.55 42.9907 117.605 43.0912C117.659 43.1916 117.674 43.3088 117.647 43.4198C117.619 43.5307 117.551 43.6273 117.456 43.6906C117.361 43.7538 117.245 43.7792 117.132 43.7617C114.777 43.1516 112.252 43.7129 109.616 45.3419C98.3165 52.3582 87.4564 78.2881 84.8024 90.2159C84.7769 90.3148 84.7194 90.4026 84.6388 90.4655C84.5583 90.5284 84.4592 90.5629 84.357 90.5637Z" fill="#6ABC35"/>
<path d="M84.3386 90.1191C85.327 94.1764 83.1672 98.6608 81.288 100.101C79.4882 92.9928 84.3386 90.1191 84.3386 90.1191Z" fill="#6ABC35"/>
<path d="M81.2575 100.551C81.2071 100.56 81.1555 100.56 81.105 100.551C81.035 100.526 80.9723 100.484 80.9223 100.428C80.8723 100.373 80.8366 100.306 80.8183 100.234C78.9879 92.9128 84.0519 89.7829 84.1068 89.7585C84.1662 89.7206 84.234 89.6979 84.3043 89.6926C84.3746 89.6873 84.445 89.6994 84.5095 89.728C84.5754 89.7553 84.634 89.7977 84.6806 89.8517C84.7272 89.9058 84.7605 89.9699 84.7779 90.0391C85.8334 94.3771 83.5577 98.9712 81.5321 100.484C81.4501 100.536 81.3539 100.559 81.2575 100.551ZM84.0275 90.9055C82.9293 91.8268 80.6047 94.4015 81.5321 99.2397C82.5071 98.1019 83.2329 96.7724 83.6627 95.337C84.0925 93.9015 84.2168 92.3919 84.0275 90.9055Z" fill="#6ABC35"/>
<path d="M86.5107 82.4927C85.2904 86.3181 80.9464 89.2589 78.3961 89.7287C80.4705 83.0296 86.5107 82.4927 86.5107 82.4927Z" fill="#6ABC35"/>
<path d="M78.3961 90.1805C78.3326 90.1805 78.2697 90.1669 78.2118 90.1406C78.154 90.1143 78.1024 90.0759 78.0606 90.028C78.0094 89.9697 77.9736 89.8995 77.9565 89.8239C77.9395 89.7482 77.9417 89.6694 77.9629 89.5948C78.5016 87.6488 79.5918 85.9003 81.102 84.5601C82.6122 83.2198 84.4779 82.3452 86.4741 82.0416C86.5476 82.0355 86.6215 82.0473 86.6895 82.076C86.7575 82.1047 86.8176 82.1494 86.8645 82.2063C86.9121 82.2642 86.9443 82.3331 86.9581 82.4066C86.972 82.4802 86.9671 82.5561 86.9439 82.6273C85.6626 86.7151 81.1234 89.6863 78.4816 90.1744L78.3961 90.1805ZM85.8151 83.0727C84.2826 83.4299 82.8646 84.167 81.6918 85.2162C80.5189 86.2654 79.629 87.5928 79.1039 89.0762C81.4101 88.3075 84.5522 85.989 85.8151 83.0727Z" fill="#6ABC35"/>
<path d="M87.5112 80.7471C86.7364 84.6884 89.1403 89.4534 91.1353 91.1557C91.5808 89.2556 91.4766 87.2681 90.8349 85.425C90.1932 83.582 89.0405 81.9595 87.5112 80.7471Z" fill="#6ABC35"/>
<path d="M91.1354 91.6076C91.0274 91.6093 90.9228 91.5701 90.8425 91.4977C88.7742 89.7406 86.2362 84.8658 87.0659 80.6621C87.0799 80.5876 87.1123 80.5178 87.1603 80.4592C87.2083 80.4005 87.2702 80.3549 87.3405 80.3265C87.4113 80.2996 87.4876 80.2899 87.563 80.2984C87.6383 80.3069 87.7106 80.3333 87.7737 80.3753C89.3652 81.6458 90.5665 83.339 91.2399 85.2609C91.9133 87.1828 92.0314 89.2555 91.5808 91.2415C91.5639 91.3191 91.5276 91.3911 91.4753 91.4508C91.423 91.5106 91.3565 91.5561 91.2818 91.5832C91.2349 91.6002 91.1853 91.6084 91.1354 91.6076ZM87.8591 81.6139C87.5784 84.7865 89.2074 88.3861 90.8425 90.2165C91.0818 88.6481 90.9351 87.045 90.4152 85.546C89.8954 84.047 89.018 82.6974 87.8591 81.6139Z" fill="#6ABC35"/>
<path d="M90.2568 73.3472C89.4819 77.2885 91.8797 82.0535 93.8748 83.7557C94.3209 81.8563 94.2177 79.8691 93.5771 78.0261C92.9365 76.1831 91.7849 74.5604 90.2568 73.3472Z" fill="#6ABC35"/>
<path d="M93.8747 84.2066C93.7671 84.2061 93.6633 84.1672 93.5819 84.0968C91.5136 82.3397 88.9816 77.4649 89.8113 73.2612C89.8253 73.1867 89.8577 73.1169 89.9057 73.0583C89.9537 72.9996 90.0156 72.954 90.0859 72.9256C90.1557 72.8987 90.2311 72.889 90.3054 72.8975C90.3798 72.906 90.451 72.9324 90.513 72.9744C92.1057 74.2439 93.3078 75.9371 93.9813 77.8593C94.6548 79.7814 94.7722 81.8546 94.3201 83.8406C94.3054 83.9182 94.2707 83.9905 94.2193 84.0505C94.1679 84.1104 94.1017 84.1559 94.0272 84.1822C93.9783 84.1997 93.9266 84.208 93.8747 84.2066ZM90.5923 74.213C90.3116 77.3856 91.9345 80.9852 93.5758 82.8156C93.815 81.2472 93.6683 79.6441 93.1484 78.1451C92.6286 76.6461 91.7512 75.2965 90.5923 74.213Z" fill="#6ABC35"/>
<path d="M92.8558 67.0684C92.081 71.0097 94.4849 75.7747 96.4799 77.4403C96.9187 75.5457 96.8112 73.5655 96.1697 71.7296C95.5282 69.8937 94.3791 68.2774 92.8558 67.0684Z" fill="#6ABC35"/>
<path d="M96.48 77.9293C96.372 77.9311 96.2674 77.8918 96.1871 77.8195C94.1188 76.0563 91.5808 71.1876 92.4105 66.9778C92.4259 66.9046 92.4589 66.8363 92.5068 66.7789C92.5547 66.7214 92.6159 66.6766 92.6851 66.6483C92.7554 66.6186 92.8322 66.6075 92.908 66.6161C92.9839 66.6246 93.0563 66.6525 93.1183 66.6971C94.7055 67.9656 95.9041 69.6547 96.5773 71.5718C97.2505 73.4888 97.3711 75.5565 96.9254 77.5389C96.9085 77.6164 96.8722 77.6885 96.8199 77.7482C96.7676 77.808 96.7011 77.8535 96.6264 77.8805C96.5799 77.9029 96.5307 77.9193 96.48 77.9293ZM93.1915 67.9356C92.9108 71.1082 94.5398 74.7018 96.1749 76.5383C96.4142 74.9699 96.2675 73.3668 95.7476 71.8678C95.2278 70.3688 94.3504 69.0192 93.1915 67.9356Z" fill="#6ABC35"/>
<path d="M96.6447 60.7788C95.8638 64.7202 98.2676 69.4852 100.263 71.1874C100.709 69.2879 100.606 67.3008 99.965 65.4578C99.3244 63.6148 98.1728 61.992 96.6447 60.7788Z" fill="#6ABC35"/>
<path d="M100.263 71.6384C100.155 71.6379 100.051 71.5989 99.9698 71.5286C97.9015 69.7714 95.3695 64.8966 96.1993 60.6929C96.2133 60.6189 96.2455 60.5495 96.2932 60.4911C96.3409 60.4328 96.4024 60.3873 96.4721 60.3588C96.5419 60.3302 96.6177 60.3196 96.6925 60.3279C96.7674 60.3362 96.8391 60.3631 96.9009 60.4062C98.4935 61.6771 99.6955 63.3714 100.369 65.2945C101.042 67.2176 101.16 69.2916 100.708 71.2784C100.692 71.3549 100.657 71.426 100.606 71.4848C100.555 71.5437 100.489 71.5882 100.415 71.614C100.366 71.631 100.315 71.6392 100.263 71.6384ZM97.0107 61.6752C96.7301 64.8539 98.353 68.4475 99.9942 70.2839C100.234 68.7146 100.088 67.1103 99.5684 65.6102C99.0485 64.11 98.1706 62.7594 97.0107 61.6752Z" fill="#6ABC35"/>
<path d="M100.189 54.4336C99.1767 58.3139 101.3 63.1644 103.197 64.9398C105.015 58.1431 100.189 54.4336 100.189 54.4336Z" fill="#6ABC35"/>
<path d="M103.197 65.3912C103.082 65.3906 102.971 65.3471 102.886 65.2691C100.916 63.4388 98.6642 58.4663 99.7502 54.3237C99.7705 54.2514 99.8077 54.185 99.8586 54.1299C99.9095 54.0748 99.9727 54.0325 100.043 54.0064C100.115 53.9818 100.191 53.9756 100.266 53.9884C100.341 54.0012 100.411 54.0326 100.47 54.0796C101.993 55.4157 103.101 57.1604 103.662 59.1069C104.223 61.0534 104.214 63.12 103.637 65.0617C103.616 65.1375 103.577 65.207 103.523 65.2635C103.468 65.3201 103.4 65.3619 103.325 65.3851C103.283 65.3931 103.24 65.3952 103.197 65.3912ZM100.476 55.3059C99.9942 58.4541 101.416 62.1087 102.953 64.0062C103.293 62.4643 103.244 60.8622 102.812 59.3437C102.38 57.8251 101.577 56.4377 100.476 55.3059Z" fill="#6ABC35"/>
<path d="M105.174 48.8267C103.271 52.3836 104.289 57.4049 105.784 59.4427C109.152 53.2195 105.174 48.8267 105.174 48.8267Z" fill="#6ABC35"/>
<path d="M105.784 59.8936C105.714 59.8936 105.645 59.877 105.582 59.8452C105.52 59.8134 105.466 59.7672 105.424 59.7105C103.862 57.5873 102.74 52.3891 104.771 48.6125C104.807 48.5488 104.857 48.4942 104.918 48.453C104.978 48.4117 105.047 48.3849 105.119 48.3746C105.191 48.3663 105.264 48.3753 105.332 48.4007C105.4 48.4262 105.461 48.4674 105.51 48.521C105.552 48.5698 109.665 53.225 106.187 59.6556C106.15 59.7223 106.097 59.7789 106.034 59.8204C105.97 59.8619 105.897 59.887 105.821 59.8936H105.784ZM105.266 49.6924C104.045 52.6454 104.655 56.4037 105.741 58.5147C106.448 57.1332 106.777 55.589 106.693 54.0394C106.61 52.4897 106.117 50.9899 105.266 49.6924Z" fill="#6ABC35"/>
<path d="M88.6034 76.5259C86.3338 79.8938 81.1783 81.7485 78.5121 81.657C79.5765 79.9725 81.0759 78.6066 82.852 77.7035C84.6282 76.8004 86.6152 76.3936 88.6034 76.5259Z" fill="#6ABC35"/>
<path d="M78.7072 82.1138H78.4998C78.4192 82.1103 78.3411 82.0852 78.2735 82.0412C78.2059 81.9972 78.1513 81.9359 78.1154 81.8637C78.0734 81.7948 78.0511 81.7156 78.0511 81.6349C78.0511 81.5542 78.0734 81.475 78.1154 81.4061C79.235 79.6598 80.8012 78.2445 82.6517 77.3069C84.5021 76.3694 86.5696 75.9436 88.6399 76.0737C88.717 76.0818 88.7905 76.1104 88.8527 76.1565C88.9149 76.2027 88.9637 76.2647 88.9938 76.336C89.0269 76.406 89.041 76.4835 89.0346 76.5606C89.0282 76.6377 89.0015 76.7118 88.9572 76.7753C86.6388 80.2713 81.5077 82.1138 78.7072 82.1138ZM87.7187 76.9279C86.104 76.9527 84.5165 77.3473 83.0781 78.0813C81.6397 78.8153 80.3887 79.8692 79.4211 81.1621C81.9226 80.918 85.6443 79.3988 87.7187 76.9279Z" fill="#6ABC35"/>
<path d="M91.1414 69.3145C89.3111 72.9019 84.4607 75.2387 81.825 75.4156C82.6542 73.6308 83.9661 72.1136 85.6125 71.0355C87.2588 69.9573 89.174 69.3612 91.1414 69.3145Z" fill="#6ABC35"/>
<path d="M81.825 75.8425C81.7503 75.8424 81.6767 75.824 81.6108 75.7889C81.5449 75.7538 81.4885 75.7031 81.4467 75.6412C81.4077 75.5712 81.3872 75.4925 81.3872 75.4124C81.3872 75.3323 81.4077 75.2535 81.4467 75.1836C82.3305 73.3306 83.7107 71.7589 85.434 70.643C87.1572 69.5272 89.1561 68.911 91.2085 68.8628C91.2848 68.8655 91.3592 68.8869 91.4252 68.9252C91.4912 68.9635 91.5467 69.0175 91.5868 69.0824C91.6216 69.1504 91.6398 69.2257 91.6398 69.3021C91.6398 69.3785 91.6216 69.4537 91.5868 69.5217C89.6405 73.3471 84.6193 75.69 81.8921 75.8425H81.825ZM90.3361 69.8024C88.7484 69.9673 87.2231 70.509 85.887 71.3824C84.551 72.2557 83.4428 73.4356 82.6547 74.8236C85.0891 74.3538 88.5911 72.4808 90.3361 69.8024Z" fill="#6ABC35"/>
<path d="M94.2104 63.7378C91.3855 66.7518 85.9067 67.9354 83.2283 67.5205C84.5771 65.9964 86.2973 64.8471 88.2216 64.1843C90.146 63.5215 92.209 63.3676 94.2104 63.7378Z" fill="#6ABC35"/>
<path d="M84.4119 68.0574C84.0036 68.0587 83.5958 68.0302 83.1917 67.972C83.11 67.96 83.0332 67.9257 82.9696 67.8731C82.906 67.8204 82.8581 67.7513 82.8311 67.6733C82.804 67.5953 82.7989 67.5114 82.8162 67.4307C82.8335 67.3499 82.8726 67.2755 82.9293 67.2155C84.3247 65.6265 86.1106 64.4294 88.1106 63.7424C90.1105 63.0554 92.2552 62.9024 94.3324 63.2985C94.4092 63.3188 94.4794 63.3587 94.5361 63.4143C94.5928 63.47 94.634 63.5394 94.6557 63.6158C94.6774 63.6908 94.6792 63.7701 94.661 63.8461C94.6428 63.922 94.6053 63.9919 94.552 64.049C91.9407 66.825 87.371 68.0574 84.4119 68.0574ZM84.2594 67.1667C86.8097 67.2094 90.7632 66.1966 93.2403 64.0612C91.6075 63.8948 89.9582 64.0864 88.4071 64.6227C86.856 65.1591 85.4406 66.0272 84.2594 67.1667Z" fill="#6ABC35"/>
<path d="M98.359 56.6662C95.0278 59.247 89.3293 59.7168 86.7302 58.9725C88.3255 57.6543 90.2235 56.7534 92.2534 56.3508C94.2833 55.9482 96.3814 56.0566 98.359 56.6662Z" fill="#6ABC35"/>
<path d="M89.5369 59.7468C88.5478 59.7645 87.5608 59.6496 86.6023 59.4052C86.5218 59.3833 86.4493 59.339 86.3931 59.2774C86.3369 59.2158 86.2994 59.1395 86.285 59.0574C86.2698 58.9752 86.277 58.8904 86.306 58.812C86.335 58.7336 86.3847 58.6645 86.4497 58.612C92.4106 53.9568 98.2799 56.1716 98.5239 56.2448C98.5988 56.273 98.6648 56.3207 98.7152 56.3829C98.7656 56.4451 98.7985 56.5195 98.8107 56.5986C98.8224 56.6786 98.8128 56.7602 98.7828 56.8352C98.7528 56.9102 98.7035 56.976 98.6398 57.0257C96.114 58.9781 92.4167 59.7468 89.5369 59.7468ZM87.8591 58.734C90.4094 59.0879 94.5033 58.5937 97.3403 56.8427C95.7143 56.498 94.0351 56.4879 92.4051 56.813C90.7751 57.1382 89.2284 57.7918 87.8591 58.734Z" fill="#6ABC35"/>
<path d="M102.679 50.9985C98.9265 53.1339 93.1365 52.9265 90.6411 51.8954C97.1938 48.1249 102.679 50.9985 102.679 50.9985Z" fill="#6ABC35"/>
<path d="M95.4855 53.1338C93.7795 53.1757 92.0802 52.9069 90.4703 52.3407C90.3923 52.3075 90.3249 52.2535 90.2754 52.1847C90.226 52.1158 90.1963 52.0347 90.1897 51.9502C90.1835 51.8659 90.2014 51.7815 90.2413 51.7069C90.2813 51.6324 90.3417 51.5707 90.4154 51.5292C97.1267 47.6733 102.654 50.4981 102.886 50.6202C102.958 50.6594 103.018 50.7165 103.061 50.7861C103.104 50.8556 103.128 50.9351 103.13 51.0167C103.13 51.0983 103.109 51.1785 103.068 51.2492C103.028 51.3199 102.969 51.3786 102.898 51.4194C100.61 52.6019 98.061 53.1914 95.4855 53.1338ZM91.8248 51.816C95.08 52.5495 98.4803 52.2902 101.587 51.0717C98.3576 50.0089 94.8391 50.2677 91.8004 51.7916L91.8248 51.816Z" fill="#6ABC35"/>
<path d="M107.474 46.2089C103.203 47.5329 97.4744 46.2089 95.2719 44.769C102.734 42.414 107.474 46.2089 107.474 46.2089Z" fill="#6ABC35"/>
<path d="M103.46 47.2219C100.013 47.2219 96.6264 46.2091 95.0035 45.1475C94.9311 45.1011 94.8734 45.035 94.8373 44.9569C94.8011 44.8788 94.7881 44.792 94.7996 44.7068C94.8112 44.6215 94.8468 44.5413 94.9024 44.4756C94.958 44.41 95.0312 44.3615 95.1134 44.3361C102.746 41.9383 107.56 45.6966 107.761 45.8552C107.825 45.9075 107.873 45.9758 107.901 46.0531C107.929 46.1304 107.935 46.2138 107.92 46.2945C107.904 46.3753 107.867 46.4504 107.813 46.5117C107.758 46.573 107.687 46.6182 107.609 46.6423C106.262 47.042 104.864 47.2374 103.46 47.2219ZM96.4495 44.9035C99.5751 46.2161 103.011 46.6077 106.352 46.0322C103.313 44.4165 99.7741 44.0131 96.4495 44.9035Z" fill="#6ABC35"/>
<path d="M216.447 182.107H216.386C213.098 181.777 210.114 179.971 207.539 176.738C196.948 163.474 195.069 128.984 196.997 113.408C197.013 113.262 197.087 113.13 197.201 113.038C197.315 112.947 197.461 112.904 197.607 112.92C197.751 112.938 197.883 113.012 197.974 113.126C198.065 113.24 198.109 113.385 198.095 113.53C196.264 128.514 198.15 163.187 208.4 176.03C210.785 179.013 213.506 180.679 216.49 180.984C216.628 181.004 216.755 181.075 216.844 181.182C216.933 181.29 216.978 181.428 216.971 181.567C216.965 181.707 216.906 181.839 216.806 181.938C216.707 182.037 216.575 182.095 216.435 182.101L216.447 182.107Z" fill="#6ABC35"/>
<path d="M197.527 113.444C200.358 109.136 199.699 103.035 198.077 100.558C193.074 108.093 197.527 113.444 197.527 113.444Z" fill="#6ABC35"/>
<path d="M197.528 114.005C197.446 114.005 197.365 113.987 197.291 113.952C197.217 113.918 197.152 113.867 197.1 113.804C197.052 113.743 192.439 108.044 197.613 100.247C197.663 100.17 197.732 100.106 197.813 100.062C197.894 100.019 197.985 99.9961 198.077 99.9966C198.169 99.9972 198.261 100.02 198.342 100.064C198.424 100.107 198.494 100.17 198.546 100.247C200.243 102.84 201.03 109.136 197.997 113.749C197.95 113.822 197.886 113.882 197.811 113.926C197.736 113.969 197.651 113.994 197.564 113.999L197.528 114.005ZM198.04 101.668C194.989 106.915 196.594 110.875 197.497 112.4C198.332 110.748 198.811 108.94 198.905 107.092C198.998 105.243 198.704 103.396 198.04 101.668Z" fill="#6ABC35"/>
<path d="M196.905 123.224C197.088 118.27 193.244 113.047 190.456 111.442C190.084 120.124 196.905 123.224 196.905 123.224Z" fill="#6ABC35"/>
<path d="M196.905 123.785C196.824 123.785 196.745 123.766 196.673 123.73C196.6 123.7 189.516 120.375 189.901 111.418C189.904 111.322 189.931 111.229 189.982 111.148C190.032 111.066 190.103 111 190.188 110.954C190.271 110.905 190.366 110.879 190.462 110.879C190.559 110.879 190.654 110.905 190.737 110.954C193.61 112.614 197.662 117.946 197.448 123.236C197.442 123.381 197.38 123.518 197.276 123.619C197.171 123.721 197.032 123.778 196.887 123.779L196.905 123.785ZM191.005 112.492C191.017 114.433 191.509 116.34 192.439 118.044C193.369 119.747 194.706 121.194 196.331 122.254C196.063 118.331 193.372 114.341 191.005 112.492Z" fill="#6ABC35"/>
<path d="M197.344 125.664C198.07 120.783 202.835 116.207 205.886 115.054C204.635 123.669 197.344 125.664 197.344 125.664Z" fill="#6ABC35"/>
<path d="M197.344 126.226C197.207 126.226 197.075 126.176 196.972 126.086C196.904 126.024 196.851 125.946 196.819 125.858C196.787 125.771 196.777 125.678 196.789 125.586C197.57 120.345 202.536 115.726 205.672 114.53C205.763 114.497 205.861 114.487 205.956 114.503C206.052 114.519 206.141 114.56 206.215 114.622C206.293 114.681 206.353 114.76 206.389 114.85C206.426 114.94 206.437 115.038 206.423 115.134C206.125 117.633 205.13 119.998 203.55 121.956C201.97 123.915 199.87 125.388 197.491 126.208L197.344 126.226ZM205.129 116.019C202.463 117.477 199.083 120.986 198.095 124.799C199.892 124.016 201.472 122.808 202.697 121.278C203.923 119.749 204.758 117.944 205.129 116.019Z" fill="#6ABC35"/>
<path d="M197.472 135.414C198.205 130.533 202.963 125.957 206.014 124.804C204.763 133.419 197.472 135.414 197.472 135.414Z" fill="#6ABC35"/>
<path d="M197.472 135.975C197.393 135.974 197.314 135.956 197.242 135.922C197.169 135.889 197.105 135.84 197.053 135.779C197.001 135.719 196.962 135.647 196.94 135.571C196.918 135.494 196.912 135.414 196.923 135.334C197.698 130.094 202.665 125.475 205.801 124.279C205.892 124.246 205.99 124.236 206.086 124.251C206.182 124.266 206.273 124.305 206.35 124.365C206.425 124.426 206.483 124.507 206.518 124.598C206.554 124.688 206.565 124.787 206.551 124.883C206.25 127.38 205.253 129.742 203.675 131.699C202.097 133.657 200.001 135.132 197.625 135.957C197.575 135.969 197.524 135.975 197.472 135.975ZM205.258 125.768C202.591 127.226 199.211 130.734 198.223 134.547C200.021 133.766 201.601 132.558 202.826 131.028C204.052 129.498 204.887 127.693 205.258 125.768Z" fill="#6ABC35"/>
<path d="M197.9 143.797C198.632 138.916 203.391 134.341 206.441 133.188C205.191 141.802 197.9 143.797 197.9 143.797Z" fill="#6ABC35"/>
<path d="M197.899 144.358C197.764 144.358 197.634 144.308 197.533 144.218C197.462 144.158 197.408 144.08 197.375 143.992C197.343 143.904 197.335 143.81 197.35 143.717C198.125 138.483 203.092 133.858 206.228 132.662C206.319 132.628 206.418 132.619 206.514 132.635C206.611 132.651 206.701 132.692 206.777 132.754C206.852 132.814 206.911 132.893 206.946 132.983C206.982 133.073 206.993 133.171 206.978 133.266C206.682 135.764 205.687 138.129 204.108 140.087C202.529 142.046 200.43 143.52 198.052 144.34C198.002 144.352 197.951 144.358 197.899 144.358ZM205.685 134.151C203.018 135.609 199.638 139.117 198.65 142.93C200.448 142.15 202.029 140.942 203.255 139.412C204.481 137.882 205.315 136.076 205.685 134.151Z" fill="#6ABC35"/>
<path d="M196.862 131.034C195.642 126.153 190.389 121.882 187.247 120.881C187.787 123.283 188.965 125.493 190.658 127.28C192.35 129.067 194.494 130.364 196.862 131.034Z" fill="#6ABC35"/>
<path d="M196.862 131.595H196.746C194.28 130.888 192.047 129.535 190.28 127.675C188.513 125.814 187.276 123.515 186.698 121.015C186.674 120.918 186.676 120.817 186.704 120.721C186.732 120.625 186.785 120.539 186.858 120.47C186.931 120.402 187.02 120.354 187.118 120.332C187.215 120.31 187.317 120.314 187.412 120.344C190.658 121.375 196.081 125.725 197.399 130.893C197.424 130.985 197.425 131.083 197.401 131.176C197.378 131.269 197.331 131.354 197.265 131.424C197.157 131.528 197.013 131.589 196.862 131.595ZM188.101 121.833C188.694 123.741 189.718 125.488 191.093 126.939C192.468 128.389 194.158 129.504 196.033 130.197C194.629 126.463 190.908 123.157 188.101 121.827V121.833Z" fill="#6ABC35"/>
<path d="M196.838 140.477C196.228 135.542 191.518 130.813 188.51 129.55C188.743 131.966 189.646 134.269 191.118 136.2C192.589 138.13 194.57 139.612 196.838 140.477Z" fill="#6ABC35"/>
<path d="M196.838 141.033C196.783 141.042 196.728 141.042 196.673 141.033C194.31 140.125 192.244 138.579 190.705 136.569C189.166 134.558 188.214 132.161 187.955 129.642C187.94 129.543 187.951 129.442 187.988 129.349C188.025 129.256 188.086 129.174 188.165 129.112C188.243 129.05 188.337 129.01 188.436 128.996C188.535 128.982 188.637 128.994 188.729 129.032C191.841 130.344 196.716 135.133 197.393 140.405C197.405 140.498 197.394 140.592 197.36 140.68C197.326 140.767 197.27 140.845 197.198 140.905C197.097 140.99 196.969 141.035 196.838 141.033ZM189.236 130.545C189.579 132.489 190.382 134.322 191.577 135.892C192.772 137.463 194.324 138.726 196.106 139.575C195.178 135.731 191.878 132.107 189.236 130.545Z" fill="#6ABC35"/>
<path d="M229.693 55.623H201.719C198.565 55.623 196.008 58.1798 196.008 61.3337V78.0143C196.008 81.1682 198.565 83.725 201.719 83.725H229.693C232.847 83.725 235.403 81.1682 235.403 78.0143V61.3337C235.403 58.1798 232.847 55.623 229.693 55.623Z" fill="#6ABC35"/>
<path d="M229.699 84.0848H201.719C200.113 84.0752 198.576 83.4332 197.441 82.2979C196.306 81.1627 195.664 79.6257 195.654 78.0203V61.3336C195.664 59.7281 196.306 58.1912 197.441 57.0559C198.576 55.9207 200.113 55.2786 201.719 55.269H229.699C231.304 55.2786 232.841 55.9207 233.976 57.0559C235.112 58.1912 235.754 59.7281 235.763 61.3336V78.0203C235.754 79.6257 235.112 81.1627 233.976 82.2979C232.841 83.4332 231.304 84.0752 229.699 84.0848ZM201.719 55.9768C200.299 55.9784 198.937 56.5433 197.933 57.5475C196.929 58.5518 196.364 59.9134 196.362 61.3336V78.0203C196.364 79.4405 196.929 80.8021 197.933 81.8063C198.937 82.8106 200.299 83.3755 201.719 83.3771H229.699C231.119 83.3755 232.481 82.8106 233.485 81.8063C234.489 80.8021 235.054 79.4405 235.056 78.0203V61.3336C235.054 59.9134 234.489 58.5518 233.485 57.5475C232.481 56.5433 231.119 55.9784 229.699 55.9768H201.719Z" fill="#6ABC35"/>
<path d="M221.725 69.6743L210.84 63.3901V75.9585L221.725 69.6743Z" fill="white"/>
<path d="M109.89 125.486H67.3165C63.273 125.486 59.9951 128.764 59.9951 132.808V154.211C59.9951 158.254 63.273 161.532 67.3165 161.532H109.89C113.934 161.532 117.212 158.254 117.212 154.211V132.808C117.212 128.764 113.934 125.486 109.89 125.486Z" fill="#6ABC35"/>
<path d="M109.89 161.989H67.3165C65.2549 161.986 63.2788 161.165 61.8216 159.707C60.3644 158.249 59.5452 156.272 59.5436 154.21V132.808C59.5452 130.747 60.3646 128.77 61.822 127.313C63.2793 125.856 65.2555 125.036 67.3165 125.035H109.89C111.951 125.036 113.927 125.856 115.385 127.313C116.842 128.77 117.662 130.747 117.663 132.808V154.21C117.662 156.272 116.842 158.249 115.385 159.707C113.928 161.165 111.952 161.986 109.89 161.989ZM67.3165 125.938C65.4949 125.939 63.7485 126.664 62.4605 127.952C61.1725 129.24 60.4482 130.986 60.4466 132.808V154.21C60.4482 156.032 61.1725 157.778 62.4605 159.066C63.7485 160.354 65.4949 161.079 67.3165 161.08H109.89C111.711 161.077 113.456 160.352 114.742 159.064C116.029 157.776 116.753 156.031 116.754 154.21V132.808C116.753 130.987 116.029 129.242 114.742 127.954C113.456 126.666 111.711 125.941 109.89 125.938H67.3165Z" fill="#6ABC35"/>
<path d="M91.2697 151.886L110.568 171.184V151.886H91.2697Z" fill="#6ABC35"/>
<path d="M110.568 171.635C110.507 171.636 110.447 171.625 110.392 171.602C110.336 171.579 110.286 171.544 110.244 171.501L90.9462 152.209C90.8841 152.145 90.8418 152.064 90.8245 151.976C90.8071 151.889 90.8155 151.798 90.8486 151.715C90.8834 151.632 90.9419 151.561 91.0168 151.511C91.0917 151.461 91.1796 151.434 91.2696 151.434H110.568C110.687 151.434 110.802 151.482 110.887 151.566C110.971 151.651 111.019 151.766 111.019 151.886V171.184C111.019 171.274 110.992 171.361 110.942 171.436C110.892 171.511 110.821 171.57 110.738 171.605C110.683 171.623 110.626 171.634 110.568 171.635ZM92.3617 152.337L110.11 170.091V152.337H92.3617Z" fill="#6ABC35"/>
<path d="M88.6035 150.537C91.1374 150.537 93.1915 148.483 93.1915 145.949C93.1915 143.415 91.1374 141.361 88.6035 141.361C86.0695 141.361 84.0154 143.415 84.0154 145.949C84.0154 148.483 86.0695 150.537 88.6035 150.537Z" fill="white"/>
<path d="M100.806 148.097C103.34 148.097 105.394 146.043 105.394 143.509C105.394 140.975 103.34 138.921 100.806 138.921C98.2718 138.921 96.2177 140.975 96.2177 143.509C96.2177 146.043 98.2718 148.097 100.806 148.097Z" fill="white"/>
<path d="M76.4012 145.656C78.9351 145.656 80.9893 143.602 80.9893 141.068C80.9893 138.534 78.9351 136.48 76.4012 136.48C73.8673 136.48 71.8131 138.534 71.8131 141.068C71.8131 143.602 73.8673 145.656 76.4012 145.656Z" fill="white"/>
</g>
<defs>
<clipPath id="clip0_939_11293">
<rect width="305.058" height="305.058" fill="white" transform="translate(0.00244141 0.0522461)"/>
</clipPath>
</defs>
</svg>
