<svg width="503" height="366" viewBox="0 0 503 366" fill="none" xmlns="http://www.w3.org/2000/svg">
<mask id="path-1-inside-1_710_7236" fill="white">
<path fill-rule="evenodd" clip-rule="evenodd" d="M291.936 546.172C353.797 551.708 494.491 552.398 623.725 458.82C843.805 299.593 822.711 17.7864 821.35 3.0107C789.077 -0.197178 596.604 -15.9449 436.405 125.882C330.706 219.324 290.465 335.497 275.699 421.983C262.47 388.709 241.018 353.534 206.414 322.936C178.317 298.835 145.669 280.618 110.404 269.364C75.1384 258.11 37.9734 254.047 1.10975 257.417C0.332088 265.194 -10.944 415.478 106.484 500.438C160.574 538.078 226.641 554.337 291.936 546.172Z"/>
</mask>
<path d="M291.936 546.172L292.025 545.176L291.918 545.166L291.812 545.179L291.936 546.172ZM623.725 458.82L623.139 458.01L623.139 458.01L623.725 458.82ZM821.35 3.0107L822.346 2.91898L822.27 2.09722L821.449 2.0156L821.35 3.0107ZM436.405 125.882L437.067 126.631L437.068 126.631L436.405 125.882ZM275.699 421.983L274.769 422.352L276.085 425.661L276.684 422.151L275.699 421.983ZM206.414 322.936L207.076 322.186L207.07 322.181L207.065 322.176L206.414 322.936ZM110.404 269.364L110.1 270.317L110.404 269.364ZM1.10975 257.417L1.01872 256.421L0.196839 256.496L0.114717 257.318L1.10975 257.417ZM106.484 500.438L105.897 501.248L105.905 501.253L105.912 501.259L106.484 500.438ZM291.847 547.168C353.81 552.713 494.793 553.414 624.312 459.63L623.139 458.01C494.188 551.383 353.784 550.702 292.025 545.176L291.847 547.168ZM624.311 459.631C734.605 379.833 784.448 269.33 806.55 176.979C828.651 84.6343 823.032 10.3706 822.346 2.91898L820.354 3.10241C821.029 10.4265 826.637 84.454 804.605 176.513C782.574 268.567 732.925 378.58 623.139 458.01L624.311 459.631ZM821.449 2.0156C789.113 -1.19851 596.269 -16.9842 435.742 125.133L437.068 126.631C596.939 -14.9056 789.04 0.804151 821.251 4.00579L821.449 2.0156ZM435.742 125.133C329.819 218.773 289.504 335.186 274.713 421.815L276.684 422.151C291.427 335.808 331.592 219.876 437.067 126.631L435.742 125.133ZM205.751 323.685C240.22 354.163 261.589 389.2 274.769 422.352L276.628 421.613C263.351 388.218 241.816 352.905 207.076 322.186L205.751 323.685ZM110.1 270.317C145.237 281.53 177.767 299.681 205.763 323.695L207.065 322.176C178.866 297.989 146.1 279.706 110.708 268.411L110.1 270.317ZM1.20079 258.413C37.9312 255.055 74.9619 259.103 110.1 270.317L110.708 268.411C75.315 257.117 38.0156 253.039 1.01872 256.421L1.20079 258.413ZM107.07 499.628C48.6095 457.331 22.1689 398.765 10.4422 349.751C-1.28612 300.729 1.72314 261.333 2.10479 257.517L0.114717 257.318C-0.281294 261.278 -3.29893 300.912 8.49714 350.216C20.2949 399.528 46.93 458.585 105.897 501.248L107.07 499.628ZM291.812 545.179C226.762 553.314 160.943 537.116 107.055 499.617L105.912 501.259C160.206 539.04 226.52 555.359 292.06 547.164L291.812 545.179Z" fill="#292929" mask="url(#path-1-inside-1_710_7236)"/>
</svg>
