<svg width="305" height="284" viewBox="0 0 305 284" fill="none" xmlns="http://www.w3.org/2000/svg">
<g clip-path="url(#clip0_939_11057)">
<path d="M270.926 195.492H161.044C160.1 195.491 159.194 195.115 158.526 194.447C157.858 193.779 157.483 192.873 157.481 191.929V31.8403C157.484 30.8969 157.861 29.993 158.529 29.3265C159.196 28.6599 160.101 28.2848 161.044 28.2832H270.926C271.869 28.2848 272.774 28.6599 273.441 29.3265C274.109 29.993 274.486 30.8969 274.489 31.8403V191.929C274.487 192.873 274.111 193.779 273.444 194.447C272.776 195.115 271.87 195.491 270.926 195.492ZM161.044 28.4352C160.595 28.432 160.149 28.5177 159.733 28.6873C159.316 28.8569 158.938 29.1071 158.618 29.4235C158.299 29.74 158.046 30.1164 157.872 30.5311C157.699 30.9459 157.609 31.3908 157.609 31.8403V191.929C157.609 192.834 157.968 193.701 158.608 194.341C159.247 194.981 160.115 195.34 161.02 195.34H270.926C271.83 195.34 272.698 194.981 273.338 194.341C273.978 193.701 274.337 192.834 274.337 191.929V31.8403C274.337 30.9356 273.978 30.068 273.338 29.4283C272.698 28.7885 271.83 28.4291 270.926 28.4291L161.044 28.4352Z" fill="#F0F0F0"/>
<path d="M144.189 195.493H34.2829C33.3384 195.491 32.433 195.115 31.7651 194.447C31.0973 193.78 30.7213 192.874 30.7197 191.93V31.841C30.7213 30.8965 31.0973 29.9911 31.7651 29.3232C32.433 28.6554 33.3384 28.2794 34.2829 28.2778H144.189C145.133 28.2794 146.039 28.6554 146.707 29.3232C147.374 29.9911 147.75 30.8965 147.752 31.841V191.93C147.75 192.874 147.374 193.78 146.707 194.447C146.039 195.115 145.133 195.491 144.189 195.493ZM34.2829 28.4359C33.3793 28.4359 32.5125 28.7945 31.873 29.4329C31.2335 30.0713 30.8734 30.9374 30.8717 31.841V191.93C30.8717 192.834 31.2311 193.702 31.8709 194.342C32.5106 194.981 33.3782 195.341 34.2829 195.341H144.189C145.094 195.341 145.961 194.981 146.601 194.342C147.241 193.702 147.6 192.834 147.6 191.93V31.841C147.6 30.9363 147.241 30.0687 146.601 29.429C145.961 28.7892 145.094 28.4298 144.189 28.4298L34.2829 28.4359Z" fill="#F0F0F0"/>
<path d="M304.545 232.627H0.517578V232.779H304.545V232.627Z" fill="#E0E0E0"/>
<path d="M290.31 232.628C281.439 224.638 227.893 177.958 194.365 184.172C161.305 190.295 125.655 225.751 118.967 232.628H290.31Z" fill="#E6E6E6"/>
<path d="M199.801 232.626C190.68 220.416 144.778 155.719 110.034 159.55C80.9327 162.755 33.8571 219.942 23.7573 232.626H199.801Z" fill="#F5F5F5"/>
<path d="M37.7974 42.786C37.7974 42.786 40.8376 38.0432 47.7026 39.0282C53.3696 39.8369 55.0722 31.9261 61.0798 31.8896C67.288 31.8896 65.8712 37.4169 73.5206 38.1404C78.9019 38.6451 83.14 32.8808 86.8978 42.786H37.7974Z" fill="#F0F0F0"/>
<path d="M219.825 57.2393C219.825 57.2393 222.865 52.4965 229.73 53.4754C235.397 54.2841 237.106 46.3734 243.107 46.343C249.315 46.3065 247.899 51.8702 255.548 52.5877C260.929 53.0984 265.167 47.328 268.925 57.2393H219.825Z" fill="#F0F0F0"/>
<path d="M141.551 50.5309C142.982 44.5231 139.271 38.4934 133.263 37.0632C127.255 35.633 121.225 39.344 119.795 45.3518C118.365 51.3597 122.076 57.3894 128.084 58.8195C134.092 60.2497 140.121 56.5387 141.551 50.5309Z" fill="#F0F0F0"/>
<path d="M52.5487 130.041C52.1109 128.594 50.4935 124.295 46.0608 123.383C41.9868 122.544 38.1561 125.475 35.8272 126.922C33.4984 128.369 31.4553 128.035 27.3145 126.959C24.5113 126.235 21.6109 128.612 20.8569 130.041H52.5487Z" fill="#F0F0F0"/>
<path d="M115.239 86.0792C115.239 86.1232 115.223 86.1656 115.195 86.1996C115.167 86.2336 115.128 86.2571 115.085 86.2663C115.042 86.2755 114.997 86.2698 114.958 86.2502C114.919 86.2305 114.887 86.1981 114.868 86.1582C114.72 85.779 114.467 85.4497 114.138 85.2086C113.81 84.9675 113.42 84.8245 113.014 84.7962C112.712 84.8132 112.41 84.7502 112.14 84.6136C111.87 84.4769 111.641 84.2714 111.475 84.0179V90.7065C109.347 92.4881 105.626 91.3145 106.69 89.3201C107.754 87.3257 110.551 89.3201 110.551 89.3201V81.312H111.475C111.475 81.312 112.394 83.3003 114.054 83.4584C115.154 83.5618 115.276 85.0759 115.239 86.0792Z" fill="#E0E0E0"/>
<path d="M204.216 62.1281L198.841 59.3311V60.6141V66.2142C198.841 66.2142 196.889 64.8035 196.147 66.2142C195.405 67.6249 198.002 68.4276 199.491 67.181V61.9153L203.571 63.8915V67.7161C203.571 67.7161 201.62 66.2994 200.878 67.7161C200.136 69.1329 202.732 69.9234 204.216 68.6769V62.1099V62.1281ZM203.316 62.9794L199.777 61.2951V60.6141L203.316 62.3592V62.9794Z" fill="#E0E0E0"/>
<path d="M279.007 252.308C279.007 254.625 220.633 256.504 148.573 256.504C76.5122 256.504 18.1511 254.625 18.1511 252.308C18.1511 249.991 76.5244 248.106 148.585 248.106C220.645 248.106 279.007 249.985 279.007 252.308Z" fill="#F5F5F5"/>
<path d="M54.2818 63.5939C52.6279 64.0195 52.1901 64.6276 51.8496 66.8348C51.843 66.8662 51.8257 66.8943 51.8008 66.9145C51.7759 66.9346 51.7448 66.9457 51.7128 66.9457C51.6807 66.9457 51.6497 66.9346 51.6247 66.9145C51.5998 66.8943 51.5826 66.8662 51.576 66.8348C51.2537 64.6276 50.8159 64.0195 49.1438 63.5939C49.0975 63.5826 49.0563 63.556 49.0269 63.5186C48.9974 63.4811 48.9814 63.4348 48.9814 63.3871C48.9814 63.3395 48.9974 63.2932 49.0269 63.2557C49.0563 63.2182 49.0975 63.1917 49.1438 63.1804C50.8037 62.7548 51.2415 62.1467 51.576 59.9395C51.5826 59.9081 51.5998 59.88 51.6247 59.8598C51.6497 59.8396 51.6807 59.8286 51.7128 59.8286C51.7448 59.8286 51.7759 59.8396 51.8008 59.8598C51.8257 59.88 51.843 59.9081 51.8496 59.9395C52.1719 62.1467 52.6097 62.7548 54.2818 63.1804C54.3281 63.1917 54.3693 63.2182 54.3987 63.2557C54.4281 63.2932 54.4441 63.3395 54.4441 63.3871C54.4441 63.4348 54.4281 63.4811 54.3987 63.5186C54.3693 63.556 54.3281 63.5826 54.2818 63.5939Z" fill="#6ABC35"/>
<g opacity="0.6">
<path d="M54.2818 63.5944C52.6279 64.02 52.1901 64.6281 51.8496 66.8353C51.843 66.8667 51.8257 66.8948 51.8008 66.9149C51.7759 66.9351 51.7448 66.9461 51.7128 66.9461C51.6807 66.9461 51.6497 66.9351 51.6247 66.9149C51.5998 66.8948 51.5826 66.8667 51.576 66.8353C51.2537 64.6281 50.8159 64.02 49.1438 63.5944C49.0975 63.5831 49.0563 63.5565 49.0269 63.519C48.9974 63.4816 48.9814 63.4353 48.9814 63.3876C48.9814 63.34 48.9974 63.2937 49.0269 63.2562C49.0563 63.2187 49.0975 63.1922 49.1438 63.1809C50.8037 62.7552 51.2415 62.1472 51.576 59.94C51.5826 59.9086 51.5998 59.8805 51.6247 59.8603C51.6497 59.8401 51.6807 59.8291 51.7128 59.8291C51.7448 59.8291 51.7759 59.8401 51.8008 59.8603C51.8257 59.8805 51.843 59.9086 51.8496 59.94C52.1719 62.1472 52.6097 62.7552 54.2818 63.1809C54.3281 63.1922 54.3693 63.2187 54.3987 63.2562C54.4281 63.2937 54.4441 63.34 54.4441 63.3876C54.4441 63.4353 54.4281 63.4816 54.3987 63.519C54.3693 63.5565 54.3281 63.5831 54.2818 63.5944Z" fill="white"/>
</g>
<path d="M34.9276 78.9537C33.2676 79.3794 32.8298 79.9874 32.4954 82.1947C32.4887 82.226 32.4715 82.2541 32.4466 82.2743C32.4217 82.2945 32.3906 82.3055 32.3585 82.3055C32.3265 82.3055 32.2954 82.2945 32.2705 82.2743C32.2456 82.2541 32.2284 82.226 32.2217 82.1947C31.8995 79.9874 31.4617 79.3794 29.7895 78.9537C29.7432 78.9424 29.7021 78.9159 29.6726 78.8784C29.6432 78.8409 29.6272 78.7946 29.6272 78.747C29.6272 78.6993 29.6432 78.6531 29.6726 78.6156C29.7021 78.5781 29.7432 78.5516 29.7895 78.5403C31.4434 78.1146 31.8812 77.5066 32.2217 75.2993C32.2284 75.268 32.2456 75.2398 32.2705 75.2197C32.2954 75.1995 32.3265 75.1885 32.3585 75.1885C32.3906 75.1885 32.4217 75.1995 32.4466 75.2197C32.4715 75.2398 32.4887 75.268 32.4954 75.2993C32.8176 77.5066 33.2554 78.1146 34.9276 78.5403C34.9739 78.5516 35.015 78.5781 35.0445 78.6156C35.0739 78.6531 35.0899 78.6993 35.0899 78.747C35.0899 78.7946 35.0739 78.8409 35.0445 78.8784C35.015 78.9159 34.9739 78.9424 34.9276 78.9537Z" fill="#6ABC35"/>
<g opacity="0.6">
<path d="M34.9273 78.9518C33.2673 79.3774 32.8295 79.9855 32.4951 82.1927C32.4885 82.2241 32.4712 82.2522 32.4463 82.2724C32.4214 82.2925 32.3904 82.3036 32.3583 82.3036C32.3262 82.3036 32.2952 82.2925 32.2703 82.2724C32.2453 82.2522 32.2281 82.2241 32.2215 82.1927C31.8992 79.9855 31.4614 79.3774 29.7893 78.9518C29.743 78.9405 29.7018 78.9139 29.6724 78.8765C29.6429 78.839 29.627 78.7927 29.627 78.745C29.627 78.6974 29.6429 78.6511 29.6724 78.6136C29.7018 78.5761 29.743 78.5496 29.7893 78.5383C31.4432 78.1127 31.881 77.5046 32.2215 75.2974C32.2281 75.266 32.2453 75.2379 32.2703 75.2177C32.2952 75.1975 32.3262 75.1865 32.3583 75.1865C32.3904 75.1865 32.4214 75.1975 32.4463 75.2177C32.4712 75.2379 32.4885 75.266 32.4951 75.2974C32.8174 77.5046 33.2552 78.1127 34.9273 78.5383C34.9736 78.5496 35.0148 78.5761 35.0442 78.6136C35.0736 78.6511 35.0896 78.6974 35.0896 78.745C35.0896 78.7927 35.0736 78.839 35.0442 78.8765C35.0148 78.9139 34.9736 78.9405 34.9273 78.9518Z" fill="white"/>
</g>
<path d="M269.758 96.4682C272.446 93.7802 272.446 89.422 269.758 86.7339C267.07 84.0459 262.712 84.0459 260.024 86.7339C257.336 89.422 257.336 93.7802 260.024 96.4682C262.712 99.1563 267.07 99.1563 269.758 96.4682Z" fill="#6ABC35"/>
<path opacity="0.6" d="M269.758 96.4682C272.446 93.7802 272.446 89.422 269.758 86.7339C267.07 84.0459 262.712 84.0459 260.024 86.7339C257.336 89.422 257.336 93.7802 260.024 96.4682C262.712 99.1563 267.07 99.1563 269.758 96.4682Z" fill="white"/>
<path d="M263.367 88.0557V95.1517L268.274 91.6006L263.367 88.0557Z" fill="white"/>
<path d="M206.113 35.5745V46.9695C206.113 47.2275 206.01 47.475 205.828 47.6574C205.646 47.8399 205.398 47.9424 205.14 47.9424H193.423C193.165 47.9424 192.917 47.8399 192.735 47.6574C192.552 47.475 192.45 47.2275 192.45 46.9695V35.5745C192.45 35.3165 192.552 35.069 192.735 34.8866C192.917 34.7041 193.165 34.6016 193.423 34.6016H205.128C205.257 34.6 205.384 34.624 205.504 34.6722C205.623 34.7203 205.732 34.7918 205.824 34.8823C205.915 34.9728 205.988 35.0805 206.038 35.1994C206.087 35.3182 206.113 35.4457 206.113 35.5745Z" fill="#6ABC35"/>
<g opacity="0.6">
<path d="M206.113 35.574V46.969C206.113 47.227 206.01 47.4745 205.828 47.6569C205.646 47.8394 205.398 47.9419 205.14 47.9419H193.423C193.165 47.9419 192.917 47.8394 192.735 47.6569C192.552 47.4745 192.45 47.227 192.45 46.969V35.574C192.45 35.316 192.552 35.0686 192.735 34.8861C192.917 34.7036 193.165 34.6012 193.423 34.6012H205.128C205.257 34.5995 205.384 34.6235 205.504 34.6717C205.623 34.7199 205.732 34.7913 205.824 34.8818C205.915 34.9723 205.988 35.0801 206.038 35.1989C206.087 35.3177 206.113 35.4452 206.113 35.574Z" fill="white"/>
</g>
<path d="M202.556 41.9662C201.626 43.1002 200.522 44.0792 199.284 44.8666C198.045 44.0801 196.938 43.101 196.007 41.9662C194.84 40.3791 195.679 38.3178 197.223 38.4699C197.661 38.4999 198.083 38.648 198.444 38.8986C198.805 39.1491 199.091 39.4926 199.272 39.8927C199.449 39.4907 199.734 39.1452 200.094 38.8942C200.454 38.6432 200.877 38.4964 201.315 38.4699C202.884 38.3482 203.723 40.3548 202.556 41.9662Z" fill="white"/>
<path d="M109.809 51.7324V64.0212C109.808 64.2997 109.696 64.5663 109.499 64.7632C109.303 64.9602 109.036 65.0715 108.757 65.0731H96.1281C95.9898 65.0739 95.8526 65.0473 95.7246 64.9947C95.5966 64.9421 95.4803 64.8647 95.3825 64.7668C95.2847 64.669 95.2072 64.5527 95.1546 64.4247C95.102 64.2967 95.0754 64.1595 95.0762 64.0212V51.7324C95.0762 51.455 95.1864 51.189 95.3825 50.9929C95.5787 50.7967 95.8447 50.6865 96.122 50.6865H108.751C108.889 50.6857 109.026 50.7122 109.154 50.7643C109.282 50.8164 109.399 50.8932 109.497 50.9903C109.595 51.0875 109.673 51.203 109.727 51.3303C109.781 51.4576 109.809 51.5943 109.809 51.7324Z" fill="#6ABC35"/>
<g opacity="0.6">
<path d="M109.809 51.7334V64.0222C109.808 64.3007 109.696 64.5673 109.499 64.7642C109.303 64.9612 109.036 65.0725 108.757 65.0741H96.1281C95.9898 65.0749 95.8526 65.0482 95.7246 64.9957C95.5966 64.9431 95.4803 64.8656 95.3825 64.7678C95.2847 64.6699 95.2072 64.5537 95.1546 64.4257C95.102 64.2977 95.0754 64.1605 95.0762 64.0222V51.7334C95.0762 51.456 95.1864 51.19 95.3825 50.9938C95.5787 50.7977 95.8447 50.6875 96.122 50.6875H108.751C108.889 50.6867 109.026 50.7131 109.154 50.7653C109.282 50.8174 109.399 50.8942 109.497 50.9913C109.595 51.0884 109.673 51.204 109.727 51.3313C109.781 51.4586 109.809 51.5952 109.809 51.7334Z" fill="white"/>
</g>
<path d="M104.495 59.7161C104.278 59.7161 104.064 59.7667 103.87 59.8638C103.675 59.9609 103.506 60.1019 103.376 60.2755L100.652 58.7007C100.721 58.5349 100.756 58.3572 100.755 58.1777C100.754 58.0185 100.728 57.8604 100.676 57.7095L103.656 55.9888C103.877 56.2283 104.175 56.383 104.498 56.4263C104.821 56.4695 105.149 56.3986 105.425 56.2257C105.702 56.0528 105.909 55.7888 106.011 55.4794C106.114 55.1699 106.105 54.8344 105.986 54.5308C105.867 54.2272 105.646 53.9747 105.361 53.8167C105.076 53.6588 104.745 53.6054 104.424 53.6658C104.104 53.7262 103.815 53.8966 103.607 54.1476C103.399 54.3985 103.285 54.7142 103.285 55.0402C103.285 55.1192 103.285 55.1922 103.285 55.2591L100.178 57.0833C99.9722 56.9297 99.7283 56.8358 99.4728 56.8116C99.2173 56.7875 98.9601 56.8341 98.7294 56.9463C98.4986 57.0586 98.3032 57.2322 98.1645 57.448C98.0258 57.6639 97.9492 57.9138 97.943 58.1704C97.9369 58.4269 98.0014 58.6802 98.1296 58.9025C98.2578 59.1248 98.4446 59.3076 98.6697 59.4307C98.8948 59.5539 99.1495 59.6128 99.4058 59.601C99.6622 59.5891 99.9103 59.5069 100.123 59.3635L103.078 61.066C103.078 61.066 103.078 61.1147 103.078 61.1451C103.078 61.4229 103.161 61.6944 103.315 61.9254C103.469 62.1564 103.689 62.3364 103.945 62.4427C104.202 62.5491 104.484 62.5769 104.757 62.5227C105.029 62.4685 105.28 62.3347 105.476 62.1383C105.672 61.9418 105.806 61.6915 105.86 61.4191C105.915 61.1466 105.887 60.8642 105.781 60.6075C105.674 60.3509 105.494 60.1315 105.263 59.9772C105.032 59.8228 104.761 59.7405 104.483 59.7405L104.495 59.7161Z" fill="white"/>
<path d="M213.75 148.921L159.159 218.89H213.75V252.941H111.871V220.835L165.696 150.672H111.871V116.815H213.75V148.921Z" fill="#6ABC35"/>
<g opacity="0.3">
<path d="M213.75 148.923L159.159 218.892H213.75V252.943H111.871V220.837L165.696 150.674H111.871V116.817H213.75V148.923Z" fill="#263238"/>
</g>
<path d="M199.278 148.921L144.687 218.89H199.278V252.941H97.3989V220.835L151.224 150.672H97.3989V116.815H199.278V148.921Z" fill="#6ABC35"/>
<path d="M121.703 103.61L118.784 111.588L114.151 111.959L115.41 102.224L121.703 103.61Z" fill="#B55B52"/>
<path d="M115.708 110.797C115.708 110.797 114.899 109.848 113.944 110.189C112.99 110.529 111.792 112.104 111.792 112.104C111.792 112.104 106.635 113.794 105.225 113.885C103.814 113.977 102.61 114.773 102.227 117.534H119.411C119.411 117.534 119.757 111.326 119.8 110.237C119.842 109.149 118.237 110.499 118.237 110.499L115.708 110.797Z" fill="#6ABC35"/>
<g opacity="0.7">
<path d="M115.708 110.797C115.708 110.797 114.899 109.848 113.944 110.189C112.99 110.529 111.792 112.104 111.792 112.104C111.792 112.104 106.635 113.794 105.225 113.885C103.814 113.977 102.61 114.773 102.227 117.534H119.411C119.411 117.534 119.757 111.326 119.8 110.237C119.842 109.149 118.237 110.499 118.237 110.499L115.708 110.797Z" fill="white"/>
</g>
<path d="M119.344 116.494L105.814 116.646L102.719 116.676C102.549 116.676 102.531 116.415 102.719 116.415L116.249 116.263L119.344 116.232C119.514 116.232 119.526 116.494 119.344 116.494Z" fill="#263238"/>
<path d="M112.485 113.162C112.358 112.962 112.191 112.79 111.994 112.658C111.797 112.526 111.575 112.436 111.342 112.394C111.109 112.352 110.869 112.36 110.639 112.415C110.408 112.471 110.192 112.574 110.004 112.718C109.87 112.822 109.724 112.59 109.858 112.487C110.788 111.757 111.974 112.074 112.704 113.028C112.813 113.168 112.588 113.302 112.485 113.162Z" fill="#263238"/>
<path d="M111.026 113.612C110.899 113.411 110.733 113.239 110.536 113.106C110.339 112.973 110.117 112.883 109.883 112.841C109.65 112.8 109.41 112.807 109.179 112.863C108.949 112.92 108.733 113.024 108.545 113.168C108.417 113.272 108.271 113.041 108.399 112.937C109.335 112.208 110.521 112.524 111.25 113.478C111.354 113.618 111.129 113.752 111.026 113.612Z" fill="#263238"/>
<path d="M109.524 114.056C109.397 113.856 109.23 113.684 109.033 113.552C108.836 113.42 108.614 113.33 108.381 113.288C108.147 113.246 107.908 113.254 107.678 113.309C107.447 113.365 107.231 113.468 107.043 113.612C106.909 113.716 106.763 113.485 106.897 113.387C107.827 112.658 109.013 112.974 109.742 113.922C109.852 114.062 109.627 114.196 109.524 114.056Z" fill="#263238"/>
<path d="M160.618 104.26L160.199 104.473L158.344 105.415L144.937 112.183C144.231 110.742 143.489 109.258 142.723 107.72C141.665 105.61 140.552 103.396 139.403 101.098C136.588 95.4552 133.578 89.2895 130.708 82.68C131.182 88.1525 126.452 98.1246 121.387 107.58L112.631 107.154C112.631 107.154 120.304 61.0271 130.708 62.6081C139.221 63.8972 153.814 90.9556 158.855 100.757C159.183 101.365 159.463 101.974 159.712 102.436C160.296 103.591 160.618 104.26 160.618 104.26Z" fill="#263238"/>
<path opacity="0.2" d="M160.351 105.111L158.344 105.403L142.723 107.707C141.665 105.597 140.553 103.384 139.403 101.086C145.308 100.009 151.814 99.9425 158.861 100.757L159.329 100.812L159.718 102.436L160.205 104.473L160.351 105.111Z" fill="black"/>
<path d="M112.016 104.686L111.597 107.562L122.001 108.146L123.345 105.41L112.016 104.686Z" fill="#263238"/>
<g opacity="0.3">
<path d="M112.016 104.686L111.597 107.562L122.001 108.145L123.345 105.409L112.016 104.686Z" fill="white"/>
</g>
<path d="M141.963 68.0748C144.845 70.2395 147.898 72.6292 150.889 74.7634L148.713 78.6611C145.137 77.2942 141.643 75.7228 138.248 73.9547C137.391 73.5048 136.521 73.0365 135.67 72.5197C134.752 71.9812 133.865 71.3925 133.013 70.7563C132.467 70.3573 131.96 69.9073 131.499 69.4125C131.086 68.9764 130.741 68.4803 130.477 67.9411C130.42 67.8242 130.369 67.7045 130.325 67.5823L130.258 67.3999L130.173 67.1506C130.13 66.9803 130.088 66.8162 130.058 66.6337C130.022 66.4002 130.002 66.1646 129.997 65.9284C129.995 65.6533 130.017 65.3786 130.064 65.1075C130.085 64.9619 130.116 64.8177 130.155 64.6758C130.204 64.5045 130.263 64.336 130.331 64.1711C130.52 63.7053 130.787 63.2755 131.122 62.9003C131.44 62.5309 131.809 62.2076 132.216 61.9396C132.441 61.7868 132.675 61.6467 132.915 61.52C133.253 61.3391 133.6 61.1767 133.955 61.0336C134.563 60.7782 135.092 60.6018 135.609 60.4255C137.658 59.781 139.531 59.3492 141.434 58.9358C143.337 58.5223 145.204 58.1757 147.077 57.8838C150.835 57.2758 154.55 56.7772 158.356 56.4731L159.317 65.7946C155.705 66.2871 152.02 66.6945 148.372 67.108C146.548 67.3391 144.724 67.5276 142.96 67.7769L141.781 67.935L141.963 68.0748Z" fill="#B55B52"/>
<path d="M160.369 54.7451L145.946 57.378L149.181 68.8033L159.317 68.1953C159.317 68.1953 162.929 59.4393 160.369 54.7451Z" fill="#6ABC35"/>
<g opacity="0.3">
<path d="M160.369 54.7471L145.946 57.3799L149.181 68.8053L159.317 68.1972C159.317 68.1972 162.929 59.4413 160.369 54.7471Z" fill="white"/>
</g>
<path d="M189.306 79.8156C188.469 84.7985 187.309 89.722 185.834 94.5548C184.878 97.742 183.748 100.874 182.447 103.937C177.382 115.8 173.57 111.945 173.57 111.945C173.57 111.945 160.655 103.773 158.137 101.432C155.62 99.0909 150.184 89.8789 149.935 88.6141C149.685 87.3494 149.327 85.0996 152.58 82.716C153.199 82.245 153.749 81.6905 154.215 81.0682C156.234 78.4414 157.675 74.1911 157.919 70.2934C158.03 68.8683 157.934 67.4345 157.633 66.0371C156.35 60.5646 154.854 57.6033 158.739 55.4387C160.606 54.3928 164.674 53.6145 168.395 53.0672C174.42 52.095 180.585 53.525 185.567 57.05C187.186 58.1239 188.534 59.5578 189.507 61.2395C190.899 64.0183 190.735 71.2785 189.306 79.8156Z" fill="#6ABC35"/>
<path opacity="0.2" d="M189.306 79.8166C188.469 84.7995 187.309 89.723 185.834 94.5558C181.31 93.0843 163.47 87.0646 154.216 81.0692C156.234 78.4424 157.675 74.1921 157.919 70.2944C161.725 72.3679 176.951 80.2057 189.306 79.8166Z" fill="#263238"/>
<path d="M190.547 64.3052C191.495 68.8534 192.322 73.426 193.076 78.0107C193.83 82.5955 194.517 87.2045 195.198 91.7284L195.466 93.3702C195.5 93.6076 195.547 93.843 195.606 94.0755C195.654 94.2944 195.697 94.5072 195.776 94.7809C196.05 95.7902 196.384 96.8665 196.737 97.9428C197.436 100.101 198.166 102.29 198.932 104.473L201.863 115.418L198.166 117.492C195.934 113.363 194.87 111.229 192.827 106.997C191.824 104.875 190.82 102.74 189.872 100.557C189.398 99.4568 188.935 98.3502 188.485 97.1462C188.267 96.5868 188.011 95.772 187.841 95.2004C187.671 94.6289 187.5 93.9843 187.348 93.4371C186.132 88.8523 185.038 84.3163 184.016 79.7741C182.995 75.2319 182.095 70.6533 181.329 66.0564L190.547 64.3052Z" fill="#B55B52"/>
<path d="M209.366 117.497C210.29 117.205 210.619 116.475 209.464 115.983C207.87 115.302 206.186 114.39 204.471 113.721C202.757 113.052 198.999 114.177 198.847 114.286L198.184 117.497H209.366Z" fill="#B55B52"/>
<path d="M179.723 66.5783L182.326 80.1319L194.238 76.7268C194.238 76.7268 193.63 64.4137 189.531 61.2396C185.707 58.2602 179.973 59.9384 179.614 64.888C179.579 65.4538 179.616 66.0217 179.723 66.5783Z" fill="#B55B52"/>
<path d="M179.723 66.5783L182.326 80.1319L194.238 76.7268C194.238 76.7268 193.63 64.4137 189.531 61.2396C185.707 58.2602 179.973 59.9384 179.614 64.888C179.579 65.4538 179.616 66.0217 179.723 66.5783Z" fill="#6ABC35"/>
<g opacity="0.3">
<path d="M179.723 66.5783L182.326 80.1319L194.238 76.7268C194.238 76.7268 193.63 64.4137 189.531 61.2396C185.707 58.2602 179.973 59.9384 179.614 64.888C179.579 65.4538 179.616 66.0217 179.723 66.5783Z" fill="white"/>
</g>
<path d="M171.502 29.6459C170.609 28.6305 167.526 28.4845 166.03 30.3756C164.419 32.3882 162.351 36.146 161.111 35.1123C161.286 35.6852 161.631 36.1915 162.1 36.5639C162.569 36.9364 163.14 37.1575 163.738 37.198C163.738 37.198 162.424 38.5722 160.782 38.0188C161.053 38.8397 161.549 39.568 162.213 40.1207C162.877 40.6733 163.684 41.028 164.54 41.1442C167.362 41.6124 171.466 33.5922 172.123 32.2788C172.135 30.8134 172.025 30.8681 171.502 29.6459Z" fill="#263238"/>
<path d="M173.254 30.0152C174.501 29.8895 175.761 30.0222 176.955 30.4051C178.148 30.788 179.25 31.4129 180.192 32.2407C181.408 33.3474 182.362 34.7946 181.894 36.4971C180.806 40.4373 177.997 46.7732 177.997 46.7732L166.188 37.3119C166.188 37.3119 166.188 33.4629 168.177 31.5962C169.204 30.6233 171.381 30.2098 173.254 30.0152Z" fill="#263238"/>
<path d="M171.052 29.7797C171.052 29.7797 175.248 26.9157 180.666 31.1174C186.084 35.319 180.398 42.6157 180.398 42.6157C180.398 42.6157 178.574 45.8566 180.106 46.6897C179.557 46.8945 178.971 46.9855 178.386 46.9572C178.386 46.9572 178.896 47.9605 179.602 47.8936C179.602 47.8936 178.641 48.2524 176.969 47.4619C175.297 46.6714 171.052 29.7797 171.052 29.7797Z" fill="#263238"/>
<path d="M170.888 50.2106C170.888 50.2106 170.888 50.2106 170.888 50.2592L171.168 52.6914C171.137 53.5475 170.962 54.3923 170.651 55.1905C170.043 55.7986 169.569 57.3674 171.381 57.6228C173.661 57.9694 178.337 55.2331 178.635 54.2481C178.027 50.9706 177.674 47.1946 178.276 44.2334L175.236 46.6656L170.888 50.2106Z" fill="#B55B52"/>
<g opacity="0.2">
<path d="M170.901 50.2649L171.18 52.6972C172.7 52.2472 174.403 51.0615 174.969 49.59C175.364 48.5259 175.017 47.4253 174.585 47.3037L170.901 50.2649Z" fill="black"/>
</g>
<path d="M165.817 44.5732C165.878 45.0961 165.957 45.613 166.048 46.1298C166.869 50.6598 172.129 51.8212 175.923 49.1154C176.265 48.8679 176.588 48.5956 176.89 48.3006C179.401 45.8319 179.176 43.6246 179.559 38.7359C179.66 37.5996 179.468 36.4565 179.002 35.4153C178.537 34.374 177.812 33.4691 176.898 32.7867C175.984 32.1042 174.911 31.6669 173.78 31.5162C172.65 31.3654 171.499 31.5064 170.438 31.9256C166.097 33.6221 165.185 39.3378 165.817 44.5732Z" fill="#B55B52"/>
<path d="M170.092 46.0565H169.958C169.938 46.0522 169.92 46.0441 169.903 46.0325C169.887 46.021 169.873 46.0064 169.862 45.9894C169.851 45.9724 169.844 45.9535 169.841 45.9337C169.837 45.9139 169.838 45.8937 169.842 45.8741C169.854 45.8364 169.879 45.8044 169.913 45.7841C169.946 45.7639 169.986 45.7569 170.025 45.7647C170.312 45.8282 170.608 45.8331 170.897 45.7791C171.186 45.725 171.46 45.6131 171.705 45.45C171.949 45.287 172.158 45.0762 172.318 44.8304C172.479 44.5845 172.588 44.3087 172.64 44.0195C172.651 43.9806 172.677 43.9475 172.712 43.9271C172.747 43.9068 172.789 43.9007 172.828 43.9101C172.847 43.9157 172.865 43.925 172.881 43.9375C172.896 43.95 172.909 43.9654 172.919 43.9829C172.928 44.0004 172.934 44.0197 172.937 44.0395C172.939 44.0593 172.937 44.0794 172.931 44.0986C172.807 44.731 172.441 45.2899 171.91 45.6557C171.38 46.0216 170.727 46.1654 170.092 46.0565Z" fill="#263238"/>
<path d="M171.582 41.1924C171.334 41.0995 171.131 40.9143 171.016 40.6756C171.004 40.6376 171.007 40.5965 171.024 40.5604C171.041 40.5243 171.071 40.496 171.107 40.481C171.126 40.4743 171.145 40.4714 171.165 40.4724C171.184 40.4733 171.203 40.4782 171.221 40.4867C171.239 40.4952 171.254 40.5072 171.267 40.5219C171.28 40.5365 171.29 40.5537 171.296 40.5722C171.373 40.6994 171.479 40.8062 171.606 40.8835C171.734 40.9607 171.877 41.0062 172.026 41.0161C172.208 41.0419 172.394 41.0183 172.564 40.9478C172.734 40.8772 172.882 40.7621 172.992 40.6148C173.002 40.5952 173.017 40.5781 173.034 40.5645C173.051 40.551 173.071 40.5413 173.092 40.5362C173.114 40.5311 173.136 40.5306 173.157 40.5349C173.179 40.5392 173.199 40.5481 173.217 40.561C173.235 40.5738 173.25 40.5904 173.26 40.6095C173.271 40.6286 173.278 40.6499 173.279 40.6717C173.281 40.6936 173.278 40.7156 173.271 40.7362C173.263 40.7568 173.251 40.7755 173.236 40.7911C173.092 40.984 172.898 41.134 172.675 41.225C172.452 41.3161 172.209 41.3447 171.971 41.3079C171.837 41.2867 171.706 41.2478 171.582 41.1924Z" fill="#263238"/>
<path d="M167.033 41.1685C166.798 41.094 166.601 40.9332 166.48 40.7185C166.471 40.6839 166.475 40.6472 166.491 40.6151C166.506 40.583 166.533 40.5574 166.566 40.5429C166.598 40.5284 166.635 40.5258 166.669 40.5357C166.704 40.5456 166.734 40.5673 166.753 40.5969C166.847 40.7103 166.965 40.8016 167.097 40.8643C167.23 40.927 167.376 40.9595 167.523 40.9595C167.67 40.9595 167.815 40.927 167.948 40.8643C168.081 40.8016 168.198 40.7103 168.292 40.5969C168.303 40.581 168.316 40.5673 168.333 40.5566C168.349 40.546 168.367 40.5387 168.386 40.535C168.404 40.5313 168.424 40.5314 168.443 40.5353C168.462 40.5391 168.48 40.5466 168.496 40.5574C168.512 40.5682 168.525 40.582 168.536 40.5981C168.546 40.6141 168.554 40.6322 168.557 40.6511C168.561 40.67 168.561 40.6894 168.557 40.7083C168.553 40.7272 168.546 40.7451 168.535 40.7611C168.408 40.9378 168.235 41.0757 168.034 41.1595C167.833 41.2432 167.613 41.2695 167.398 41.2354C167.274 41.2259 167.152 41.2035 167.033 41.1685Z" fill="#263238"/>
<path d="M179.559 39.1932C179.559 39.1932 178.094 39.0472 177.844 40.2877C177.595 41.5281 177.705 41.7105 177.705 41.7105L175.929 41.82C175.929 41.82 177.109 37.1258 175.844 36.9981C174.579 36.8704 176.257 34.9307 175.546 34.5112C173.874 33.52 169.034 32.76 166.729 35.405C166.729 35.405 167.647 32.5958 170.183 31.3797C172.719 30.1636 177.395 30.5223 178.933 33.0761C180.471 35.63 179.559 39.1932 179.559 39.1932Z" fill="#263238"/>
<path d="M181.621 42.0247C181.252 43.2023 180.432 44.186 179.34 44.761C177.893 45.5089 176.835 44.2867 176.963 42.7483C177.078 41.362 177.972 39.3007 179.559 39.1912C181.146 39.0818 182.052 40.5776 181.621 42.0247Z" fill="#B55B52"/>
<path d="M178.975 41.2769L178.367 43.9523L178.927 43.8246L179.377 42.4443C179.377 42.4443 180.392 42.2376 180.313 41.7633C180.234 41.289 178.975 41.2769 178.975 41.2769Z" fill="white"/>
<path d="M166.322 39.1364C166.356 39.1374 166.391 39.1288 166.421 39.1116C166.451 39.0945 166.475 39.0694 166.492 39.0391C166.554 38.9173 166.639 38.8092 166.744 38.7214C166.848 38.6336 166.97 38.5679 167.1 38.5283C167.371 38.4743 167.653 38.522 167.891 38.6621C167.935 38.6887 167.988 38.6966 168.038 38.6841C168.088 38.6715 168.132 38.6396 168.158 38.5952C168.185 38.5509 168.193 38.4978 168.18 38.4476C168.168 38.3974 168.136 38.3543 168.091 38.3277C167.764 38.1385 167.379 38.0758 167.009 38.1513C166.826 38.2004 166.654 38.2875 166.507 38.4069C166.359 38.5263 166.238 38.6754 166.152 38.8445C166.139 38.8668 166.13 38.8915 166.127 38.9171C166.124 38.9427 166.125 38.9687 166.132 38.9936C166.139 39.0185 166.151 39.0418 166.166 39.0621C166.182 39.0825 166.202 39.0994 166.225 39.1121C166.254 39.1298 166.288 39.1382 166.322 39.1364Z" fill="#263238"/>
<path d="M173.758 39.3079H173.844C173.888 39.2834 173.922 39.2423 173.937 39.1933C173.951 39.1444 173.946 39.0916 173.923 39.0464C173.733 38.7154 173.428 38.4664 173.065 38.3471C172.883 38.3021 172.693 38.295 172.508 38.3264C172.323 38.3578 172.146 38.4269 171.989 38.5296C171.967 38.5422 171.947 38.5592 171.931 38.5795C171.915 38.5999 171.903 38.6232 171.897 38.6481C171.89 38.673 171.888 38.699 171.891 38.7245C171.895 38.7501 171.903 38.7748 171.916 38.7971C171.944 38.8403 171.986 38.8716 172.036 38.8851C172.085 38.8986 172.138 38.8932 172.184 38.8701C172.297 38.7931 172.426 38.7404 172.561 38.7152C172.696 38.6901 172.834 38.6932 172.968 38.7241C173.223 38.817 173.438 38.9954 173.576 39.2288C173.597 39.2563 173.625 39.2779 173.657 39.2917C173.689 39.3055 173.724 39.3111 173.758 39.3079Z" fill="#263238"/>
<path d="M169.411 40.3535C169.181 41.1595 168.723 41.8818 168.091 42.4331C167.076 43.2539 169.034 44.0322 169.034 44.0322L169.411 40.3535Z" fill="#A02724"/>
<path d="M138.576 163.485L138.57 171.377L134.284 173.074L133.736 163.369L138.576 163.485Z" fill="#B55B52"/>
<path d="M135.433 171.506C135.433 171.506 134.381 170.837 133.566 171.421C132.751 172.005 132.082 173.853 132.082 173.853C132.082 173.853 127.644 176.966 126.318 177.465C124.992 177.964 124.08 179.076 124.494 181.819L140.911 176.802C140.911 176.802 139.428 170.764 139.166 169.731C138.905 168.697 137.749 170.442 137.749 170.442L135.433 171.506Z" fill="#6ABC35"/>
<g opacity="0.7">
<path d="M135.433 171.506C135.433 171.506 134.381 170.837 133.566 171.421C132.751 172.005 132.082 173.853 132.082 173.853C132.082 173.853 127.644 176.966 126.318 177.465C124.992 177.964 124.08 179.076 124.494 181.819L140.911 176.802C140.911 176.802 139.428 170.764 139.166 169.731C138.905 168.697 137.749 170.442 137.749 170.442L135.433 171.506Z" fill="white"/>
</g>
<path d="M140.571 175.9L127.674 179.98L124.719 180.917C124.555 180.965 124.463 180.716 124.628 180.667L137.531 176.557L140.48 175.621C140.644 175.572 140.735 175.821 140.571 175.876V175.9Z" fill="#263238"/>
<path d="M133.037 174.733C132.858 174.577 132.648 174.461 132.421 174.391C132.194 174.321 131.954 174.299 131.719 174.327C131.483 174.355 131.255 174.432 131.051 174.554C130.846 174.675 130.67 174.838 130.532 175.031C130.441 175.165 130.234 174.989 130.325 174.855C131.006 173.882 132.235 173.839 133.207 174.539C133.353 174.642 133.177 174.837 133.037 174.733Z" fill="#263238"/>
<path d="M131.772 175.561C131.593 175.406 131.384 175.291 131.157 175.221C130.931 175.152 130.692 175.13 130.457 175.158C130.222 175.187 129.995 175.263 129.791 175.384C129.587 175.505 129.411 175.667 129.273 175.859C129.176 175.999 128.969 175.817 129.066 175.683C129.747 174.716 130.97 174.668 131.949 175.367C132.088 175.47 131.912 175.665 131.772 175.561Z" fill="#263238"/>
<path d="M130.465 176.431C130.286 176.275 130.076 176.158 129.849 176.088C129.621 176.018 129.382 175.996 129.146 176.024C128.91 176.052 128.683 176.13 128.478 176.251C128.274 176.372 128.097 176.535 127.96 176.728C127.868 176.862 127.662 176.686 127.753 176.552C128.434 175.579 129.662 175.537 130.635 176.236C130.781 176.339 130.605 176.528 130.465 176.431Z" fill="#263238"/>
<path d="M175.935 117.047L148.019 117.497C144.931 118.501 139.89 166.221 139.89 166.221H133.146C133.146 166.221 127.066 121.906 131.766 111.684C133.59 107.635 145.502 102.764 154.216 101.433C167.593 99.3895 181.876 101.846 181.9 105.5C181.943 110.973 178.069 116.968 175.935 117.047Z" fill="#263238"/>
<path d="M132.186 164.536L132.52 166.713H140.334L140.644 164.5L132.186 164.536Z" fill="#263238"/>
<g opacity="0.3">
<path d="M132.186 164.537L132.52 166.714H140.334L140.644 164.501L132.186 164.537Z" fill="white"/>
</g>
<path d="M151.753 75.5063C152.525 76.189 153.228 76.9467 153.851 77.7683C154.666 78.8081 155.523 79.6898 155.34 80.2857C155.158 80.8816 153.036 79.2094 152.847 79.0695C152.418 77.9027 152.052 76.7132 151.753 75.5063Z" fill="#B55B52"/>
<g opacity="0.2">
<path d="M151.753 75.5039C152.525 76.1866 153.228 76.9443 153.851 77.7659C154.666 78.8056 155.523 79.6873 155.34 80.2832C155.158 80.8791 153.036 79.207 152.847 79.0671C152.418 77.9003 152.052 76.7108 151.753 75.5039Z" fill="black"/>
</g>
<path d="M151.923 86.4143C151.157 86.0069 150.5 83.6294 150.5 83.6294C150.5 83.6294 151.315 85.6968 150.002 85.2408C149.205 84.9732 148.731 82.3768 148.518 81.2884C148.02 79.8048 147.302 77.9684 147.302 77.9684C147.302 77.9684 149.765 74.3992 150.859 74.8126C151.808 75.1653 153.164 77.0989 154.1 78.9656C154.276 79.271 154.426 79.5903 154.55 79.9203C154.641 80.1635 154.732 80.4189 154.818 80.7168C156.605 86.9129 152.683 86.8217 151.923 86.4143Z" fill="#B55B52"/>
<path d="M271.102 115.034C271.102 115.034 271.57 110.85 271.102 109.92C270.634 108.99 269.278 112.96 269.278 112.96L271.102 115.034Z" fill="#CE7A63"/>
<path d="M224.051 87.3261C224.051 87.3261 218.882 83.1488 223.601 79.8045C228.319 76.4602 239.228 81.5679 242.584 84.8635C245.941 88.1592 243.004 91.0414 243.004 91.0414L224.051 87.3261Z" fill="#263238"/>
<path d="M211.671 238.379L211.069 248.023L215.179 248.351L217.94 238.865L211.671 238.379Z" fill="#D5794A"/>
<path d="M214.225 247.389C214.391 247.178 214.613 247.019 214.866 246.928C215.118 246.838 215.391 246.821 215.654 246.878C216.45 247.14 217.478 248.453 217.478 248.453C217.478 248.453 221.819 249.84 222.987 249.913C224.154 249.985 224.926 250.739 225.024 252.916H210.297C210.297 252.916 210.297 247.803 210.795 246.915C211.233 246.149 212.103 247.134 212.103 247.134L214.225 247.389Z" fill="#263238"/>
<path d="M224.707 252.241L222.148 252.211L210.959 252.101C210.934 252.096 210.911 252.081 210.895 252.061C210.879 252.04 210.87 252.015 210.87 251.989C210.87 251.963 210.879 251.938 210.895 251.917C210.911 251.897 210.934 251.882 210.959 251.877H211.719C211.949 251.325 211.958 250.706 211.744 250.148C211.53 249.59 211.11 249.136 210.57 248.879C210.548 248.863 210.532 248.839 210.527 248.813C210.521 248.786 210.525 248.758 210.539 248.735C210.553 248.711 210.575 248.693 210.601 248.685C210.627 248.677 210.655 248.679 210.68 248.69C211.256 248.969 211.706 249.455 211.941 250.051C212.175 250.647 212.176 251.31 211.944 251.907H213.519L224.707 252.029C224.731 252.034 224.753 252.048 224.768 252.067C224.783 252.086 224.791 252.11 224.791 252.135C224.791 252.16 224.783 252.183 224.768 252.203C224.753 252.222 224.731 252.236 224.707 252.241Z" fill="white"/>
<path d="M216.985 249.343C217.086 249.177 217.221 249.034 217.382 248.924C217.542 248.814 217.724 248.74 217.916 248.705C218.107 248.671 218.303 248.677 218.492 248.724C218.681 248.771 218.857 248.858 219.01 248.978C219.126 249.064 219.235 248.869 219.126 248.79C218.948 248.655 218.743 248.558 218.526 248.507C218.308 248.456 218.082 248.451 217.862 248.493C217.642 248.534 217.434 248.622 217.251 248.75C217.067 248.878 216.912 249.042 216.797 249.234C216.712 249.349 216.9 249.459 216.985 249.343Z" fill="white"/>
<path d="M218.201 249.713C218.303 249.547 218.439 249.404 218.6 249.294C218.761 249.184 218.943 249.109 219.135 249.075C219.327 249.04 219.524 249.047 219.713 249.094C219.902 249.141 220.079 249.228 220.232 249.348C220.342 249.434 220.451 249.239 220.342 249.154C220.163 249.02 219.958 248.924 219.74 248.874C219.523 248.824 219.297 248.82 219.077 248.862C218.858 248.904 218.65 248.992 218.466 249.12C218.283 249.248 218.129 249.413 218.013 249.604C217.928 249.719 218.122 249.829 218.201 249.713Z" fill="white"/>
<path d="M219.484 250.084C219.585 249.917 219.72 249.774 219.88 249.663C220.04 249.553 220.222 249.477 220.413 249.442C220.605 249.407 220.801 249.413 220.99 249.46C221.179 249.506 221.356 249.593 221.509 249.713C221.625 249.798 221.734 249.609 221.625 249.524C221.446 249.389 221.241 249.293 221.022 249.242C220.804 249.191 220.577 249.187 220.357 249.229C220.137 249.272 219.928 249.36 219.744 249.488C219.56 249.617 219.405 249.782 219.29 249.974C219.211 250.084 219.399 250.199 219.484 250.084Z" fill="white"/>
<path d="M243.204 238.274L243.776 248.022L247.929 248.35L249.534 238.767L243.204 238.274Z" fill="#D5794A"/>
<path d="M246.968 247.39C247.135 247.18 247.357 247.021 247.61 246.93C247.862 246.84 248.135 246.822 248.397 246.879C249.2 247.141 250.221 248.454 250.221 248.454C250.221 248.454 254.557 249.84 255.73 249.913C256.904 249.986 257.926 250.649 258.363 252.917H244.19C244.19 252.917 243.63 247.791 243.545 246.916C243.46 246.04 244.846 247.135 244.846 247.135L246.968 247.39Z" fill="#263238"/>
<path d="M257.968 252.241L255.408 252.211L244.22 252.101C244.195 252.096 244.172 252.081 244.156 252.061C244.14 252.04 244.131 252.015 244.131 251.989C244.131 251.963 244.14 251.938 244.156 251.917C244.172 251.897 244.195 251.882 244.22 251.877H244.956C245.185 251.325 245.194 250.706 244.98 250.148C244.766 249.59 244.346 249.136 243.806 248.879C243.784 248.863 243.769 248.839 243.763 248.813C243.757 248.786 243.762 248.758 243.775 248.735C243.789 248.711 243.811 248.693 243.837 248.685C243.863 248.677 243.891 248.679 243.916 248.69C244.493 248.969 244.943 249.455 245.177 250.051C245.412 250.647 245.413 251.31 245.181 251.907H246.756L257.944 252.029C257.969 252.031 257.992 252.042 258.01 252.059C258.028 252.077 258.039 252.1 258.042 252.125C258.045 252.15 258.039 252.175 258.026 252.196C258.012 252.218 257.992 252.233 257.968 252.241Z" fill="white"/>
<path d="M249.741 249.343C249.843 249.177 249.979 249.034 250.14 248.924C250.3 248.814 250.483 248.739 250.675 248.705C250.867 248.67 251.064 248.677 251.253 248.724C251.442 248.771 251.619 248.858 251.772 248.978C251.882 249.064 251.991 248.869 251.882 248.79C251.704 248.655 251.499 248.558 251.281 248.507C251.064 248.456 250.838 248.451 250.618 248.493C250.398 248.534 250.19 248.622 250.006 248.75C249.823 248.878 249.668 249.042 249.553 249.234C249.474 249.349 249.662 249.459 249.741 249.343Z" fill="white"/>
<path d="M250.963 249.713C251.065 249.547 251.201 249.404 251.362 249.294C251.523 249.184 251.705 249.109 251.897 249.075C252.089 249.04 252.286 249.047 252.475 249.094C252.664 249.141 252.841 249.228 252.994 249.348C253.11 249.434 253.219 249.239 253.104 249.154C252.925 249.02 252.72 248.924 252.502 248.874C252.285 248.824 252.059 248.82 251.839 248.862C251.62 248.904 251.412 248.992 251.228 249.12C251.045 249.248 250.891 249.413 250.775 249.604C250.696 249.719 250.884 249.829 250.963 249.713Z" fill="white"/>
<path d="M252.252 250.083C252.354 249.917 252.489 249.773 252.65 249.662C252.81 249.552 252.993 249.477 253.184 249.441C253.376 249.406 253.573 249.412 253.763 249.459C253.952 249.506 254.13 249.592 254.283 249.712C254.393 249.798 254.502 249.609 254.393 249.524C254.214 249.389 254.01 249.293 253.792 249.242C253.574 249.191 253.348 249.187 253.128 249.229C252.908 249.272 252.7 249.36 252.517 249.488C252.333 249.616 252.179 249.782 252.064 249.974C251.979 250.083 252.173 250.199 252.252 250.083Z" fill="white"/>
<path d="M252.946 134.128C252.946 134.128 255.299 169.298 255.141 183.6C254.976 198.479 250.124 241.766 250.124 241.766H242.177C242.177 241.766 240.712 199.239 240 184.609C239.228 168.684 234.467 134.141 234.467 134.141L252.946 134.128Z" fill="#6ABC35"/>
<path opacity="0.3" d="M255.141 183.6C254.976 198.479 250.124 241.766 250.124 241.766H242.177C242.177 241.766 240.712 199.239 240 184.609C239.775 179.885 239.191 173.512 238.486 166.891C237.878 161.047 237.148 155.009 236.498 149.731C235.397 140.842 234.467 134.11 234.467 134.11H252.946C252.946 134.11 255.293 169.298 255.141 183.6Z" fill="white"/>
<path opacity="0.2" d="M238.486 166.908C237.878 161.065 237.148 155.027 236.498 149.749L237.428 144.179C237.428 144.179 240.541 152.874 238.486 166.908Z" fill="#263238"/>
<path d="M241.581 239.363C241.581 240.221 241.66 241.929 241.66 241.929H250.817L251.091 239.363H241.581Z" fill="#263238"/>
<path d="M239.319 134.128C239.319 134.128 236.887 170.004 234.315 183.423C231.475 198.126 218.59 241.766 218.59 241.766H209.999C209.999 241.766 215.514 199.427 216.985 184.865C218.578 169.055 221.132 136.877 221.132 136.877L239.319 134.128Z" fill="#6ABC35"/>
<path opacity="0.3" d="M239.319 134.128C239.319 134.128 236.887 170.004 234.315 183.423C231.475 198.126 218.59 241.766 218.59 241.766H209.999C209.999 241.766 215.514 199.427 216.985 184.865C218.578 169.055 221.132 136.877 221.132 136.877L239.319 134.128Z" fill="white"/>
<path d="M212.084 239.686C212.102 239.685 212.119 239.678 212.132 239.666C212.146 239.654 212.154 239.637 212.157 239.62C212.224 239.182 218.335 201.349 219.655 188.269C221.083 174.071 224.063 142.598 224.093 142.282C224.095 142.271 224.094 142.26 224.092 142.25C224.089 142.239 224.084 142.229 224.077 142.22C224.07 142.212 224.062 142.205 224.052 142.2C224.042 142.195 224.031 142.192 224.02 142.191C224 142.191 223.98 142.198 223.964 142.211C223.948 142.225 223.938 142.243 223.935 142.264C223.905 142.58 220.925 174.053 219.496 188.245C218.201 201.324 212.06 239.188 211.999 239.595C211.997 239.606 211.998 239.616 212 239.626C212.003 239.637 212.007 239.646 212.013 239.655C212.02 239.663 212.027 239.671 212.037 239.676C212.046 239.681 212.056 239.685 212.066 239.686H212.084Z" fill="#263238"/>
<path d="M209.615 239.304C209.53 240.179 209.396 241.931 209.396 241.931H219.46L220.068 239.304H209.615Z" fill="#263238"/>
<path d="M270.287 117.127C270.151 119.452 269.879 121.766 269.472 124.059C269.253 125.226 268.992 126.406 268.627 127.671C268.425 128.361 268.177 129.038 267.885 129.695C267.71 130.114 267.507 130.52 267.277 130.912C266.908 131.52 266.451 132.071 265.921 132.547C265.264 133.14 264.478 133.573 263.626 133.812C262.774 134.051 261.878 134.091 261.008 133.928C260.734 133.872 260.463 133.797 260.2 133.703C259.963 133.617 259.731 133.517 259.506 133.405C259.297 133.294 259.094 133.172 258.898 133.04C258.71 132.906 258.491 132.736 258.424 132.681L258.138 132.432L257.998 132.298L257.907 132.219L257.561 131.866C256.953 131.179 256.576 130.705 256.217 130.237L256.077 130.054C255.299 129.021 254.642 128.06 253.985 127.093L253.633 126.552C252.483 124.807 251.425 123.068 250.355 121.335C249.206 119.413 248.093 117.48 246.993 115.546C245.892 113.612 244.828 111.667 243.812 109.703C241.739 105.775 239.769 101.834 237.987 97.7483L248.981 90.1841C250.975 94.0452 253.718 99.9677 255.53 103.938C256.454 105.914 257.311 107.921 258.223 109.897L260.856 115.862C261.385 117.078 261.926 118.294 262.468 119.511C262.972 118.294 263.465 117.048 263.957 115.862L270.287 117.127Z" fill="#263238"/>
<path opacity="0.2" d="M256.18 130.231L256.04 130.048C255.262 129.015 254.605 128.054 253.949 127.087L253.596 126.546L252.38 103.829C252.38 103.829 255.353 121.9 256.18 130.231Z" fill="black"/>
<path d="M259.385 119.072L259.336 114.505C259.376 114.067 259.536 113.648 259.798 113.294C260.061 112.941 260.417 112.668 260.826 112.505L269.886 109.817C269.982 109.776 270.088 109.76 270.192 109.772C270.296 109.783 270.395 109.821 270.48 109.883C270.565 109.944 270.633 110.026 270.677 110.121C270.721 110.216 270.74 110.321 270.731 110.425L270.78 114.992C270.741 115.429 270.581 115.846 270.319 116.198C270.058 116.55 269.703 116.823 269.296 116.986L260.218 119.674C260.123 119.712 260.019 119.725 259.918 119.713C259.816 119.7 259.719 119.662 259.636 119.602C259.552 119.542 259.486 119.462 259.442 119.369C259.398 119.276 259.379 119.174 259.385 119.072Z" fill="#6ABC35"/>
<g opacity="0.4">
<path d="M259.385 119.073L259.336 114.507C259.376 114.068 259.536 113.649 259.798 113.296C260.061 112.943 260.417 112.669 260.826 112.506L269.886 109.819C269.982 109.777 270.088 109.762 270.192 109.773C270.296 109.785 270.395 109.823 270.48 109.884C270.565 109.945 270.633 110.027 270.677 110.122C270.721 110.217 270.74 110.322 270.731 110.427L270.78 114.993C270.741 115.43 270.581 115.848 270.319 116.2C270.058 116.552 269.703 116.824 269.296 116.987L260.218 119.675C260.123 119.713 260.019 119.727 259.918 119.714C259.816 119.702 259.719 119.664 259.636 119.603C259.552 119.543 259.486 119.463 259.442 119.371C259.398 119.278 259.379 119.175 259.385 119.073Z" fill="#263238"/>
</g>
<path d="M259.391 119.534L259.342 114.968C259.38 114.53 259.539 114.111 259.801 113.757C260.063 113.404 260.418 113.131 260.826 112.967L269.886 110.279C269.982 110.238 270.088 110.223 270.192 110.234C270.296 110.246 270.395 110.284 270.48 110.345C270.565 110.406 270.633 110.488 270.677 110.583C270.721 110.678 270.74 110.783 270.731 110.888L270.78 115.454C270.742 115.893 270.582 116.313 270.319 116.666C270.056 117.019 269.7 117.292 269.29 117.455L260.218 120.142C260.122 120.179 260.019 120.192 259.918 120.178C259.816 120.165 259.72 120.126 259.637 120.065C259.555 120.005 259.489 119.924 259.446 119.831C259.403 119.738 259.384 119.636 259.391 119.534Z" fill="#6ABC35"/>
<g opacity="0.4">
<path d="M265.435 115.96C264.875 116.185 264.419 115.96 264.413 115.498C264.447 115.211 264.558 114.939 264.737 114.712C264.915 114.484 265.152 114.31 265.423 114.209C265.982 113.984 266.438 114.209 266.444 114.671C266.411 114.958 266.299 115.23 266.121 115.458C265.943 115.685 265.705 115.859 265.435 115.96Z" fill="#263238"/>
</g>
<path d="M269.4 112.195C269.12 112.298 268.871 112.195 268.852 111.915C268.854 111.772 268.901 111.633 268.986 111.517C269.071 111.401 269.19 111.315 269.327 111.271C269.606 111.174 269.856 111.301 269.874 111.557C269.873 111.7 269.826 111.838 269.741 111.953C269.655 112.068 269.536 112.153 269.4 112.195Z" fill="#6ABC35"/>
<g opacity="0.3">
<path d="M269.399 112.195C269.12 112.298 268.87 112.195 268.852 111.915C268.854 111.771 268.901 111.632 268.986 111.516C269.071 111.401 269.19 111.315 269.326 111.27C269.606 111.173 269.855 111.301 269.874 111.556C269.872 111.699 269.826 111.838 269.74 111.953C269.655 112.067 269.536 112.152 269.399 112.195Z" fill="#263238"/>
</g>
<path d="M253.012 142.883C242.432 145.285 231.432 145.255 220.086 143.248C219.415 143.121 218.815 142.752 218.4 142.21C217.985 141.668 217.784 140.992 217.836 140.311C217.915 139.174 218.037 137.769 218.183 136.134L218.438 133.148C218.846 128.247 219.314 121.978 219.454 115.186C219.454 113.97 219.484 112.754 219.484 111.502C219.484 110.893 219.484 110.225 219.484 109.586C219.484 108.613 219.484 107.634 219.429 106.655C219.325 102.058 218.959 97.4696 218.335 92.9133C218.222 92.2046 218.25 91.4804 218.419 90.7828C218.587 90.0851 218.892 89.4278 219.316 88.8488C219.74 88.2698 220.275 87.7806 220.889 87.4095C221.504 87.0384 222.185 86.7928 222.895 86.6868C224.318 86.4983 225.881 86.3402 227.425 86.2612C231.645 86.0086 235.877 86.0086 240.097 86.2612C241.455 86.3877 242.805 86.5907 244.141 86.8692C246.226 87.3192 248.58 89.0096 249.449 91.0162C253.809 101.122 253.657 123.954 254.009 139.363C254.028 140.719 254.277 142.597 253.012 142.883Z" fill="#263238"/>
<path opacity="0.2" d="M225.157 101.159C223.601 105.737 221.898 110.14 219.472 113.721C219.472 113.113 219.472 110.207 219.472 109.568C219.472 108.595 219.472 107.616 219.417 106.637L225.157 101.159Z" fill="black"/>
<path d="M250.281 77.3758C250.535 74.8431 248.846 72.5993 246.507 72.3642C244.168 72.1291 242.065 73.9917 241.811 76.5244C241.556 79.0572 243.246 81.3009 245.585 81.5361C247.924 81.7712 250.026 79.9086 250.281 77.3758Z" fill="#263238"/>
<g opacity="0.2">
<path d="M250.281 77.3768C250.535 74.844 248.846 72.6002 246.507 72.3651C244.168 72.13 242.065 73.9926 241.811 76.5254C241.556 79.0581 243.246 81.3019 245.585 81.537C247.924 81.7721 250.026 79.9095 250.281 77.3768Z" fill="white"/>
</g>
<path d="M235.58 66.9684C235.58 66.9684 236.905 63.2228 238.012 63.5633C239.118 63.9038 238.462 65.2537 238.462 65.2537C238.462 65.2537 240.383 62.5965 241.551 62.785C242.718 62.9735 242.335 64.3842 242.335 64.3842C242.335 64.3842 244.98 63.2228 245.734 63.9464C246.488 64.6699 245.248 65.4969 245.248 65.4969C245.248 65.4969 248.811 64.9253 249.346 65.7705C249.881 66.6157 247.941 66.9866 247.941 66.9866C247.941 66.9866 250.939 67.394 250.939 68.9446C250.949 69.1404 250.914 69.3358 250.836 69.5158C250.758 69.6958 250.64 69.8555 250.491 69.9825C250.342 70.1095 250.165 70.2004 249.975 70.2482C249.785 70.2959 249.586 70.2993 249.395 70.258C249.395 70.258 251.377 71.9909 250.939 73.055C250.501 74.1191 249.2 73.359 249.2 73.359C249.2 73.359 249.358 75.6818 247.947 75.2136C247.059 74.8939 246.287 74.3132 245.734 73.5475L235.58 66.9684Z" fill="#263238"/>
<path d="M243.132 66.4217C242.071 65.9754 240.929 65.7526 239.778 65.7673C238.628 65.7819 237.492 66.0337 236.443 66.5068C235.069 67.1148 233.853 68.1607 233.81 69.766C233.836 73.1278 234.051 76.4855 234.455 79.8232L247.364 74.6973C247.364 74.6973 248.379 71.3165 247.157 69.1458C246.5 68.0148 244.694 67.0662 243.132 66.4217Z" fill="#263238"/>
<path d="M239.745 84.7405V84.783L238.857 86.8139C238.743 87.2335 238.669 87.6632 238.638 88.0969C238.614 88.4472 238.614 88.7986 238.638 89.1489C238.972 90.1643 239.003 91.3439 237.343 91.0946C235.251 90.7785 231.87 87.124 231.87 86.1816C233.287 83.4696 234.613 80.253 234.911 77.4985L236.893 80.4537L239.745 84.7405Z" fill="#CE7A63"/>
<g opacity="0.2">
<path d="M239.72 84.7843L238.833 86.8152C237.616 86.0187 236.443 84.5168 236.346 83.0696C236.285 82.0298 236.881 81.1603 237.3 81.1725L239.72 84.7843Z" fill="black"/>
</g>
<path d="M245.71 81.1593C245.515 81.6032 245.308 82.0349 245.102 82.4605C243.162 86.2122 238.224 85.8109 235.64 82.424C235.413 82.1155 235.21 81.7902 235.032 81.4511C233.5 78.6115 234.29 76.7326 235.269 72.3303C235.485 71.3086 235.959 70.3592 236.646 69.5723C237.332 68.7853 238.208 68.187 239.191 67.8342C240.174 67.4814 241.231 67.3858 242.261 67.5565C243.291 67.7273 244.261 68.1587 245.077 68.8097C248.415 71.4851 247.674 76.7387 245.71 81.1593Z" fill="#CE7A63"/>
<path d="M242.688 81.4589H242.809C242.826 81.4606 242.844 81.4587 242.86 81.4534C242.877 81.4481 242.892 81.4395 242.905 81.4281C242.918 81.4168 242.929 81.4028 242.937 81.3872C242.944 81.3716 242.948 81.3546 242.949 81.3373C242.95 81.3197 242.947 81.3021 242.941 81.2856C242.935 81.2691 242.926 81.2539 242.914 81.2409C242.902 81.2279 242.888 81.2174 242.872 81.2099C242.856 81.2025 242.839 81.1982 242.821 81.1974C242.559 81.1832 242.303 81.1158 242.067 80.9995C241.832 80.8832 241.623 80.7204 241.452 80.5209C241.282 80.3213 241.153 80.0892 241.075 79.8387C240.997 79.5881 240.97 79.3243 240.997 79.0632C240.999 79.0457 240.997 79.028 240.991 79.0114C240.986 78.9947 240.976 78.9796 240.964 78.9668C240.952 78.9541 240.937 78.9442 240.921 78.9377C240.905 78.9313 240.887 78.9284 240.87 78.9294C240.852 78.9286 240.834 78.9312 240.818 78.9372C240.801 78.9432 240.786 78.9524 240.773 78.9642C240.76 78.9761 240.75 78.9904 240.742 79.0063C240.735 79.0223 240.73 79.0395 240.73 79.0571C240.672 79.635 240.845 80.2123 241.212 80.6625C241.579 81.1126 242.11 81.399 242.688 81.4589Z" fill="#263238"/>
<path d="M235.111 72.7385C235.111 72.7385 236.443 73.0121 236.327 74.1613C236.212 75.3105 236.066 75.4504 236.066 75.4504L237.592 76.022C237.592 76.022 237.823 71.5892 238.966 71.8203C240.11 72.0514 239.161 69.8989 239.897 69.7225C241.63 69.303 246.081 69.9414 247.388 72.8783C247.309 71.2053 246.619 69.6194 245.448 68.4213C243.557 66.6762 239.368 65.7276 237.319 67.5457C235.269 69.3638 235.111 72.7385 235.111 72.7385Z" fill="#263238"/>
<path d="M232.545 74.6723C232.547 75.2321 232.659 75.7861 232.875 76.3026C233.091 76.819 233.406 77.2878 233.804 77.6821C234.874 78.728 236.127 77.9436 236.431 76.5633C236.704 75.3107 236.473 73.2676 235.111 72.7386C234.811 72.6294 234.489 72.5969 234.173 72.6441C233.857 72.6912 233.558 72.8166 233.303 73.0087C233.048 73.2009 232.845 73.4537 232.713 73.7442C232.581 74.0348 232.523 74.3538 232.545 74.6723Z" fill="#CE7A63"/>
<path d="M241.484 75.8522C241.38 76.2049 241.484 76.5393 241.715 76.6062C241.946 76.6731 242.207 76.442 242.323 76.0954C242.438 75.7489 242.323 75.4023 242.092 75.3415C241.861 75.2806 241.593 75.5056 241.484 75.8522Z" fill="#263238"/>
<path d="M245.339 76.9159C245.235 77.2685 245.339 77.609 245.57 77.6759C245.801 77.7428 246.068 77.5118 246.178 77.1591C246.287 76.8064 246.178 76.472 245.947 76.4051C245.716 76.3382 245.454 76.5693 245.339 76.9159Z" fill="#263238"/>
<path d="M246.737 76.2288C246.706 76.2202 246.679 76.203 246.657 76.1794C246.636 76.1557 246.621 76.1265 246.616 76.095C246.593 75.972 246.545 75.8548 246.476 75.7504C246.408 75.6459 246.318 75.5564 246.214 75.487C245.99 75.3708 245.732 75.3364 245.485 75.3897C245.461 75.3979 245.437 75.4013 245.412 75.3994C245.388 75.3976 245.364 75.3907 245.342 75.3791C245.32 75.3674 245.301 75.3514 245.286 75.332C245.271 75.3126 245.26 75.2902 245.254 75.2664C245.248 75.2425 245.247 75.2176 245.252 75.1934C245.256 75.1691 245.265 75.1461 245.279 75.1256C245.292 75.1051 245.31 75.0878 245.331 75.0746C245.352 75.0614 245.375 75.0528 245.399 75.0492C245.737 74.9691 246.092 75.0167 246.397 75.1829C246.544 75.2758 246.671 75.3984 246.768 75.5429C246.865 75.6873 246.931 75.8506 246.962 76.0221C246.971 76.0679 246.963 76.1156 246.938 76.1552C246.913 76.1948 246.874 76.2233 246.828 76.2349L246.737 76.2288Z" fill="#263238"/>
<path d="M240.699 74.6373C240.674 74.629 240.651 74.6143 240.632 74.5947C240.599 74.5616 240.581 74.5168 240.581 74.4701C240.581 74.4233 240.599 74.3785 240.632 74.3454C240.872 74.0935 241.198 73.9396 241.545 73.9137C241.719 73.9113 241.891 73.9453 242.051 74.0133C242.211 74.0814 242.356 74.182 242.475 74.3089C242.506 74.3427 242.524 74.3873 242.524 74.4336C242.524 74.4799 242.506 74.5244 242.475 74.5582C242.441 74.5916 242.395 74.6104 242.347 74.6104C242.299 74.6104 242.254 74.5916 242.219 74.5582C242.134 74.4653 242.031 74.3909 241.916 74.3397C241.801 74.2884 241.677 74.2614 241.551 74.2603C241.298 74.2848 241.063 74.3992 240.888 74.5825C240.865 74.6087 240.835 74.6277 240.802 74.6374C240.768 74.6471 240.733 74.6471 240.699 74.6373Z" fill="#263238"/>
<path d="M243.703 76.4727C243.85 77.561 244.156 78.6221 244.609 79.6224C244.688 79.7683 243.046 79.7987 243.046 79.7987L243.703 76.4727Z" fill="#BA4D3C"/>
<path d="M233.725 90.7732C234.284 98.3557 234.704 105.975 234.704 113.575C234.704 115.497 234.704 117.424 234.564 119.346C234.564 119.589 234.929 119.589 234.947 119.346C235.391 111.769 234.947 104.108 234.491 96.5437C234.376 94.6222 234.248 92.6947 234.108 90.7732C234.108 90.53 233.707 90.53 233.725 90.7732Z" fill="white"/>
<path d="M240.541 90.8229C241.362 98.381 242.049 105.976 242.323 113.57C242.39 115.498 242.432 117.419 242.383 119.347C242.383 119.59 242.76 119.578 242.767 119.347C242.943 111.758 242.219 104.115 241.508 96.5751C241.325 94.6537 241.123 92.7363 240.9 90.8229C240.869 90.5797 240.492 90.5918 240.517 90.8229H240.541Z" fill="white"/>
<path d="M236.948 71.668C236.948 71.668 246.537 73.6745 247.966 75.1947C248.902 76.1919 247.923 78.5633 247.358 79.4146C246.981 79.974 244.925 79.9618 244.396 78.9889C243.867 78.016 244.025 78.0708 243.496 77.8275C242.967 77.5843 242.457 78.2349 241.593 78.2653C240.73 78.2958 238.723 77.6147 238.304 76.4837C237.884 75.3528 238.273 74.8116 237.325 74.5562L235.798 74.1853C235.658 74.1531 235.526 74.0924 235.411 74.0072C235.295 73.922 235.198 73.8139 235.125 73.6897C235.053 73.5655 235.007 73.4277 234.99 73.285C234.973 73.1422 234.985 72.9975 235.026 72.8597C235.196 72.2882 235.507 71.6436 236.054 71.5342L236.948 71.668Z" fill="#6ABC35"/>
<g opacity="0.4">
<path d="M247.122 76.1994L240.736 74.171C240.364 74.0531 239.968 74.2585 239.85 74.6298L239.832 74.6877C239.714 75.059 239.919 75.4556 240.29 75.5735L246.677 77.6018C247.048 77.7197 247.445 77.5144 247.562 77.1431L247.581 77.0851C247.699 76.7139 247.493 76.3173 247.122 76.1994Z" fill="black"/>
</g>
<path d="M230.222 73.1039C230.21 73.9293 230.439 74.7404 230.879 75.4384C231.32 76.1364 231.954 76.6912 232.705 77.0351C233.455 77.379 234.29 77.4973 235.106 77.3756C235.923 77.2538 236.686 76.8972 237.304 76.3493C237.921 75.8013 238.366 75.0857 238.584 74.2894C238.802 73.4932 238.783 72.6508 238.531 71.8648C238.279 71.0787 237.803 70.3831 237.163 69.8625C236.522 69.3419 235.744 69.0188 234.923 68.9326C233.746 68.8628 232.59 69.263 231.709 70.0452C230.828 70.8274 230.293 71.9276 230.222 73.1039Z" fill="#263238"/>
<g opacity="0.2">
<path d="M230.222 73.1039C230.21 73.9293 230.439 74.7404 230.879 75.4384C231.32 76.1364 231.954 76.6912 232.705 77.0351C233.455 77.379 234.29 77.4973 235.106 77.3756C235.923 77.2538 236.686 76.8972 237.304 76.3493C237.921 75.8013 238.366 75.0857 238.584 74.2894C238.802 73.4932 238.783 72.6508 238.531 71.8648C238.279 71.0787 237.803 70.3831 237.163 69.8625C236.522 69.3419 235.744 69.0188 234.923 68.9326C233.746 68.8628 232.59 69.263 231.709 70.0452C230.828 70.8274 230.293 71.9276 230.222 73.1039Z" fill="white"/>
</g>
<g opacity="0.2">
<path d="M230.6 73.0507C230.587 73.6099 230.738 74.1607 231.033 74.6355C231.329 75.1104 231.757 75.4887 232.264 75.7242C232.772 75.9597 233.337 76.0421 233.89 75.9614C234.444 75.8806 234.962 75.6402 235.381 75.2696C235.8 74.8989 236.101 74.4142 236.249 73.8747C236.397 73.3351 236.384 72.7642 236.212 72.2319C236.04 71.6996 235.717 71.2289 235.282 70.8775C234.846 70.5261 234.318 70.3093 233.761 70.2536C232.971 70.2054 232.194 70.4729 231.601 70.9974C231.008 71.522 230.648 72.2605 230.6 73.0507Z" fill="white"/>
</g>
<path d="M235.604 69.6127L235.172 69.5033C235.172 69.4607 236.34 65.1435 242.317 64.1646L242.384 64.6024C236.698 65.5327 235.61 69.5702 235.604 69.6127Z" fill="white"/>
<path d="M270.968 118.628C270.728 118.866 270.406 119.002 270.068 119.011C268.761 119.242 264.845 119.857 264.541 119.121C264.182 118.233 265.715 117.82 265.715 117.82C265.143 117.633 264.654 117.253 264.334 116.744C264.013 116.236 263.88 115.631 263.957 115.035C264.243 113.028 269.387 111.994 271.041 112.298C271.57 112.408 272.385 116.701 270.968 118.628Z" fill="#CE7A63"/>
<path d="M216.566 123.152C219.843 125.432 224.008 127.408 227.979 129.233L226.513 134.766C224.103 134.458 221.714 133.997 219.363 133.386C216.925 132.776 214.543 131.962 212.242 130.953C210.97 130.371 209.75 129.681 208.594 128.892C207.899 128.423 207.247 127.892 206.648 127.305C205.908 126.589 205.275 125.77 204.769 124.873C204.629 124.605 204.49 124.338 204.362 124.034L204.271 123.809L204.222 123.693L204.167 123.523C204.094 123.298 204.034 123.067 203.973 122.836C203.826 122.155 203.756 121.459 203.766 120.762C203.785 119.832 203.894 118.905 204.094 117.996C204.397 116.619 204.803 115.267 205.31 113.952C206.186 111.623 207.188 109.343 208.314 107.124C209.393 104.963 210.524 102.861 211.707 100.818C214.073 96.7016 216.535 92.7736 219.308 88.876L228.842 95.4004C226.465 99.1278 223.978 102.959 221.619 106.735C220.439 108.632 219.278 110.529 218.177 112.42C217.076 114.311 216.031 116.202 215.179 118.014C214.795 118.82 214.454 119.646 214.158 120.489C214.091 120.671 214.042 120.847 214.006 120.969C214.141 121.137 214.285 121.297 214.437 121.449C215.092 122.083 215.804 122.653 216.566 123.152Z" fill="#263238"/>
<path d="M226.641 128.673L225.157 134.663L229.219 136.274C229.219 136.274 231.767 132.547 231.883 131.258C231.998 129.968 226.641 128.673 226.641 128.673Z" fill="#CE7A63"/>
<path d="M227.523 125.481C227.523 125.481 228.185 132.99 225.65 135.946C225.65 135.946 239.435 140.39 249.619 135.946C249.619 135.946 251.34 130.09 249.619 125.481C242.305 126.714 234.837 126.714 227.523 125.481Z" fill="#263238"/>
<path opacity="0.1" d="M227.523 125.481C227.523 125.481 228.185 132.99 225.65 135.946C225.65 135.946 239.435 140.39 249.619 135.946C249.619 135.946 251.34 130.09 249.619 125.481C242.305 126.714 234.837 126.714 227.523 125.481Z" fill="#F0F0F0"/>
<path d="M71.9151 98.957C71.3618 99.0603 70.9423 99.1272 70.468 99.2002L69.0877 99.3765C68.1635 99.4677 67.2635 99.5468 66.321 99.5893C64.4527 99.6855 62.58 99.6612 60.7148 99.5164C59.7662 99.4434 58.8055 99.3218 57.8387 99.1576C56.8497 99.002 55.8709 98.7867 54.9079 98.5131C53.8878 98.2251 52.89 97.8633 51.9223 97.4307C51.4091 97.1981 50.9097 96.9362 50.4265 96.6464C50.1833 96.5065 49.934 96.3423 49.6908 96.1781L49.3259 95.9288L49.1678 95.8133L48.9793 95.6674C48.8731 95.5861 48.7716 95.4988 48.6753 95.4059C48.1694 94.9238 47.7205 94.3852 47.3376 93.8006C47.0275 93.3385 46.766 92.9007 46.5289 92.4751C46.0485 91.6238 45.6472 90.7908 45.2641 89.9638C44.4919 88.3221 43.823 86.6864 43.1906 85.0447C41.9259 81.7612 40.2537 77.0548 40.0166 74.1848C40.3814 72.9079 41.6462 73.3883 43.7501 73.4977C45.41 76.4772 47.0761 79.481 48.7483 82.4118C49.5874 83.8711 50.4387 85.3244 51.296 86.6986C51.7277 87.3857 52.1777 88.0545 52.6094 88.6565C52.8222 88.9545 53.0411 89.2342 53.2175 89.4652C53.3938 89.6963 53.6249 89.8909 53.5762 89.8057L53.5215 89.7449L53.4546 89.6963L53.6431 89.7875C53.7648 89.8527 53.8907 89.9096 54.0201 89.9578C54.2755 90.0733 54.5674 90.1645 54.8531 90.2679C55.485 90.4736 56.1314 90.6321 56.7868 90.7421C58.2376 90.9875 59.7055 91.1177 61.1769 91.1313C62.7031 91.1739 64.278 91.1313 65.8589 91.0218C66.6433 90.9671 67.4399 90.9124 68.2303 90.8273L69.4039 90.7117L70.5105 90.5901L71.9151 98.957Z" fill="#263238"/>
<path d="M44.7353 69.7275C44.7873 70.4406 44.7111 71.1573 44.5103 71.8436L43.6225 74.5494C43.58 75.6378 40.5823 75.6865 40.108 74.4825L38.9648 71.2659C38.0406 69.916 37.0799 67.6176 37.1407 65.8846C37.1659 65.0885 37.2533 64.2957 37.4021 63.5132C37.4366 63.3375 37.5095 63.1715 37.6156 63.0272C37.7216 62.8829 37.8582 62.7638 38.0157 62.6784C38.1731 62.593 38.3474 62.5434 38.5262 62.5332C38.705 62.523 38.8839 62.5524 39.05 62.6194C40.3858 63.0894 41.6022 63.8471 42.6132 64.8388C42.5827 64.4599 42.6094 64.0787 42.6922 63.7078C42.9537 63.0389 43.7259 64.4374 44.5589 65.8968C45.1244 66.8818 44.9055 68.6695 44.7353 69.7275Z" fill="#FFC3BD"/>
<path d="M38.7703 72.5246L41.9747 71.7037C42.2897 71.5574 42.5551 71.3224 42.7387 71.0276C42.9223 70.7328 43.016 70.391 43.0084 70.0438L42.6558 61.7134C42.6558 61.2574 42.3761 61.0081 42.0477 61.1054L38.825 61.9201C38.5129 62.0702 38.25 62.306 38.0669 62.5999C37.8839 62.8939 37.7883 63.2339 37.7913 63.5801L38.144 71.9105C38.1501 72.3665 38.4115 72.6158 38.7703 72.5246Z" fill="#263238"/>
<g opacity="0.3">
<path d="M38.7703 72.5251L41.9747 71.7042C42.2897 71.5578 42.5551 71.3229 42.7387 71.0281C42.9223 70.7333 43.016 70.3914 43.0084 70.0442L42.6558 61.7139C42.6558 61.2579 42.3761 61.0086 42.0477 61.1058L38.825 61.9206C38.5129 62.0707 38.25 62.3065 38.0669 62.6004C37.8839 62.8944 37.7883 63.2344 37.7913 63.5806L38.144 71.911C38.1501 72.367 38.4115 72.6163 38.7703 72.5251Z" fill="white"/>
</g>
<path d="M39.0927 72.4455L42.2971 71.6186C42.6125 71.4745 42.8786 71.2409 43.0624 70.9469C43.2462 70.6529 43.3395 70.3113 43.3308 69.9647L42.9842 61.6343C42.9842 61.1783 42.6984 60.929 42.3397 61.0263L39.1352 61.8471C38.8205 61.9932 38.5554 62.2282 38.3728 62.5232C38.1902 62.8182 38.098 63.1603 38.1076 63.5071L38.4542 71.8314C38.4725 72.2874 38.7339 72.5367 39.0927 72.4455Z" fill="#263238"/>
<g opacity="0.4">
<path d="M39.0805 71.7947L38.7339 63.4583C38.7342 63.2548 38.7856 63.0547 38.8834 62.8762C38.9811 62.6977 39.122 62.5466 39.2933 62.4367L42.3336 61.6523L42.6802 69.9766C42.6798 70.1801 42.6284 70.3802 42.5307 70.5587C42.433 70.7372 42.292 70.8883 42.1208 70.9981L39.0805 71.7947Z" fill="white"/>
</g>
<path d="M80.872 210.272L92.0298 215.763L92.352 219.928L78.7803 216.967L80.872 210.272Z" fill="#FFC3BD"/>
<path d="M91.3002 218.513C91.0708 218.704 90.8973 218.953 90.7977 219.235C90.6982 219.516 90.6764 219.819 90.7347 220.112C91.0205 220.969 92.4555 222.046 92.4555 222.046C92.4555 222.046 93.9634 226.721 94.0425 227.998C94.1215 229.275 94.8391 230.364 97.326 230.722L97.3746 215.162C97.3746 215.162 91.7562 214.834 90.7955 214.785C89.8348 214.737 91.0265 216.202 91.0265 216.202L91.3002 218.513Z" fill="#263238"/>
<path d="M92.9418 214.991C93.2341 215.571 93.7438 216.013 94.36 216.219C94.9761 216.425 95.6488 216.379 96.2314 216.092C96.3713 216.019 96.4929 216.225 96.347 216.292C95.713 216.615 94.9768 216.674 94.2997 216.455C93.6226 216.236 93.06 215.758 92.7351 215.125C92.6561 214.991 92.8689 214.857 92.9418 214.991Z" fill="white"/>
<path d="M96.4747 215.241L96.5659 227.493V230.297C96.5659 230.449 96.3288 230.461 96.3288 230.297L96.2375 218.044V215.241C96.2375 215.089 96.4747 215.077 96.4747 215.241Z" fill="white"/>
<path d="M93.4345 221.442C93.2528 221.557 93.0968 221.707 92.9766 221.885C92.8564 222.063 92.7745 222.263 92.7362 222.474C92.6978 222.686 92.7039 222.902 92.754 223.111C92.8041 223.32 92.8971 223.515 93.0271 223.686C93.1183 223.808 92.9055 223.935 92.8143 223.82C92.6682 223.621 92.5648 223.394 92.5107 223.154C92.4565 222.913 92.4527 222.664 92.4996 222.422C92.5464 222.18 92.6428 221.95 92.7828 221.747C92.9228 221.544 93.1032 221.372 93.3129 221.242C93.4406 221.144 93.5622 221.351 93.4345 221.442Z" fill="white"/>
<path d="M93.8356 222.769C93.6534 222.882 93.4969 223.032 93.3761 223.21C93.2553 223.387 93.1728 223.588 93.1339 223.799C93.095 224.01 93.1005 224.227 93.1502 224.436C93.1998 224.645 93.2924 224.841 93.4221 225.012C93.5194 225.134 93.3066 225.262 93.2154 225.146C93.0693 224.947 92.966 224.721 92.9118 224.48C92.8576 224.239 92.8539 223.99 92.9007 223.748C92.9475 223.506 93.044 223.276 93.1839 223.073C93.3239 222.87 93.5044 222.698 93.714 222.568C93.8417 222.471 93.9633 222.677 93.8356 222.769Z" fill="white"/>
<path d="M94.2371 224.131C94.0542 224.244 93.897 224.394 93.7756 224.572C93.6543 224.749 93.5715 224.95 93.5325 225.162C93.4935 225.373 93.4993 225.59 93.5495 225.799C93.5996 226.008 93.693 226.204 93.8236 226.375C93.9209 226.491 93.7081 226.624 93.6169 226.503C93.4709 226.305 93.3677 226.078 93.3136 225.838C93.2595 225.598 93.2557 225.349 93.3026 225.108C93.3494 224.866 93.4459 224.637 93.5858 224.434C93.7257 224.231 93.906 224.06 94.1155 223.931C94.2432 223.833 94.3648 224.034 94.2371 224.131Z" fill="white"/>
<path d="M83.9 219.929C83.9408 219.932 83.9804 219.945 84.0156 219.966C83.4927 219.443 81.0239 219.437 80.3672 219.163C63.9619 212.62 43.5739 196.014 41.5247 185.866C40.0836 178.776 51.8069 148.951 57.6746 131.98C58.0152 130.995 58.3354 130.085 58.6354 129.25C58.988 128.253 59.3103 127.371 59.59 126.635L70.5897 131.761L71.6113 132.235L73.0219 132.892C73.0219 132.892 72.4686 134.808 71.5687 137.975C67.4704 152.435 57.0848 184.072 58.982 187.076C59.7603 188.292 86.4295 212.255 86.4295 212.255L83.9 219.929Z" fill="#6ABC35"/>
<path d="M85.1344 210.231L80.9692 220.44L84.2771 221.298L88.2477 211.745L85.1344 210.231Z" fill="#263238"/>
<g opacity="0.2">
<path d="M66.1449 144.396L55.3823 203.742C54.0385 202.727 51.2476 199.978 49.4234 198.148C49.4234 198.148 48.2863 197.218 48.3897 194.05C48.7302 183.36 66.1449 144.396 66.1449 144.396Z" fill="black"/>
</g>
<g opacity="0.2">
<path d="M42.9781 186.417C44.243 186.971 45.6677 187.038 46.9791 186.606C47.0266 186.589 47.0655 186.554 47.0872 186.508C47.1089 186.463 47.1115 186.41 47.0946 186.363C47.0777 186.315 47.0425 186.276 46.9969 186.255C46.9513 186.233 46.8989 186.23 46.8514 186.247C45.6357 186.645 44.3163 186.585 43.1422 186.077C42.9172 185.98 42.747 186.32 42.9781 186.417Z" fill="black"/>
</g>
<path opacity="0.2" d="M65.6584 193.412L66.7955 194.457L69.0027 213.447L66.1449 211.665L65.6584 193.412Z" fill="black"/>
<g opacity="0.2">
<path d="M61.6271 129.688C61.3444 131.385 60.6989 133.002 59.7345 134.427C58.7701 135.852 57.5096 137.052 56.039 137.945C55.7897 138.097 56.039 138.493 56.2701 138.34C57.7886 137.418 59.0919 136.181 60.0925 134.712C61.0931 133.244 61.7677 131.578 62.0709 129.828C62.1196 129.542 61.6757 129.414 61.6271 129.706V129.688Z" fill="black"/>
</g>
<path d="M68.8628 236.864L70.0242 247.542L65.5368 247.907L62.0161 237.405L68.8628 236.864Z" fill="#FFC3BD"/>
<path d="M66.528 246.854C66.3369 246.624 66.0875 246.451 65.8061 246.351C65.5246 246.252 65.2216 246.23 64.9288 246.288C64.0715 246.58 63.0013 248.015 63.0013 248.015C63.0013 248.015 58.3314 249.523 57.0667 249.62C55.8019 249.718 54.7013 250.429 54.3547 252.916H69.8966C69.8966 252.916 70.2128 247.297 70.2554 246.331C70.2979 245.364 68.8386 246.574 68.8386 246.574L66.528 246.854Z" fill="#263238"/>
<path d="M70.0547 248.466C69.7655 248.609 69.5077 248.808 69.2961 249.051C69.0844 249.294 68.9233 249.577 68.822 249.883C68.7208 250.189 68.6813 250.512 68.7061 250.834C68.7309 251.155 68.8193 251.469 68.9662 251.756C69.0392 251.896 68.8385 252.017 68.7656 251.877C68.4412 251.244 68.3807 250.508 68.5971 249.83C68.8136 249.152 69.2895 248.588 69.9209 248.259C70.0547 248.18 70.1884 248.387 70.0547 248.466Z" fill="white"/>
<path d="M69.8359 252.016L57.5836 252.144L54.7805 252.174C54.6285 252.174 54.6163 251.937 54.7805 251.931L67.0328 251.803H69.8359C69.9879 251.803 70.0001 252.04 69.8359 252.04V252.016Z" fill="white"/>
<path d="M63.6032 248.993C63.4893 248.811 63.3385 248.655 63.1606 248.535C62.9827 248.415 62.7816 248.333 62.5703 248.295C62.3589 248.257 62.142 248.264 61.9335 248.315C61.725 248.366 61.5294 248.461 61.3595 248.592C61.244 248.683 61.1102 248.476 61.2257 248.385C61.4234 248.238 61.6495 248.133 61.8898 248.077C62.1301 248.022 62.3793 248.016 62.6216 248.062C62.864 248.108 63.0942 248.203 63.2977 248.343C63.5012 248.482 63.6736 248.662 63.8039 248.871C63.9012 248.999 63.7005 249.121 63.6032 248.993Z" fill="white"/>
<path d="M62.2836 249.401C62.1697 249.219 62.0189 249.063 61.841 248.943C61.6631 248.823 61.462 248.741 61.2507 248.703C61.0394 248.666 60.8225 248.672 60.6139 248.724C60.4054 248.775 60.2099 248.869 60.0399 249C59.9244 249.091 59.7906 248.878 59.9061 248.787C60.1045 248.641 60.331 248.537 60.5713 248.482C60.8117 248.428 61.0608 248.423 61.3029 248.47C61.545 248.516 61.7749 248.612 61.9783 248.751C62.1816 248.891 62.3539 249.07 62.4843 249.28C62.5816 249.407 62.3809 249.523 62.2836 249.401Z" fill="white"/>
<path d="M60.9218 249.802C60.8072 249.621 60.6562 249.466 60.4782 249.346C60.3003 249.226 60.0994 249.145 59.8884 249.107C59.6773 249.07 59.4607 249.076 59.2523 249.127C59.044 249.177 58.8484 249.271 58.6781 249.401C58.5626 249.492 58.4288 249.285 58.5443 249.194C58.7441 249.053 58.9704 248.953 59.2096 248.901C59.4488 248.849 59.696 248.845 59.9366 248.891C60.1772 248.936 60.4062 249.029 60.6099 249.165C60.8136 249.301 60.9879 249.476 61.1225 249.681C61.2198 249.808 61.0191 249.93 60.9218 249.802Z" fill="white"/>
<path d="M86.077 140.907C83.1583 158.224 65.1417 188.627 65.1417 188.627C65.1417 190.658 66.3578 197.377 66.6618 201.937C66.9354 205.956 67.2699 210.602 67.6712 215.235C68.6927 227.713 69.8419 240.117 69.8419 240.117L61.8582 240.725C61.8582 240.725 55.8506 223.444 53.0231 208.133C51.9408 202.314 50.3112 193.826 50.6335 189.636C51.503 178.454 64.6187 149.559 69.4224 137.21C70.6385 134.109 71.3864 132.236 71.3864 132.236H72.8761H85.5541C86.0717 133.109 86.3759 134.093 86.4418 135.106C86.5671 137.047 86.4445 138.996 86.077 140.907Z" fill="#6ABC35"/>
<path d="M70.8816 237.209L59.9548 238.651L60.8487 241.952L71.1126 240.663L70.8816 237.209Z" fill="#263238"/>
<g opacity="0.2">
<path d="M52.1475 191.058C53.402 191.637 54.8244 191.739 56.1485 191.344C56.1969 191.33 56.2378 191.298 56.2623 191.254C56.2868 191.21 56.2929 191.158 56.2792 191.11C56.2655 191.061 56.2331 191.021 56.1892 190.996C56.1453 190.972 56.0935 190.965 56.0451 190.979C54.8215 191.349 53.5051 191.26 52.3421 190.73C52.1232 190.626 51.9286 190.955 52.1475 191.058Z" fill="black"/>
</g>
<g opacity="0.2">
<path d="M78.6708 134.347C78.0147 135.417 77.5906 136.612 77.426 137.857C77.2614 139.101 77.36 140.366 77.7154 141.57C78.0708 142.774 78.6751 143.889 79.4891 144.845C80.3031 145.8 81.3087 146.574 82.4407 147.116C82.7022 147.243 82.9332 146.848 82.6718 146.721C81.5898 146.209 80.628 145.474 79.8491 144.565C79.0702 143.656 78.4917 142.593 78.1514 141.446C77.8112 140.298 77.7167 139.092 77.8743 137.905C78.0319 136.718 78.438 135.578 79.066 134.559C79.218 134.31 78.8228 134.079 78.6708 134.328V134.347Z" fill="black"/>
</g>
<path d="M96.3529 103.37C89.19 117.356 87.9435 130.022 88.3266 136.935C83.6153 136.957 78.9119 136.55 74.2745 135.719C70.9047 135.141 67.5726 134.361 64.2963 133.384C63.366 133.104 62.4721 132.812 61.7181 132.527C58.7691 131.444 56.9935 130.35 57.2368 129.517C59.669 121.138 61.408 114.255 61.9978 109.451C57.328 104.258 62.7275 102.233 63.7734 96.7488C64.5699 92.5593 68.8263 89.7926 73.5022 90.3399C74.2745 90.4311 75.0649 90.5345 75.8554 90.6439L77.4424 90.8871C80.6523 91.4404 83.8244 92.1938 86.9402 93.143L89.2022 93.8058C90.3089 94.1281 91.3851 94.4807 92.3945 94.8334C96.1644 96.159 98.0129 100.123 96.3529 103.37Z" fill="#263238"/>
<path d="M86.9343 93.1561C85.4567 94.1411 84.0521 96.6585 82.763 99.8021C80.5193 105.275 78.6343 112.638 77.3635 117.265C75.892 122.616 75.965 131.524 74.2746 135.696C70.9053 135.126 67.5732 134.354 64.2964 133.385C66.68 128.369 68.498 115.174 69.5317 106.728C69.9183 103.547 70.7365 100.433 71.964 97.4733C72.9388 95.0348 74.2398 92.7398 75.8312 90.6509L77.4182 90.8941C80.6344 91.4486 83.8126 92.204 86.9343 93.1561Z" fill="white"/>
<path d="M86.9344 93.1554C85.4569 94.1404 84.0523 96.6578 82.7632 99.8014C80.708 101.48 78.2514 102.598 75.6185 101.966C72.9857 101.334 72.0614 99.5338 71.9702 97.4786C72.9451 95.0402 74.246 92.7452 75.8374 90.6562L77.4245 90.8995C80.6384 91.4522 83.8146 92.2056 86.9344 93.1554Z" fill="#FFC3BD"/>
<path d="M94.6991 96.293C96.8456 98.7556 98.8522 101.279 100.822 103.888C101.813 105.195 102.774 106.52 103.735 107.925C104.215 108.643 104.683 109.324 105.218 110.266C105.405 110.597 105.573 110.938 105.723 111.288C105.909 111.754 106.046 112.239 106.131 112.735C106.267 113.627 106.23 114.538 106.021 115.416C105.721 116.59 105.223 117.705 104.55 118.712C104.008 119.551 103.467 120.256 102.932 120.944C101.85 122.287 100.774 123.503 99.6913 124.707C97.7577 126.848 95.8301 128.964 93.86 131.019C93.6595 131.231 93.3908 131.367 93.1007 131.401C92.8106 131.435 92.5177 131.367 92.273 131.207L90.5096 130.064C90.3166 129.936 90.1764 129.742 90.1149 129.519C90.0535 129.295 90.0749 129.057 90.1752 128.848C91.5433 126.155 92.9844 123.376 94.5411 120.864C95.3862 119.496 96.2497 118.146 97.0037 116.851C97.3605 116.26 97.6872 115.651 97.9826 115.027C98.1769 114.674 98.2988 114.285 98.3414 113.884C98.3414 113.841 98.2806 113.963 98.2988 114.17C98.3171 114.377 98.463 114.705 98.2988 114.425C97.9948 113.993 97.5266 113.367 97.0827 112.783C96.1463 111.567 95.1369 110.351 94.1458 109.135C92.1453 106.703 90.1022 104.216 88.1504 101.723L94.6991 96.293Z" fill="#263238"/>
<path d="M90.3941 129.408C90.3941 129.408 88.2172 131.044 87.3538 132.838C86.4904 134.632 87.1349 137.094 87.445 138.012C87.7551 138.93 88.6125 139.374 89.7252 139.417C90.838 139.46 91.2028 137.921 91.5494 136.875C91.5494 136.875 91.373 138.256 91.7683 138.365C92.1635 138.474 92.9175 136.328 93.1182 134.619C93.3188 132.911 93.6897 131.439 93.5985 130.314C93.5073 129.189 91.7865 128.654 90.3941 129.408Z" fill="#FFC3BD"/>
<path d="M80.039 89.1672L84.9642 71.1871C84.9642 71.1871 79.589 66.7604 74.8097 71.7951C70.7418 76.1002 73.6301 81.0315 70.9972 85.677C70.0973 87.2701 69.3433 88.0119 68.8386 89.1612C71.3073 90.3043 75.3874 89.6476 80.039 89.1672Z" fill="#6ABC35"/>
<path d="M81.7597 89.6713C84.3804 89.3186 87.676 90.103 90.9717 90.4435C90.9048 90.2976 90.5217 89.3794 90.4488 89.2274C89.5914 87.2877 92.7168 84.9042 91.7317 82.2713C90.7467 79.6384 90.8501 79.912 91.0751 76.6224C91.3608 72.3965 83.9 68.3529 82.5319 71.1074C82.5319 71.1074 81.1151 73.2903 82.7021 77.4859C84.2892 81.6815 84.4655 83.0435 82.7994 84.6427C81.5894 85.8041 81.559 87.683 81.7597 89.6713Z" fill="#6ABC35"/>
<path d="M78.543 94.5241L78.2573 94.4816C77.9108 94.4125 77.5886 94.2534 77.323 94.0203C77.0575 93.7872 76.858 93.4883 76.7447 93.1537C76.6313 92.8191 76.608 92.4605 76.6771 92.114C76.7462 91.7675 76.9053 91.4453 77.1384 91.1798C77.5334 90.6702 77.7664 90.0538 77.8073 89.4104C77.8664 88.7534 77.8439 88.0917 77.7404 87.4403L78.7619 86.7471L83.9122 83.7798C83.067 86.4735 82.0333 90.7663 83.7541 92.8276C82.6123 93.7397 81.244 94.324 79.7956 94.518C79.3792 94.5596 78.9598 94.5616 78.543 94.5241Z" fill="#FFC3BD"/>
<path d="M77.3696 98.3844C77.1076 98.3832 76.8472 98.3422 76.5974 98.2628C76.3009 98.1752 76.0289 98.0197 75.803 97.8086C75.5771 97.5975 75.4036 97.3366 75.2962 97.0467C74.451 94.8759 76.6765 90.9053 76.7677 90.7412C76.7772 90.7236 76.7901 90.708 76.8057 90.6954C76.8213 90.6828 76.8392 90.6735 76.8584 90.6678C76.8776 90.6622 76.8977 90.6603 76.9176 90.6625C76.9376 90.6647 76.9568 90.6707 76.9744 90.6804C77.0088 90.7007 77.0342 90.7334 77.0455 90.7718C77.0568 90.8101 77.0531 90.8513 77.0352 90.8871C77.0352 90.9297 74.7854 94.9003 75.5759 96.9372C75.6684 97.1844 75.818 97.4063 76.0124 97.5849C76.2068 97.7634 76.4405 97.8936 76.6947 97.9649C79.8201 98.9803 83.8697 92.3282 83.9123 92.2613C83.9333 92.2266 83.9672 92.2017 84.0065 92.192C84.0458 92.1823 84.0874 92.1887 84.1221 92.2096C84.1568 92.2306 84.1817 92.2645 84.1914 92.3038C84.2011 92.3431 84.1947 92.3847 84.1738 92.4194C84.0157 92.6869 80.5376 98.3844 77.3696 98.3844Z" fill="white"/>
<g opacity="0.2">
<path d="M77.8074 89.4108C77.8665 88.7539 77.844 88.0922 77.7405 87.4407L78.762 86.7476L81.1152 87.0881C81.1152 87.0881 79.6254 89.1676 77.8074 89.4108Z" fill="black"/>
</g>
<path d="M86.4052 79.3835C85.0249 83.8041 84.6296 84.929 81.8326 86.6802C77.6249 89.3191 72.505 87.4463 72.5598 82.7035C72.6145 78.4471 74.8704 71.9166 79.6254 71.193C84.3803 70.4694 87.7915 74.9508 86.4052 79.3774" fill="#FFC3BD"/>
<path d="M86.2532 73.7956C86.2532 73.7956 84.429 71.3634 82.8967 75.3766C82.4103 76.6292 76.8162 74.58 74.992 74.0449C73.1678 73.5098 77.1688 70.5668 79.1937 70.0135C81.2185 69.4602 85.8944 72.4397 86.2532 73.7956Z" fill="#6ABC35"/>
<path d="M74.2747 81.9136C75.5239 82.1908 76.8116 82.2504 78.0811 82.0899C78.0811 82.0899 77.0109 83.8107 75.6489 83.6404C74.2868 83.4702 74.2747 81.9136 74.2747 81.9136Z" fill="white"/>
<path d="M78.9201 78.5509C78.8289 78.9157 78.5614 79.1589 78.3121 79.1042C78.0628 79.0495 77.9533 78.7029 78.0445 78.3381C78.1358 77.9732 78.4033 77.73 78.6526 77.7786C78.9019 77.8273 79.0114 78.186 78.9201 78.5509Z" fill="#263238"/>
<path d="M75.0832 77.6986C74.992 78.0635 74.7245 78.3067 74.4752 78.258C74.2259 78.2094 74.1164 77.8507 74.2076 77.4858C74.2988 77.121 74.5664 76.8778 74.8157 76.9325C75.065 76.9872 75.1744 77.3338 75.0832 77.6986Z" fill="#263238"/>
<path d="M74.9132 76.9755L74.0984 76.5073C74.0984 76.5073 74.3781 77.3039 74.9132 76.9755Z" fill="#263238"/>
<path d="M76.1534 78.0513C76.1534 78.0513 75.2839 78.8661 74.3901 79.541C74.3231 79.5933 74.2689 79.6602 74.2317 79.7366C74.1944 79.813 74.175 79.8969 74.175 79.9818C74.175 80.0668 74.1944 80.1507 74.2317 80.2271C74.2689 80.3035 74.3231 80.3704 74.3901 80.4227C74.7101 80.6844 75.0589 80.9089 75.4298 81.0915L76.1534 78.0513Z" fill="#ED847E"/>
<path d="M80.1726 77.4429C80.1422 77.4398 80.1131 77.4293 80.0877 77.4123C80.0622 77.3954 80.0413 77.3725 80.0267 77.3456C79.8792 77.1104 79.6786 76.9131 79.441 76.7695C79.2034 76.6259 78.9354 76.54 78.6586 76.5187C78.6263 76.524 78.5933 76.5223 78.5619 76.5136C78.5304 76.5049 78.5012 76.4895 78.4762 76.4684C78.4513 76.4473 78.4313 76.421 78.4176 76.3913C78.4038 76.3617 78.3967 76.3294 78.3967 76.2968C78.3967 76.2641 78.4038 76.2318 78.4176 76.2022C78.4313 76.1726 78.4513 76.1463 78.4762 76.1251C78.5012 76.104 78.5304 76.0886 78.5619 76.0799C78.5933 76.0712 78.6263 76.0695 78.6586 76.0748C79.0094 76.0948 79.3504 76.1986 79.6529 76.3774C79.9555 76.5561 80.2108 76.8048 80.3976 77.1024C80.4297 77.1525 80.4407 77.2132 80.4281 77.2713C80.4156 77.3294 80.3806 77.3802 80.3307 77.4125C80.3077 77.4279 80.2819 77.4385 80.2548 77.4438C80.2276 77.449 80.1997 77.4487 80.1726 77.4429Z" fill="#263238"/>
<path d="M73.8611 75.9911C73.8068 75.9745 73.761 75.9374 73.7334 75.8877C73.7185 75.8623 73.7088 75.8341 73.705 75.8049C73.7012 75.7756 73.7033 75.7459 73.7112 75.7175C73.7192 75.6891 73.7328 75.6627 73.7512 75.6396C73.7697 75.6166 73.7926 75.5976 73.8186 75.5837C74.1206 75.4055 74.4608 75.302 74.8109 75.2819C75.161 75.2618 75.5108 75.3257 75.8312 75.4681C75.8574 75.481 75.8808 75.499 75.8999 75.5211C75.9191 75.5432 75.9336 75.5688 75.9427 75.5966C75.9517 75.6244 75.9552 75.6537 75.9527 75.6828C75.9503 75.7119 75.9421 75.7402 75.9285 75.7661C75.9012 75.8179 75.8549 75.857 75.7993 75.8751C75.7436 75.8933 75.6831 75.8891 75.6306 75.8634C75.3749 75.7526 75.0966 75.7042 74.8185 75.7222C74.5404 75.7401 74.2706 75.824 74.0314 75.9667C74.0045 75.9785 73.9755 75.9845 73.9462 75.9845C73.917 75.9845 73.888 75.9785 73.8611 75.9667" fill="#263238"/>
<path d="M78.756 77.8273L77.9412 77.353C77.9412 77.353 78.2209 78.1557 78.756 77.8273Z" fill="#263238"/>
<path d="M89.9927 76.7872C89.2631 79.0491 89.4455 79.7241 89.9502 80.7152L85.6451 82.7096C85.6087 82.588 85.3168 82.3691 84.9398 82.0529C84.8 81.9435 84.654 81.8158 84.502 81.6759C83.596 80.849 82.5502 79.5721 82.9697 77.8695C83.0852 77.3892 83.1704 76.9331 83.2312 76.5075C83.292 76.0818 83.3224 75.6684 83.3406 75.2914C83.4624 73.847 83.1759 72.3974 82.5137 71.108C83.4987 69.4723 91.3609 72.5794 89.9927 76.7872Z" fill="#6ABC35"/>
<path d="M86.2532 81.9129L84.9398 82.0528C84.8 81.9433 84.654 81.8156 84.502 81.6758C83.596 80.8488 82.5502 79.5719 82.9697 77.8694C83.0853 77.389 83.1704 76.933 83.2312 76.5073C84.5747 76.5878 85.8786 76.9925 87.0315 77.6869C88.8496 78.9456 86.2532 81.9129 86.2532 81.9129Z" fill="#FFC3BD"/>
<g opacity="0.2">
<path d="M86.2532 81.9129L84.9398 82.0528C84.8 81.9433 84.654 81.8156 84.502 81.6758C83.596 80.8488 82.5502 79.5719 82.9697 77.8694C83.0853 77.389 83.1704 76.933 83.2312 76.5073C84.5747 76.5878 85.8786 76.9925 87.0315 77.6869C88.8496 78.9456 86.2532 81.9129 86.2532 81.9129Z" fill="black"/>
</g>
<path d="M87.2321 82.9161C86.9744 83.2497 86.6486 83.5247 86.2764 83.7229C85.9043 83.921 85.4942 84.0377 85.0735 84.0653C84.0033 84.0653 83.7784 82.8492 84.3378 81.8398C84.8364 80.8973 85.9917 79.7542 86.9403 80.2163C87.8888 80.6784 87.9375 82.0405 87.2321 82.9161Z" fill="#FFC3BD"/>
<path d="M84.7941 84.4551C84.8997 84.56 85.0341 84.6313 85.1802 84.6599C85.3263 84.6886 85.4776 84.6733 85.6151 84.6161C85.7525 84.5588 85.87 84.4622 85.9526 84.3383C86.0352 84.2145 86.0793 84.0689 86.0793 83.92C86.0793 83.7711 86.0352 83.6256 85.9526 83.5017C85.87 83.3778 85.7525 83.2812 85.6151 83.2239C85.4776 83.1667 85.3263 83.1515 85.1802 83.1801C85.0341 83.2088 84.8997 83.28 84.7941 83.3849C84.7235 83.455 84.6674 83.5384 84.6292 83.6302C84.591 83.722 84.5713 83.8205 84.5713 83.92C84.5713 84.0195 84.591 84.118 84.6292 84.2098C84.6674 84.3017 84.7235 84.385 84.7941 84.4551Z" fill="white"/>
<path d="M72.3653 75.9478L76.1839 76.8234C76.1839 76.8234 75.5333 79.3225 73.6544 79.2556C71.7755 79.1887 72.3653 75.9478 72.3653 75.9478Z" fill="#263238"/>
<path d="M76.9501 77.0547L81.2064 77.76C81.2064 77.76 80.5984 80.2774 78.5614 80.2956C76.5244 80.3139 76.9501 77.0547 76.9501 77.0547Z" fill="#263238"/>
<path d="M77.0352 77.6192C76.8887 77.4463 76.699 77.3152 76.4854 77.2394C76.2718 77.1635 76.0419 77.1456 75.8191 77.1875L75.7583 76.92C76.0336 76.8641 76.319 76.8845 76.5836 76.9787C76.8483 77.073 77.0822 77.2377 77.2602 77.4551L77.0352 77.6192Z" fill="#263238"/>
<path d="M85.7487 80.2758C85.5569 79.9131 85.2911 79.5947 84.9685 79.3413C84.6459 79.0878 84.2737 78.9049 83.8759 78.8043C82.3922 78.3787 80.9633 78.0078 80.9451 78.0017L81.018 77.7402C81.018 77.7402 82.4591 78.1172 83.9489 78.5429C84.3884 78.6509 84.7995 78.8523 85.1542 79.1335C85.5088 79.4148 85.7987 79.7691 86.0041 80.1725L85.7487 80.2758Z" fill="#263238"/>
</g>
<defs>
<clipPath id="clip0_939_11057">
<rect width="304.027" height="304.027" fill="white" transform="translate(0.517578 -16.8032)"/>
</clipPath>
</defs>
</svg>
